<?xml version="1.0" encoding="UTF-8" standalone="no"?>
<svg
   xmlns:dc="http://purl.org/dc/elements/1.1/"
   xmlns:cc="http://creativecommons.org/ns#"
   xmlns:rdf="http://www.w3.org/1999/02/22-rdf-syntax-ns#"
   xmlns:svg="http://www.w3.org/2000/svg"
   xmlns="http://www.w3.org/2000/svg"
   xmlns:sodipodi="http://sodipodi.sourceforge.net/DTD/sodipodi-0.dtd"
   xmlns:inkscape="http://www.inkscape.org/namespaces/inkscape"
   width="6.8533921mm"
   height="12.613407mm"
   viewBox="0 0 6.8533921 12.613407"
   version="1.1"
   id="svg8"
   inkscape:version="1.0.2-2 (e86c870879, 2021-01-15)"
   sodipodi:docname="Feuille 006' Hover.svg">
  <defs
     id="defs2">
    <inkscape:path-effect
       effect="spiro"
       id="path-effect11046"
       is_visible="true"
       lpeversion="0" />
    <inkscape:path-effect
       effect="spiro"
       id="path-effect11579"
       is_visible="true"
       lpeversion="0" />
  </defs>
  <sodipodi:namedview
     id="base"
     pagecolor="#ffffff"
     bordercolor="#666666"
     borderopacity="1.0"
     inkscape:pageopacity="0.0"
     inkscape:pageshadow="2"
     inkscape:zoom="3.959798"
     inkscape:cx="27.810696"
     inkscape:cy="33.918977"
     inkscape:document-units="mm"
     inkscape:current-layer="layer1"
     inkscape:document-rotation="0"
     showgrid="false"
     fit-margin-top="0"
     fit-margin-left="0"
     fit-margin-right="0"
     fit-margin-bottom="0"
     inkscape:window-width="958"
     inkscape:window-height="1018"
     inkscape:window-x="946"
     inkscape:window-y="0"
     inkscape:window-maximized="0" />
  <metadata
     id="metadata5">
    <rdf:RDF>
      <cc:Work
         rdf:about="">
        <dc:format>image/svg+xml</dc:format>
        <dc:type
           rdf:resource="http://purl.org/dc/dcmitype/StillImage" />
        <dc:title></dc:title>
      </cc:Work>
    </rdf:RDF>
  </metadata>
  <g
     inkscape:label="Calque 1"
     inkscape:groupmode="layer"
     id="layer1"
     transform="translate(-110.15561,-154.26306)">
    <path
       inkscape:original-d="m 115.68117,154.34978 c 0.21722,0.0254 0.57626,0.53625 0.86413,0.80478 0.2876,0.26852 0.17489,0.72982 0.26194,1.09511 0.0871,0.36531 0.0185,1.18663 0.0283,1.78033 0.008,0.59372 -0.25294,1.70783 -0.37968,2.56214 -0.127,0.85432 -1.18269,2.13821 -1.77429,3.2077 -0.59161,1.06953 -0.39767,0.702 -0.5969,1.05339 -0.19924,0.35139 -0.85302,0.73694 -1.28006,1.1058 -0.42677,0.36888 -1.00515,0.18688 -1.50812,0.28072 -0.50319,0.0939 -0.0579,0.0241 -0.0873,0.0364 -0.0294,0.0124 -0.0275,0.60032 -0.0275,0.60032 0,0 -0.25691,-0.38002 -0.38545,-0.56963 -0.12885,-0.18962 -0.40825,-1.58189 -0.61277,-2.37243 -0.20426,-0.79055 0.0238,-1.31993 0.0341,-1.97948 0.0106,-0.65958 0.66723,-2.36834 1.0006,-3.55212 0.33338,-1.18374 0.94403,-1.47468 1.41552,-2.21162 0.47149,-0.73694 1.11601,-1.09432 1.67376,-1.64111 0.55774,-0.54676 0.48127,-0.18375 0.72151,-0.27524 0.23998,-0.0915 0.43498,0.0497 0.6522,0.075 z"
       inkscape:path-effect="#path-effect11579"
       inkscape:connector-curvature="0"
       id="path1258-3-2-6-97-1-5-6-3"
       d="m 115.68117,154.34978 c 0.36974,0.15699 0.68127,0.44713 0.86413,0.80478 0.17196,0.33634 0.22913,0.71879 0.26194,1.09511 0.0516,0.59165 0.049,1.1868 0.0283,1.78033 -0.0302,0.86603 -0.10119,1.74156 -0.37968,2.56214 -0.39354,1.15957 -1.17533,2.13965 -1.77429,3.2077 -0.19746,0.35211 -0.37593,0.71554 -0.5969,1.05339 -0.31445,0.48078 -0.73621,0.9207 -1.28006,1.1058 -0.48511,0.1651 -1.02366,0.11373 -1.50812,0.28072 -0.0298,0.0103 -0.0595,0.0214 -0.0873,0.0364 -0.053,0.0285 -0.0984,0.071 -0.13043,0.12196 -0.032,0.051 -0.0506,0.11029 -0.0534,0.17041 -0.003,0.0601 0.0103,0.1209 0.0376,0.17457 0.0272,0.0537 0.0686,0.10011 0.11873,0.13338 -0.1452,-0.17782 -0.27438,-0.36872 -0.38545,-0.56963 -0.39835,-0.72053 -0.5545,-1.55118 -0.61277,-2.37243 -0.0468,-0.6591 -0.0342,-1.32226 0.0341,-1.97948 0.12778,-1.22999 0.45322,-2.44326 1.0006,-3.55212 0.38804,-0.78609 0.88403,-1.51445 1.41552,-2.21162 0.47675,-0.62537 0.99735,-1.24005 1.67376,-1.64111 0.22293,-0.13218 0.46465,-0.24073 0.72151,-0.27524 0.21912,-0.0294 0.44548,-0.003 0.6522,0.075 z"
       style="fill:#112f25;fill-opacity:1;stroke:none;stroke-width:1.05833;stroke-linecap:round;stroke-linejoin:round;stroke-miterlimit:6.1;stroke-dasharray:none;stroke-opacity:1;paint-order:markers stroke fill" />
    <text
       xml:space="preserve"
       style="font-style:normal;font-variant:normal;font-weight:normal;font-stretch:normal;font-size:4.06202px;line-height:0.758097px;font-family:Respira;-inkscape-font-specification:Respira;font-variant-ligatures:normal;font-variant-caps:normal;font-variant-numeric:normal;font-feature-settings:normal;text-align:start;letter-spacing:0px;word-spacing:0px;writing-mode:lr-tb;text-anchor:start;fill:#fbf7ee;fill-opacity:1;stroke:none;stroke-width:0.0555622"
       x="-87.80484"
       y="179.71538"
       id="text8537-8-1-9-8-2-7-6-8-0-0-2-1-6-6-2"
       transform="rotate(-60.260007)"><tspan
         sodipodi:role="line"
         id="tspan8535-8-6-7-8-5-3-2-3-0-8-4-7-4-3-5"
         x="-87.80484"
         y="179.71538"
         style="font-style:normal;font-variant:normal;font-weight:normal;font-stretch:normal;font-size:4.06202px;font-family:Respira;-inkscape-font-specification:Respira;fill:#fbf7ee;fill-opacity:1;stroke-width:0.0555622">006'</tspan></text>
  </g>
</svg>
