<?xml version="1.0" encoding="UTF-8" standalone="no"?>
<svg
   xmlns:dc="http://purl.org/dc/elements/1.1/"
   xmlns:cc="http://creativecommons.org/ns#"
   xmlns:rdf="http://www.w3.org/1999/02/22-rdf-syntax-ns#"
   xmlns:svg="http://www.w3.org/2000/svg"
   xmlns="http://www.w3.org/2000/svg"
   xmlns:sodipodi="http://sodipodi.sourceforge.net/DTD/sodipodi-0.dtd"
   xmlns:inkscape="http://www.inkscape.org/namespaces/inkscape"
   width="13.745152mm"
   height="14.925223mm"
   viewBox="0 0 13.745152 14.925224"
   version="1.1"
   id="svg8"
   inkscape:version="1.0.2-2 (e86c870879, 2021-01-15)"
   sodipodi:docname="Feuille 003'.svg">
  <defs
     id="defs2">
    <inkscape:path-effect
       effect="spiro"
       id="path-effect11393"
       is_visible="true"
       lpeversion="0" />
    <inkscape:path-effect
       effect="spiro"
       id="path-effect70278"
       is_visible="true"
       lpeversion="0" />
    <inkscape:path-effect
       effect="spiro"
       id="path-effect13497"
       is_visible="true"
       lpeversion="0" />
  </defs>
  <sodipodi:namedview
     id="base"
     pagecolor="#ffffff"
     bordercolor="#666666"
     borderopacity="1.0"
     inkscape:pageopacity="0.0"
     inkscape:pageshadow="2"
     inkscape:zoom="3.959798"
     inkscape:cx="24.907974"
     inkscape:cy="18.832684"
     inkscape:document-units="mm"
     inkscape:current-layer="layer1"
     inkscape:document-rotation="0"
     showgrid="false"
     fit-margin-top="0"
     fit-margin-left="0"
     fit-margin-right="0"
     fit-margin-bottom="0"
     inkscape:window-width="958"
     inkscape:window-height="1018"
     inkscape:window-x="946"
     inkscape:window-y="0"
     inkscape:window-maximized="0" />
  <metadata
     id="metadata5">
    <rdf:RDF>
      <cc:Work
         rdf:about="">
        <dc:format>image/svg+xml</dc:format>
        <dc:type
           rdf:resource="http://purl.org/dc/dcmitype/StillImage" />
        <dc:title />
      </cc:Work>
    </rdf:RDF>
  </metadata>
  <g
     inkscape:label="Calque 1"
     inkscape:groupmode="layer"
     id="layer1"
     transform="translate(-110.92363,-158.25465)">
    <path
       inkscape:original-d="m 118.76282,164.63097 c 0,0 0.51541,-0.47935 0.77259,-0.71864 0.25717,-0.23929 0.74189,-0.96427 1.11257,-1.446 0.37041,-0.48173 0.3638,-0.96943 0.5453,-1.45375 0.18151,-0.48432 -0.0159,-1.07204 -0.0238,-1.60766 -0.008,-0.53563 -0.082,-0.62725 -0.12356,-0.94047 -0.0413,-0.31321 -0.0185,-0.0781 -0.0299,-0.11673 -0.0106,-0.0386 -0.14843,-0.0616 -0.22304,-0.092 -0.0744,-0.0304 -0.2876,0.0836 -0.4318,0.12578 -0.14393,0.0422 -0.36856,0.19717 -0.55324,0.29615 -0.18468,0.099 0.0987,0.14327 0.14763,0.21531 0.0489,0.072 0.37121,0.0907 0.55642,0.13645 0.18521,0.0458 0.0833,0.16288 0.12436,0.24471 0.0413,0.0818 0.0159,0.95848 0.0212,1.43812 0.008,0.47966 -0.78687,1.69682 -1.18083,2.54563 -0.39397,0.84884 -0.20056,0.27787 -0.3011,0.41723 -0.1008,0.13933 -0.33549,0.48148 -0.50376,0.72263 -0.16802,0.24114 0.0894,0.23323 0.0894,0.23323 z"
       inkscape:path-effect="#path-effect13497"
       inkscape:connector-curvature="0"
       id="path1285-2-0-9-2-9-2-8-34-6"
       d="m 118.76282,164.63097 c 0.27006,-0.22559 0.52808,-0.46559 0.77259,-0.71864 0.42366,-0.43845 0.8079,-0.9179 1.11257,-1.446 0.26007,-0.45078 0.4623,-0.93999 0.5453,-1.45375 0.0858,-0.53093 0.0427,-1.07398 -0.0238,-1.60766 -0.0391,-0.31376 -0.0862,-0.6265 -0.12356,-0.94047 -0.005,-0.0402 -0.01,-0.0816 -0.0299,-0.11673 -0.0211,-0.0368 -0.0575,-0.0634 -0.0974,-0.0778 -0.0399,-0.0144 -0.0833,-0.0172 -0.12559,-0.0142 -0.14996,0.0107 -0.28536,0.0918 -0.4318,0.12578 -0.11117,0.0258 -0.22817,0.0243 -0.33678,0.0593 -0.0543,0.0175 -0.10642,0.0446 -0.14679,0.0849 -0.0404,0.0403 -0.0682,0.0948 -0.0697,0.15187 -0.001,0.046 0.0148,0.0917 0.0417,0.12903 0.0269,0.0373 0.0644,0.0664 0.10592,0.0863 0.0873,0.0419 0.1877,0.0432 0.28433,0.0501 0.0483,0.003 0.0968,0.009 0.14352,0.0213 0.0467,0.0127 0.092,0.0333 0.12857,0.0651 0.0351,0.0304 0.0613,0.0702 0.0806,0.11248 0.0193,0.0423 0.0322,0.0872 0.0437,0.13223 0.12016,0.46807 0.10967,0.96304 0.0212,1.43812 -0.17262,0.92699 -0.63323,1.77801 -1.18083,2.54563 -0.0996,0.13962 -0.20227,0.27705 -0.3011,0.41723 -0.16921,0.24 -0.32715,0.48802 -0.50376,0.72263 -0.0173,0.023 -0.0349,0.0463 -0.0458,0.0729 -0.0109,0.0266 -0.0143,0.057 -0.005,0.0844 0.009,0.0274 0.03,0.0503 0.0561,0.0624 0.0261,0.0121 0.0558,0.0134 0.0846,0.0136 z"
       style="fill:#112f25;fill-opacity:1;stroke:none;stroke-width:0.264583px;stroke-linecap:butt;stroke-linejoin:miter;stroke-opacity:1" />
    <path
       inkscape:connector-curvature="0"
       id="path44-21-8-5-24-37-4-6-6-1"
       d="m 111.73178,172.64509 c 0,0 4.55825,-0.0316 6.81064,-1.30538 2.25214,-1.27378 4.41087,-2.89337 5.51974,-5.98265 0,0 -2.31484,-2.50028 -5.44539,-1.67627 -3.13055,0.82402 -4.8469,3.11521 -5.59673,5.41793 -0.74983,2.3027 -1.28826,3.54637 -1.28826,3.54637 z"
       style="fill:#fbf7ee;fill-opacity:1;stroke:#112f25;stroke-width:1.05833;stroke-linecap:butt;stroke-linejoin:miter;stroke-miterlimit:4;stroke-dasharray:none;stroke-opacity:1;paint-order:markers stroke fill" />
    <text
       xml:space="preserve"
       style="font-style:normal;font-variant:normal;font-weight:normal;font-stretch:normal;font-size:4.06202px;line-height:0.758097px;font-family:Respira;-inkscape-font-specification:Respira;font-variant-ligatures:normal;font-variant-caps:normal;font-variant-numeric:normal;font-feature-settings:normal;text-align:start;letter-spacing:0px;word-spacing:0px;writing-mode:lr-tb;text-anchor:start;fill:#112f25;fill-opacity:1;stroke:none;stroke-width:0.0555622"
       x="5.0283146"
       y="206.40039"
       id="text8537-8-1-9-8-2-7-6-8-0-0-6-5-5-28"
       transform="rotate(-32.222874)"><tspan
         sodipodi:role="line"
         id="tspan8535-8-6-7-8-5-3-2-3-0-8-2-7-1-3"
         x="5.0283146"
         y="206.40039"
         style="font-style:normal;font-variant:normal;font-weight:normal;font-stretch:normal;font-size:4.06202px;font-family:Respira;-inkscape-font-specification:Respira;fill:#112f25;fill-opacity:1;stroke-width:0.0555622">003'</tspan></text>
  </g>
</svg>
