<?xml version="1.0" encoding="UTF-8" standalone="no"?>
<svg
   xmlns:dc="http://purl.org/dc/elements/1.1/"
   xmlns:cc="http://creativecommons.org/ns#"
   xmlns:rdf="http://www.w3.org/1999/02/22-rdf-syntax-ns#"
   xmlns:svg="http://www.w3.org/2000/svg"
   xmlns="http://www.w3.org/2000/svg"
   xmlns:sodipodi="http://sodipodi.sourceforge.net/DTD/sodipodi-0.dtd"
   xmlns:inkscape="http://www.inkscape.org/namespaces/inkscape"
   width="12.33038mm"
   height="14.390443mm"
   viewBox="0 0 12.33038 14.390443"
   version="1.1"
   id="svg8"
   inkscape:version="1.0.2-2 (e86c870879, 2021-01-15)"
   sodipodi:docname="Feuille 003' Hover.svg">
  <defs
     id="defs2">
    <inkscape:path-effect
       effect="spiro"
       id="path-effect11393"
       is_visible="true"
       lpeversion="0" />
  </defs>
  <sodipodi:namedview
     id="base"
     pagecolor="#ffffff"
     bordercolor="#666666"
     borderopacity="1.0"
     inkscape:pageopacity="0.0"
     inkscape:pageshadow="2"
     inkscape:zoom="3.959798"
     inkscape:cx="29.764415"
     inkscape:cy="39.692176"
     inkscape:document-units="mm"
     inkscape:current-layer="layer1"
     inkscape:document-rotation="0"
     showgrid="false"
     fit-margin-top="0"
     fit-margin-left="0"
     fit-margin-right="0"
     fit-margin-bottom="0"
     inkscape:window-width="958"
     inkscape:window-height="1018"
     inkscape:window-x="946"
     inkscape:window-y="0"
     inkscape:window-maximized="0" />
  <metadata
     id="metadata5">
    <rdf:RDF>
      <cc:Work
         rdf:about="">
        <dc:format>image/svg+xml</dc:format>
        <dc:type
           rdf:resource="http://purl.org/dc/dcmitype/StillImage" />
        <dc:title></dc:title>
      </cc:Work>
    </rdf:RDF>
  </metadata>
  <g
     inkscape:label="Calque 1"
     inkscape:groupmode="layer"
     id="layer1"
     transform="translate(-109.63869,-152.73557)">
    <path
       inkscape:original-d="m 116.66973,159.11188 c 0,0 0.51541,-0.47934 0.77258,-0.71863 0.25718,-0.23929 0.7419,-0.96428 1.11258,-1.446 0.37041,-0.48173 0.3638,-0.96944 0.5453,-1.45376 0.18151,-0.48432 -0.0159,-1.07204 -0.0238,-1.60766 -0.008,-0.53562 -0.082,-0.62725 -0.12356,-0.94046 -0.0413,-0.31321 -0.0185,-0.0781 -0.0299,-0.11673 -0.0106,-0.0386 -0.14843,-0.0616 -0.22304,-0.092 -0.0743,-0.0304 -0.2876,0.0836 -0.4318,0.12578 -0.14394,0.0422 -0.36857,0.19717 -0.55325,0.29615 -0.18467,0.099 0.0987,0.14327 0.14764,0.21532 0.049,0.072 0.37121,0.0907 0.55642,0.13645 0.18521,0.0458 0.0833,0.16287 0.12435,0.24471 0.0413,0.0818 0.0159,0.95848 0.0212,1.43812 0.008,0.47966 -0.78687,1.69682 -1.18083,2.54563 -0.39397,0.84884 -0.20056,0.27787 -0.3011,0.41722 -0.10081,0.13933 -0.33549,0.48149 -0.50377,0.72263 -0.16801,0.24114 0.0894,0.23323 0.0894,0.23323 z"
       inkscape:path-effect="#path-effect11393"
       inkscape:connector-curvature="0"
       id="path1285-2-0-9-2-9-2-8-3"
       d="m 116.66973,159.11188 c 0.27005,-0.22559 0.52807,-0.46558 0.77258,-0.71863 0.42366,-0.43845 0.8079,-0.91789 1.11258,-1.446 0.26007,-0.45078 0.46231,-0.94 0.5453,-1.45376 0.0858,-0.53093 0.0427,-1.07398 -0.0238,-1.60766 -0.0391,-0.31376 -0.0862,-0.62649 -0.12356,-0.94046 -0.005,-0.0402 -0.01,-0.0816 -0.0299,-0.11673 -0.0211,-0.0368 -0.0575,-0.0634 -0.0974,-0.0778 -0.0399,-0.0144 -0.0833,-0.0172 -0.12559,-0.0142 -0.14996,0.0107 -0.28536,0.0918 -0.4318,0.12578 -0.11117,0.0258 -0.22817,0.0243 -0.33678,0.0593 -0.0543,0.0175 -0.10643,0.0446 -0.1468,0.0849 -0.0404,0.0403 -0.0682,0.0948 -0.0697,0.15188 -0.001,0.046 0.0148,0.0917 0.0417,0.12903 0.0269,0.0373 0.0644,0.0664 0.10592,0.0863 0.0873,0.0419 0.1877,0.0432 0.28433,0.0501 0.0483,0.003 0.0968,0.009 0.14352,0.0213 0.0467,0.0127 0.092,0.0333 0.12857,0.0651 0.0351,0.0304 0.0613,0.0702 0.0806,0.11248 0.0193,0.0423 0.0322,0.0872 0.0437,0.13223 0.12015,0.46807 0.10963,0.96303 0.0212,1.43812 -0.17256,0.92701 -0.63293,1.77821 -1.18083,2.54563 -0.0997,0.13959 -0.20239,0.27696 -0.3011,0.41722 -0.16901,0.24015 -0.32622,0.48872 -0.50377,0.72263 -0.0175,0.023 -0.0352,0.0463 -0.0463,0.073 -0.011,0.0267 -0.0145,0.0572 -0.006,0.0847 0.009,0.0275 0.0302,0.0504 0.0564,0.0624 0.0263,0.012 0.056,0.0131 0.0849,0.0131 z"
       style="fill:#112f25;fill-opacity:1;stroke:none;stroke-width:0.264583px;stroke-linecap:butt;stroke-linejoin:miter;stroke-opacity:1" />
    <path
       inkscape:connector-curvature="0"
       id="path44-21-8-5-24-37-4-6-1"
       d="m 109.63869,167.12601 c 0,0 4.55824,-0.0316 6.81064,-1.30538 2.25214,-1.27378 4.41087,-2.89338 5.51974,-5.98265 0,0 -2.31484,-2.50029 -5.44539,-1.67627 -3.13055,0.82402 -4.8469,3.1152 -5.59673,5.41793 -0.74983,2.30269 -1.28826,3.54637 -1.28826,3.54637 z"
       style="fill:#112f25;fill-opacity:1;stroke:none;stroke-width:1.05833;stroke-linecap:butt;stroke-linejoin:miter;stroke-miterlimit:4;stroke-dasharray:none;stroke-opacity:1;paint-order:markers stroke fill" />
    <text
       xml:space="preserve"
       style="font-style:normal;font-variant:normal;font-weight:normal;font-stretch:normal;font-size:4.06202px;line-height:0.758097px;font-family:Respira;-inkscape-font-specification:Respira;font-variant-ligatures:normal;font-variant-caps:normal;font-variant-numeric:normal;font-feature-settings:normal;text-align:start;letter-spacing:0px;word-spacing:0px;writing-mode:lr-tb;text-anchor:start;fill:#fbf7ee;fill-opacity:1;stroke:none;stroke-width:0.0555622"
       x="6.2005134"
       y="200.61565"
       id="text8537-8-1-9-8-2-7-6-8-0-0-6-5-1"
       transform="rotate(-32.222874)"><tspan
         sodipodi:role="line"
         id="tspan8535-8-6-7-8-5-3-2-3-0-8-2-7-3"
         x="6.2005134"
         y="200.61565"
         style="font-style:normal;font-variant:normal;font-weight:normal;font-stretch:normal;font-size:4.06202px;font-family:Respira;-inkscape-font-specification:Respira;fill:#fbf7ee;fill-opacity:1;stroke-width:0.0555622">003'</tspan></text>
  </g>
</svg>
