<?xml version="1.0" encoding="UTF-8" standalone="no"?>
<svg
   xmlns:dc="http://purl.org/dc/elements/1.1/"
   xmlns:cc="http://creativecommons.org/ns#"
   xmlns:rdf="http://www.w3.org/1999/02/22-rdf-syntax-ns#"
   xmlns:svg="http://www.w3.org/2000/svg"
   xmlns="http://www.w3.org/2000/svg"
   xmlns:sodipodi="http://sodipodi.sourceforge.net/DTD/sodipodi-0.dtd"
   xmlns:inkscape="http://www.inkscape.org/namespaces/inkscape"
   width="9.4606276mm"
   height="15.105576mm"
   viewBox="0 0 9.4606276 15.105575"
   version="1.1"
   id="svg8"
   inkscape:version="1.0.2-2 (e86c870879, 2021-01-15)"
   sodipodi:docname="Feuille 001'.svg">
  <defs
     id="defs2">
    <inkscape:path-effect
       effect="spiro"
       id="path-effect11429"
       is_visible="true"
       lpeversion="0" />
    <inkscape:path-effect
       effect="spiro"
       id="path-effect70434"
       is_visible="true"
       lpeversion="0" />
    <inkscape:path-effect
       effect="spiro"
       id="path-effect13653"
       is_visible="true"
       lpeversion="0" />
  </defs>
  <sodipodi:namedview
     id="base"
     pagecolor="#ffffff"
     bordercolor="#666666"
     borderopacity="1.0"
     inkscape:pageopacity="0.0"
     inkscape:pageshadow="2"
     inkscape:zoom="3.959798"
     inkscape:cx="18.398149"
     inkscape:cy="28.893572"
     inkscape:document-units="mm"
     inkscape:current-layer="layer1"
     inkscape:document-rotation="0"
     showgrid="false"
     fit-margin-top="0"
     fit-margin-left="0"
     fit-margin-right="0"
     fit-margin-bottom="0"
     inkscape:window-width="958"
     inkscape:window-height="1018"
     inkscape:window-x="946"
     inkscape:window-y="0"
     inkscape:window-maximized="0" />
  <metadata
     id="metadata5">
    <rdf:RDF>
      <cc:Work
         rdf:about="">
        <dc:format>image/svg+xml</dc:format>
        <dc:type
           rdf:resource="http://purl.org/dc/dcmitype/StillImage" />
        <dc:title />
      </cc:Work>
    </rdf:RDF>
  </metadata>
  <g
     inkscape:label="Calque 1"
     inkscape:groupmode="layer"
     id="layer1"
     transform="translate(-112.64601,-155.5927)">
    <path
       inkscape:original-d="m 118.12226,165.84511 c 0,0 0.0962,0.62587 0.14433,0.93821 0.0481,0.31234 0.34263,1.03952 0.51379,1.55887 0.17129,0.51917 0.53761,0.76076 0.80632,1.14062 0.26868,0.37989 0.80584,0.53004 1.20848,0.79486 0.40265,0.26482 0.50829,0.25601 0.76237,0.38341 0.25398,0.12758 0.0675,0.0257 0.102,0.0368 0.0341,0.0116 0.12086,-0.0794 0.18121,-0.11951 0.0602,-0.04 0.0832,-0.25628 0.12462,-0.38492 0.0414,-0.12843 0.0396,-0.37396 0.0592,-0.56142 0.0196,-0.18751 -0.1565,0 -0.23487,0 -0.0783,3e-5 -0.25511,0.23043 -0.38277,0.34515 -0.12769,0.1147 -0.16335,-0.0204 -0.24498,-0.0311 -0.0818,-0.0106 -0.72136,-0.47265 -1.08098,-0.71115 -0.361,-0.23653 -0.86511,-1.44327 -1.2977,-2.16548 -0.4326,-0.72226 -0.10541,-0.28972 -0.15833,-0.43497 -0.0527,-0.14545 -0.18875,-0.49305 -0.28316,-0.74018 -0.0946,-0.2469 -0.21878,-0.0513 -0.21878,-0.0513 z"
       inkscape:path-effect="#path-effect13653"
       inkscape:connector-curvature="0"
       id="path1285-2-0-9-2-9-2-8-5-0-3"
       d="m 118.12226,165.84511 c 0.0314,0.315 0.0796,0.62833 0.14433,0.93821 0.11216,0.53691 0.27475,1.0652 0.51379,1.55887 0.20404,0.42139 0.46592,0.81916 0.80632,1.14062 0.35177,0.33219 0.77766,0.57466 1.20848,0.79486 0.25329,0.12946 0.50988,0.2524 0.76237,0.38341 0.0323,0.0168 0.0657,0.034 0.102,0.0368 0.0381,0.003 0.0763,-0.0107 0.10715,-0.0332 0.0309,-0.0225 0.0549,-0.0533 0.0741,-0.0863 0.0679,-0.11699 0.076,-0.25872 0.12462,-0.38492 0.0369,-0.0958 0.097,-0.18209 0.12568,-0.28059 0.0144,-0.0493 0.0205,-0.10168 0.011,-0.15209 -0.01,-0.0504 -0.0359,-0.0987 -0.0775,-0.12874 -0.0335,-0.0243 -0.0756,-0.0357 -0.11697,-0.0347 -0.0414,0.001 -0.082,0.014 -0.1179,0.0347 -0.0755,0.0436 -0.12721,0.11764 -0.18115,0.1861 -0.027,0.0342 -0.0552,0.0677 -0.0883,0.0961 -0.0331,0.0284 -0.0712,0.0517 -0.11335,0.0629 -0.0404,0.0108 -0.0832,0.0101 -0.12446,0.003 -0.0412,-0.007 -0.0812,-0.0202 -0.12052,-0.0343 -0.40939,-0.14685 -0.77535,-0.40171 -1.08098,-0.71115 -0.5948,-0.60222 -0.95571,-1.39121 -1.2977,-2.16548 -0.0624,-0.14139 -0.12505,-0.28403 -0.15833,-0.43497 -0.0294,-0.13333 -0.0354,-0.27117 -0.0683,-0.40367 -0.0164,-0.0663 -0.0397,-0.13125 -0.0747,-0.18989 -0.035,-0.0586 -0.082,-0.11085 -0.14013,-0.14662 -0.0649,-0.0399 -0.14289,-0.0582 -0.21878,-0.0513 z"
       style="fill:#112f25;fill-opacity:1;stroke:none;stroke-width:0.238029px;stroke-linecap:butt;stroke-linejoin:miter;stroke-opacity:1" />
    <path
       inkscape:connector-curvature="0"
       id="path44-21-8-5-24-37-4-6-7-7-1"
       d="m 115.71172,156.5617 c 0,0 -2.28042,3.40836 -2.47092,5.72847 -0.19034,2.31994 -0.0761,4.74514 1.66254,7.13184 0,0 3.0308,-0.459 3.99986,-3.20535 0.96906,-2.74632 0.13145,-5.18176 -1.20332,-6.90369 -1.33472,-1.72194 -1.98816,-2.75127 -1.98816,-2.75127 z"
       style="fill:#fbf7ee;fill-opacity:1;stroke:#112f25;stroke-width:1.05833;stroke-linecap:butt;stroke-linejoin:miter;stroke-miterlimit:4;stroke-dasharray:none;stroke-opacity:1;paint-order:markers stroke fill" />
    <text
       xml:space="preserve"
       style="font-style:normal;font-variant:normal;font-weight:normal;font-stretch:normal;font-size:4.06202px;line-height:0.758097px;font-family:Respira;-inkscape-font-specification:Respira;font-variant-ligatures:normal;font-variant-caps:normal;font-variant-numeric:normal;font-feature-settings:normal;text-align:start;letter-spacing:0px;word-spacing:0px;writing-mode:lr-tb;text-anchor:start;fill:#112f25;fill-opacity:1;stroke:none;stroke-width:0.0555622"
       x="159.3459"
       y="-114.79149"
       id="text8537-8-1-9-8-2-7-6-8-0-0-0-7-3-1-7-5-2-8"
       transform="rotate(90.043104)"><tspan
         sodipodi:role="line"
         id="tspan8535-8-6-7-8-5-3-2-3-0-8-3-6-4-2-0-3-4-32"
         x="159.3459"
         y="-114.79149"
         style="font-style:normal;font-variant:normal;font-weight:normal;font-stretch:normal;font-size:4.06202px;font-family:Respira;-inkscape-font-specification:Respira;fill:#112f25;fill-opacity:1;stroke-width:0.0555622">001'</tspan></text>
  </g>
</svg>
