<?xml version="1.0" encoding="UTF-8" standalone="no"?>
<svg
   xmlns:dc="http://purl.org/dc/elements/1.1/"
   xmlns:cc="http://creativecommons.org/ns#"
   xmlns:rdf="http://www.w3.org/1999/02/22-rdf-syntax-ns#"
   xmlns:svg="http://www.w3.org/2000/svg"
   xmlns="http://www.w3.org/2000/svg"
   xmlns:sodipodi="http://sodipodi.sourceforge.net/DTD/sodipodi-0.dtd"
   xmlns:inkscape="http://www.inkscape.org/namespaces/inkscape"
   width="13.221062mm"
   height="30.935078mm"
   viewBox="0 0 13.221062 30.935077"
   version="1.1"
   id="svg8"
   inkscape:version="1.0.2-2 (e86c870879, 2021-01-15)"
   sodipodi:docname="Benevolance Desktop VF.svg">
  <defs
     id="defs2" />
  <sodipodi:namedview
     id="base"
     pagecolor="#ffffff"
     bordercolor="#666666"
     borderopacity="1.0"
     inkscape:pageopacity="0.0"
     inkscape:pageshadow="2"
     inkscape:zoom="2.8"
     inkscape:cx="-30.559537"
     inkscape:cy="9.8302836"
     inkscape:document-units="mm"
     inkscape:current-layer="layer1"
     inkscape:document-rotation="0"
     showgrid="false"
     fit-margin-top="5"
     fit-margin-left="5"
     fit-margin-right="5"
     fit-margin-bottom="5"
     inkscape:showpageshadow="false"
     lock-margins="true"
     inkscape:window-width="958"
     inkscape:window-height="1018"
     inkscape:window-x="0"
     inkscape:window-y="0"
     inkscape:window-maximized="0" />
  <metadata
     id="metadata5">
    <rdf:RDF>
      <cc:Work
         rdf:about="">
        <dc:format>image/svg+xml</dc:format>
        <dc:type
           rdf:resource="http://purl.org/dc/dcmitype/StillImage" />
        <dc:title></dc:title>
      </cc:Work>
    </rdf:RDF>
  </metadata>
  <g
     inkscape:label="Calque 1"
     inkscape:groupmode="layer"
     id="layer1"
     transform="translate(-84.626873,-147.14221)">
    <path
       style="fill:#112f25;fill-opacity:1;stroke-width:0.0448567"
       d="m 92.761622,154.96822 c -0.134117,0.21257 -0.248549,0.30515 -0.453046,0.36642 -0.265112,0.0794 -0.486013,-0.0146 -0.778245,-0.33001 -0.26035,-0.28136 -0.357214,-0.51226 -0.289481,-0.69064 0.08625,-0.22733 0.407406,-0.0862 0.744458,0.32729 l 0.1905,0.23381 0.156316,-0.15632 c 0.135387,-0.13528 0.160523,-0.19537 0.187457,-0.44659 0.07258,-0.67588 -0.156104,-1.39774 -0.589094,-1.86055 -0.21217,-0.22682 -0.233204,-0.26942 -0.134223,-0.26942 0.09258,0 0.505565,0.51297 0.664104,0.82661 0.25646,0.50776 0.3547,0.8637 0.378274,1.37147 0.01984,0.42965 0.01376,0.48471 -0.07681,0.62793 z m -0.877305,-0.14798 c -0.03998,-0.0785 -0.09152,-0.16761 -0.115491,-0.19698 -0.07049,-0.0884 -0.170524,-0.0138 -0.170524,0.12777 0,0.10829 0.02839,0.1438 0.155575,0.19703 0.237014,0.0991 0.242782,0.0934 0.13044,-0.12782 z m 0.735727,15.17886 c -0.03156,0.0393 -0.103082,0.0954 -0.158327,0.12493 -0.05575,0.0299 -0.100965,0.0934 -0.100965,0.14192 0,0.12306 -0.140547,0.1128 -0.264689,-0.0188 -0.05575,-0.0589 -0.195236,-0.17309 -0.310515,-0.25331 -0.298133,-0.2072 -0.460746,-0.41527 -0.48895,-0.62553 -0.02619,-0.20003 0.03786,-0.31464 0.175683,-0.31464 0.133588,0 0.47379,0.25439 0.604441,0.45172 0.0631,0.097 0.133694,0.17632 0.154622,0.17632 0.05892,0 0.09784,-0.21088 0.06313,-0.34761 -0.105516,-0.42021 -0.317791,-0.67715 -0.622856,-0.7538 -0.126338,-0.0316 -0.283501,-0.18415 -0.23741,-0.23024 0.01693,-0.0169 0.1642,-0.0461 0.327766,-0.0657 0.163591,-0.0198 0.306863,-0.0452 0.318214,-0.0563 0.01164,-0.0114 -0.05681,-0.0875 -0.150416,-0.16922 -0.307393,-0.2671 -0.451908,-0.44146 -0.502417,-0.60651 -0.02733,-0.0893 -0.03892,-0.18066 -0.02514,-0.20293 0.01376,-0.0222 0.150521,-0.0272 0.306414,-0.0101 0.357028,0.0384 0.493791,-0.0214 0.450029,-0.1956 -0.04104,-0.16188 -0.09993,-0.22583 -0.280987,-0.30134 -0.359966,-0.15036 -0.627248,-0.45945 -0.703527,-0.81354 -0.06416,-0.30038 0.266991,-0.2857 0.682281,0.0299 0.130122,0.0989 0.246168,0.17981 0.257942,0.17981 0.0127,0 0.02222,-0.0836 0.02222,-0.18518 0,-0.28366 -0.223546,-0.64267 -0.467175,-0.75054 -0.200183,-0.0885 -0.430027,-0.26429 -0.430027,-0.32891 0,-0.0206 0.08101,-0.0249 0.179044,-0.008 0.150521,0.0238 0.203967,0.01 0.336417,-0.0915 0.08625,-0.0657 0.157454,-0.13951 0.157454,-0.16332 0,-0.0238 -0.06522,-0.0836 -0.14568,-0.13269 -0.112342,-0.0692 -0.189759,-0.0828 -0.335994,-0.0614 -0.174519,0.0254 -0.203121,0.0145 -0.347663,-0.12964 -0.206269,-0.20625 -0.206904,-0.30107 0,-0.30107 0.198411,0 0.254477,-0.0991 0.28329,-0.50044 0.01799,-0.24661 0.01164,-0.33461 -0.07152,-0.48045 -0.0789,-0.15248 -0.08416,-0.1863 -0.02948,-0.23135 0.100992,-0.0836 0.12581,-0.32512 0.05154,-0.50306 -0.07046,-0.16999 -0.05996,-0.16557 -0.609468,-0.26019 -0.434975,-0.0751 -0.610023,-0.16359 -0.856085,-0.43278 -0.174202,-0.19063 -0.224367,-0.27852 -0.224367,-0.39338 0,-0.20312 0.08416,-0.25612 0.404786,-0.25458 0.345863,0 0.548164,0.1134 0.970941,0.53618 l 0.306414,0.30636 0.330306,-0.0196 0.3302,-0.0198 -0.02945,-0.2195 c -0.01587,-0.12065 -0.04101,-0.24953 -0.05469,-0.28623 -0.01587,-0.0418 0,-0.0665 0.04418,-0.0665 0.145574,0 0.433176,0.50945 0.433176,0.76718 0,0.14619 -0.03892,0.16092 -0.481145,0.18661 -0.153696,0.008 -0.289507,0.0265 -0.30181,0.0384 -0.03262,0.0333 0.209867,0.53295 0.259503,0.53295 0.06734,0 0.474954,0.32401 0.547635,0.43503 0.09049,0.13912 0.124883,0.39598 0.06734,0.50522 -0.06101,0.11459 -0.398065,0.12708 -0.560467,0.0206 -0.105515,-0.0692 -0.108876,-0.0674 -0.130651,0.0785 -0.07681,0.50427 -0.07363,0.53089 0.07678,0.62299 0.09467,0.0572 0.187352,0.0785 0.276463,0.0623 0.10549,-0.0196 0.169969,0.008 0.29726,0.11112 0.08943,0.0742 0.17264,0.18637 0.18452,0.24876 0.01905,0.099 0.01164,0.1134 -0.100991,0.1134 -0.08416,0 -0.180922,0.058 -0.306335,0.18325 l -0.183224,0.18328 0.18124,0.23998 c 0.287178,0.38044 0.452966,0.94197 0.30517,1.03335 -0.02738,0.0169 -0.03998,0.0785 -0.02842,0.1382 0.01905,0.10051 0.01164,0.1058 -0.130334,0.0793 -0.18407,-0.0341 -0.189971,0 -0.02514,0.13883 0.07049,0.0581 0.163565,0.1887 0.208915,0.2894 l 0.0831,0.18296 -0.107817,0.11613 c -0.10205,0.10956 -0.125704,0.11469 -0.410898,0.0888 -0.297074,-0.0272 -0.302737,-0.0257 -0.302737,0.0794 0,0.10727 0.30652,0.43172 0.407829,0.43172 0.09573,0 0.44749,0.28742 0.434658,0.35444 -0.01588,0.081 -0.166847,0.12843 -0.427514,0.13449 -0.10414,0 -0.190712,0.0145 -0.190712,0.0265 0,0.0119 0.07575,0.10051 0.168196,0.196 0.335042,0.34581 0.592349,1.0442 0.449924,1.22095 z m -0.562795,-6.98426 c -0.07784,-0.1187 -0.225955,-0.11248 -0.344805,0.0146 l -0.117184,0.1253 0.136736,0.1233 c 0.07469,0.0674 0.165682,0.1234 0.201242,0.1234 0.120862,0 0.205449,-0.2631 0.124011,-0.3865 z m -0.229738,3.08906 c -0.102024,-0.0853 -0.274241,-0.0708 -0.2735,0.0222 0,0.27395 0.148325,0.38489 0.340942,0.25866 0.118639,-0.0776 0.10414,-0.13679 -0.06734,-0.28109 z m 0.03998,3.48583 c -0.111178,-0.21839 -0.178514,-0.22733 -0.178514,-0.0238 0,0.15968 0.09467,0.29485 0.205026,0.29485 0.08625,0 0.08099,-0.0606 -0.02619,-0.27096 z m -1.019545,-8.11551 c -0.26498,-0.28451 -0.424868,-0.33716 -0.678603,-0.22357 -0.147373,0.0657 -0.185024,0.10633 -0.185024,0.19833 0,0.13824 0.107818,0.18857 0.53639,0.24934 0.16137,0.023 0.349012,0.0546 0.416984,0.07 0.177138,0.041 0.155257,-0.0307 -0.08943,-0.29424 z m 1.718336,11.56914 c -0.05995,0.0503 -0.08625,0.0461 -0.161581,-0.0222 -0.04942,-0.0444 -0.0831,-0.103 -0.07363,-0.12946 0.05366,-0.15071 -0.196083,-0.67667 -0.480616,-1.01478 -0.12446,-0.1478 -0.141711,-0.15341 -0.627168,-0.20564 -0.57404,-0.0614 -0.929799,-0.17991 -1.171628,-0.38891 -0.233442,-0.20182 -0.197247,-0.3252 0.107712,-0.36719 0.317897,-0.0435 0.697838,0.0802 1.112943,0.36259 0.135811,0.0924 0.202909,0.11001 0.338296,0.0885 0.305488,-0.0486 0.524696,-0.16052 0.555837,-0.28419 0.03577,-0.14242 -0.09678,-0.26495 -0.195871,-0.18209 -0.115173,0.0957 -0.432858,0.0683 -0.610314,-0.0529 -0.209762,-0.14285 -0.208915,-0.21379 0,-0.24516 0.09255,-0.0138 0.256672,-0.0453 0.364913,-0.0709 0.164835,-0.0384 0.210264,-0.0333 0.28022,0.0299 0.0463,0.0418 0.08416,0.0923 0.08416,0.11266 0,0.0206 0.111178,0.14446 0.246671,0.27596 0.260033,0.25183 0.300752,0.37285 0.166635,0.49427 -0.11004,0.0994 -0.386371,0.21055 -0.523981,0.21055 -0.06205,0 -0.113612,0.0122 -0.113612,0.0272 0,0.0154 0.105516,0.14216 0.235532,0.28202 0.388699,0.41998 0.616241,0.95105 0.462333,1.07879 z m -1.938178,-1.90531 c -0.195448,-0.0316 -0.374597,0 -0.374597,0.0699 0,0.0598 0.29411,0.1276 0.672914,0.15467 l 0.336418,0.0238 -0.224261,-0.10903 c -0.123401,-0.0597 -0.308028,-0.12274 -0.410474,-0.13936 z M 92.5562,161.03882 c -0.01588,0.0161 -0.0947,0.0299 -0.172958,0.0299 -0.351023,0 -0.979752,-0.71736 -1.071483,-1.22237 -0.03789,-0.20508 0.03154,-0.22223 0.224366,-0.0563 0.105516,0.0909 0.1601,0.10676 0.287391,0.0836 0.202909,-0.0367 0.269187,-0.0919 0.269187,-0.22529 0,-0.23638 -0.247518,-0.64347 -0.391319,-0.64347 -0.07678,0 -0.371343,-0.28143 -0.371343,-0.35525 0,-0.0307 0.03262,-0.0444 0.07787,-0.0298 0.04313,0.0127 0.177033,0.009 0.297471,-0.008 l 0.219128,-0.0324 -0.151791,-0.20318 c -0.316733,-0.42404 -0.439394,-0.61563 -0.412036,-0.64309 0.01587,-0.0153 0.176504,-0.0282 0.357426,-0.0282 0.180948,0 0.328956,-0.0169 0.328956,-0.0384 0,-0.0214 -0.05998,-0.11485 -0.134435,-0.20796 -0.07469,-0.0932 -0.134646,-0.19748 -0.134646,-0.23185 0,-0.0452 0.0368,-0.035 0.134646,0.0375 0.07363,0.0546 0.134435,0.11203 0.134435,0.1275 0,0.0153 0.09046,0.12766 0.201427,0.24943 0.120677,0.13279 0.197036,0.25746 0.190527,0.31123 -0.01164,0.0793 -0.04945,0.0913 -0.335889,0.10292 -0.224181,0.009 -0.325146,0.0307 -0.325146,0.07 0,0.0597 0.413808,0.54838 0.54909,0.64876 0.128561,0.0955 0.09678,0.1874 -0.06731,0.1932 -0.08102,0 -0.166,0.0101 -0.190712,0.0153 -0.0254,0.008 -0.05998,0.0138 -0.07787,0.0169 -0.01905,0 0.03895,0.1007 0.125942,0.21542 0.178091,0.23328 0.306625,0.4726 0.349117,0.64947 0.03157,0.13084 -0.107711,0.35306 -0.220583,0.35306 -0.09467,0 -0.07996,0.0504 0.06313,0.2253 0.220795,0.269 0.323665,0.51913 0.245718,0.59703 z m -0.449183,-0.63542 c -0.06313,-0.0995 -0.360283,-0.25958 -0.402987,-0.21693 -0.0421,0.0418 0.181345,0.44275 0.282548,0.50913 0.224367,0.14695 0.292841,-0.0196 0.120439,-0.2922 z m 0.416454,-3.37667 c -0.140547,0.25363 -0.428043,0.29229 -0.682493,0.0918 -0.379016,-0.29861 -0.600551,-0.62701 -0.600551,-0.88966 0,-0.2794 0.03051,-0.31859 0.246777,-0.31859 0.164227,0 0.213016,0.023 0.331787,0.15857 0.204391,0.23289 0.180922,0.40426 -0.06101,0.44974 -0.12319,0.023 -0.143589,0.0435 -0.123798,0.12459 0.02945,0.12398 0.142002,0.25389 0.218784,0.25389 0.03262,0 0.125703,-0.0589 0.20619,-0.13126 0.145891,-0.13083 0.14642,-0.13279 0.14044,-0.53514 -0.01164,-0.32097 -0.02408,-0.42995 -0.09258,-0.53039 -0.149067,-0.21505 -0.154014,-0.23196 -0.05996,-0.20748 0.334724,0.0875 0.675217,1.17914 0.478631,1.53397 z"
       id="path917-9-8-1-5-8-8"
       sodipodi:nodetypes="sscsssssssscsscssssssscscccssssscsssscsssssscsscscscssssscssccsscssscsscccssccssscssccsssssssssscsccsssscccssccssscssssssssccsssssssssscsscccssssscsssssssscsssssccscsscsscscsccsssscccssscssssscsssssscs"
       inkscape:export-xdpi="96"
       inkscape:export-ydpi="96" />
  </g>
</svg>
