<?xml version="1.0" encoding="UTF-8" standalone="no"?>
<svg
   xmlns:dc="http://purl.org/dc/elements/1.1/"
   xmlns:cc="http://creativecommons.org/ns#"
   xmlns:rdf="http://www.w3.org/1999/02/22-rdf-syntax-ns#"
   xmlns:svg="http://www.w3.org/2000/svg"
   xmlns="http://www.w3.org/2000/svg"
   xmlns:sodipodi="http://sodipodi.sourceforge.net/DTD/sodipodi-0.dtd"
   xmlns:inkscape="http://www.inkscape.org/namespaces/inkscape"
   width="55.852955mm"
   height="17.05578mm"
   viewBox="0 0 55.852956 17.05578"
   version="1.1"
   id="svg8"
   inkscape:version="1.0.2-2 (e86c870879, 2021-01-15)"
   sodipodi:docname="Benevolance Desktop VF.svg">
  <defs
     id="defs2" />
  <sodipodi:namedview
     id="base"
     pagecolor="#ffffff"
     bordercolor="#666666"
     borderopacity="1.0"
     inkscape:pageopacity="0.0"
     inkscape:pageshadow="2"
     inkscape:zoom="1.4"
     inkscape:cx="10.421203"
     inkscape:cy="64.216839"
     inkscape:document-units="mm"
     inkscape:current-layer="layer1"
     inkscape:document-rotation="0"
     showgrid="false"
     fit-margin-top="5"
     fit-margin-left="5"
     fit-margin-right="5"
     fit-margin-bottom="5"
     inkscape:showpageshadow="false"
     lock-margins="true"
     inkscape:window-width="958"
     inkscape:window-height="1018"
     inkscape:window-x="0"
     inkscape:window-y="0"
     inkscape:window-maximized="0" />
  <metadata
     id="metadata5">
    <rdf:RDF>
      <cc:Work
         rdf:about="">
        <dc:format>image/svg+xml</dc:format>
        <dc:type
           rdf:resource="http://purl.org/dc/dcmitype/StillImage" />
        <dc:title></dc:title>
      </cc:Work>
    </rdf:RDF>
  </metadata>
  <g
     inkscape:label="Calque 1"
     inkscape:groupmode="layer"
     id="layer1"
     transform="translate(-60.054374,-131.99369)">
    <path
       style="fill:#dcce87;fill-opacity:1;stroke-width:0.0982467"
       d="m 104.7177,143.86021 c -0.46562,-0.29369 -0.66839,-0.54441 -0.8026,-0.99229 -0.17377,-0.58061 0.0317,-1.0644 0.72281,-1.70445 0.61626,-0.57026 1.12201,-0.78245 1.51267,-0.63413 0.49788,0.18894 0.18877,0.89239 -0.71682,1.63055 l -0.51214,0.4173 0.34242,0.34237 c 0.29626,0.29647 0.42788,0.35153 0.97814,0.41061 1.48029,0.15886 3.06141,-0.342 4.07502,-1.29029 0.49682,-0.46469 0.59013,-0.51078 0.59013,-0.29396 0,0.20273 -1.12354,1.10726 -1.81049,1.4545 -1.11211,0.56166 -1.89169,0.77684 -3.00386,0.82849 -0.94108,0.0439 -1.06164,0.0302 -1.37528,-0.1682 z m 0.3241,-1.92154 c 0.17192,-0.0875 0.36709,-0.20037 0.43141,-0.25289 0.19366,-0.15441 0.0302,-0.37351 -0.27982,-0.37351 -0.23721,0 -0.31497,0.0622 -0.43159,0.34079 -0.21694,0.51908 -0.20465,0.5317 0.28,0.28561 z m -33.245404,1.61147 c -0.086,-0.0692 -0.20891,-0.22579 -0.27365,-0.34673 -0.0654,-0.12213 -0.20466,-0.22122 -0.31081,-0.22122 -0.26953,0 -0.24707,-0.30779 0.0409,-0.5797 0.12896,-0.12208 0.37907,-0.42762 0.55478,-0.68011 0.45379,-0.65294 0.90953,-1.00912 1.37006,-1.07085 0.4381,-0.0578 0.68914,0.0829 0.68914,0.38476 0,0.2926 -0.55716,1.03772 -0.98938,1.32386 -0.21246,0.1382 -0.38616,0.29282 -0.38616,0.33867 0,0.12899 0.46188,0.21426 0.76128,0.13825 0.92041,-0.23112 1.48318,-0.69607 1.65108,-1.3642 0.0691,-0.2767 0.40333,-0.62089 0.5043,-0.52006 0.0373,0.0369 0.10091,0.3597 0.14388,0.71797 0.0433,0.35828 0.099,0.67207 0.12332,0.69692 0.0246,0.0257 0.19161,-0.12439 0.37065,-0.32946 0.58508,-0.67318 0.96695,-0.98981 1.3284,-1.10035 0.19574,-0.0596 0.39571,-0.0852 0.4445,-0.0553 0.0487,0.0302 0.0596,0.32959 0.022,0.67109 -0.0841,0.782 0.047,1.08149 0.42841,0.98563 0.35457,-0.0898 0.49461,-0.21887 0.66001,-0.6154 0.3293,-0.7884 1.00628,-1.37385 1.78181,-1.54088 0.65791,-0.14049 0.62579,0.58476 -0.0654,1.49442 -0.21664,0.28499 -0.39378,0.53914 -0.39378,0.56489 0,0.0277 0.18318,0.0482 0.40558,0.0482 0.6213,0 1.40767,-0.48964 1.64391,-1.02322 0.19381,-0.43842 0.57881,-0.94192 0.72036,-0.94192 0.0451,0 0.0542,0.1774 0.0188,0.39214 -0.0523,0.32972 -0.0209,0.44677 0.20037,0.73681 0.14391,0.18894 0.30565,0.34496 0.35777,0.34496 0.0523,0 0.18315,-0.14287 0.29065,-0.31914 0.15144,-0.24603 0.18132,-0.4156 0.13454,-0.73586 -0.056,-0.38224 -0.0316,-0.44492 0.28389,-0.76147 0.45177,-0.45183 0.65942,-0.45318 0.65942,0 0,0.43455 0.21701,0.55729 1.09609,0.62045 0.54014,0.0391 0.73289,0.0251 1.0523,-0.15666 0.33401,-0.17285 0.40801,-0.18433 0.50673,-0.0645 0.18317,0.22116 0.71211,0.27553 1.10182,0.11287 0.37234,-0.15436 0.36264,-0.13132 0.56992,-1.33491 0.1645,-0.95271 0.35828,-1.33612 0.94782,-1.87502 0.41759,-0.3815 0.61008,-0.49138 0.86164,-0.49138 0.44487,0 0.56096,0.18425 0.5576,0.88648 0,0.75759 -0.24844,1.20066 -1.17437,2.12667 l -0.67103,0.67114 0.0427,0.72343 0.0433,0.72321 0.48073,-0.0645 c 0.26426,-0.0344 0.54652,-0.0899 0.6269,-0.1198 0.0916,-0.0344 0.14576,0 0.14576,0.0968 0,0.3189 -1.11579,0.94879 -1.68032,0.94879 -0.32015,0 -0.35248,-0.0852 -0.40872,-1.05383 -0.0189,-0.3366 -0.0578,-0.63402 -0.0841,-0.66098 -0.0729,-0.0714 -1.16731,0.45961 -1.16731,0.56835 0,0.14745 -0.70967,1.04023 -0.95282,1.19943 -0.30469,0.19815 -0.86733,0.27348 -1.10654,0.14748 -0.25103,-0.13358 -0.27834,-0.8718 -0.0451,-1.22761 0.15148,-0.23106 0.14767,-0.23844 -0.17192,-0.28609 -1.10448,-0.1682 -1.16277,-0.16129 -1.36445,0.16819 -0.12523,0.20736 -0.17195,0.41034 -0.13645,0.6055 0.0427,0.23109 -0.0188,0.37235 -0.24331,0.65106 -0.16264,0.19587 -0.40827,0.37809 -0.54488,0.40415 -0.2168,0.0415 -0.24842,0.0254 -0.24842,-0.22122 0,-0.18431 -0.12713,-0.39624 -0.40132,-0.67087 l -0.40145,-0.4014 -0.52559,0.39695 c -0.83326,0.62907 -2.06317,0.99216 -2.26336,0.66842 -0.0373,-0.0602 -0.1719,-0.0875 -0.30263,-0.0622 -0.22016,0.0415 -0.23172,0.0257 -0.17377,-0.28551 0.0747,-0.40315 0,-0.41609 -0.30406,-0.0553 -0.12716,0.15434 -0.41331,0.3583 -0.63389,0.45757 l -0.40074,0.18199 -0.25434,-0.23615 c -0.23998,-0.22346 -0.25125,-0.27532 -0.19442,-0.89995 0.0596,-0.65064 0.056,-0.6631 -0.1738,-0.6631 -0.2349,0 -0.94555,0.67144 -0.94555,0.89329 0,0.20963 -0.62949,0.98009 -0.77628,0.952 -0.17754,-0.0344 -0.28131,-0.36539 -0.29459,-0.93636 0,-0.22805 -0.0316,-0.4177 -0.0578,-0.4177 -0.0259,0 -0.22013,0.16594 -0.42929,0.3684 -0.75747,0.73385 -2.28708,1.29736 -2.67417,0.98542 z m 15.29723,-1.23264 c 0.25995,-0.17049 0.24635,-0.49485 -0.0316,-0.75528 l -0.27439,-0.25664 -0.27009,0.29951 c -0.14772,0.16359 -0.27025,0.3629 -0.27025,0.44077 0,0.26474 0.57621,0.44997 0.84648,0.27164 z m -6.76582,-0.50318 c 0.18691,-0.22352 0.15518,-0.60068 -0.0487,-0.59907 -0.6,0 -0.84299,0.32488 -0.56653,0.74676 0.17005,0.2599 0.29959,0.22807 0.61566,-0.14745 z m -7.63479,0.0875 c 0.47834,-0.24355 0.49795,-0.39095 0.0524,-0.39095 -0.3497,0 -0.64577,0.2073 -0.64577,0.44905 0,0.18886 0.13269,0.17738 0.59346,-0.0578 z m 17.77496,-2.23306 c 0.6231,-0.58033 0.73842,-0.93054 0.48966,-1.48627 -0.14387,-0.32279 -0.23291,-0.40526 -0.43438,-0.40526 -0.3028,0 -0.41306,0.23617 -0.54617,1.17483 -0.0506,0.35343 -0.11962,0.76443 -0.15324,0.91326 -0.0898,0.38801 0.0672,0.34002 0.64446,-0.19584 z m -25.33921,3.76362 c -0.11033,-0.13142 -0.10104,-0.18894 0.0487,-0.35385 0.0972,-0.10838 0.22561,-0.18209 0.28353,-0.16135 0.33007,0.11748 1.48206,-0.42947 2.22261,-1.05269 0.32369,-0.2726 0.33604,-0.31033 0.45042,-1.37364 0.13457,-1.2573 0.39407,-2.03647 0.85178,-2.56622 0.44206,-0.5112 0.71228,-0.43193 0.80425,0.23598 0.0954,0.69625 -0.17566,1.52845 -0.79415,2.43763 -0.20243,0.29742 -0.24095,0.44445 -0.19383,0.74092 0.10655,0.66913 0.35158,1.14932 0.6224,1.2175 0.31197,0.0783 0.58034,-0.21206 0.39886,-0.42904 -0.20952,-0.25234 -0.14954,-0.94809 0.11589,-1.33681 0.3129,-0.45937 0.46821,-0.45757 0.53695,0 0.0302,0.20275 0.0992,0.56218 0.15517,0.79925 0.0841,0.36103 0.0729,0.46056 -0.0654,0.61381 -0.0916,0.10141 -0.20219,0.18431 -0.24672,0.18431 -0.0451,0 -0.31636,0.24352 -0.60441,0.54025 -0.55161,0.56959 -0.81664,0.65873 -1.08263,0.36502 -0.21778,-0.24104 -0.46109,-0.84627 -0.46109,-1.14766 0,-0.13591 -0.0265,-0.24881 -0.0596,-0.24881 -0.0337,0 -0.31139,0.23103 -0.61772,0.51591 -0.91983,0.85132 -2.08296,1.34964 -2.36276,1.01256 z m 4.17306,-4.24516 c 0.0693,-0.42807 0,-0.82039 -0.15319,-0.82039 -0.13089,0 -0.27945,0.64418 -0.33875,1.47386 l -0.0523,0.73681 0.23884,-0.49122 c 0.13081,-0.27025 0.26879,-0.67461 0.30522,-0.89906 z m 22.11978,4.22302 c -0.0354,-0.0345 -0.0654,-0.20738 -0.0654,-0.37873 0,-0.76893 1.57116,-2.14595 2.67728,-2.34688 0.44915,-0.0829 0.48669,0.0691 0.12337,0.49146 -0.19906,0.23106 -0.23388,0.35063 -0.18321,0.6294 0.0804,0.44444 0.2013,0.58962 0.49346,0.58962 0.51771,0 1.40931,-0.54213 1.40931,-0.85712 0,-0.16819 0.61644,-0.8133 0.77808,-0.8133 0.0673,0 0.0973,0.0715 0.0654,0.17047 -0.0277,0.0945 -0.0203,0.38777 0.0189,0.65159 l 0.071,0.47995 0.445,-0.33247 c 0.92878,-0.69374 1.3484,-0.96237 1.40857,-0.90247 0.0336,0.0343 0.0617,0.38661 0.0617,0.78288 0,0.39626 0.0373,0.72043 0.0841,0.72043 0.0469,0 0.25159,-0.13131 0.45548,-0.29445 0.20412,-0.16352 0.43255,-0.29483 0.50783,-0.29483 0.0991,0 0.0767,0.0806 -0.0822,0.29483 -0.11968,0.16129 -0.24543,0.29445 -0.27932,0.29445 -0.0336,0 -0.27958,0.19817 -0.54625,0.44122 -0.29087,0.26429 -0.56394,0.43156 -0.68174,0.41727 -0.17378,-0.0254 -0.2,-0.10829 -0.2254,-0.73564 -0.0203,-0.49102 -0.0673,-0.71213 -0.15327,-0.71213 -0.13081,0 -1.20109,0.9063 -1.42091,1.20264 -0.20911,0.28157 -0.41047,0.2119 -0.4232,-0.1474 0,-0.17743 -0.0221,-0.36362 -0.0335,-0.41781 -0.0189,-0.0554 -0.0302,-0.13131 -0.0373,-0.17044 0,-0.0415 -0.22054,0.0853 -0.47184,0.27577 -0.51093,0.39008 -1.03509,0.6716 -1.42248,0.76465 -0.28659,0.0692 -0.77334,-0.23588 -0.77334,-0.4831 0,-0.20736 -0.11028,-0.17508 -0.49342,0.13827 -0.58916,0.48358 -1.13701,0.7089 -1.30761,0.53824 z m 1.39172,-0.98378 c 0.21788,-0.13827 0.56853,-0.7892 0.4751,-0.88267 -0.0916,-0.0922 -0.96971,0.39719 -1.11511,0.61883 -0.32189,0.49144 0.0427,0.64148 0.64001,0.26384 z m 7.395704,0.91215 c -0.555514,-0.30784 -0.640224,-0.93757 -0.20094,-1.49481 0.65398,-0.83019 1.37325,-1.31541 1.94853,-1.31541 0.61196,0 0.69776,0.0668 0.69776,0.5405 0,0.3597 -0.0506,0.46659 -0.34729,0.7267 -0.51005,0.44767 -0.88539,0.39629 -0.98504,-0.13361 -0.0505,-0.26977 -0.0953,-0.31452 -0.27286,-0.27118 -0.27154,0.0645 -0.55607,0.3111 -0.55607,0.47919 0,0.0714 0.12902,0.27538 0.28748,0.45164 0.28653,0.31954 0.29084,0.32068 1.17213,0.30758 0.70297,-0.0257 0.94163,-0.053 1.16164,-0.20275 0.471,-0.32652 0.50804,-0.33739 0.45442,-0.13139 -0.19161,0.73316 -2.58259,1.47894 -3.35976,1.04839 z"
       id="path917-9-8-1-5-8-8-4-1"
       sodipodi:nodetypes="sscsssssssscsscssssssscscccssssscsssscsssssscsscscscssssscssccsscssscsscccssccssscssccsssssssssscsccsssscccssccssscssssssssccsssssssssscsscccssssscsssssssscsssssccscsscsscscsccsssscccssscssssscsssssscs"
       inkscape:export-xdpi="96"
       inkscape:export-ydpi="96" />
  </g>
</svg>
