<?xml version="1.0" encoding="UTF-8" standalone="no"?>
<svg
   xmlns:dc="http://purl.org/dc/elements/1.1/"
   xmlns:cc="http://creativecommons.org/ns#"
   xmlns:rdf="http://www.w3.org/1999/02/22-rdf-syntax-ns#"
   xmlns:svg="http://www.w3.org/2000/svg"
   xmlns="http://www.w3.org/2000/svg"
   xmlns:sodipodi="http://sodipodi.sourceforge.net/DTD/sodipodi-0.dtd"
   xmlns:inkscape="http://www.inkscape.org/namespaces/inkscape"
   width="22.040874mm"
   height="50.484928mm"
   viewBox="0 0 22.040875 50.484928"
   version="1.1"
   id="svg8"
   inkscape:version="1.0.2-2 (e86c870879, 2021-01-15)"
   sodipodi:docname="Knowledge Desktop VF.svg">
  <defs
     id="defs2" />
  <sodipodi:namedview
     id="base"
     pagecolor="#ffffff"
     bordercolor="#666666"
     borderopacity="1.0"
     inkscape:pageopacity="0.0"
     inkscape:pageshadow="2"
     inkscape:zoom="1.4"
     inkscape:cx="-48.699116"
     inkscape:cy="119.12831"
     inkscape:document-units="mm"
     inkscape:current-layer="layer1"
     inkscape:document-rotation="0"
     showgrid="false"
     fit-margin-top="5"
     fit-margin-left="5"
     fit-margin-right="5"
     fit-margin-bottom="5"
     inkscape:showpageshadow="false"
     lock-margins="true"
     inkscape:window-width="958"
     inkscape:window-height="1018"
     inkscape:window-x="0"
     inkscape:window-y="0"
     inkscape:window-maximized="0" />
  <metadata
     id="metadata5">
    <rdf:RDF>
      <cc:Work
         rdf:about="">
        <dc:format>image/svg+xml</dc:format>
        <dc:type
           rdf:resource="http://purl.org/dc/dcmitype/StillImage" />
        <dc:title></dc:title>
      </cc:Work>
    </rdf:RDF>
  </metadata>
  <g
     inkscape:label="Calque 1"
     inkscape:groupmode="layer"
     id="layer1"
     transform="translate(-75.696625,-117.46503)">
    <path
       style="fill:#dcce87;fill-opacity:1;stroke-width:0.0907976"
       d="m 80.76714,153.34873 c 0.18851,-0.37219 0.98435,-0.48432 1.7736,-0.24998 0.74732,0.22193 1.24815,0.55618 2.21486,1.47802 l 0.91326,0.87108 0.46993,-0.0249 c 0.25844,-0.0138 0.48601,-0.0404 0.50567,-0.0606 0.0198,-0.0193 -0.0364,-0.26469 -0.12441,-0.5448 -0.18576,-0.59061 -0.14152,-1.1991 0.0999,-1.37571 0.22268,-0.16277 0.72906,-0.14552 1.03513,0.0357 0.39767,0.23489 1.66601,1.5793 1.83989,1.95008 0.19209,0.40979 0.19968,0.83701 0.0183,1.01857 -0.0754,0.0759 -0.31806,0.16438 -0.53909,0.19756 -0.32914,0.0493 -0.49102,0.0169 -0.89506,-0.1811 -0.39677,-0.19413 -0.59703,-0.23599 -1.02354,-0.21376 l -0.53028,0.0275 0.45556,0.45392 c 0.25056,0.24977 0.61047,0.53578 0.79994,0.63566 0.45318,0.23892 1.27193,1.1271 1.55623,1.68804 0.29575,0.58375 0.38258,1.18327 0.19396,1.33989 -0.21034,0.17449 -0.76657,-0.0161 -1.1839,-0.4058 -0.30623,-0.28591 -0.51089,-0.64418 -0.84344,-1.47648 l -0.0864,-0.21632 -0.16237,0.24783 c -0.2626,0.40074 -0.22374,1.63444 0.0718,2.28 0.28048,0.6127 0.80023,1.2876 1.25701,1.63235 0.32483,0.24521 0.44852,0.49448 0.24527,0.49448 -0.14645,0 -1.37928,-1.2596 -1.74065,-1.77837 -0.55075,-0.79079 -0.72678,-1.27578 -0.7747,-2.13462 -0.0365,-0.65341 -0.013,-0.84928 0.14349,-1.20306 0.10279,-0.23238 0.24548,-0.42256 0.31707,-0.42256 0.0717,0 0.17627,-0.0557 0.23257,-0.1234 0.0805,-0.0969 0.006,-0.21355 -0.34821,-0.54481 l -0.45054,-0.42137 h -0.79832 c -1.1229,0 -2.29034,-0.13867 -2.84705,-0.33256 -0.53015,-0.18457 -1.25984,-0.7879 -1.59483,-1.31852 -0.25429,-0.40286 -0.34912,-1.02711 -0.20056,-1.32046 z m 0.7688,1.67648 c 0.0916,0.067 0.37155,0.18499 0.62209,0.26244 0.60745,0.18751 2.58908,0.35327 2.91705,0.24392 l 0.25189,-0.0839 -0.63029,-0.61272 c -0.84069,-0.81708 -1.3471,-1.07397 -2.21928,-1.12522 -0.60491,-0.0353 -0.71001,-0.0167 -0.9408,0.16561 -0.23429,0.18549 -0.2553,0.24627 -0.21352,0.6169 0.0283,0.25283 0.11046,0.45807 0.21286,0.53295 z m 5.77916,0.28117 c 0.0638,0.0533 0.23749,0.0933 0.38584,0.0893 0.14833,-0.008 0.39701,0.0214 0.55256,0.0557 0.26127,0.0582 0.28707,0.042 0.33803,-0.21336 0.075,-0.37529 0.004,-0.54488 -0.38188,-0.89077 -0.36515,-0.32875 -0.59748,-0.36854 -0.84468,-0.14478 -0.19764,0.17875 -0.23257,0.95265 -0.0498,1.10421 z m 0.91937,3.83014 c 0.1677,0.52032 0.21971,0.59356 0.4399,0.61894 0.22138,0.0251 0.24963,0 0.24963,-0.23355 0,-0.48398 -0.25799,-1.0549 -0.5743,-1.27066 -0.1647,-0.1124 -0.32835,-0.20426 -0.36367,-0.20426 -0.0759,0 -0.0109,0.28405 0.24844,1.08953 z m -2.12505,-9.01412 c 0.0559,-0.30512 0.28681,-0.59939 0.47654,-0.60743 0.11991,-0.008 0.0737,-0.21389 -0.20148,-0.91083 -0.49236,-1.24677 -0.30591,-1.99758 0.49623,-1.99758 0.42727,0 0.69154,0.17029 1.33858,0.86254 0.42121,0.45067 0.6736,0.95946 0.75406,1.51985 0.0725,0.50525 -0.0594,0.61621 -0.5107,0.42923 -0.30443,-0.12605 -0.93128,-0.97623 -1.11845,-1.51672 -0.14271,-0.41217 -0.2645,-0.46003 -0.40214,-0.15806 -0.26493,0.58152 -0.014,1.55847 0.53623,2.08809 0.39354,0.3787 1.08212,1.25547 1.08307,1.37911 0,0.0396 0.0669,0.19453 0.14793,0.34441 0.081,0.14978 0.17421,0.39495 0.20696,0.54473 0.0515,0.23558 0.10515,0.27622 0.39613,0.30051 0.70515,0.059 1.71136,-0.32999 2.45597,-0.94959 0.14121,-0.11745 0.28959,-0.21349 0.32975,-0.21349 0.13431,0 0.6394,0.57727 0.6394,0.73078 0,0.14078 -0.65773,0.63008 -1.18036,0.87812 -0.44257,0.20995 -0.96351,0.29681 -1.77057,0.29515 -1.39266,0 -2.03076,-0.2304 -2.93047,-1.04458 -0.6718,-0.60796 -0.89093,-1.18732 -0.74668,-1.97424 z m 0.96385,1.81486 c 0.12687,0.20362 0.86598,0.48027 1.28302,0.48027 0.20634,0 0.19738,-0.0251 -0.18876,-0.5221 -0.22294,-0.28713 -0.51374,-0.73933 -0.64622,-1.00479 -0.13245,-0.26548 -0.28985,-0.46654 -0.34977,-0.44675 -0.32494,0.10716 -0.38582,1.03196 -0.0983,1.49337 z m 0.81984,-3.63117 c 0.36748,0.77681 0.52371,0.58179 0.25606,-0.31952 -0.12073,-0.40642 -0.32705,-0.65357 -0.5456,-0.65357 -0.0935,0 0.0374,0.43995 0.28954,0.97309 z m -0.0422,2.61328 c 0.0905,0.14984 0.16451,0.24009 0.1647,0.20069 0,-0.0978 -0.35645,-0.79086 -0.40722,-0.79086 -0.0598,0 0.0548,0.27902 0.24252,0.59017 z M 86.296,138.11378 c 0.0528,-0.0323 0.20167,-0.0331 0.33094,0 0.18624,0.0468 0.2966,0 0.53184,-0.22879 0.21794,-0.21121 0.40757,-0.30011 0.71319,-0.33459 0.22899,-0.0259 0.4164,-0.0638 0.4164,-0.0855 0,-0.18558 -0.39992,-0.84521 -0.53925,-0.88937 -0.32025,-0.10165 -1.07124,-1.01809 -1.23275,-1.50434 -0.21976,-0.66157 -0.13303,-1.00169 0.32031,-1.25654 0.35996,-0.2023 0.43717,-0.31638 0.2798,-0.41359 -0.0453,-0.0283 -0.1474,-0.24194 -0.22691,-0.47535 -0.13256,-0.38899 -0.13248,-0.44318 0,-0.64699 0.1311,-0.20016 0.18814,-0.21672 0.5674,-0.16505 0.2319,0.0315 0.53043,0.0817 0.66333,0.11134 0.34682,0.0776 0.48422,-0.20188 0.33857,-0.68786 -0.13034,-0.43519 -0.36751,-0.65911 -0.86228,-0.8142 -0.36521,-0.11457 -0.94372,-0.56613 -0.94372,-0.73668 0,-0.0492 0.43948,-0.0862 1.02719,-0.0862 1.02198,0 1.02849,0 1.2872,0.27149 0.14304,0.14933 0.23799,0.29353 0.21093,0.32054 -0.0272,0.0275 -0.25522,0.0735 -0.50702,0.10337 l -0.45789,0.0541 0.38372,0.47101 c 0.41643,0.51139 0.65498,1.17382 0.55957,1.55408 l -0.0602,0.23972 -0.7216,-0.0638 c -0.81468,-0.0718 -0.88154,-0.0259 -0.77539,0.54057 0.0435,0.23201 0.17907,0.40785 0.52962,0.68691 0.64352,0.51244 1.15713,1.21155 1.15644,1.57406 0,0.34493 -0.20926,0.76975 -0.46638,0.94988 -0.14478,0.10144 -0.17751,0.19759 -0.14118,0.41497 0.0376,0.22521 0.28495,0.84973 0.49559,1.25111 0.0175,0.0331 -0.13335,0.038 -0.33483,0.0114 -0.42781,-0.0573 -0.80777,0.0808 -1.01936,0.37002 -0.14298,0.19564 -0.13864,0.21847 0.0908,0.4811 0.13253,0.15163 0.38393,0.34784 0.55872,0.43603 0.65124,0.32851 1.22703,1.07717 0.70366,0.91496 -0.52324,-0.16214 -0.59336,-0.15193 -1.00336,0.14745 -0.22849,0.16679 -0.41796,0.35155 -0.42105,0.4106 -0.004,0.059 0.11273,0.19159 0.25744,0.29464 0.21219,0.15111 0.34364,0.1763 0.67976,0.13015 0.39921,-0.0549 0.43207,-0.0412 0.78116,0.31843 0.20039,0.20648 0.36436,0.41185 0.36436,0.45638 0,0.10647 -0.23011,0.19121 -0.51914,0.19121 -0.22265,0 -0.22966,0.0161 -0.17595,0.40857 0.0309,0.22474 0.0233,0.4086 -0.0164,0.4086 -0.15524,0 -0.6885,-0.70189 -0.82781,-1.08953 -0.11139,-0.31009 -0.25257,-0.47971 -0.58523,-0.70366 -0.24114,-0.16227 -0.514,-0.29511 -0.60648,-0.29511 -0.18343,0 -0.91212,-0.72573 -0.84219,-0.83884 0.0233,-0.0387 0.14031,-0.0452 0.25911,-0.0154 0.157,0.0396 0.35607,-0.0387 0.72919,-0.28641 0.59631,-0.39579 0.67003,-0.5239 0.44489,-0.77274 -0.12253,-0.13536 -0.23042,-0.16708 -0.42346,-0.1247 -0.22141,0.0485 -0.31798,0 -0.66382,-0.34784 -0.41293,-0.41294 -0.47889,-0.55362 -0.30876,-0.65874 z m 1.02643,-2.31211 c 0.0578,0.1248 0.19658,0.24003 0.30853,0.25603 0.166,0.0233 0.20341,-0.0146 0.20341,-0.2073 0,-0.30475 0.23781,-0.8808 0.42066,-1.0188 0.1946,-0.14695 0.0871,-0.28284 -0.2781,-0.35132 -0.72856,-0.13663 -1.03905,0.4902 -0.6545,1.32139 z m -0.88945,7.87661 c 0.0383,-0.0372 0.57364,-0.0678 1.18954,-0.0678 0.93488,0 1.11982,-0.0225 1.11982,-0.13618 0,-0.18029 0.0621,-0.17188 0.33843,0.0452 0.14772,0.11621 0.36835,0.18167 0.61269,0.18167 0.547,0 2.03841,0.4623 2.5141,0.74117 0.67286,0.66244 0.61127,1.36478 0.29964,1.68585 -0.23138,0.23842 -0.63354,0.20085 -0.80113,0.12869 -1.37724,-1.01232 -0.20876,-0.16261 -1.37724,-1.01232 l -0.42201,-0.42206 -0.42203,-0.42204 -1.0295,-0.0395 c -1.34482,-0.0517 -1.38522,-0.0251 -1.26341,0.83542 0.0492,0.34722 0.074,0.6468 0.0549,0.66578 -0.0188,0.0188 -0.11652,0.009 -0.21688,-0.0233 -0.30072,-0.0955 -0.81303,-1.94947 -0.59703,-2.16053 z m 3.98912,1.3135 c 0.39383,0.35642 1.28664,0.75012 1.60152,0.64516 0.13653,-0.0452 0.21852,-0.12007 0.27202,-0.20664 0.0781,-0.12618 0.0797,-0.31774 -0.10001,-0.45453 -0.32361,-0.24603 -1.04839,-0.46638 -1.72813,-0.52543 -0.57073,-0.0492 -0.58573,-0.0452 -0.45402,0.12179 0.075,0.0953 0.25879,0.28408 0.40862,0.41965 z m -3.49099,-19.61584 c 0.25477,-0.0589 0.74604,-0.10683 1.09177,-0.10683 0.34576,0 0.62813,-0.0306 0.62746,-0.0678 0,-0.0371 -0.12274,-0.41542 -0.27119,-0.83992 -0.29139,-0.83301 -0.34669,-1.49804 -0.14724,-1.77083 0.12239,-0.16737 0.13107,-0.16737 0.38592,0 0.37113,0.24167 0.48725,0.42313 0.38862,0.60749 -0.12759,0.23844 -0.0977,1.081 0.0569,1.60147 0.14893,0.50154 0.14382,0.49831 0.95009,0.60462 1.15879,0.15288 2.3608,1.25394 2.3608,2.16268 0,0.38129 -0.31367,0.70075 -0.68686,0.69953 -0.58592,0 -1.93998,-1.08016 -2.45065,-1.95151 -0.1705,-0.29102 -0.29769,-0.40833 -0.44252,-0.40833 -0.11181,0 -0.22569,0.0225 -0.2532,0.0501 -0.11266,0.11263 0.10908,0.68982 0.40589,1.0565 0.17442,0.21543 0.40405,0.591 0.51025,0.83453 0.32398,0.74287 0.22887,1.05537 -0.32126,1.05537 -0.28784,0 -0.64746,-0.24101 -1.18446,-0.79373 l -0.20068,-0.20664 -0.10602,0.19807 c -0.0693,0.12935 -0.086,0.41294 -0.0485,0.81793 0.0316,0.34097 0.0353,0.61995 0.008,0.61995 -0.35533,0 -0.86,-0.90591 -0.86,-1.54366 0,-0.41431 0.0893,-0.62492 0.45445,-1.07122 0.32477,-0.3969 0.26289,-0.63291 -0.25477,-0.97165 -0.22889,-0.14984 -0.42974,-0.31618 -0.44633,-0.36981 -0.0164,-0.0533 0.17825,-0.1455 0.43297,-0.20429 z m 1.37117,2.73064 c 0.0956,0.18245 0.19836,0.1974 0.44601,0.0646 0.28607,-0.15317 0.21876,-0.65718 -0.16885,-1.26445 -0.0146,-0.0225 -0.12618,0.0792 -0.24773,0.22699 -0.22477,0.2735 -0.23411,0.58187 -0.0294,0.97255 z m 1.57306,-1.38785 c 0.26395,0.41807 0.91252,0.96491 1.24296,1.04786 0.38939,0.0977 0.65386,-0.23101 0.59632,-0.74126 -0.0761,-0.6753 -0.49824,-0.96819 -1.55507,-1.07894 l -0.62576,-0.0654 0.0619,0.24649 c 0.0339,0.13552 0.15989,0.40177 0.27967,0.59142 z"
       id="path917-9-8-1-8-0-4-2-3"
       sodipodi:nodetypes="csssssscssssssssscccssssssscssscssccscsssscsssssscscscsscscssssscscsssssscscsscscssscsccsscsssssscssscscsscssscscscssssscssssssssssccssscccssssssssscsssccsssscsscsssscsscsccccscssssccsssccscsssssccssssssssscsscsssccsssscssscs"
       inkscape:export-xdpi="96"
       inkscape:export-ydpi="96" />
  </g>
</svg>
