<?xml version="1.0" encoding="UTF-8" standalone="no"?>
<svg
   xmlns:dc="http://purl.org/dc/elements/1.1/"
   xmlns:cc="http://creativecommons.org/ns#"
   xmlns:rdf="http://www.w3.org/1999/02/22-rdf-syntax-ns#"
   xmlns:svg="http://www.w3.org/2000/svg"
   xmlns="http://www.w3.org/2000/svg"
   xmlns:sodipodi="http://sodipodi.sourceforge.net/DTD/sodipodi-0.dtd"
   xmlns:inkscape="http://www.inkscape.org/namespaces/inkscape"
   width="43.855824mm"
   height="7.9640107mm"
   viewBox="0 0 43.855825 7.964011"
   version="1.1"
   id="svg8"
   inkscape:version="1.0.2-2 (e86c870879, 2021-01-15)"
   sodipodi:docname="Signature Manuscrite Mttä Nocturnal Green.svg">
  <defs
     id="defs2">
    <clipPath
       clipPathUnits="userSpaceOnUse"
       id="clipPath3452-4-2">
      <g
         id="g3466-9-6"
         transform="translate(29.835028,29.013687)">
        <path
           id="path3454-1-3"
           style="fill:#00ff00;fill-opacity:1;stroke:none;stroke-width:0.291874;stroke-miterlimit:4;stroke-dasharray:none;stroke-opacity:1"
           d="m 2584.7491,684.18129 c 0,1.3e-4 -0.017,7.4e-4 -0.019,9e-4 a 2.6678842,2.6678842 0 0 0 -0.2313,0.0153 c -0.1276,0.007 -0.2646,0.0119 -0.3533,0.0228 l -0.021,0.002 c 0,-5.9e-4 0.017,-3.1e-4 0.017,-9.1e-4 -0.8927,0.12485 -1.6952,0.49834 -2.3432,1.09079 -0.1789,0.16312 -0.1852,0.16924 -0.3419,0.34452 -0.3284,0.36744 -0.5748,0.74829 -0.7733,1.19359 -0.041,0.0936 -0.075,0.17535 -0.075,0.18283 0,0.009 -0.021,0.0422 -0.027,0.0764 -0.065,0.14814 -0.1683,0.54144 -0.21,0.79719 -0.063,0.39016 -0.073,3.50682 -0.069,4.71721 v 0.68996 0.57127 0.4782 0.20478 0.22239 16.59329 l 4.4639,-4.01758 c 0,-9.64506 -0.017,-12.64631 -0.017,-17.85017 a 2.6678842,2.6678842 0 0 0 2.7079,-2.6201 v -0.005 a 2.6678842,2.6678842 0 0 0 -2.6236,-2.7106 2.6678842,2.6678842 0 0 0 -0.088,9.1e-4 z m -0.04,0.0625 a 2.6046012,2.6046012 0 0 1 0.085,0 2.6046012,2.6046012 0 0 1 2.5612,2.64643 v 0.005 a 2.6046012,2.6046012 0 0 1 -2.649,2.55768 2.6046012,2.6046012 0 0 1 -2.5595,-2.64824 2.6046012,2.6046012 0 0 1 2.5629,-2.56029 z" />
        <path
           style="fill:#00ff00;fill-opacity:1;stroke:none;stroke-width:0.01;stroke-linecap:butt;stroke-linejoin:miter;stroke-miterlimit:4;stroke-dasharray:none;stroke-opacity:1"
           d="m 2594.6707,714.26781 v 2.27467 h -0.1064 v -2.17247 h -10.047 v 2.18075 h -9.9485 v -2.27594 l 20.1025,-0.007"
           id="path3456-0-6"
           sodipodi:nodetypes="ccccccccc" />
        <path
           style="fill:#00ff00;fill-opacity:1;stroke:#dcce87;stroke-width:0.000625002;stroke-miterlimit:4;stroke-dasharray:none;stroke-opacity:1"
           d="m 2571.6725,717.91519 v -1.14102 h 12.8404 12.8406 v 1.14102 1.14102 h -12.8406 -12.8404 z m 13.0472,0 v -1.0418 h -6.4823 -6.4823 v 1.0418 1.04179 h 6.4823 6.4823 z"
           id="path3458-9-4" />
        <path
           sodipodi:nodetypes="cccccccccccccscccccccccccccccc"
           inkscape:connector-curvature="0"
           id="path3460-4-9"
           d="m 2594.6339,695.54511 c -0.017,-7.85371 -0.019,-7.93857 -0.1368,-8.79016 -0.152,-1.09474 -0.4431,-2.06077 -0.9259,-3.06489 -0.2952,-0.6141 -0.7704,-1.37243 -1.1832,-1.88799 -0.3806,-0.47509 -1.2311,-1.31432 -1.7556,-1.73221 -0.7561,-0.60251 -1.8939,-1.20296 -2.9117,-1.53664 -0.8721,-0.28597 -1.5561,-0.4236 -2.4713,-0.49735 -0.3942,-0.0318 -1.3331,0 -1.887,0.0647 -2.8897,0.33512 -5.4539,1.9235 -7.1042,4.40037 -0.7814,1.17245 -1.2612,2.35848 -1.5178,3.75143 -0.093,0.50406 -0.1351,0.9286 -0.1655,1.65448 0,15.78986 0.017,25.86136 0.017,26.11037 l 2.6568,0.003 -0.017,-12.70096 c -0.017,-6.98553 0,-13.00439 0.017,-13.37525 0.039,-1.33898 0.2442,-2.22847 0.7576,-3.27331 0.7179,-1.4612 1.9158,-2.67751 3.3351,-3.38609 0.7336,-0.36624 1.4103,-0.57423 2.3014,-0.7072 0.342,-0.0512 0.4587,-0.0566 1.0822,-0.0519 0.7149,0.005 0.9711,0.0307 1.508,0.14949 0.9929,0.21945 2.1402,0.75519 2.8892,1.349 0.3152,0.24993 0.8922,0.80689 1.1682,1.12762 0.6341,0.7372 1.1794,1.74723 1.4549,2.69602 0.1921,0.66119 0.2762,1.22296 0.3098,2.06783 0.017,0.32638 0.03,6.18196 0.041,13.38724 l 0.017,12.68138 c 0.7437,0 0.8653,0.002 2.5684,0.002 l -0.017,-4.27021 c 0,-3.70078 -0.017,-10.07739 -0.02,-14.17028 z"
           style="fill:#00ff00;fill-opacity:1;fill-rule:nonzero;stroke:none;stroke-width:0.0367788;stroke-linecap:square;stroke-linejoin:round;stroke-miterlimit:4;stroke-dasharray:none;stroke-dashoffset:0;stroke-opacity:1;paint-order:stroke fill markers" />
        <path
           style="fill:#00ff00;fill-opacity:1;fill-rule:nonzero;stroke:none;stroke-width:0.00919471;stroke-linecap:square;stroke-linejoin:round;stroke-miterlimit:4;stroke-dasharray:none;stroke-dashoffset:0;stroke-opacity:1;paint-order:stroke fill markers"
           d="m 2584.7751,707.62873 v 1.88183 4.45843 l 2.0703,0.0101 c 1.1387,0 4.9453,0.008 4.9451,0.005 -2.5556,-2.30911 -4.5456,-4.1216 -7.0154,-6.35546 z"
           id="path3462-5-9"
           inkscape:connector-curvature="0"
           sodipodi:nodetypes="cccccc" />
        <path
           style="fill:#00ff00;fill-opacity:1;fill-rule:nonzero;stroke:none;stroke-width:0.0367788;stroke-linecap:square;stroke-linejoin:round;stroke-miterlimit:4;stroke-dasharray:none;stroke-dashoffset:0;stroke-opacity:1;paint-order:stroke fill markers"
           d="m 2584.6901,680.88085 c -0.7365,4e-5 -1.0299,0.0275 -1.5778,0.14562 -1.0394,0.2238 -2.0392,0.69746 -2.8712,1.35969 -0.3258,0.25933 -0.8598,0.79368 -1.1272,1.12788 -0.2944,0.36802 -0.6084,0.85651 -0.817,1.27154 -0.2688,0.53453 -0.4002,0.88784 -0.5429,1.45813 -0.1217,0.48646 -0.1813,0.91671 -0.2112,1.52442 -0.017,0.34361 -0.022,4.75924 -0.017,13.27408 l 0.017,12.98866 2.4407,-2.40017 v -11.19457 c 0,-6.67119 0.017,-11.45114 0.025,-11.90295 0.019,-0.58389 0.035,-0.80896 0.073,-0.99303 0.1902,-0.92973 0.6086,-1.70916 1.2841,-2.39217 0.8387,-0.84804 1.8418,-1.29355 3.0703,-1.36386 1.022,-0.0584 1.9485,0.19887 2.8488,0.79075 0.388,0.2551 0.9772,0.84995 1.2541,1.2658 0.3297,0.49576 0.5959,1.1134 0.6995,1.62362 0.1132,0.55629 0.1368,3.03006 0.1368,14.37824 l 0.017,9.592 2.4142,2.19448 v -2.76837 c 0,-1.65636 -0.017,-7.52954 -0.02,-13.05189 -0.017,-10.3437 -0.017,-10.19172 -0.1098,-10.8448 -0.1821,-1.23644 -0.7204,-2.47072 -1.5001,-3.43881 -0.2323,-0.28833 -0.95,-0.99467 -1.2418,-1.22251 -0.418,-0.32642 -1.1672,-0.74787 -1.6984,-0.95512 -0.386,-0.15067 -0.9619,-0.31012 -1.4071,-0.38998 -0.4142,-0.0745 -0.4526,-0.0772 -1.1144,-0.0767 v 0 z"
           id="path3464-0-7"
           inkscape:connector-curvature="0"
           sodipodi:nodetypes="ccccccccccscccscscccccccccccccc" />
      </g>
    </clipPath>
  </defs>
  <sodipodi:namedview
     id="base"
     pagecolor="#ffffff"
     bordercolor="#666666"
     borderopacity="1.0"
     inkscape:pageopacity="0.0"
     inkscape:pageshadow="2"
     inkscape:zoom="0.7"
     inkscape:cx="166.29839"
     inkscape:cy="31.279667"
     inkscape:document-units="mm"
     inkscape:current-layer="layer1"
     inkscape:document-rotation="0"
     showgrid="false"
     inkscape:window-width="1540"
     inkscape:window-height="1041"
     inkscape:window-x="78"
     inkscape:window-y="0"
     inkscape:window-maximized="0" />
  <metadata
     id="metadata5">
    <rdf:RDF>
      <cc:Work
         rdf:about="">
        <dc:format>image/svg+xml</dc:format>
        <dc:type
           rdf:resource="http://purl.org/dc/dcmitype/StillImage" />
        <dc:title />
      </cc:Work>
    </rdf:RDF>
  </metadata>
  <g
     inkscape:label="Calque 1"
     inkscape:groupmode="layer"
     id="layer1"
     transform="translate(-71.696689,-157.92826)">
    <path
       style="fill:#112f25;fill-opacity:1;stroke-width:0.119877"
       d="m 106.62776,165.88089 c -0.1246,-0.20174 0.54,-1.23719 1.0615,-1.65385 0.2746,-0.21926 0.7553,-0.55521 1.0685,-0.74658 0.3132,-0.19137 0.5694,-0.40312 0.5694,-0.47048 0,-0.0708 -0.3285,-0.12248 -0.7792,-0.12248 -0.7056,0 -0.7792,-0.023 -0.7792,-0.24572 0,-0.30887 0.3357,-0.96845 0.5862,-1.15202 0.1722,-0.12602 0.1704,-0.16047 -0.018,-0.36907 -0.1143,-0.12657 -0.2081,-0.3543 -0.2081,-0.50614 0,-0.29636 0.4345,-1.08363 0.598,-1.08363 0.1363,0 1.0803,1.14064 1.0803,1.30532 0,0.0732 0.044,0.13319 0.098,0.13319 0.054,0 0.1023,-0.41807 0.1082,-0.92906 0.011,-0.67333 0.08,-1.08439 0.2651,-1.49346 0.4459,-0.98732 0.515,-0.86197 0.4858,0.87931 -0.015,0.88173 -0.02,1.72456 -0.013,1.87288 0.024,0.43411 0.5186,0.33594 1.51181,-0.29969 0.4893,-0.31316 1.27,-0.80613 1.7348,-1.09543 0.4648,-0.28932 0.961,-0.62648 1.1025,-0.74925 0.5151,-0.44669 0.597,-0.22124 0.2101,0.57809 -0.1679,0.34679 -0.3274,0.51737 -0.4837,0.51737 -0.2098,0 -1.9636,0.91866 -2.3644,1.23843 -0.2107,0.1682 0.098,0.29967 0.7309,0.31152 0.5162,0.0106 0.5675,0.17646 0.2715,0.88475 -0.1978,0.47336 -0.4565,0.55604 -1.3504,0.43148 -0.3598,-0.0501 -0.50941,-0.028 -0.50941,0.0752 0,0.17438 1.21401,1.13443 1.43461,1.13443 0.1095,0 0.1313,0.11189 0.076,0.38867 -0.1164,0.58229 -0.3509,1.04984 -0.5264,1.04984 -0.085,0 -0.5107,-0.26874 -0.9446,-0.59719 -0.43391,-0.32848 -0.83951,-0.56597 -0.90121,-0.52782 -0.062,0.0381 -0.1628,0.20227 -0.2245,0.36468 -0.1719,0.45174 -0.3825,0.21396 -0.2909,-0.32827 0.082,-0.48819 -0.018,-1.18907 -0.1701,-1.18907 -0.1013,0 -1.493,1.02074 -2.6136,1.91635 -0.4093,0.32711 -0.7767,0.54206 -0.8164,0.47768 z"
       id="path17792"
       sodipodi:nodetypes="ssssssssssssssscsssssssssssssssssssss"
       inkscape:export-xdpi="96"
       inkscape:export-ydpi="96" />
    <path
       style="fill:#112f25;fill-opacity:1;stroke-width:0.112335"
       d="m 73.53986,165.65507 c -0.6746,-0.15555 -1.3781,-0.45508 -1.6528,-0.70366 -0.2923,-0.26458 -0.2462,-0.6228 0.1259,-0.97941 l 0.3266,-0.31292 0.9371,0.48847 0.9372,0.48856 1.2919,-0.004 1.2918,-0.004 0.8986,-0.49946 c 1.1576,-0.6433 1.407,-0.91006 1.8529,-1.98112 0.3591,-0.86264 0.3655,-0.90765 0.2923,-2.04118 l -0.075,-1.15911 0.3943,-0.39434 c 0.2169,-0.21688 0.4462,-0.36229 0.5095,-0.32313 0.068,0.0419 0.1157,0.60984 0.1164,1.38446 0,1.41049 0.083,2.15582 0.236,2.15582 0.053,0 0.1253,-0.13901 0.1619,-0.3089 0.4222,-1.96474 0.9449,-3.14182 1.3295,-2.99424 0.3443,0.13211 0.3023,0.59116 -0.205,2.23597 -0.2008,0.65133 -0.2302,2.00054 -0.054,2.50479 0.079,0.22714 0.3219,0.47643 0.6998,0.71882 0.5529,0.35464 0.6235,0.37036 1.5919,0.35414 1.5261,-0.0254 1.9092,-0.2663 1.4553,-0.9144 -0.3216,-0.45924 -0.97,-0.69749 -1.8978,-0.69749 -0.9608,0 -0.9994,-0.0487 -0.5508,-0.69607 l 0.2961,-0.42728 h 0.8552 c 0.6663,0 0.9838,0.0609 1.4362,0.27152 0.8981,0.41817 1.0364,0.8994 0.5416,1.88449 -0.4413,0.87871 -0.8897,1.35401 -1.4296,1.51554 -0.7343,0.21963 -2.3891,0.19034 -2.8157,-0.0499 -0.6555,-0.36902 -0.9589,-0.70969 -1.0353,-1.16234 -0.08,-0.47276 -0.2791,-0.71022 -0.2791,-0.33274 0,0.12721 -0.07,0.2313 -0.1547,0.2313 -0.085,0 -0.2177,0.0758 -0.2946,0.16853 -0.077,0.0926 -0.1793,0.16849 -0.2274,0.16849 -0.1443,0 -0.3343,-0.6744 -0.3343,-1.1871 0,-0.89366 -0.1014,-0.89856 -0.6362,-0.031 -0.4985,0.80848 -0.6018,0.92381 -1.4419,1.61017 -1.2373,1.01071 -2.8984,1.38777 -4.4935,1.01997 z m 14.5301,-0.56274 c -0.092,-0.20119 -0.091,-0.73067 0,-1.99393 0.07,-0.94602 0.1276,-2.10187 0.1272,-2.56863 0,-0.74927 0.038,-0.91035 0.3338,-1.37612 0.1839,-0.29009 0.3821,-0.52747 0.4402,-0.52747 0.063,0 0.081,0.42378 0.043,1.05002 l -0.063,1.05005 0.3513,0.0702 c 0.1932,0.0387 0.4277,0.0409 0.521,0.006 0.1993,-0.0764 0.2065,-0.01 0.057,0.53078 -0.092,0.3306 -0.1906,0.42937 -0.5473,0.54708 l -0.4354,0.14367 -0.054,0.91332 c -0.03,0.50228 -0.031,0.97647 0,1.0537 0.087,0.23164 0.3276,0.16034 0.6646,-0.19658 0.3559,-0.37714 0.4872,-0.42069 0.4872,-0.16151 0,0.20852 -1.4635,1.73419 -1.6635,1.73419 -0.076,0 -0.1947,-0.12324 -0.2634,-0.27392 z m 2.9319,-0.82132 c 0,-0.54062 -0.047,-1.3716 -0.097,-1.84669 -0.05,-0.47503 -0.056,-1.38493 -0.013,-2.02202 0.064,-0.95319 0.1259,-1.23203 0.3495,-1.5748 0.1495,-0.22908 0.3096,-0.41863 0.356,-0.42124 0.046,-0.003 0.084,0.47913 0.084,1.07058 v 1.07532 l 0.6388,-0.0297 c 0.3513,-0.0164 0.6552,0.0198 0.6753,0.0802 0.02,0.0603 -0.12,0.32279 -0.3115,0.58311 -0.2437,0.33145 -0.4301,0.47332 -0.6217,0.47332 h -0.2736 l 0.031,1.17046 c 0.017,0.64373 0.07,1.20933 0.1173,1.25688 0.048,0.0476 0.3141,-0.0243 0.5925,-0.15944 0.2783,-0.13523 0.5299,-0.24585 0.5592,-0.24585 0.1631,0 0.015,0.55687 -0.1996,0.75157 -0.4238,0.38394 -1.2663,0.82111 -1.5825,0.82111 h -0.2991 l -0.01,-0.98295 z m 2.7559,0.70993 c -0.3935,-0.39352 -0.3664,-0.90236 0.084,-1.58938 0.6284,-0.95758 1.0747,-1.36234 1.8399,-1.66865 0.7368,-0.29501 1.9822,-0.40245 2.118,-0.1828 0.036,0.0581 -0.037,0.27295 -0.1615,0.47744 -0.2877,0.47183 -0.2871,0.77134 0,1.13917 0.3681,0.46786 0.8736,0.54509 2.0102,0.30718 1.3285,-0.27811 2.0039,-0.59201 2.497,-1.16073 0.4423,-0.51012 0.5835,-0.5279 0.4549,-0.0573 -0.2227,0.81441 -1.1655,1.4509 -3.1353,2.11672 -1.372,0.46379 -2.1994,0.41833 -2.6332,-0.14465 l -0.1835,-0.23815 -0.534,0.35367 c -0.6254,0.4142 -1.3311,0.75528 -1.7693,0.85508 -0.2405,0.0547 -0.3748,0.008 -0.5898,-0.20759 z m 2.2067,-1.25423 c 0.4017,-0.20071 0.5606,-0.36275 0.702,-0.71639 0.1006,-0.25133 0.1829,-0.48331 0.1829,-0.51546 0,-0.0927 -1.0324,0.031 -1.4042,0.16801 -1.0953,0.40407 -1.3316,0.75391 -0.8408,1.24473 0.2626,0.26258 0.5485,0.22458 1.3601,-0.18089 z m 1.4889,-3.46739 c -0.035,-0.0903 -0.1721,-0.19741 -0.3054,-0.23797 -0.1334,-0.0406 -0.329,-0.14973 -0.4349,-0.2426 -0.1686,-0.14803 -0.1735,-0.20523 -0.04,-0.46437 0.084,-0.16258 0.2575,-0.39023 0.3854,-0.50598 0.2274,-0.2059 0.2431,-0.20543 0.7273,0.0222 0.5832,0.2741 0.6942,0.48683 0.4688,0.89796 -0.3711,0.67718 -0.6697,0.87477 -0.8017,0.53076 z m -2.8211,-0.20789 c -0.2001,-0.13514 -0.3643,-0.28471 -0.3651,-0.33239 0,-0.0477 0.1316,-0.28779 0.2943,-0.53359 0.3557,-0.53752 0.6319,-0.5707 1.1493,-0.13803 l 0.3694,0.30893 -0.3463,0.47744 c -0.3884,0.53559 -0.5763,0.57272 -1.1016,0.21764 z"
       id="path17794"
       sodipodi:nodetypes="csscccccssscsssscssssssssccssscsssssssscccccssscscsscccssscccscscsccsssccsssssccccsssscssssscssccssscssssssscsssscsscss"
       inkscape:export-xdpi="96"
       inkscape:export-ydpi="96" />
  </g>
</svg>
