<?xml version="1.0" encoding="UTF-8" standalone="no"?>
<svg
   xmlns:dc="http://purl.org/dc/elements/1.1/"
   xmlns:cc="http://creativecommons.org/ns#"
   xmlns:rdf="http://www.w3.org/1999/02/22-rdf-syntax-ns#"
   xmlns:svg="http://www.w3.org/2000/svg"
   xmlns="http://www.w3.org/2000/svg"
   xmlns:sodipodi="http://sodipodi.sourceforge.net/DTD/sodipodi-0.dtd"
   xmlns:inkscape="http://www.inkscape.org/namespaces/inkscape"
   width="163.61342mm"
   height="38.286781mm"
   viewBox="0 0 163.61342 38.286781"
   version="1.1"
   id="svg8"
   inkscape:version="1.0.2-2 (e86c870879, 2021-01-15)"
   sodipodi:docname="Spiritualiser le matériel Matérialiser le spirituel Desktop VF.svg">
  <defs
     id="defs2" />
  <sodipodi:namedview
     id="base"
     pagecolor="#ffffff"
     bordercolor="#666666"
     borderopacity="1.0"
     inkscape:pageopacity="0.0"
     inkscape:pageshadow="2"
     inkscape:zoom="0.49497475"
     inkscape:cx="100.10438"
     inkscape:cy="125.33632"
     inkscape:document-units="mm"
     inkscape:current-layer="layer1"
     inkscape:document-rotation="0"
     showgrid="false"
     fit-margin-top="5"
     fit-margin-left="5"
     fit-margin-right="5"
     fit-margin-bottom="5"
     inkscape:showpageshadow="false"
     lock-margins="true"
     inkscape:window-width="958"
     inkscape:window-height="1018"
     inkscape:window-x="-7"
     inkscape:window-y="0"
     inkscape:window-maximized="0" />
  <metadata
     id="metadata5">
    <rdf:RDF>
      <cc:Work
         rdf:about="">
        <dc:format>image/svg+xml</dc:format>
        <dc:type
           rdf:resource="http://purl.org/dc/dcmitype/StillImage" />
        <dc:title></dc:title>
      </cc:Work>
    </rdf:RDF>
  </metadata>
  <g
     inkscape:label="Calque 1"
     inkscape:groupmode="layer"
     id="layer1"
     transform="translate(-8.9075926,-122.97564)">
    <g
       id="g64694-2-3-6-7"
       transform="matrix(0.48426361,-0.18713337,0.18713337,0.48426361,869.99528,-1444.1003)"
       style="fill:#112f25;fill-opacity:1">
      <path
         d="m -2450.6706,2317.9995 c -0.7807,-0.4596 -1.1881,-0.9301 -1.4104,-1.6151 -0.1354,-0.4083 -0.1096,-0.5208 0.2453,-1.1017 0.4524,-0.7368 0.6103,-0.8693 1.8325,-1.5197 0.941,-0.5111 2.1371,-0.6715 2.2714,-0.3051 0.086,0.2139 -0.8202,0.6307 -1.578,0.7186 -0.7771,0.094 -1.6576,1.1724 -1.3061,1.5974 1.5844,1.907 4.4093,3.0531 7.5092,3.1931 2.1675,0.1039 5.1819,-0.4729 6.3447,-1.1467 0.2565,-0.1524 0.8503,-0.7028 1.3361,-1.2299 0.4764,-0.5242 1.0136,-1.0882 1.1817,-1.2555 0.2842,-0.2658 1.235,-1.523 1.2927,-1.7085 0.085,-0.2902 2.0338,-3.2042 2.6354,-3.9662 0.9685,-1.1999 1.682,-1.5672 2.2097,-1.5526 0.5309,0.024 0.5347,0.1381 0.015,0.7279 -0.9306,1.0519 -1.3252,1.6034 -2.0914,2.95 -1.2135,2.134 -2.3096,5.4252 -1.7919,5.4107 0.082,-2e-4 0.2346,-0.1557 0.3364,-0.3344 0.093,-0.1751 0.3359,-0.4702 0.5267,-0.6654 0.2034,-0.1885 0.5997,-0.6671 0.9085,-1.0557 0.2995,-0.3857 0.7625,-0.8849 1.0297,-1.1038 0.5288,-0.4566 3.3074,-2.1329 3.8432,-2.33 0.1867,-0.072 0.7501,-0.1802 1.0861,-0.3464 0.6809,-0.3364 2.131,-0.6905 2.3217,-0.5822 0.2059,0.1247 -0.053,0.4038 -0.5316,0.583 -0.2616,0.1016 -0.5936,0.2463 -0.7471,0.3256 -0.1629,0.082 -0.5148,0.2645 -0.7963,0.4036 -0.6208,0.3281 -1.1773,0.762 -1.7028,1.3641 -0.5709,0.6583 -1.9467,1.9633 -2.1164,2.0576 -0.2848,0.1619 -2.5425,4.0632 -2.6946,4.6545 -0.2618,1.0129 -0.3281,1.7137 -0.066,2.5954 0.2628,0.8817 0.3809,1.1174 1.0202,2.1129 0.8173,1.2546 2.1879,2.3691 3.557,2.8352 0.8879,0.3029 2.3512,0.5286 2.849,0.4794 1.0556,-0.1069 1.1353,-1.304 0.066,-2.5956 -0.3824,-0.4573 -0.8499,-0.9198 -1.0465,-1.0474 -0.8241,-0.4987 -3.6951,-1.2847 -4.2101,-1.1571 -0.5162,0.1236 -0.6172,-0.1928 -0.1414,-0.4901 0.7279,-0.4557 1.4264,-0.5666 2.5964,-0.2697 2.5102,0.6365 3.4663,1.1885 4.322,2.5672 0.611,0.9939 0.7005,1.2487 0.5978,1.7306 -0.3677,1.7887 -2.7793,2.7233 -5.2553,1.9612 -2.7429,-0.8473 -3.5739,-1.4693 -5.0052,-3.7271 -0.8963,-1.408 -1.0588,-2.3731 -0.8532,-3.7033 0.1574,-0.9803 0.2342,-1.1715 1.2474,-2.9716 1.0132,-1.7999 1.9002,-3.0268 2.7063,-3.7368 0.5867,-0.506 0.7987,-0.8019 0.6206,-0.904 -0.1781,-0.1016 -1.0306,0.5599 -1.2705,0.9689 -0.079,0.1502 -0.3263,0.4674 -0.5465,0.703 -0.2172,0.2453 -0.6774,0.754 -1.0275,1.1449 -0.3435,0.3785 -0.7734,0.9512 -0.9574,1.2698 -0.2275,0.4157 -0.4504,0.6419 -0.7474,0.7652 -0.3798,0.1595 -0.4415,0.2306 -0.6559,0.925 -0.526,1.6492 -2.1983,3.2135 -2.5215,2.3713 -0.066,-0.1678 -0.023,-0.2755 0.1439,-0.3795 0.5677,-0.3641 1.2933,-2.3158 1.4903,-4.3864 0.029,-0.3124 0.1789,-0.809 0.3179,-1.1034 0.1516,-0.2877 0.2404,-0.5766 0.1995,-0.638 -0.042,-0.071 -0.1093,-0.05 -0.161,0.053 -0.047,0.087 -0.2562,0.2886 -0.4713,0.439 -0.2056,0.1472 -0.6154,0.5148 -0.9036,0.8344 -0.5573,0.6014 -1.4364,1.1771 -2.8689,1.8926 -2.5962,1.2848 -6.8336,1.6638 -10.1624,0.7159 -0.852,-0.2488 -1.8541,-0.7136 -3.0248,-1.4193 z m 28.8987,13.6579 c -0.3984,-0.4418 -0.4488,-0.7403 -0.1709,-1.1612 0.5991,-0.9391 2.4723,-1.5501 4.26,-1.2867 0.8354,0.1287 2.3563,0.7756 2.7228,1.1881 0.2284,0.2644 0.088,0.6219 -0.2681,0.6901 -0.1204,0.017 -0.5163,0.3272 -0.8973,0.6859 -0.6006,0.5626 -0.6792,0.6811 -0.6894,1.0194 -0.018,0.686 0.5615,0.9356 2.1901,0.9552 0.4838,0.01 0.8809,0.073 0.895,0.1522 0.03,0.1998 -2.3429,0.5473 -3.0747,0.4489 -1.0156,-0.1358 -1.7239,-0.8691 -1.3676,-1.4086 0.2385,-0.346 0.1104,-0.4216 -0.7336,-0.443 -1.5234,-0.052 -2.3442,-0.2689 -2.8664,-0.8404 z m 3.096,0.026 c 0.8861,0.1234 1.2221,0.093 1.7842,-0.1544 0.9006,-0.4044 0.86,-0.5698 -0.2498,-1.0427 -1.8519,-0.8088 -3.9779,-0.643 -3.5389,0.268 0.2275,0.4635 0.9004,0.7786 2.0042,0.9292 z m 4.0778,4.3489 c -0.043,-0.3427 0.092,-0.5832 1.4729,-2.5808 0.8392,-1.2124 1.53,-2.2948 1.5292,-2.3992 0.01,-0.1484 -0.3911,-0.4862 -1.351,-1.1521 -1.483,-1.0381 -1.6495,-1.2378 -1.2795,-1.5303 0.4282,-0.3418 1.1041,-0.1532 2.2728,0.6472 0.5926,0.3923 1.1577,0.7304 1.2651,0.739 0.139,0.01 0.4274,-0.3103 0.888,-0.9866 0.6529,-0.9348 0.7205,-0.987 1.1418,-1.0127 0.2563,-0.017 0.5236,0.068 0.5539,0.1318 0.034,0.073 -0.3113,0.6512 -0.7678,1.2739 -0.4695,0.6477 -0.7914,1.1974 -0.7517,1.2584 0.052,0.068 0.6287,0.4755 1.2932,0.8978 0.6581,0.435 1.2345,0.8428 1.2838,0.9009 0.1503,0.2152 -0.1094,0.3899 -0.6809,0.4723 -0.5013,0.071 -0.7022,0 -1.666,-0.5379 l -1.1031,-0.6217 -1.369,1.868 c -0.8276,1.1145 -1.3643,1.9505 -1.3545,2.0835 0.014,0.3832 0.4559,0.5603 1.5331,0.6249 0.8213,0.049 1.2595,-0.024 2.0697,-0.3475 1.3215,-0.5339 2.5908,-0.5921 3.3967,-0.1193 0.5217,0.2991 0.5739,0.3667 0.526,0.6851 -0.118,0.7692 -1.0901,1.1119 -3.3559,1.1639 l -0.6934,0.026 0.2205,0.3402 c 0.7613,1.2088 2.2881,1.5425 4.1151,1.019 0.624,-0.1826 0.845,-0.3138 1.1671,-0.7275 0.4879,-0.6219 1.4599,-1.1008 2.5926,-1.2628 0.974,-0.1334 1.4994,0.1433 1.0132,0.5345 -0.1704,0.126 -0.683,0.431 -1.1465,0.6582 -1.1836,0.6069 -1.2203,0.6916 -0.7342,1.6195 0.4585,0.8734 0.4132,1.0655 -0.3279,1.4099 -0.2394,0.1056 -0.5492,0.3898 -0.6996,0.6144 -0.3631,0.5518 -0.1655,0.7839 0.7306,0.8729 1.3919,0.1346 1.9249,0.064 2.5124,-0.3378 0.4142,-0.2851 1.0456,-0.3761 1.2819,-0.1873 0.055,0.045 -0.1681,0.3349 -0.4915,0.6441 -0.588,0.5692 -1.0299,1.4073 -0.9265,1.7417 0.072,0.2183 0.4114,0.2809 1.7623,0.5539 0.6678,0.1282 1.6782,0.2134 2.2448,0.1846 0.5641,-0.038 1.2846,-0.013 1.5964,0.051 0.9104,0.1684 2.4976,0.9336 2.9615,1.4179 0.142,0.1549 -0.1658,0.5355 -0.4124,0.4942 -0.378,-0.071 -1.5851,0.5948 -2.0488,1.1258 -0.9372,1.0646 -0.3852,1.8673 1.6655,2.4052 0.9436,0.2421 1.4023,0.236 2.5338,0.1371 1.7458,-0.1424 2.0647,-0.2621 2.5461,-0.8713 0.9861,-1.2787 3.7418,-3.063 6.2245,-4.0719 1.1453,-0.4597 2.3917,-0.4575 2.3975,0.01 0.018,0.4969 -2.3373,3.2041 -3.0947,3.564 -0.5208,0.2453 -2.899,0.9494 -3.4825,1.0253 -0.092,0.01 -0.4416,0.095 -0.7602,0.1825 -0.5791,0.1581 -0.621,0.1921 -1.4572,1.2778 -0.8431,1.0983 -1.1304,1.6583 -0.9383,1.8396 0.1145,0.1009 2.9351,0.013 3.9627,-0.1166 0.3615,-0.05 0.6771,-0.011 0.6942,0.079 0.028,0.086 -0.2136,0.4951 -0.5257,0.9057 -0.4683,0.5846 -0.6246,0.7901 -0.607,1.1509 0.012,0.4463 0.012,0.4463 0.6547,0.729 0.774,0.3359 2.6591,0.3393 3.5172,0 0.5964,-0.2378 1.8611,-0.3455 2.0313,-0.1679 0.1366,0.1354 -0.1233,0.3742 -0.5066,0.4604 -0.4194,0.1 -0.4766,0.3881 -0.2734,1.5186 0.3073,1.7368 -0.1432,2.3785 -1.7195,2.4268 -1.2026,0.037 -1.6022,-0.07 -2.5467,-0.8553 l -0.7737,-0.6399 0.076,-0.5994 c 0.041,-0.3377 0.1377,-0.6708 0.2095,-0.7449 0.2003,-0.1982 1.9163,-0.1325 2.288,0.087 0.4997,0.2955 0.4336,0.9966 -0.076,1.3428 l -0.3914,0.2572 0.3834,0.2581 c 0.8516,0.553 1.1959,0.2791 1.1168,-0.8898 -0.04,-0.4691 -0.085,-1.0205 -0.1652,-1.2783 l -0.1415,-0.4586 -1.6549,0.03 c -1.7909,0.03 -3.0193,-0.2172 -3.3678,-0.7688 -0.2263,-0.3592 -0.087,-1.093 0.3244,-1.6917 0.1633,-0.2495 0.2852,-0.4649 0.2698,-0.481 -0.028,-0.024 -0.8478,0 -1.832,0.033 -2.9885,0.1187 -3.1283,-0.2986 -1.1844,-2.711 0.081,-0.1091 0.1381,-0.231 0.114,-0.2758 -0.025,-0.044 -0.7618,-0.025 -1.6396,0.046 -1.4606,0.1171 -3.0554,0.01 -4.195,-0.3976 -0.6295,-0.2179 -1.3407,-0.7472 -1.5406,-1.1564 -0.2548,-0.5177 -0.2356,-0.6599 0.2478,-1.3641 0.2156,-0.3181 0.3586,-0.6344 0.3153,-0.7051 -0.04,-0.061 -0.5021,-0.033 -1.1132,-0.012 -1.4342,0.067 -2.3829,-0.089 -2.5878,-0.4135 -0.2054,-0.3237 -0.012,-0.908 0.4448,-1.2682 0.1903,-0.1632 0.3201,-0.3189 0.2797,-0.3482 -0.041,-0.03 -0.64,-0.1054 -1.4282,-0.2176 -0.8008,-0.1185 -1.5563,-0.293 -1.6711,-0.3937 -0.2796,-0.2274 -0.3267,-0.6839 -0.1149,-1.1158 0.4031,-0.7947 0.4031,-0.7947 -0.7261,-0.7906 -0.4779,0.012 -0.9756,0.061 -1.2154,0.03 -0.2522,-0.037 -0.4801,-0.029 -0.5095,0.011 -0.091,0.1123 -0.7885,-0.2479 -0.9602,-0.4984 -0.3094,-0.4591 0.018,-0.9896 1.2247,-1.9281 0.1835,-0.1514 0.2466,-0.2857 0.1795,-0.401 -0.048,-0.089 -0.2159,-0.3937 -0.3621,-0.6626 l -0.2677,-0.4929 -1.7971,0.3153 c -2.1104,0.318 -2.7676,0.2911 -3.552,-0.1465 -1.0345,-0.5696 -1.6983,-1.767 -1.3168,-2.2933 0.081,-0.109 0.097,-0.2289 0.043,-0.2645 -0.043,-0.039 -0.7633,-0.099 -1.5816,-0.1389 -1.5897,-0.063 -1.8631,-0.1353 -1.9326,-0.7309 z m 17.6011,11.1451 c 0.8515,0.1133 2.9848,-0.097 3.1631,-0.2984 0.101,-0.1146 0.026,-0.2174 -0.3102,-0.4273 -0.237,-0.1571 -0.5567,-0.2781 -0.7614,-0.3297 -0.1954,-0.054 -0.5137,-0.1796 -0.6997,-0.2649 -0.7917,-0.3938 -2.7966,0.6032 -2.2127,1.1032 0.083,0.069 0.4585,0.1614 0.821,0.2165 z m -11.5512,-10.3688 c 0.4705,0.032 1.0213,0.019 1.2306,-0.014 0.3148,-0.066 0.3639,-0.1101 0.2849,-0.2974 -0.1226,-0.3285 -0.3536,-0.4664 -0.9251,-0.5199 -0.5838,-0.06 -1.3567,0.2835 -1.4261,0.5665 -0.076,0.264 -0.1436,0.2121 0.8356,0.2646 z m 23.7826,12.9904 c 1.9685,-0.6408 1.9685,-0.6408 3.0717,-1.9134 0.5519,-0.6523 1.0105,-1.2338 1.0119,-1.2971 -1e-4,-0.063 -0.1575,-0.035 -0.3398,0.053 -0.1916,0.091 -0.7375,0.3225 -1.2225,0.5144 -1.2029,0.4766 -2.1833,1.0628 -3.2301,2.0777 l -0.8787,0.8477 0.5358,-0.061 c 0.2948,-0.029 0.7652,-0.1317 1.0516,-0.2207 z m 4.2491,14.1043 c -0.2042,-0.3554 -0.1994,-0.7129 -0.1782,-1.557 l 0.022,-1.1476 0.6812,-0.2005 c 0.9134,-0.2616 3.4279,-0.2546 4.1393,0.049 1.0565,0.4372 1.3603,1.4527 0.5667,1.8972 -0.5827,0.3164 -1.8096,0.4443 -2.7736,0.2721 -1.0429,-0.1903 -1.184,-0.1048 -0.9197,0.5462 0.1947,0.4631 0.6983,0.7679 1.8672,1.1286 0.5563,0.1725 0.892,0.1425 1.2108,0.023 0.5381,-0.1889 2.0657,-0.1576 2.8484,0.071 0.7794,0.2199 1.3414,0.7155 1.7507,1.531 0.779,1.5698 3.3062,4.6295 3.9408,4.6843 0.3124,0.029 0.4497,0.2692 0.2499,0.4356 -0.2606,0.2063 -1.0384,0.196 -1.5461,-0.024 -0.9463,-0.4192 -3.3762,-3.2995 -4.1573,-4.9106 -0.4057,-0.8375 -0.851,-1.1603 -1.704,-1.2105 -0.853,-0.05 -1.1979,0.2558 -1.0389,0.9392 0.059,0.2437 0.023,0.5475 -0.075,0.672 -0.2211,0.2673 -1.0456,0.5119 -1.2192,0.3568 -0.3409,-0.3239 -0.5384,-0.6919 -0.5405,-1.0367 0.01,-0.5565 -0.3922,-0.8939 -1.2788,-1.1219 -0.846,-0.2302 -1.4157,-0.6508 -1.8455,-1.397 z m 3.018,-1.3421 c 0.776,0.2417 1.1195,0.1665 1.1635,-0.2661 0.076,-0.5676 -0.7661,-0.9875 -1.8492,-0.9352 -1.2158,0.062 -0.8443,0.7219 0.6857,1.2011 z m -21.0216,-22.6063 c -0.1157,-0.6131 0.2996,-0.9613 1.031,-0.8633 l 0.5139,0.071 0.026,0.5574 c 0.042,0.6778 0.014,0.7182 -0.6604,0.8427 -0.6412,0.1262 -0.7976,0.027 -0.9104,-0.6079 z m -7.2749,-5.9872 c 0.058,-0.08 0.3326,-0.1766 0.6076,-0.2014 0.6403,-0.061 2.1087,-0.3908 4.1856,-0.9181 1.5208,-0.3968 2.4279,-0.3745 2.4629,-0.092 1e-4,0.062 -0.4377,0.2092 -1.0001,0.3199 -0.5594,0.1201 -1.3944,0.2636 -1.7985,0.3788 -0.4042,0.114 -0.8303,0.2257 -0.9481,0.251 -0.1107,0.013 -0.8834,0.1896 -1.7191,0.3641 -1.392,0.3053 -2.0744,0.265 -1.7913,-0.1053 z m 22.557,17.5883 c -0.3096,-0.595 -0.091,-0.9035 0.6522,-0.9032 0.5536,0 0.5785,0.01 0.8463,0.5023 0.1523,0.2878 0.3205,0.6649 0.3457,0.8142 0.045,0.2476 -0.01,0.2844 -0.5677,0.364 -0.6602,0.099 -0.891,-0.038 -1.2768,-0.7772 z"
         style="fill:#112f25;fill-opacity:1;stroke-width:0.136193"
         id="path4579-4-0-9-9" />
      <path
         d="m -2438.9463,2361.5859 c 0.228,-0.611 0.8038,-1.544 2.6249,-4.2658 0.7963,-1.1899 1.8633,-2.9093 2.3812,-3.8267 0.5179,-0.9176 1.5181,-2.4633 2.2096,-3.4281 0.7884,-1.1049 1.2753,-1.8691 1.2887,-2.0488 0.016,-0.2208 0.146,-0.3401 0.5954,-0.5552 0.322,-0.1497 0.5812,-0.3022 0.5802,-0.3438 -0.027,-0.075 -1.794,0.3 -2.5188,0.5691 -0.8571,0.3159 -1.8248,0.3398 -1.8744,0.042 -0.034,-0.1985 0.6637,-0.4184 2.8692,-0.8819 1.8502,-0.3984 2.3566,-0.5564 2.8342,-0.9346 0.8245,-0.6276 1.607,-0.7984 1.5775,-0.3346 -0.015,0.1386 -1.0092,1.0923 -1.6376,1.5634 -0.1819,0.1325 -0.1475,0.1848 0.2964,0.4065 0.333,0.1587 0.6492,0.4455 0.9365,0.8546 0.491,0.6647 0.931,0.9495 2.1636,1.33 0.7566,0.23 0.7865,0.263 1.0384,0.7337 0.2999,0.5715 0.2949,0.9356 -0.3737,2.0599 -0.2699,0.4566 -0.4574,0.9113 -0.4164,1.0247 0.1225,0.3293 0.6367,0.6663 1.0814,0.7012 0.5929,0.047 2.04,-0.7296 2.7533,-1.4616 0.3847,-0.4152 0.7703,-0.6753 1.1413,-0.7965 1.1644,-0.3675 1.5002,0.4114 0.42,0.9738 -0.4343,0.2322 -0.3431,0.6837 0.1142,1.5648 0.4435,0.833 0.3277,1.082 -0.6002,1.4167 -1.59,0.5556 -1.3842,1.3908 0.3514,1.4483 1.1165,0.031 0.7247,0.6842 -0.4693,0.7906 -1.07,0.1039 -1.4033,0.06 -1.865,-0.2299 -0.8012,-0.508 -0.5463,-1.4786 0.6015,-2.2143 0.7066,-0.4508 0.7769,-0.5735 0.4958,-0.922 -0.1269,-0.1624 -0.2625,-0.3952 -0.2937,-0.5111 -0.064,-0.2825 -0.4346,-0.3794 -0.6095,-0.1458 -0.1774,0.2242 -2.135,0.9521 -2.7115,1.0047 -0.62,0.044 -1.5081,-0.3264 -1.7225,-0.7347 -0.2789,-0.4941 -0.1749,-0.9888 0.3606,-1.8799 0.6179,-1.007 0.6309,-1.5701 0.051,-1.8471 -0.666,-0.3166 -1.0869,-0.2647 -1.4227,0.1787 -0.1653,0.2314 -0.548,0.5009 -0.8562,0.6259 -0.6616,0.2725 -2.8262,0.3523 -3.5487,0.1336 -0.2901,-0.077 -0.5585,-0.1034 -0.5928,-0.046 -0.038,0.052 -0.442,0.7 -0.9078,1.4273 -0.4537,0.7345 -1.4038,2.2356 -2.1073,3.3485 -1.7446,2.7734 -2.7625,4.5209 -2.9668,5.1047 -0.2317,0.674 -0.8233,1.0521 -1.1949,0.7903 -0.2067,-0.1507 -0.224,-0.2914 -0.071,-0.6851 z m 10.0212,-10.6134 c 0.8805,0 1.0903,-0.068 1.1971,-0.5527 l 0.073,-0.3592 -0.5894,-0.1091 c -0.8443,-0.1337 -2.3225,0.07 -2.3367,0.323 -0.022,0.3377 0.8311,0.6966 1.6609,0.6996 z m 0.128,-1.9724 c 0.5352,-0.051 0.6152,-0.1764 0.2805,-0.418 -0.3225,-0.2337 -0.8131,-0.1762 -1.0168,0.1101 -0.1794,0.2559 0.1164,0.3829 0.7363,0.308 z m -20.3878,-6.52 c -0.3275,-0.3671 -0.6023,-0.7693 -0.6644,-0.9597 -0.1067,-0.3129 -0.087,-0.3499 0.2672,-0.5802 0.5155,-0.3161 0.6567,-0.292 1.1084,0.3419 0.2144,0.2941 0.682,0.7579 1.037,1.0348 0.5912,0.4612 0.7281,0.5069 1.7392,0.6057 1.3418,0.1337 2.5224,0.093 2.6444,-0.1055 0.043,-0.074 -0.011,-0.4631 -0.141,-0.8635 -0.264,-0.8193 -0.2048,-2.7418 0.124,-3.287 0.1148,-0.1868 0.3672,-0.4413 0.5639,-0.5569 1.5125,-0.9181 4.0318,0 5.5789,2.0407 l 0.7221,0.944 0.4117,-0.1632 c 0.7943,-0.3189 2.6373,-1.3164 3.4319,-1.8636 0.61,-0.4245 0.9264,-0.7486 1.305,-1.3383 0.7508,-1.1672 1.9824,-1.9364 2.7456,-2.102 0.9879,-0.2161 0.7817,0.2855 -0.6943,1.6803 -1.2163,1.1692 -1.3388,1.4821 -1.3436,3.6799 -0.01,1.0578 -0.099,1.6954 -0.3548,2.3967 -0.612,1.6787 -1.2647,2.4047 -2.7916,3.0781 -2.4503,1.0893 -5.9352,0.1592 -8.259,-2.1423 l -0.7375,-0.7327 -0.5229,0.058 c -2.0281,0.2392 -4.6364,0.097 -5.3172,-0.3504 -0.1302,-0.1 -0.5184,-0.4601 -0.8532,-0.815 z m 11.4869,2.9667 c 1.2203,0.4874 1.822,0.6041 2.9417,0.5699 1.1105,-0.031 1.3745,-0.1652 1.8668,-0.9105 0.653,-0.9542 0.9913,-1.8851 1.1092,-3.0155 0.1225,-1.0383 -0.073,-2.4874 -0.2384,-2.5982 -0.05,-0.027 -0.2778,0.083 -0.5187,0.2652 -0.2415,0.1793 -0.8628,0.5241 -1.3771,0.7672 -0.5171,0.2329 -1.1559,0.5518 -1.4052,0.7022 l -0.458,0.2595 0.1851,0.4885 c 0.1591,0.4335 0.3023,0.5811 1.3375,1.264 1.2487,0.8217 1.3844,1.0543 0.8268,1.4438 -0.4548,0.3099 -0.7696,0.2185 -1.7511,-0.3434 -0.7237,-0.4149 -1.0838,-0.7111 -1.5831,-1.2906 l -0.6407,-0.7586 -0.4923,0.1336 c -2.0775,0.5538 -2.526,0.6953 -2.606,0.821 -0.1243,0.1893 0.5302,0.9232 1.2532,1.411 0.3198,0.2241 1.0279,0.5811 1.5512,0.7915 z m -2.8,-2.8359 c 0.8807,-0.115 2.5997,-0.6535 2.6878,-0.8635 0.2406,-0.6038 -2.2503,-2.7572 -3.3622,-2.9217 -0.3234,-0.047 -0.6428,0 -0.6993,0.096 -0.362,0.575 -0.1831,2.495 0.2923,3.2156 0.3596,0.5243 0.4429,0.5638 1.0814,0.4735 z m -23.0455,-10.8557 c -0.071,-0.2399 0.059,-0.2934 1.8502,-0.8957 0.9906,-0.32 2.0774,-0.7065 2.4209,-0.853 l 0.6232,-0.2626 1.1034,-2.1955 c 1.3941,-2.7299 1.8399,-2.996 3.0956,-3.4093 1.1353,-0.3597 1.6528,-0.2097 1.7843,0.5417 0.2096,1.1553 -1.8273,3.5004 -4.1315,4.7471 -0.5975,0.3176 -0.8119,0.5209 -1.0667,0.994 -0.3694,0.7014 -0.3453,1.5956 0.057,1.891 0.5537,0.3989 0.8977,0.368 1.5639,-0.1553 0.6664,-0.5227 2.0635,-1.0259 2.5746,-0.9369 0.1668,0.035 0.4162,0.1981 0.4626,0.3304 0.1687,0.4307 -0.8525,1.288 -1.938,1.7173 -0.6065,0.2476 -0.6235,0.4901 -0.088,1.0497 0.451,0.4784 2.3735,1.1488 3.4856,1.1993 0.7455,0.036 0.9506,-0.013 1.6039,-0.4663 1.1814,-0.8386 1.374,-0.9322 1.5578,-0.8266 0.4786,0.2742 -1.2466,1.4778 -2.7575,1.981 -1.1191,0.3806 -1.9932,0.2918 -3.7163,-0.3702 -1.0048,-0.3801 -1.1519,-0.4646 -1.5714,-0.9413 -0.2532,-0.2838 -0.5043,-0.7129 -0.5644,-0.9349 l -0.1132,-0.415 -0.8181,-0.1517 c -0.4512,-0.091 -0.9052,-0.2401 -1.0132,-0.3365 -0.2524,-0.2426 -0.3831,-1.2223 -0.2464,-1.9018 l 0.1098,-0.5389 -1.9989,0.6904 c -1.9351,0.6582 -2.1813,0.706 -2.2713,0.4502 z m 8.4467,0.8484 c 0.2577,0.034 0.5664,-0.4332 0.3155,-0.4793 -0.095,-0.013 -0.3069,0.053 -0.4883,0.1481 -0.317,0.1691 -0.2662,0.2794 0.1713,0.3266 z m -1.2371,-4.0785 c 0.2876,-0.1612 0.6223,-0.4175 0.7507,-0.5558 0.1261,-0.1476 0.4724,-0.5117 0.7719,-0.821 0.9363,-0.9791 1.2658,-1.9801 0.7637,-2.3415 -0.1824,-0.137 -0.3333,-0.088 -0.7154,0.2275 -0.3889,0.323 -0.8281,0.6909 -1.5008,1.9922 -0.4766,0.9168 -0.7321,1.7321 -0.6831,1.7604 0.045,0.022 0.3185,-0.086 0.6137,-0.2595 z m 53.7656,46.1856 c -0.011,-0.5772 0.2154,-1.2294 0.8375,-2.4133 0.2409,-0.4488 0.3641,-0.8345 0.2828,-0.9054 -0.071,-0.075 -0.1623,-0.1005 -0.2014,-0.063 -0.08,0.086 -1.9058,0.1544 -2.4821,0.093 -1.553,-0.1486 -2.3937,-0.4592 -2.9146,-1.1573 -0.3834,-0.4968 -0.4356,-0.8041 -0.2681,-1.4088 0.165,-0.5735 -0.054,-1.0008 -0.4906,-1.0065 -0.4464,0.01 -1.3984,-0.4189 -1.8232,-0.8009 -0.1927,-0.1759 -0.408,-0.511 -0.4859,-0.7593 -0.091,-0.2968 -0.1902,-0.4354 -0.3062,-0.4038 -0.2517,0.065 -1.3421,-0.5167 -1.5497,-0.823 -0.102,-0.1485 -0.2155,-0.4908 -0.2475,-0.7619 l -0.073,-0.4982 -0.5935,0.031 c -0.6887,0.021 -1.1183,-0.1106 -1.5376,-0.4741 -0.6369,-0.5526 -0.6134,-1.077 0.1146,-2.176 0.6716,-1.0004 0.6472,-1.1286 -0.125,-0.9193 -0.3671,0.099 -0.6933,0.1565 -0.7449,0.1188 -0.049,-0.027 -0.3937,-0.037 -0.7718,-0.021 -0.9596,0.051 -1.7592,-0.1442 -2.2548,-0.5595 -0.6019,-0.5001 -0.5329,-0.9331 0.4101,-2.194 0.6378,-0.8568 0.8119,-1.018 1.2383,-1.1647 0.9011,-0.3069 0.9689,0.1722 0.038,1.3989 -0.5791,0.7685 -0.6046,0.827 -0.4139,1.1483 0.2661,0.4459 1.2148,0.6965 2.4286,0.6263 0.4895,-0.026 0.9681,0.016 1.0619,0.095 0.1877,0.1563 0.6677,-0.3264 1.1822,-1.1808 0.2182,-0.3802 0.2151,-0.5039 -0.023,-0.8847 -0.6312,-0.9895 -0.5525,-1.4253 0.2708,-1.597 0.3621,-0.078 0.487,-0.038 0.7085,0.2436 0.3607,0.4513 0.7369,0.3491 1.3483,-0.3763 0.4454,-0.535 1.3722,-0.9005 1.708,-0.8466 0.3579,0.059 0.1549,0.4864 -0.6966,1.4427 -0.5105,0.5633 -0.8882,1.0803 -0.8927,1.2161 0,0.1457 0.3108,0.4962 1.0016,1.096 0.7755,0.6807 1.0136,0.9478 1.0254,1.1829 0.021,0.3975 -0.13,0.553 -0.6129,0.6427 -0.3554,0.065 -0.5122,-0.014 -1.3997,-0.7289 -0.5447,-0.4429 -1.0855,-0.7935 -1.1873,-0.7867 -0.2568,0.014 -2.0553,2.1636 -2.3008,2.7483 -0.1603,0.3645 -0.144,0.5047 0.06,0.6781 0.6,0.5314 1.5358,0.5057 2.2839,-0.061 0.5998,-0.4631 1.4807,-0.8057 1.656,-0.656 0.1232,0.1109 0.1138,0.1141 -0.6319,1.0313 -0.9692,1.1644 -0.9678,1.4748 -0.1614,1.8882 0.5512,0.2753 0.5996,0.2622 1.4012,-0.4112 0.9736,-0.803 1.9834,-0.9006 1.7991,-0.1667 -0.05,0.2455 -0.2462,0.4294 -0.816,0.8118 -0.8428,0.56 -0.9905,0.8178 -0.7254,1.2225 0.2251,0.3327 0.6372,0.5525 1.5355,0.8474 0.5786,0.1857 0.7734,0.2153 1.1036,-0.019 0.5908,-0.4195 1.3224,-0.5867 2.1107,-0.469 1.0391,0.1631 1.3669,0.4165 1.4482,1.0993 0.031,0.3027 -0.018,0.6454 -0.1094,0.7442 -0.2257,0.2374 -1.7033,0.8248 -1.8051,0.7175 -0.052,-0.039 -0.2084,-0.016 -0.3597,0.087 -0.1536,0.083 -0.4183,0.176 -0.5812,0.187 -0.172,0.019 -0.3225,0.1103 -0.3405,0.1962 -0.1459,0.7143 2.4136,1.2207 4.3691,0.8665 l 1.1167,-0.1993 1.5414,-1.537 c 0.8562,-0.854 1.8951,-1.7991 2.328,-2.1134 1.5109,-1.1144 3.3758,-1.2679 4.0494,-0.5801 0.5177,0.5332 0.4019,1.0204 -0.4486,1.8622 -0.7044,0.6882 -1.5375,1.2458 -1.6811,1.0982 -0.042,-0.041 -0.3093,0.083 -0.5766,0.2808 -0.2773,0.2 -0.5682,0.3508 -0.6559,0.3331 -0.169,-0.046 -1.973,0.4421 -2.1179,0.5955 -0.058,0.059 -0.4134,0.1945 -0.8066,0.3113 -0.6344,0.1821 -0.7633,0.2798 -1.3081,0.9455 -0.3366,0.4021 -0.6265,0.8226 -0.6364,0.9393 -0.013,0.1072 -0.1193,0.3638 -0.251,0.5651 -0.1192,0.2089 -0.2435,0.7084 -0.3058,1.0882 -0.1037,0.6087 -0.07,0.7341 0.284,1.0834 0.5423,0.5473 1.5066,0.8554 2.7126,0.8703 1.2568,0.01 2.1132,-0.2312 3.3353,-1.1123 0.7601,-0.5583 0.9813,-0.6599 1.1462,-0.5491 0.5807,0.4227 -0.3963,1.4029 -1.848,1.8585 -0.4771,0.1517 -0.9013,0.3069 -0.9488,0.3607 -0.1238,0.1161 -2.6116,0.4183 -3.1414,0.3755 -0.2526,-0.017 -0.5032,-0.059 -0.5475,-0.112 -0.045,-0.049 -0.097,-0.03 -0.1275,0.066 -0.013,0.091 -0.1,0.089 -0.1868,-0.01 -0.085,-0.081 -0.4199,-0.2488 -0.7424,-0.3684 -0.3789,-0.1356 -0.7845,-0.409 -1.1383,-0.7586 -0.458,-0.4663 -0.5412,-0.6197 -0.5406,-1.0759 z m -4.368,-6.7829 c 0.08,-0.086 0.07,-0.1642 -0.019,-0.1819 -0.091,-0.012 -0.1665,0.034 -0.1868,0.1132 -0.045,0.2192 0.037,0.2492 0.2052,0.068 z m 2.5637,0.4755 c 0.6378,-0.017 0.7501,-0.099 0.7043,-0.4602 -0.071,-0.5615 -0.8773,-0.5599 -1.4025,-0.011 -0.2635,0.289 0.052,0.4939 0.6983,0.4737 z m 8.9483,0.3289 c 0.792,-0.2504 1.0713,-0.4045 1.5782,-0.9048 0.4971,-0.4972 0.6052,-0.6717 0.5661,-0.9307 -0.067,-0.4374 -0.2603,-0.6132 -0.7125,-0.449 -0.6517,0.2323 -1.8581,1.0947 -2.6117,1.8689 l -0.7133,0.7323 0.4089,-0.059 c 0.2274,-0.041 0.9587,-0.094 1.4844,-0.2576 z m -20.0978,-14.0072 c -0.1411,-0.9772 0.3881,-1.815 1.1058,-1.73 0.2237,0.022 0.2874,0.1813 0.3645,0.8858 0.109,0.9754 -0.094,1.3725 -0.7421,1.4653 -0.5081,0.075 -0.6411,-0.034 -0.728,-0.621 z m -7.7586,-6.8683 c -0.1423,-0.3344 0.2259,-0.8077 0.7353,-0.9561 l 0.4055,-0.1097 0.3229,0.6171 c 0.2541,0.4801 0.2854,0.6684 0.1337,0.8754 -0.1165,0.1452 -0.3364,0.2881 -0.4961,0.3106 -0.3412,0.042 -0.9362,-0.3574 -1.1014,-0.7373 z"
         style="fill:#112f25;fill-opacity:1;stroke-width:0.136193"
         id="path1667-0-8-5-1-8" />
    </g>
    <g
       id="g64698-5-6-7-26"
       transform="matrix(0.46504103,0.23079639,-0.23079639,0.46504103,1773.114,-356.88559)"
       style="fill:#112f25;fill-opacity:1">
      <path
         d="m -2572.943,2363.7944 c -0.38,-0.21 -2.21,-2.1 -3.77,-3.49 -0.53,-0.48 -2.5,-2.57 -4.37,-4.66 -3.04,-3.41 -3.42,-3.8 -3.66,-3.75 -0.37,0.08 -0.52,-0.14 -0.53,-0.81 -0.02,-0.6 -0.64,-1.72 -0.85,-1.54 -0.22,0.2 -0.84,3.93 -0.82,4.95 0.01,0.81 -0.37,0.65 -0.46,-0.18 -0.09,-0.73 -0.03,-1.45 0.23,-2.99 0.35,-2.01 0.59,-4.09 0.45,-4.46 -0.2,-0.52 -0.15,-1.72 0.09,-1.92 0.23,-0.19 0.62,-0.11 0.48,0.11 -0.05,0.08 -0.05,0.19 -0.01,0.24 0.04,0.05 0.07,0.34 0.05,0.64 -0.03,0.8 0.29,1.88 0.78,2.65 0.41,0.62 0.45,0.65 0.67,0.47 0.12,-0.11 0.31,-0.39 0.41,-0.63 0.31,-0.75 1.26,-1.63 2.01,-1.83 l 0.66,-0.17 0.53,-1.16 c 0.41,-0.88 0.65,-1.23 1.02,-1.49 l 0.48,-0.34 0.9,1.05 c 0.84,0.97 0.95,1.04 1.32,1.01 0.53,-0.04 1.02,-0.61 1.17,-1.35 0.15,-0.75 -0.28,-2.55 -0.77,-3.21 -0.56,-0.77 -0.64,-1.65 -0.18,-2.03 0.16,-0.12 0.35,-0.11 0.68,0.33 0.45,0.59 0.89,0.69 1.79,0.4 0.62,-0.2 0.81,0.03 0.73,0.89 -0.08,0.99 0.09,1.34 0.69,1.43 0.52,0.07 1.08,-0.26 1.33,-0.78 0.21,-0.43 0.5,-2.34 0.38,-2.5 -0.15,-0.2 -0.05,-1.1 0.13,-1.22 0.12,-0.09 0.29,0.07 0.69,0.66 0.48,0.71 0.56,0.78 1.05,0.81 0.29,0.03 0.62,-0.02 0.74,-0.11 0.27,-0.2 1.02,-1.86 1.24,-2.7 0.1,-0.42 0.21,-0.59 0.31,-0.52 0.21,0.16 -0.36,2.69 -0.8,3.59 -0.56,1.18 -1.29,1.55 -2.1,1.05 -0.52,-0.32 -0.77,-0.11 -0.92,0.75 -0.19,1.06 -0.42,1.6 -0.86,2.02 -1.09,1.05 -2.51,0.3 -2.42,-1.27 l 0.02,-0.53 -0.67,0.11 c -0.75,0.12 -0.88,0.27 -0.76,0.88 0.55,2.8 -0.1,4.87 -1.54,4.83 -0.52,-0.02 -0.55,-0.05 -1.34,-1.05 l -0.8,-1.03 -0.39,0.43 c -0.48,0.54 -0.93,1.53 -0.77,1.72 0.44,0.54 0.67,1.57 0.6,2.68 -0.08,1.38 -0.27,1.92 -1.05,2.99 l -0.56,0.77 1.94,2.36 c 1.75,2.13 2.12,2.52 3.74,3.92 0.99,0.85 2.1,1.76 2.47,2.02 0.84,0.6 1.05,0.84 1.18,1.41 0.13,0.57 -0.11,0.8 -0.56,0.55 z m -7.96,-13.41 c 0.43,-1.11 0.44,-1.22 0.07,-1.64 -0.26,-0.32 -0.38,-0.37 -0.53,-0.25 -0.39,0.33 -1.06,2.98 -0.83,3.26 0.19,0.22 1.02,-0.66 1.29,-1.37 z m -1.66,-1.2 c 0.12,-0.38 0.19,-0.73 0.15,-0.78 -0.12,-0.14 -1.01,0.7 -1.36,1.29 -0.18,0.31 -0.32,0.7 -0.31,0.86 0.02,0.37 0.35,0.77 0.75,0.93 0.28,0.11 0.3,0.07 0.42,-0.74 0.07,-0.47 0.22,-1.17 0.35,-1.55 z m -20.11,25.69 c -0.43,0.31 -0.86,0.6 -0.95,0.62 -0.3,0.09 -0.64,-0.38 -0.65,-0.87 l -0.01,-0.49 1.06,-0.78 c 1.3,-0.97 3.16,-3.1 3.92,-4.53 0.57,-1.04 1.79,-3.69 1.79,-3.91 0,-0.09 -0.3,-0.37 -0.67,-0.63 -0.6,-0.43 -0.7,-0.56 -0.91,-1.19 -0.38,-1.11 -0.46,-3.01 -0.21,-3.77 0.14,-0.42 0.47,-0.98 0.87,-1.45 0.57,-0.68 0.84,-0.89 1.95,-1.38 0.68,-0.31 1.35,-0.62 1.49,-0.71 0.34,-0.2 0.51,-2.28 0.28,-3.7 -0.03,-0.21 -0.07,-0.66 -0.08,-0.99 -0.01,-0.33 -0.06,-0.64 -0.1,-0.69 -0.04,-0.04 -0.31,-0.87 -0.6,-1.83 -0.33,-1.14 -0.71,-2.08 -1.08,-2.68 -1.33,-2.16 -1.66,-3.79 -1.45,-4.54 0.17,-0.6 0.51,-0.74 0.81,-0.31 0.36,0.51 1.16,2.4 1.48,3.51 0.23,0.76 0.28,1.33 0.84,2.01 0.67,0.81 1,0.84 2.54,1.74 1.45,0.86 1.78,1.11 2.47,1.9 0.44,0.5 0.91,1.16 1.06,1.46 0.31,0.65 0.5,2.45 0.4,3.59 -0.07,0.94 -0.7,3.09 -0.97,3.33 -0.1,0.1 -0.12,0.19 -0.08,0.24 0.05,0.04 -0.13,0.63 -0.38,1.29 l -0.47,1.21 -1.26,1.16 c -1.52,1.4 -2.34,1.92 -3.75,2.23 -0.76,0.17 -1.08,0.3 -1.18,0.51 -0.08,0.15 -0.48,1.07 -0.89,2.04 -1.1,2.62 -1.86,3.94 -3.28,5.62 -0.81,0.95 -1.45,1.59 -1.99,1.99 z m 12.33,-15.94 c 0.57,-1.55 1.37,-3.88 1.46,-4.37 0.19,-1.11 -0.36,-2.28 -1.57,-3.27 -0.79,-0.65 -3.99,-2.54 -4.11,-2.43 -0.13,0.12 -0.17,0.87 -0.06,1 0.06,0.06 0.07,0.26 0.02,0.44 -0.05,0.17 -0.05,0.37 0.01,0.43 0.12,0.13 0.33,2.85 0.34,3.72 0,0.64 0.05,0.72 0.37,0.7 0.3,-0.02 1.73,-0.84 2.67,-1.5 l 0.72,-0.52 0.14,0.48 c 0.26,0.89 -0.38,1.61 -2.11,2.57 -1.77,0.98 -1.97,1.17 -2.14,2.09 -0.09,0.44 -0.19,0.92 -0.23,1.06 -0.04,0.15 -0.18,0.71 -0.29,1.23 -0.12,0.52 -0.33,1.29 -0.47,1.72 -0.14,0.42 -0.2,0.8 -0.12,0.84 0.26,0.13 1.38,-0.26 2.11,-0.75 1.23,-0.82 1.27,-0.84 2.1,-1.67 0.68,-0.68 0.87,-0.97 1.17,-1.77 z m -5.67,1.85 c 0.34,-1.13 0.67,-2.29 0.68,-2.55 l 0.02,-0.49 -0.73,0.25 c -1.02,0.34 -2.43,1.73 -2.65,2.56 -0.24,0.88 -0.06,1.67 0.56,2.17 0.59,0.48 1.01,0.56 1.29,0.28 0.11,-0.1 0.48,-1.1 0.82,-2.22 z m 31.48,-23.12 c -0.8,-0.21 -1.17,-0.61 -2.83,-3.05 -1.38,-2.03 -1.64,-2.37 -1.79,-2.26 -0.09,0.06 -0.18,0.13 -0.19,0.15 -0.01,0.03 -0.17,0.06 -0.37,0.09 -0.49,0.05 -0.7,-0.3 -0.52,-0.87 0.09,-0.25 0.18,-0.56 0.22,-0.68 0.04,-0.15 -0.2,-0.6 -0.73,-1.36 -0.43,-0.63 -0.79,-1.23 -0.79,-1.34 -0.01,-0.12 0.11,-0.31 0.25,-0.44 0.26,-0.22 0.29,-0.2 1,0.64 0.4,0.49 0.88,1.03 1.07,1.22 l 0.34,0.34 1.71,-1.25 c 1.01,-0.7 1.7,-1.12 1.82,-1.09 0.14,0.03 0.23,0.21 0.28,0.59 l 0.06,0.54 -1.19,0.91 c -0.65,0.49 -1.43,1.11 -1.63,1.26 -0.47,0.35 -0.41,0.55 0.74,2.27 1.3,1.94 2.34,2.93 2.92,2.75 0.31,-0.1 0.8,-1.22 0.69,-1.59 -0.03,-0.14 -0.03,-0.43 0,-0.63 0.02,-0.21 -0.03,-0.69 -0.12,-1.07 -0.18,-0.74 -0.06,-1.56 0.21,-1.57 0.12,-0.01 0.21,0.12 0.27,0.39 0.05,0.23 0.29,0.72 0.53,1.1 0.38,0.6 0.51,0.7 0.95,0.79 0.58,0.12 0.65,0.04 1.16,-1.34 0.22,-0.59 0.27,-0.94 0.14,-1.39 -0.22,-0.71 -0.17,-1.19 0.13,-1.38 0.19,-0.12 0.28,-0.04 0.68,0.58 0.39,0.61 0.54,0.74 0.95,0.83 0.63,0.14 0.88,-0.04 1.34,-0.95 0.21,-0.41 0.43,-0.79 0.49,-0.83 0.22,-0.14 0.19,0.69 -0.06,1.57 -0.43,1.48 -1.18,1.98 -2.4,1.59 l -0.43,-0.14 -0.46,1.15 c -0.61,1.52 -0.92,1.93 -1.47,1.94 -0.23,0 -0.58,-0.11 -0.78,-0.25 -0.2,-0.14 -0.42,-0.22 -0.49,-0.17 -0.08,0.05 -0.23,0.47 -0.33,0.93 -0.34,1.59 -0.74,2.18 -1.37,2.02 z m 29.93,-18.75 c -0.79,-0.31 -0.99,-0.32 -1.4,-0.13 -0.55,0.28 -0.77,0.03 -0.59,-0.65 0.06,-0.22 0.07,-0.65 0.03,-0.94 -0.2,-1.34 0.59,-3.33 1.5,-3.78 0.56,-0.28 1.34,-0.07 1.44,0.44 0.09,0.47 -0.33,1.97 -0.73,2.74 -0.34,0.65 -0.26,0.82 0.47,1.03 0.62,0.18 1.24,-0.2 2.17,-1.28 0.43,-0.49 0.49,-0.7 0.51,-1.55 0.02,-1.3 0.34,-2.22 0.89,-2.62 0.57,-0.41 2.72,-1.19 3.73,-1.36 4.62,-0.78 5.26,-0.9 7.11,-1.76 2.13,-1 3.39,-1.78 3.85,-2.45 0.63,-0.92 1.08,-0.47 0.57,0.57 -0.53,1.1 -2.64,2.4 -5.51,3.62 -1.31,0.55 -2.28,0.75 -5.43,1.33 -1.8,0.32 -4,1.12 -4.32,1.54 -0.11,0.15 -0.15,0.39 -0.09,0.53 0.1,0.21 0.21,0.22 0.65,0.01 0.29,-0.14 0.77,-0.24 1.04,-0.21 0.41,0.04 0.5,0.12 0.58,0.45 0.1,0.42 0.03,0.64 -0.31,1.23 -0.28,0.47 -1.32,0.98 -1.67,0.82 -0.38,-0.18 -0.66,0.01 -1.41,1 -0.5,0.66 -0.86,1.02 -1.41,1.34 l -0.74,0.44 z m 0.11,-3.72 c 0.16,-0.45 -0.08,-0.59 -0.6,-0.34 -0.49,0.24 -0.68,0.57 -0.68,1.19 -0.02,0.8 0.24,0.84 0.73,0.12 0.23,-0.35 0.48,-0.78 0.55,-0.97 z m -5.61,6.35 c -0.3,-0.02 -0.67,-0.15 -0.83,-0.28 l -0.29,-0.25 -0.41,0.63 c -0.23,0.34 -0.57,0.71 -0.75,0.8 -0.42,0.23 -1.29,0 -1.64,-0.42 -0.35,-0.42 -0.45,-0.35 -0.57,0.39 -0.13,0.85 -0.55,1.75 -0.91,1.96 -0.48,0.27 -1.17,0 -1.97,-0.76 -0.4,-0.38 -0.77,-0.67 -0.83,-0.64 -0.05,0.02 -0.17,0.28 -0.27,0.57 -0.99,2.92 -1.87,4.13 -2.99,3.93 -0.34,-0.06 -0.63,-0.24 -0.94,-0.6 l -0.43,-0.53 -0.73,1.62 c -0.4,0.88 -0.8,1.66 -0.89,1.71 -0.3,0.19 -0.78,-0.03 -1.06,-0.49 -0.25,-0.4 -0.23,-0.62 0.14,-2.14 0.23,-0.94 0.57,-1.94 0.76,-2.23 0.72,-1.14 1.27,-1.38 1.56,-0.68 0.15,0.38 0.19,0.4 0.43,0.16 0.24,-0.25 0.26,-0.24 0.4,0.22 0.39,1.31 1.15,1.89 1.76,1.35 0.46,-0.41 1.17,-1.69 1.5,-2.7 l 0.29,-0.87 -0.89,-1.76 c -1.26,-2.46 -1.52,-3.6 -1.39,-5.88 0.06,-0.97 0.16,-1.99 0.21,-2.28 0.23,-1.2 1.06,-1.89 1.81,-1.64 0.37,0.12 0.47,0.24 0.9,1.17 0.32,0.69 0.52,1.36 0.59,1.96 0.11,1.02 -0.12,4.28 -0.31,6.13 -0.13,1.31 -0.06,1.46 1.18,2.53 0.75,0.64 1.09,0.66 1.43,0.08 0.13,-0.23 0.22,-0.46 0.2,-0.51 -0.08,-0.14 0.2,-2.43 0.34,-2.79 0.07,-0.2 0.19,-0.35 0.26,-0.35 0.08,0.01 0.33,0.43 0.56,0.95 0.38,0.84 0.47,0.96 0.85,1.08 0.69,0.22 0.99,-0.07 1.37,-1.34 0.47,-1.53 0.66,-2.5 0.49,-3.38 -0.27,-1.42 0.19,-2.15 0.66,-1.06 0.23,0.51 0.33,0.59 0.95,0.78 1.08,0.32 1.62,0.77 1.92,1.61 0.31,0.84 0.33,1.64 0.06,2.41 -0.17,0.5 -0.3,0.63 -1.08,1.08 -0.73,0.41 -0.99,0.49 -1.44,0.46 z m 2,-2.19 c 0.1,-0.31 -0.35,-1.15 -0.78,-1.45 -0.2,-0.14 -0.62,-0.33 -0.95,-0.42 l -0.59,-0.18 -0.21,0.75 -0.2,0.74 0.4,-0.15 c 0.79,-0.3 1.39,0.12 1.13,0.8 -0.22,0.59 -0.02,0.73 0.59,0.42 0.29,-0.16 0.57,-0.39 0.61,-0.51 z m -15.72,7.36 c 0.36,-0.77 0.68,-1.49 0.64,-1.55 -0.12,-0.22 -0.75,0.11 -1.07,0.56 -0.48,0.67 -0.89,2.19 -0.64,2.38 0.11,0.09 0.25,0.13 0.31,0.09 0.05,-0.03 0.4,-0.7 0.76,-1.48 z m 5.55,-7.79 c 0.24,-3.4 0.28,-4.72 -0.42,-6.03 -0.38,-0.7 -0.5,-0.84 -0.76,-0.84 -0.43,0 -0.75,0.31 -0.9,1.35 -0.25,1.76 -0.02,3.42 0.68,4.98 0.46,1.02 1.14,2 1.26,1.8 0.03,-0.06 0.09,-0.63 0.14,-1.26 z m -25.13,18.6 c -0.52,0.14 -0.75,-0.1 -0.67,-0.67 0.06,-0.37 0.18,-0.57 0.47,-0.74 0.57,-0.35 0.98,-0.22 0.98,0.45 0.01,0.57 -0.2,0.8 -0.78,0.96 z m -8.34,4.85 c -0.94,0.05 -1.14,-0.08 -1.08,-0.69 0.04,-0.39 0.13,-0.53 0.42,-0.67 0.61,-0.29 0.9,-0.31 1.11,-0.05 0.17,0.21 0.41,1.26 0.31,1.35 -0.02,0.01 -0.36,0.04 -0.76,0.06 z m 36.26,-25.2 c -0.08,-0.05 -0.44,-0.08 -0.79,-0.07 -0.74,0.02 -0.96,-0.3 -0.65,-0.96 0.18,-0.38 0.23,-0.41 0.84,-0.51 1.18,-0.18 1.44,0.02 1.17,0.92 -0.18,0.6 -0.33,0.76 -0.57,0.62 z"
         style="fill:#112f25;fill-opacity:1;stroke-width:0.142152"
         id="path9306-4-6-5-8" />
      <path
         d="m -2510.1531,2331.8217 c -0.801,0.2121 -1.621,0.193 -2.4201,-0.055 -0.5727,-0.1675 -1.7389,-1.1142 -2.2515,-1.6993 -0.1708,-0.1983 -0.3729,-0.3682 -0.4628,-0.3724 -0.08,0 -0.383,0.4722 -0.6613,1.0596 -0.9919,2.1152 -1.7064,3.0321 -2.682,3.336 -0.5999,0.1916 -0.8786,0.1583 -1.5321,-0.2033 -0.2735,-0.1432 -0.5593,-0.2369 -0.6217,-0.1898 -0.072,0.037 -0.2507,0.4285 -0.402,0.8718 -0.3035,0.9066 -0.6912,1.4787 -1.1992,1.6347 -0.2032,0.06 -0.5889,-0.038 -0.9794,-0.247 l -0.644,-0.351 -0.4125,0.8813 c -0.5347,1.1358 -0.9757,1.7755 -1.6364,2.1945 -1.1968,0.7438 -2.1162,-0.3413 -1.8587,-2.1711 0.091,-0.6564 -0.081,-0.8148 -0.5664,-0.5075 -0.2578,0.1578 -0.3734,0.4827 -0.5305,1.4663 -0.2965,1.808 -0.573,2.7759 -1.2413,3.5649 -0.3606,0.4233 -0.4629,0.4685 -1.0965,0.5284 -0.4927,0.047 -0.77,-0.017 -0.9902,-0.2275 -0.3729,-0.3682 -0.4547,-0.3321 -1.0142,0.6924 -0.6356,1.1511 -0.9234,1.3075 -1.554,0.887 -0.2811,-0.1936 -0.7011,-0.6242 -0.9351,-0.9657 -0.3652,-0.528 -1.3216,-1.6749 -2.3309,-2.7642 l -0.2944,-0.3344 -1.4955,0.9197 c -0.8058,0.5222 -1.6487,0.9825 -1.8718,1.042 -0.4666,0.1279 -0.7234,-0.1547 -0.6858,-0.7335 0.019,-0.3996 0.039,-0.4086 1.5622,-1.267 1.8318,-1.0439 1.8594,-0.9925 1.0576,-2.4424 -0.5441,-0.977 -0.6829,-1.6344 -0.3932,-1.8308 0.2174,-0.1498 0.6283,0.2602 1.2894,1.3029 0.6891,1.0841 0.9055,1.1645 1.7336,0.5933 0.714,-0.4865 1.134,-0.4765 1.1792,0.046 0.046,0.5028 -0.2189,1.0207 -0.6642,1.3298 -0.2278,0.1594 -0.4476,0.3591 -0.4823,0.4576 -0.068,0.1669 0.7143,1.1854 2.0916,2.7428 0.5988,0.6693 0.8,0.6489 1.4574,-0.1207 0.382,-0.4523 0.343,-0.4742 0.1034,-1.747 -0.063,-0.3534 -0.046,-0.9233 0.05,-1.2591 0.3036,-1.1168 1.5574,-1.5875 2.0706,-0.8022 0.1679,0.2583 0.3846,2.0106 0.2837,2.2361 -0.1227,0.2644 0.2102,0.6307 0.4376,0.4814 0.4761,-0.3277 1.2378,-2.2336 1.2579,-3.0736 0.01,-0.36 -0.04,-0.4223 -0.517,-0.7054 -0.292,-0.1741 -0.6183,-0.47 -0.7395,-0.656 -0.4552,-0.7425 -0.289,-2.1262 0.3094,-2.4981 0.4438,-0.2792 0.6184,-0.1607 1.1829,0.8073 l 0.4808,0.8339 0.7448,-0.085 c 0.4029,-0.051 0.7221,-0.026 0.7392,0.035 0.01,0.06 0.1213,0.1859 0.1959,0.2996 0.065,0.1132 0.05,0.6231 -0.054,1.1288 -0.189,1.0221 0.022,1.6329 0.5644,1.5987 0.8938,-0.057 2.1573,-2.1997 1.9909,-3.3289 -0.1559,-1.1387 -0.1995,-1.9017 -0.1063,-1.9673 0.1646,-0.092 0.5708,0.2074 0.6763,0.5128 0.5207,1.4665 1.002,2.0801 1.5305,1.9151 0.2031,-0.06 0.3905,-0.2116 0.5189,-0.3857 0.4296,-0.6102 0.8626,-2.1313 0.8294,-2.9037 -0.064,-1.1744 0.023,-1.7309 0.3222,-2.1371 0.3521,-0.4537 0.8857,-0.5184 1.2287,-0.1516 0.4004,0.4195 0.778,1.5288 0.8445,2.443 0.037,0.4823 0.1683,0.879 0.2053,0.9409 0.2687,0.4533 1.7444,-1.5186 2.2749,-2.985 l 0.335,-0.9351 -1.2703,-2.3332 c -1.3724,-2.4982 -1.7196,-3.6161 -1.7342,-4.7781 0,-0.8809 0.09,-1.2471 0.4825,-1.9292 0.4044,-0.7115 0.8349,-0.9212 1.4465,-0.7319 0.4833,0.1532 0.5213,0.1951 1.0373,1.341 0.6886,1.5145 1.1931,3.5309 1.1373,4.4893 -0.061,0.8481 -0.1282,2.4767 -0.1354,3.047 -0.01,0.5603 1.0972,1.9746 1.8106,2.339 0.8999,0.4434 1.503,0.6023 2.334,0.6019 1.2614,10e-5 2.8692,-0.9643 4.9185,-2.7887 1.7667,-1.5676 2.5631,-2.7309 3.0731,-4.1883 0.4173,-1.1915 0.5438,-1.3256 0.7982,-0.7828 0.1722,0.3786 -0.3674,2.245 -0.8588,2.8923 -0.2027,0.2607 -0.4282,0.5803 -0.4943,0.7073 -0.4386,0.8 -3.0673,3.4377 -4.0368,4.0321 -1.7942,1.0958 -2.0411,1.2341 -2.7199,1.402 z m -9.2557,0.109 c 0.052,-0.2578 -0.036,-0.5123 -0.3338,-0.9771 -0.2335,-0.3515 -0.4813,-0.6136 -0.5622,-0.5974 -0.1412,0.023 -0.2079,1.2114 -0.069,1.4383 0.1289,0.2364 0.6716,0.6127 0.7743,0.5576 0.062,-0.037 0.1508,-0.2231 0.1903,-0.4214 z m -12.5251,7.1511 c 0.1651,-0.5228 0.052,-0.8686 -0.2957,-0.9352 -0.4062,-0.09 -0.5004,0 -0.5842,0.4927 -0.083,0.4766 -0.047,0.5684 0.3334,0.7768 0.3315,0.186 0.4038,0.1394 0.5465,-0.3343 z m 16.3361,-12.9561 c 0.075,-0.3168 0.091,-0.8566 0.054,-1.7694 -0.043,-0.7729 -0.5248,-2.4278 -0.9918,-3.3411 -0.3477,-0.6873 -0.4994,-0.8648 -0.7481,-0.8967 -1.2624,-0.1903 -1.0476,1.8122 0.5227,4.7804 0.477,0.9138 0.9231,1.6358 0.9844,1.6087 0.062,-0.037 0.1399,-0.2035 0.1784,-0.3819 z m -42.6653,36.4378 c -0.5204,0.2054 -0.8229,0.251 -1.4926,0.2291 -0.3196,-0.015 -0.3615,0.023 -0.5951,0.5122 -0.1437,0.2835 -0.176,0.5422 -0.1808,0.6421 0,0.1 -0.166,0.3325 -0.3544,0.5037 -0.4296,0.4 -0.577,0.3429 -2.0643,-0.7993 -1.7098,-1.303 -2.35,-1.5237 -2.1465,-0.7532 0.093,0.3549 -0.5026,3.1897 -0.9318,4.4206 -0.8802,2.5009 -2.2241,4.6493 -3.2106,4.9727 -0.5589,0.1735 -0.8105,-0.01 -0.8709,-0.6323 -0.033,-0.352 0.022,-0.4694 0.3107,-0.6359 0.1955,-0.1108 0.6541,-0.4894 1.0118,-0.8527 1.1455,-1.1367 2.3915,-4.1708 2.9454,-6.7573 0.2984,-1.4274 0.2475,-1.6201 -0.98,-3.3806 -2.0973,-3.0434 -2.3603,-3.6166 -2.2541,-5.0031 0.078,-1.0074 0.4811,-1.4788 1.1189,-1.4183 0.6978,0.063 1.5425,1.0347 1.8977,2.193 0.2867,0.9147 0.8063,3.6626 0.8181,4.2538 0.021,0.6017 0.2458,0.9328 0.9659,1.3676 0.3696,0.2279 1.1258,0.7445 1.697,1.1522 0.8614,0.6218 1.0573,0.7112 1.2248,0.559 0.3772,-0.3524 0.4696,-1.0288 0.2865,-1.5982 -0.2168,-0.7011 -0.2429,-1.8336 -0.037,-2.3744 0.3093,-0.8162 1.1498,-1.2266 1.4247,-0.6929 0.026,0.081 0.1464,0.2873 0.2577,0.4728 0.1013,0.1851 0.1883,0.4595 0.1817,0.5994 -0.01,0.1498 0.021,0.6117 0.05,1.0436 0.057,0.9037 0.2139,0.9713 0.9912,0.4177 0.7668,-0.5441 1.2696,-1.2209 1.4528,-1.913 0.2194,-0.8204 0.5595,-0.8142 0.6103,0.01 0.072,1.2249 -1.0044,3.0056 -2.1275,3.4626 z m -1.5499,-2.5568 c 0.057,-0.3477 -0.1821,-0.5894 -0.3914,-0.3991 -0.3453,0.3139 -0.4795,1.0283 -0.2422,1.2999 0.1331,0.1465 0.5737,-0.4832 0.6336,-0.9008 z m -6.2846,-1.5213 c -0.1968,-1.3309 -0.5577,-2.5795 -0.9952,-3.0609 -0.4466,-0.5019 -0.7268,-0.5052 -1.084,-0.3621 -0.2864,0.1265 -0.2717,0.868 0.025,1.3727 0.1118,0.1756 0.3319,0.5965 0.4965,0.9248 0.3281,0.6764 1.4814,2.103 1.6065,1.9988 0.042,-0.038 0.021,-0.4295 -0.048,-0.8733 z m 23.8201,-9.0849 c -1.0864,0.3185 -1.2543,0.2705 -2.0163,0.084 -0.8704,-0.2218 -1.482,-0.6214 -2.3391,-1.5433 -0.8104,-0.8496 -1.0706,-1.0622 -1.2057,-0.9585 -0.1355,0.1136 0.1868,1.5406 0.7717,3.3405 0.4627,1.4237 0.5877,2.1605 0.1891,2.1215 -0.079,-0.014 -0.9522,-1.0266 -1.9347,-2.2548 -1.5395,-1.9356 -1.8059,-2.2286 -1.9804,-2.1369 -0.1128,0.055 -0.2341,0.2892 -0.2755,0.5275 -0.051,0.2279 -0.1128,0.4752 -0.1561,0.5432 -0.097,0.1355 0.7356,2.628 1.3048,3.9166 0.3805,0.8391 0.4346,1.3823 0.164,1.5997 -0.062,0.047 -0.7715,-0.8277 -1.6646,-2.0417 -1.4757,-2.0126 -1.5713,-2.1073 -1.8158,-2.0188 -1.2934,0.4588 -3.2388,0.5262 -4.2395,0.098 -1.5011,-0.6423 -2.3477,-1.7839 -2.3979,-3.248 -0.1082,-2.5581 1.7126,-2.9517 4.475,-0.8376 0.5407,0.4162 1.1595,0.8762 1.3631,1.0161 0.2036,0.1399 0.5194,0.4453 0.6991,0.6641 0.1893,0.2293 0.4685,0.4628 0.6359,0.5209 0.2459,0.092 0.3301,0.216 0.439,0.6616 0.1816,0.8096 0.2135,0.7711 0.2873,-0.3567 0.1248,-1.776 0.964,-2.9974 1.6584,-2.4437 0.1645,0.118 0.6739,0.773 1.1528,1.4366 0.4785,0.6736 0.8732,1.213 0.8936,1.204 0.011,-0.02 -0.055,-0.7235 -0.1648,-1.5797 -0.1773,-1.5302 -0.1725,-2.471 0,-2.6028 0.2902,-0.2064 0.5936,-0.062 1.0963,0.5229 0.9008,1.0541 1.8891,1.9522 2.4361,2.2386 0.6255,0.3202 1.7442,0.3736 2.6204,0.055 0.5912,-0.2221 0.6226,-0.2506 0.6422,-0.6601 0.021,-0.2293 -0.017,-0.4814 -0.073,-0.5642 -0.056,-0.083 -0.016,-0.7115 0.087,-1.3974 0.1442,-0.9242 0.2969,-1.3975 0.6837,-1.9496 0.7749,-1.1344 1.3767,-1.5762 1.7334,-1.2889 0.1251,0.1061 0.2625,0.1627 0.3144,0.1251 0.1964,-0.1307 0.4765,0.2931 0.5697,0.8582 0.2624,1.6343 1.4135,1.6392 2.0534,-0.022 0.2855,-0.7372 0.4862,-0.7477 0.5622,-0.033 0.061,0.6136 -0.5667,2.2255 -1.0329,2.5537 -0.3006,0.2159 -1.3228,0.027 -1.5387,-0.2737 -0.1503,-0.2074 -0.2882,-0.044 -0.7035,0.8975 -0.6828,1.5092 -2.029,2.8665 -3.2976,3.2265 z m 2.6793,-3.9068 c 0.5271,-0.9759 0.6094,-1.2323 0.579,-1.8545 -0.019,-0.4414 -0.028,-0.4618 -0.2815,-0.3938 -0.5979,0.1516 -1.7244,1.94 -1.7241,2.7709 -0.012,1.0807 0.6916,0.8239 1.4161,-0.513 z m -15.1384,3.1721 c -0.897,-0.9238 -2.5831,-1.8853 -3.2794,-1.9786 -0.7268,-0.085 -1.1321,0.2263 -1.1127,0.868 0.038,1.3132 2.2201,2.3585 4.2674,2.0457 0.3125,-0.045 0.6469,-0.1293 0.6992,-0.1769 0.052,-0.048 -0.1921,-0.3796 -0.5745,-0.7582 z m 28.1261,-18.13 c -0.7301,-0.2251 -0.6515,-1.2425 0.11,-1.4664 0.7316,-0.2254 1.0207,0.4291 0.5326,1.2167 -0.2383,0.3791 -0.2278,0.3696 -0.6426,0.2497 z m -7.8362,2.8798 c -0.1564,-0.078 -1.0832,-3.1052 -1.2838,-4.1459 -0.1507,-0.8282 -0.042,-1.8442 0.208,-1.8422 0.2602,0 0.5222,0.5955 0.6316,1.4517 0.058,0.4633 0.1468,0.9081 0.1935,0.9804 0.2606,0.4129 0.648,2.5738 0.5666,3.0204 -0.098,0.576 -0.1199,0.625 -0.3159,0.5356 z"
         style="fill:#112f25;fill-opacity:1;stroke-width:0.142152"
         id="path7936-6-2-1-2" />
    </g>
  </g>
</svg>
