<?xml version="1.0" encoding="UTF-8" standalone="no"?>
<svg
   xmlns:dc="http://purl.org/dc/elements/1.1/"
   xmlns:cc="http://creativecommons.org/ns#"
   xmlns:rdf="http://www.w3.org/1999/02/22-rdf-syntax-ns#"
   xmlns:svg="http://www.w3.org/2000/svg"
   xmlns="http://www.w3.org/2000/svg"
   xmlns:sodipodi="http://sodipodi.sourceforge.net/DTD/sodipodi-0.dtd"
   xmlns:inkscape="http://www.inkscape.org/namespaces/inkscape"
   width="153.0396mm"
   height="127.37627mm"
   viewBox="0 0 153.0396 127.37627"
   version="1.1"
   id="svg8"
   inkscape:version="1.0.2-2 (e86c870879, 2021-01-15)"
   sodipodi:docname="Slogan SLE MLS Nocturnal Green.svg">
  <defs
     id="defs2">
    <clipPath
       clipPathUnits="userSpaceOnUse"
       id="clipPath3452-4-2">
      <g
         id="g3466-9-6"
         transform="translate(29.835028,29.013687)">
        <path
           id="path3454-1-3"
           style="fill:#00ff00;fill-opacity:1;stroke:none;stroke-width:0.291874;stroke-miterlimit:4;stroke-dasharray:none;stroke-opacity:1"
           d="m 2584.7491,684.18129 c 0,1.3e-4 -0.017,7.4e-4 -0.019,9e-4 a 2.6678842,2.6678842 0 0 0 -0.2313,0.0153 c -0.1276,0.007 -0.2646,0.0119 -0.3533,0.0228 l -0.021,0.002 c 0,-5.9e-4 0.017,-3.1e-4 0.017,-9.1e-4 -0.8927,0.12485 -1.6952,0.49834 -2.3432,1.09079 -0.1789,0.16312 -0.1852,0.16924 -0.3419,0.34452 -0.3284,0.36744 -0.5748,0.74829 -0.7733,1.19359 -0.041,0.0936 -0.075,0.17535 -0.075,0.18283 0,0.009 -0.021,0.0422 -0.027,0.0764 -0.065,0.14814 -0.1683,0.54144 -0.21,0.79719 -0.063,0.39016 -0.073,3.50682 -0.069,4.71721 v 0.68996 0.57127 0.4782 0.20478 0.22239 16.59329 l 4.4639,-4.01758 c 0,-9.64506 -0.017,-12.64631 -0.017,-17.85017 a 2.6678842,2.6678842 0 0 0 2.7079,-2.6201 v -0.005 a 2.6678842,2.6678842 0 0 0 -2.6236,-2.7106 2.6678842,2.6678842 0 0 0 -0.088,9.1e-4 z m -0.04,0.0625 a 2.6046012,2.6046012 0 0 1 0.085,0 2.6046012,2.6046012 0 0 1 2.5612,2.64643 v 0.005 a 2.6046012,2.6046012 0 0 1 -2.649,2.55768 2.6046012,2.6046012 0 0 1 -2.5595,-2.64824 2.6046012,2.6046012 0 0 1 2.5629,-2.56029 z" />
        <path
           style="fill:#00ff00;fill-opacity:1;stroke:none;stroke-width:0.01;stroke-linecap:butt;stroke-linejoin:miter;stroke-miterlimit:4;stroke-dasharray:none;stroke-opacity:1"
           d="m 2594.6707,714.26781 v 2.27467 h -0.1064 v -2.17247 h -10.047 v 2.18075 h -9.9485 v -2.27594 l 20.1025,-0.007"
           id="path3456-0-6"
           sodipodi:nodetypes="ccccccccc" />
        <path
           style="fill:#00ff00;fill-opacity:1;stroke:#dcce87;stroke-width:0.000625002;stroke-miterlimit:4;stroke-dasharray:none;stroke-opacity:1"
           d="m 2571.6725,717.91519 v -1.14102 h 12.8404 12.8406 v 1.14102 1.14102 h -12.8406 -12.8404 z m 13.0472,0 v -1.0418 h -6.4823 -6.4823 v 1.0418 1.04179 h 6.4823 6.4823 z"
           id="path3458-9-4" />
        <path
           sodipodi:nodetypes="cccccccccccccscccccccccccccccc"
           inkscape:connector-curvature="0"
           id="path3460-4-9"
           d="m 2594.6339,695.54511 c -0.017,-7.85371 -0.019,-7.93857 -0.1368,-8.79016 -0.152,-1.09474 -0.4431,-2.06077 -0.9259,-3.06489 -0.2952,-0.6141 -0.7704,-1.37243 -1.1832,-1.88799 -0.3806,-0.47509 -1.2311,-1.31432 -1.7556,-1.73221 -0.7561,-0.60251 -1.8939,-1.20296 -2.9117,-1.53664 -0.8721,-0.28597 -1.5561,-0.4236 -2.4713,-0.49735 -0.3942,-0.0318 -1.3331,0 -1.887,0.0647 -2.8897,0.33512 -5.4539,1.9235 -7.1042,4.40037 -0.7814,1.17245 -1.2612,2.35848 -1.5178,3.75143 -0.093,0.50406 -0.1351,0.9286 -0.1655,1.65448 0,15.78986 0.017,25.86136 0.017,26.11037 l 2.6568,0.003 -0.017,-12.70096 c -0.017,-6.98553 0,-13.00439 0.017,-13.37525 0.039,-1.33898 0.2442,-2.22847 0.7576,-3.27331 0.7179,-1.4612 1.9158,-2.67751 3.3351,-3.38609 0.7336,-0.36624 1.4103,-0.57423 2.3014,-0.7072 0.342,-0.0512 0.4587,-0.0566 1.0822,-0.0519 0.7149,0.005 0.9711,0.0307 1.508,0.14949 0.9929,0.21945 2.1402,0.75519 2.8892,1.349 0.3152,0.24993 0.8922,0.80689 1.1682,1.12762 0.6341,0.7372 1.1794,1.74723 1.4549,2.69602 0.1921,0.66119 0.2762,1.22296 0.3098,2.06783 0.017,0.32638 0.03,6.18196 0.041,13.38724 l 0.017,12.68138 c 0.7437,0 0.8653,0.002 2.5684,0.002 l -0.017,-4.27021 c 0,-3.70078 -0.017,-10.07739 -0.02,-14.17028 z"
           style="fill:#00ff00;fill-opacity:1;fill-rule:nonzero;stroke:none;stroke-width:0.0367788;stroke-linecap:square;stroke-linejoin:round;stroke-miterlimit:4;stroke-dasharray:none;stroke-dashoffset:0;stroke-opacity:1;paint-order:stroke fill markers" />
        <path
           style="fill:#00ff00;fill-opacity:1;fill-rule:nonzero;stroke:none;stroke-width:0.00919471;stroke-linecap:square;stroke-linejoin:round;stroke-miterlimit:4;stroke-dasharray:none;stroke-dashoffset:0;stroke-opacity:1;paint-order:stroke fill markers"
           d="m 2584.7751,707.62873 v 1.88183 4.45843 l 2.0703,0.0101 c 1.1387,0 4.9453,0.008 4.9451,0.005 -2.5556,-2.30911 -4.5456,-4.1216 -7.0154,-6.35546 z"
           id="path3462-5-9"
           inkscape:connector-curvature="0"
           sodipodi:nodetypes="cccccc" />
        <path
           style="fill:#00ff00;fill-opacity:1;fill-rule:nonzero;stroke:none;stroke-width:0.0367788;stroke-linecap:square;stroke-linejoin:round;stroke-miterlimit:4;stroke-dasharray:none;stroke-dashoffset:0;stroke-opacity:1;paint-order:stroke fill markers"
           d="m 2584.6901,680.88085 c -0.7365,4e-5 -1.0299,0.0275 -1.5778,0.14562 -1.0394,0.2238 -2.0392,0.69746 -2.8712,1.35969 -0.3258,0.25933 -0.8598,0.79368 -1.1272,1.12788 -0.2944,0.36802 -0.6084,0.85651 -0.817,1.27154 -0.2688,0.53453 -0.4002,0.88784 -0.5429,1.45813 -0.1217,0.48646 -0.1813,0.91671 -0.2112,1.52442 -0.017,0.34361 -0.022,4.75924 -0.017,13.27408 l 0.017,12.98866 2.4407,-2.40017 v -11.19457 c 0,-6.67119 0.017,-11.45114 0.025,-11.90295 0.019,-0.58389 0.035,-0.80896 0.073,-0.99303 0.1902,-0.92973 0.6086,-1.70916 1.2841,-2.39217 0.8387,-0.84804 1.8418,-1.29355 3.0703,-1.36386 1.022,-0.0584 1.9485,0.19887 2.8488,0.79075 0.388,0.2551 0.9772,0.84995 1.2541,1.2658 0.3297,0.49576 0.5959,1.1134 0.6995,1.62362 0.1132,0.55629 0.1368,3.03006 0.1368,14.37824 l 0.017,9.592 2.4142,2.19448 v -2.76837 c 0,-1.65636 -0.017,-7.52954 -0.02,-13.05189 -0.017,-10.3437 -0.017,-10.19172 -0.1098,-10.8448 -0.1821,-1.23644 -0.7204,-2.47072 -1.5001,-3.43881 -0.2323,-0.28833 -0.95,-0.99467 -1.2418,-1.22251 -0.418,-0.32642 -1.1672,-0.74787 -1.6984,-0.95512 -0.386,-0.15067 -0.9619,-0.31012 -1.4071,-0.38998 -0.4142,-0.0745 -0.4526,-0.0772 -1.1144,-0.0767 v 0 z"
           id="path3464-0-7"
           inkscape:connector-curvature="0"
           sodipodi:nodetypes="ccccccccccscccscscccccccccccccc" />
      </g>
    </clipPath>
  </defs>
  <sodipodi:namedview
     id="base"
     pagecolor="#ffffff"
     bordercolor="#666666"
     borderopacity="1.0"
     inkscape:pageopacity="0.0"
     inkscape:pageshadow="2"
     inkscape:zoom="0.35"
     inkscape:cx="357.70777"
     inkscape:cy="203.5087"
     inkscape:document-units="mm"
     inkscape:current-layer="layer1"
     inkscape:document-rotation="0"
     showgrid="false"
     inkscape:window-width="1540"
     inkscape:window-height="1041"
     inkscape:window-x="78"
     inkscape:window-y="0"
     inkscape:window-maximized="0" />
  <metadata
     id="metadata5">
    <rdf:RDF>
      <cc:Work
         rdf:about="">
        <dc:format>image/svg+xml</dc:format>
        <dc:type
           rdf:resource="http://purl.org/dc/dcmitype/StillImage" />
        <dc:title />
      </cc:Work>
    </rdf:RDF>
  </metadata>
  <g
     inkscape:label="Calque 1"
     inkscape:groupmode="layer"
     id="layer1"
     transform="translate(-11.189821,-94.321656)">
    <text
       xml:space="preserve"
       style="font-size:10px;line-height:1.2;font-family:'Apoc LC';-inkscape-font-specification:'Apoc LC';text-align:start;letter-spacing:0.25px;text-anchor:start;white-space:pre;inline-size:567.055;fill:#000000;stroke:none;stroke-width:0.999987"
       x="-1179.1302"
       y="1676.7876"
       transform="matrix(0.26458333,0,0,0.26458333,323.16819,-326.51724)"
       id="text17734"><tspan
         x="-1179.1302"
         y="1676.7876"><tspan
           style="text-align:start;text-anchor:start">
</tspan></tspan><tspan
         x="-1179.1302"
         y="1688.7876"><tspan
           style="text-align:start;text-anchor:start">
</tspan></tspan><tspan
         x="-1179.1302"
         y="1700.7876"><tspan
           style="text-align:start;text-anchor:start"> </tspan></tspan></text>
    <path
       style="fill:#112f25;fill-opacity:1;stroke-width:0.152053"
       d="m 51.70918,130.25315 c -0.16187,-0.42574 -0.62576,-3.23945 -0.89995,-5.45862 -0.093,-0.75266 -0.19018,-3.82296 -0.21595,-6.82291 -0.042,-4.89027 -0.0729,-5.46905 -0.29888,-5.59549 -0.35504,-0.1987 -0.31419,-0.48488 0.14761,-1.03365 0.40749,-0.48429 0.70327,-1.82922 0.40228,-1.82922 -0.31123,0 -3.44911,2.56122 -4.15933,3.39492 -0.55526,0.65188 -0.74798,0.26186 -0.23561,-0.47683 0.44365,-0.63966 0.99721,-1.17642 2.3006,-2.23091 1.6932,-1.36983 3.26374,-2.88587 3.40273,-3.28457 0.19865,-0.56978 1.06574,-1.50804 1.39372,-1.50804 0.32784,0 0.5852,0.33485 0.32422,0.42185 -0.0984,0.0328 -0.17897,0.11885 -0.17897,0.19121 0,0.0723 -0.17854,0.32322 -0.39677,0.55753 -0.582,0.62476 -1.0714,1.73191 -1.19186,2.69613 -0.0993,0.79497 -0.0861,0.84691 0.21677,0.84691 0.17743,0 0.52276,-0.10351 0.7674,-0.23001 0.77385,-0.40018 2.10542,-0.44963 2.86109,-0.10625 l 0.66003,0.2999 1.22325,-0.59774 c 0.93853,-0.45866 1.36888,-0.58714 1.8488,-0.55203 l 0.62559,0.0457 0.0435,1.48262 c 0.0402,1.37006 0.071,1.50061 0.40558,1.71984 0.48075,0.31499 1.26137,0.16336 1.87275,-0.36377 0.62394,-0.53798 1.44777,-2.33895 1.4724,-3.21884 0.0283,-1.01082 0.54772,-1.80822 1.18547,-1.81978 0.21685,-0.004 0.26609,0.12917 0.26609,0.71935 0,0.79412 0.31184,1.16027 1.2723,1.49402 0.65029,0.22598 0.66397,0.54496 0.0529,1.23044 -0.70671,0.79275 -0.78976,1.206 -0.33388,1.66185 0.3965,0.39653 1.08516,0.47787 1.64161,0.19392 0.45569,-0.23252 1.92868,-1.68024 1.92868,-1.89556 0,-0.27048 0.60555,-0.97602 0.83769,-0.97602 0.15703,0 0.20066,0.24347 0.17958,1.00198 -0.0257,0.92543 0.005,1.02994 0.39825,1.36848 0.23434,0.20155 0.55546,0.3665 0.71358,0.3665 0.35697,0 2.02443,-0.95748 2.7292,-1.56718 0.35155,-0.30412 0.54592,-0.3905 0.58886,-0.26173 0.0873,0.26199 -1.95263,2.11103 -2.89838,2.62718 -1.22423,0.6681 -2.08944,0.52271 -2.48208,-0.41706 -0.24868,-0.59518 -0.57822,-0.58068 -1.26765,0.0557 -0.83944,0.77488 -1.38541,1.0895 -2.02742,1.1684 -1.60417,0.19711 -2.34222,-1.35247 -1.25796,-2.64107 l 0.36729,-0.43646 -0.6083,-0.34189 c -0.70535,-0.39643 -0.91567,-0.35486 -1.21833,0.24071 -1.38454,2.72452 -3.33134,4.03593 -4.49945,3.03096 -0.41468,-0.35676 -0.42585,-0.40629 -0.39859,-1.76646 l 0.028,-1.39938 -0.61217,0.0979 c -0.76735,0.12271 -1.8007,0.64013 -1.8007,0.90162 0,0.7488 -0.51713,1.768 -1.33274,2.6267 -1.01663,1.07032 -1.54902,1.38314 -2.92475,1.7185 l -0.98835,0.2409 -0.0492,3.26914 c -0.0443,2.94238 -0.009,3.51989 0.35171,5.778 0.22051,1.37988 0.49924,2.88967 0.61942,3.35515 0.27688,1.0726 0.27453,1.41719 -0.0135,1.97424 -0.28662,0.55423 -0.6392,0.57661 -0.8382,0.0532 z m 2.76429,-16.44073 c 1.11961,-0.61537 1.19486,-0.69694 1.19486,-1.29468 0,-0.44326 -0.0597,-0.57153 -0.26609,-0.57108 -0.54547,0.003 -2.92701,1.70312 -2.92701,2.09182 0,0.31112 1.28548,0.16571 1.99824,-0.22606 z m -0.53427,-2.13093 c 0.36533,-0.23079 0.66434,-0.47096 0.6645,-0.53369 0,-0.19981 -1.30553,-0.12253 -1.99533,0.11806 -0.36592,0.12763 -0.75086,0.34599 -0.85537,0.48525 -0.23217,0.30916 -0.24527,0.87209 -0.0297,1.27494 0.1519,0.28382 0.19722,0.26728 0.85601,-0.3126 0.38259,-0.33679 0.99454,-0.80116 1.35988,-1.03196 z m -34.80009,4.75594 c -0.56372,-0.11779 -1.094,-0.25683 -1.1784,-0.30901 -0.2802,-0.17314 -0.15889,-0.77909 0.22886,-1.14334 l 0.38232,-0.35917 1.37473,0.27905 c 1.70402,0.34595 4.78604,0.25321 6.4516,-0.19409 1.22846,-0.32997 4.20018,-1.37544 4.37742,-1.54006 0.066,-0.0613 0.0584,-0.50435 -0.0169,-0.9846 -0.1216,-0.77546 -0.0967,-0.9526 0.22251,-1.583 0.5674,-1.12054 1.87764,-2.61377 2.63949,-3.00813 0.42129,-0.21804 1.0932,-0.39137 1.7486,-0.45101 0.95078,-0.0865 1.21042,-0.0449 2.43282,0.3895 0.75268,0.26746 1.50532,0.51686 1.67259,0.55422 0.41238,0.0921 1.97265,-1.39602 2.813,-2.68282 0.12543,-0.19209 0.41624,-0.56986 0.64619,-0.8395 0.23,-0.26964 0.41814,-0.54504 0.41814,-0.61203 0,-0.067 0.38386,-0.91324 0.85305,-1.88058 0.55499,-1.14427 0.92916,-2.15726 1.07098,-2.8992 0.50959,-2.66644 1.09844,-4.19108 1.79498,-4.64746 0.55846,-0.36592 0.92927,-0.22974 0.86969,0.31938 -0.0732,0.67395 -0.76428,2.7509 -1.28842,3.87191 -0.35885,0.76756 -0.4767,1.26011 -0.52747,2.2048 -0.06,1.11633 -0.0116,1.37901 0.58616,3.1931 0.5643,1.71206 0.65101,2.14969 0.64759,3.26911 -0.003,0.71086 -0.0844,1.57705 -0.18274,1.92487 -0.20839,0.737 -1.31215,2.30741 -2.2097,3.14391 -0.73112,0.68136 -2.77908,1.92567 -3.16947,1.92567 -0.14811,0 -0.26926,0.0576 -0.26926,0.12806 0,0.0705 -0.56449,0.39547 -1.25442,0.72225 l -1.25444,0.59418 -1.82465,-0.0265 c -2.21588,-0.0322 -3.28681,-0.29207 -4.6019,-1.11665 -0.70487,-0.44196 -1.07309,-0.58668 -1.30683,-0.51366 -0.17899,0.0559 -1.17925,0.43614 -2.22276,0.84492 -2.83694,1.11136 -4.56428,1.50532 -6.92174,1.57861 -1.33583,0.0415 -2.30897,-0.008 -3.00159,-0.15269 z m 21.63498,-2.48438 c 1.57871,-0.77798 3.89884,-2.05783 4.32739,-2.38707 0.95456,-0.73338 1.35398,-2.05682 1.12032,-3.71216 -0.15242,-1.07977 -1.31881,-4.87884 -1.49791,-4.87884 -0.18611,0 -0.76361,0.55875 -0.76361,0.7388 0,0.094 -0.13684,0.25641 -0.30409,0.36086 -0.16727,0.10446 -0.30411,0.26477 -0.30411,0.35621 0,0.18595 -1.68738,2.48325 -2.32542,3.16593 -0.46395,0.49643 -0.49107,0.59698 -0.22146,0.82015 0.24382,0.20183 1.89503,0.60053 3.11113,0.75123 l 0.94438,0.11703 -0.23133,0.47395 c -0.43489,0.89098 -1.43208,1.03372 -3.48205,0.49852 -2.09428,-0.54681 -2.38463,-0.54324 -3.19915,0.0394 -0.39114,0.27975 -0.82346,0.5778 -0.96078,0.66234 -0.1373,0.0845 -0.64077,0.40722 -1.11885,0.71712 -0.4781,0.30988 -1.21819,0.74025 -1.64467,0.95637 -0.42649,0.21613 -0.75105,0.46614 -0.72123,0.55559 0.099,0.29711 1.24584,0.83082 2.17077,1.01024 1.54951,0.30059 1.63836,0.30898 2.89589,0.27299 1.02513,-0.0293 1.38235,-0.11334 2.20478,-0.51866 z m -5.7445,-2.78183 c 1.10677,-0.59344 2.17969,-1.24137 2.38432,-1.43984 l 0.37197,-0.36084 -0.7521,-0.34679 c -1.03807,-0.47863 -3.08166,-0.4968 -3.86871,-0.0344 -0.84611,0.49702 -1.25693,1.22198 -1.17729,2.07743 0.0747,0.80278 0.31329,1.18346 0.74162,1.18346 0.15833,0 1.19341,-0.48551 2.30019,-1.07897 z m 41.74667,2.48547 c -0.57711,-0.67765 -0.65773,-1.24757 -0.62378,-4.40952 0.0282,-2.62025 0,-3.07906 -0.19005,-3.07906 -0.12272,0 -0.24022,0.0114 -0.26115,0.0257 -0.0209,0.0143 -0.19195,-0.0567 -0.38012,-0.15743 -0.46242,-0.24744 -0.43088,-0.69197 0.076,-1.07201 0.22997,-0.17243 0.50366,-0.38537 0.60819,-0.47318 0.12772,-0.10732 0.19082,-0.64411 0.19241,-1.63624 0.003,-0.81206 0.0556,-1.56035 0.12068,-1.6628 0.0651,-0.10247 0.28572,-0.20511 0.49027,-0.22807 0.35928,-0.0404 0.37557,0 0.48075,1.17462 0.0599,0.66905 0.14994,1.44277 0.20021,1.71942 l 0.0913,0.50302 2.11217,-0.0469 c 1.31141,-0.0291 2.17175,0.0124 2.26936,0.10996 0.10824,0.10793 0.0752,0.32118 -0.10599,0.68422 l -0.26324,0.52744 -1.59657,0.0954 c -0.8781,0.0525 -1.8143,0.10383 -2.08045,0.11406 -0.62696,0.0241 -0.69215,0.24181 -0.73371,2.45097 -0.0472,2.50402 0.26876,4.00143 0.88558,4.19722 0.32425,0.1029 1.44251,-0.58613 1.57861,-0.97274 0.0502,-0.14243 0.20868,-0.39579 0.35232,-0.56306 0.14362,-0.16727 0.38029,-0.62413 0.52594,-1.01529 0.28615,-0.76835 0.87328,-1.43301 1.12726,-1.27606 0.10856,0.0671 0.10861,0.22556 0,0.5101 -0.0866,0.22703 -0.16709,0.807 -0.17905,1.28886 -0.0188,0.75573 0.0325,0.93025 0.37219,1.26997 0.45017,0.45014 0.56203,0.41939 1.83555,-0.50514 0.54517,-0.39574 0.76327,-0.67614 0.90054,-1.1576 0.21783,-0.76404 0.53318,-1.16756 0.91252,-1.16756 0.24175,0 0.28053,0.12713 0.28053,0.91924 0,0.77322 0.0593,0.97851 0.37323,1.29244 0.48627,0.48631 0.81658,0.47067 1.75551,-0.0829 0.4255,-0.2509 0.84127,-0.45617 0.92384,-0.45617 0.28033,0 -0.23275,0.72864 -0.96679,1.37293 -1.24092,1.08921 -2.19646,1.10254 -3.07414,0.0429 l -0.30411,-0.36717 -1.08328,0.74661 c -1.4378,0.99089 -1.96554,1.17345 -2.45854,0.85039 -0.20576,-0.1348 -0.44886,-0.44312 -0.5402,-0.68514 -0.0913,-0.24198 -0.24505,-0.43997 -0.3416,-0.43997 -0.0965,0 -0.47498,0.28022 -0.84095,0.62272 -1.26908,1.18772 -1.99123,1.4645 -2.44147,0.93581 z m 37.90616,-0.93126 c -0.61621,-0.66677 -0.80123,-0.77933 -1.28124,-0.77933 -0.65651,0 -0.75499,-0.338 -0.26355,-0.90466 0.16362,-0.18865 0.37735,-0.59256 0.47498,-0.89755 0.43907,-1.37178 2.14582,-2.91142 3.22741,-2.91142 0.66953,0 1.22592,0.56036 1.0908,1.0986 -0.12488,0.49763 -1.15922,1.73877 -1.90786,2.28931 -0.63463,0.46673 -0.64029,0.66093 -0.0351,1.20857 0.51216,0.46349 1.27794,0.39965 2.67258,-0.22278 0.62963,-0.28102 0.78822,-0.44964 1.18947,-1.26463 0.61433,-1.24796 1.33699,-1.99938 2.05171,-2.13344 0.74633,-0.14002 3.10118,0.0345 4.15874,0.30824 4.84931,1.25505 5.43031,1.34887 7.61106,1.22938 2.51616,-0.13787 4.01418,-0.43198 4.73128,-0.92895 0.98187,-0.68043 1.25801,-0.0623 0.35335,0.79097 -0.94903,0.89503 -3.4916,1.42444 -6.83326,1.4228 -1.51889,-0.003 -2.52987,-0.16994 -5.85401,-0.97973 -1.89971,-0.46275 -4.34256,-0.66548 -4.83614,-0.40132 -0.18351,0.0982 -0.33366,0.31301 -0.33366,0.47734 0,0.24834 0.10506,0.29874 0.62275,0.29874 0.34253,0 0.82637,0.11975 1.07524,0.26609 0.37782,0.2222 0.43847,0.33652 0.36761,0.69308 -0.0902,0.4537 -0.24278,0.6455 -0.845,1.06174 -0.47715,0.32983 -1.71701,0.34973 -1.98088,0.0318 -0.28715,-0.34602 -0.64482,-0.28061 -1.81859,0.33253 -0.79031,0.41278 -1.3163,0.57817 -1.9953,0.62728 l -0.92213,0.0667 z m 1.86349,-3.5198 c 0.37261,-0.35349 0.1996,-0.60471 -0.41651,-0.60471 -0.5847,0 -0.91434,0.22119 -1.21793,0.8172 -0.38663,0.75908 -0.15965,0.92098 0.64543,0.46042 0.38745,-0.22164 0.83248,-0.52445 0.98901,-0.67291 z m -8.38515,3.35653 c -0.27387,-0.17166 -0.56266,-0.48226 -0.64174,-0.69027 l -0.14378,-0.37817 -0.71136,0.37825 c -0.39126,0.20804 -0.89006,0.37822 -1.10842,0.37822 -0.50763,0 -1.2166,-0.65408 -1.33146,-1.22828 -0.11486,-0.5743 -0.25125,-0.55991 -0.73755,0.0777 -0.5529,0.72483 -1.40036,1.3407 -1.84492,1.3407 -0.59205,0 -1.09844,-0.61182 -1.44171,-1.74194 -0.17256,-0.56814 -0.36486,-1.03304 -0.42735,-1.03304 -0.0625,0 -0.3124,0.17712 -0.55539,0.3936 -2.46079,2.19228 -3.92793,2.7976 -4.85061,2.00125 -0.27665,-0.23878 -0.42846,-0.56038 -0.50263,-1.06471 l -0.10628,-0.7226 -1.56493,1.06474 c -0.86069,0.58557 -1.65978,1.06468 -1.77575,1.06468 -0.37955,0 -0.68871,-0.46702 -0.68871,-1.04039 0,-0.50578 0.13412,-0.69483 1.33046,-1.87487 0.73175,-0.72178 1.60414,-1.44621 1.93865,-1.6098 1.2941,-0.63291 1.8369,-0.55497 1.71921,0.24691 -0.0638,0.43484 -0.0413,0.46222 0.30787,0.37459 0.36182,-0.0908 0.37169,-0.0741 0.24958,0.42199 -0.34978,1.42142 0.0369,2.37262 0.89474,2.20109 0.64,-0.128 1.94972,-0.91408 2.79019,-1.67465 l 0.72874,-0.65945 0.0903,-2.10807 c 0.12625,-2.94796 0.47741,-4.15464 1.80639,-6.20733 0.56388,-0.87101 1.18887,-1.77763 1.3889,-2.01473 0.84111,-0.99713 1.69119,-1.22679 2.27385,-0.61433 0.29213,0.30707 0.31801,0.46736 0.25281,1.56498 -0.0478,0.80362 -0.20029,1.53874 -0.44487,2.14429 -0.40968,1.01423 -2.15138,3.95692 -3.29834,5.57263 -0.81685,1.15072 -0.83064,1.32508 -0.23535,2.98053 0.35695,0.99261 0.6672,1.19189 1.28627,0.82621 0.24929,-0.14726 0.45328,-0.31345 0.45328,-0.36933 0,-0.17827 1.3897,-2.17932 1.70495,-2.45493 0.16685,-0.14592 0.35936,-0.23069 0.42775,-0.18844 0.0684,0.0423 0.0885,0.57221 0.0448,1.17761 -0.0708,0.97885 -0.0436,1.13861 0.24583,1.44285 0.53488,0.56221 0.97041,0.43931 1.97268,-0.55674 1.21451,-1.207 1.80033,-2.04499 2.07539,-2.96878 0.43976,-1.47693 1.23179,-1.94559 1.15461,-0.68318 -0.0368,0.60111 0.0183,0.73065 0.51324,1.20568 0.87479,0.83971 1.1652,1.52977 1.04116,2.4742 -0.12448,0.9481 -0.49969,1.7196 -1.12993,2.32344 -0.40896,0.39179 -0.58896,0.4486 -1.55749,0.49151 -0.89691,0.0397 -1.18523,-0.008 -1.59306,-0.26358 z m 2.97641,-1.10263 c 0.24857,-0.24857 0.23018,-1.26185 -0.032,-1.76376 -0.11798,-0.22582 -0.43079,-0.61587 -0.69514,-0.86675 l -0.48061,-0.45617 -0.55933,0.60823 -0.55928,0.60819 0.45614,0.0507 c 0.90093,0.10023 1.26175,0.79513 0.68424,1.31776 -0.50115,0.45355 -0.38325,0.68424 0.3497,0.68424 0.35962,0 0.73597,-0.0821 0.8363,-0.18246 z m -18.39466,-1.34487 c 0.76735,-0.50554 1.39518,-0.98319 1.39518,-1.06148 0,-0.26694 -0.68657,-0.31547 -1.23307,-0.0871 -0.81192,0.33919 -2.03628,1.49767 -1.9155,1.81236 0.0539,0.14045 0.15653,0.25535 0.2281,0.25535 0.0716,0 0.75795,-0.41365 1.52529,-0.91913 z m 9.18054,-4.20876 c 2.00679,-3.03802 2.54154,-4.26571 2.54926,-5.85258 0.004,-0.85564 -0.0425,-1.04643 -0.28813,-1.17787 -0.41016,-0.2195 -0.60976,-0.0963 -1.29476,0.79946 -1.15443,1.50956 -1.81695,3.1754 -1.98599,4.99354 -0.11052,1.18906 0.0106,2.47068 0.22132,2.34048 0.0648,-0.04 0.424,-0.53639 0.7983,-1.10303 z m -32.68736,2.08082 c -0.5266,-0.21148 -0.575,-0.55949 -0.13851,-0.99597 0.28723,-0.28723 0.51369,-0.37481 0.87648,-0.33891 0.71369,0.0707 0.87569,0.43024 0.45805,1.01677 -0.34957,0.49091 -0.59997,0.55753 -1.19602,0.31811 z m -10.02456,-1.36414 c -0.81003,-0.59568 -0.89019,-0.8401 -0.42738,-1.30291 0.29252,-0.29253 0.46841,-0.35317 0.79676,-0.27464 0.69982,0.16735 0.95356,0.35647 0.95295,0.71027 0,0.28848 -0.51014,1.32509 -0.65146,1.32509 -0.0266,0 -0.32848,-0.20601 -0.67087,-0.45781 z m 46.1011,-0.91281 c -0.0524,-0.0848 -0.36867,-0.29369 -0.70276,-0.46413 -0.70683,-0.36058 -0.74922,-0.77153 -0.12732,-1.23399 0.36034,-0.26797 0.42768,-0.27126 1.05122,-0.0512 1.207,0.42584 1.34374,0.74353 0.62817,1.45909 -0.46828,0.46829 -0.69204,0.54475 -0.84931,0.29025 z"
       id="path17782"
       sodipodi:nodetypes="sssssssssssssssssscsscsssssssssssssssssssssscsssscsssscsssssssscssscsssssssscssssssssssssssssssssssssscsssssssssssssssscsssssssssssscsssssssssssscsssscssscsssssssssssssssssssscsssssssssssssssssssssscsssssssssscsssssssscsssssssssscsssssssssscssssssssssssssssssssssssscccssssssssssssssssssssssssscssssssss" />
    <path
       style="fill:#112f25;fill-opacity:1;stroke-width:0.152053"
       d="m 19.1912,186.80231 c -1.00533,-0.10531 -1.63581,-0.38733 -2.18831,-0.97872 -0.32536,-0.34833 -0.35317,-0.4785 -0.26413,-1.23603 0.11228,-0.95555 0.20854,-1.15864 1.1386,-2.40274 0.71583,-0.95752 1.85336,-1.68029 2.1607,-1.37292 0.18243,0.18238 -0.54359,1.02746 -1.26421,1.47159 -0.74401,0.45852 -1.12977,1.96458 -0.571,2.22927 2.50085,1.1847 6.2801,1.01962 9.42727,-0.41182 2.20728,-1.00397 5.00909,-3.13505 5.79625,-4.4087 0.17219,-0.27861 0.47252,-1.13861 0.66736,-1.91112 0.19489,-0.77247 0.42333,-1.6098 0.50768,-1.86068 0.13766,-0.40944 0.40518,-2.15254 0.36314,-2.36617 -0.0655,-0.33319 0.30517,-4.22372 0.50409,-5.29029 0.31546,-1.69135 0.62801,-2.4222 1.15178,-2.69306 0.52872,-0.27342 0.59822,-0.15655 0.41373,0.69549 -0.33211,1.53392 -0.41122,2.28793 -0.4218,4.02079 -0.0167,2.73214 0.72297,6.53952 1.21179,6.23745 0.0801,-0.0495 0.14558,-0.27456 0.14558,-0.50015 0,-0.22561 0.0692,-0.6492 0.15382,-0.94138 0.0846,-0.29213 0.22225,-0.97592 0.30592,-1.51951 0.0837,-0.54358 0.26093,-1.28256 0.39388,-1.64216 0.26861,-0.72665 2.05907,-3.88816 2.47134,-4.3639 0.14497,-0.16727 0.45731,-0.59455 0.69416,-0.94951 0.46808,-0.70152 1.65748,-1.86349 1.90754,-1.86349 0.26205,0 0.17341,0.41021 -0.18666,0.86384 -0.18817,0.23704 -0.42926,0.56734 -0.5357,0.73392 -0.10645,0.16661 -0.34595,0.54184 -0.53219,0.83387 -0.42537,0.66701 -0.70739,1.40385 -0.87344,2.282 -0.1797,0.95046 -0.70247,2.9809 -0.81396,3.16124 -0.18934,0.30639 -0.26191,5.34458 -0.0864,6.00086 0.3034,1.13456 0.71096,1.84422 1.46259,2.54648 0.752,0.7026 0.99459,0.8649 2.17741,1.45653 1.49495,0.74779 3.59371,1.01674 5.16978,0.66254 1.01446,-0.22799 2.66853,-0.88159 3.11007,-1.22893 0.9263,-0.72864 0.1978,-1.87418 -1.57803,-2.48134 -0.62087,-0.21231 -1.33937,-0.38601 -1.5966,-0.38601 -1.07638,0 -4.34941,0.90745 -4.77396,1.32358 -0.42505,0.41664 -0.70114,0.15505 -0.41431,-0.39251 0.44672,-0.85275 1.10551,-1.32929 2.39628,-1.73331 2.75592,-0.86262 4.02209,-0.88387 5.65981,-0.095 1.17065,0.56394 1.40541,0.74904 1.6003,1.26162 0.72692,1.91195 -1.13025,4.26886 -3.93033,4.98792 -3.10155,0.79645 -4.43942,0.66582 -7.08753,-0.69199 -1.66412,-0.85331 -2.4897,-1.70656 -3.00966,-3.1105 -0.38465,-1.03856 -0.4115,-1.27179 -0.4114,-3.57325 1.3e-4,-2.31124 0.19733,-3.99584 0.59973,-5.12307 0.28922,-0.81013 0.32525,-1.21642 0.10795,-1.21642 -0.23053,0 -0.70778,1.10416 -0.70778,1.63748 0,0.18415 -0.0669,0.62664 -0.14862,0.98327 -0.0818,0.3566 -0.25281,1.10723 -0.38015,1.66798 -0.12732,0.56076 -0.23151,1.35552 -0.23151,1.76613 0,0.52482 -0.0935,0.86539 -0.31494,1.14691 -0.29027,0.36896 -0.3008,0.46837 -0.13478,1.26815 0.39095,1.88325 -0.38176,4.32924 -1.16289,3.68096 -0.14658,-0.12165 -0.16288,-0.25053 -0.0568,-0.44878 0.35382,-0.66112 -0.0872,-2.94688 -0.98161,-5.08749 -0.13774,-0.32967 -0.25635,-0.89361 -0.26358,-1.2532 -0.007,-0.35954 -0.0728,-0.69064 -0.14581,-0.73575 -0.073,-0.0451 -0.13271,0.014 -0.13271,0.13168 0,0.11753 -0.10499,0.42415 -0.23334,0.68138 -0.12832,0.25725 -0.33062,0.84132 -0.44955,1.29797 -0.2322,0.89148 -0.78738,1.91891 -1.82356,3.37481 -1.87772,2.63832 -6.24099,5.17641 -10.04705,5.84438 -0.97385,0.1709 -2.43173,0.17822 -3.94423,0.0198 z m 36.97042,-2.30921 c -0.63873,-0.17084 -0.85789,-0.42368 -0.85789,-0.98975 0,-1.24135 1.48225,-2.94651 3.31126,-3.80931 0.85754,-0.4045 2.73458,-0.73676 3.32505,-0.58857 0.37952,0.0952 0.47868,0.51088 0.19063,0.79896 -0.0921,0.0921 -0.26429,0.62929 -0.38261,1.19372 -0.19037,0.90821 -0.18817,1.06736 0.019,1.38348 0.41894,0.6394 1.10892,0.5021 2.62191,-0.5217 0.43908,-0.29708 0.84961,-0.48842 0.91231,-0.42516 0.15955,0.16097 -1.80215,1.98847 -2.5368,2.36326 -1.02187,0.52133 -2.29089,0.28075 -2.29089,-0.43426 0,-0.46996 -0.16031,-0.46353 -0.96465,0.0388 -1.43906,0.89874 -2.50785,1.21502 -3.34727,0.99052 z m 3.06496,-1.88807 c 0.89897,-0.43611 1.19393,-0.67209 1.55829,-1.24661 0.5888,-0.92845 0.44841,-1.05968 -0.87807,-0.82089 -2.21798,0.39928 -4.09938,1.87105 -3.12058,2.44118 0.5053,0.29429 1.32083,0.16941 2.44036,-0.37368 z m 6.63509,1.4395 c -0.25771,-0.2848 -0.28549,-0.60048 -0.29105,-3.30716 -0.003,-1.64576 -0.0608,-3.07785 -0.12776,-3.18238 -0.0862,-0.13478 -0.66075,-0.19074 -1.97528,-0.19238 -2.01673,-0.003 -2.32283,-0.0858 -2.16328,-0.58857 0.18714,-0.58957 0.93324,-0.84275 2.51439,-0.85323 0.79446,-0.005 1.53003,-0.0628 1.63454,-0.12798 0.12888,-0.0803 0.19008,-0.55266 0.19008,-1.4669 0,-1.27339 0.0222,-1.36588 0.39798,-1.66153 0.21892,-0.17219 0.45842,-0.27575 0.53219,-0.23016 0.0738,0.0456 0.13419,0.79166 0.13419,1.65785 0,0.89329 0.0645,1.59684 0.14909,1.6256 0.082,0.0279 0.87022,0.0167 1.7516,-0.0254 0.88135,-0.0418 1.66955,-0.0532 1.75154,-0.0254 0.2725,0.0926 0.15446,0.41947 -0.31337,0.86768 -0.40606,0.38904 -0.63333,0.46217 -1.86267,0.59941 l -1.40015,0.15632 -0.0214,2.58413 c -0.0127,1.55204 0.0401,2.66009 0.13266,2.77421 0.26996,0.33308 0.79076,0.20717 1.80536,-0.43651 0.7797,-0.49464 1.1257,-0.84569 1.6432,-1.66711 0.84865,-1.34708 2.00464,-2.2479 3.04231,-2.3708 0.66167,-0.0784 0.76086,-0.0507 0.92615,0.25807 0.41126,0.76846 -0.23011,1.72551 -2.20644,3.29234 l -0.6082,0.48221 0.42804,0.16391 c 1.48995,0.57044 3.19114,-0.13851 4.44204,-1.85119 0.42703,-0.5847 0.52779,-0.86061 0.52779,-1.44571 0,-0.88453 0.53311,-1.97101 1.41684,-2.88742 0.75986,-0.78801 1.41714,-0.90787 1.25066,-0.22807 -0.0563,0.22995 -0.30321,0.84595 -0.54867,1.36887 -0.63071,1.34364 -0.60621,1.44481 0.46607,1.92601 0.99991,0.44876 1.09654,0.65942 0.67559,1.47344 -0.13018,0.25178 -0.21572,0.71022 -0.19006,1.0188 0.0606,0.72925 0.51772,0.81854 1.35467,0.26469 1.30532,-0.86381 1.71458,-1.29762 1.94273,-2.05912 0.16304,-0.54409 0.64244,-1.06571 0.97944,-1.06571 0.0732,0 0.0859,0.40738 0.0281,0.9053 -0.10461,0.90127 0.0989,1.9478 0.41929,2.15582 0.22124,0.14367 0.66802,-0.0257 2.01274,-0.76308 0.66902,-0.3669 1.59276,-1.0232 2.05271,-1.45849 0.45996,-0.43532 1.09088,-0.93562 1.40201,-1.11181 0.89138,-0.50482 2.83466,-1.02679 3.57772,-0.96099 0.23474,0.0209 0.25199,0.56883 0.0225,0.71075 -0.36891,0.22799 -0.89374,1.67089 -0.89519,2.46118 -0.003,1.58705 1.05179,1.85105 3.16658,0.79253 0.97589,-0.48842 1.44833,-0.85362 2.31132,-1.7866 1.32816,-1.43589 1.51249,-1.77199 1.44264,-2.63043 -0.14687,-1.80517 0.71168,-5.33318 1.95914,-8.05072 0.57536,-1.25343 1.58522,-2.20964 1.94918,-1.84565 0.39495,0.39494 0.56192,4.39798 0.21992,5.27201 -0.23219,0.59333 -1.63009,2.98749 -2.04197,3.49721 -0.0676,0.0836 -0.284,0.41473 -0.48096,0.73583 -0.34687,0.56547 -0.35311,0.6327 -0.19968,2.14974 0.15497,1.53209 0.3538,2.20821 0.64945,2.20821 0.1642,0 2.39305,-2.22705 3.12483,-3.12232 0.25847,-0.31618 0.54025,-0.53142 0.62624,-0.47826 0.086,0.0531 0.20281,0.56824 0.25961,1.14467 0.0819,0.83169 0.17934,1.11953 0.47173,1.39422 0.36801,0.34573 0.36922,0.34581 1.09511,0.0702 0.88466,-0.33592 2.38527,-1.80745 2.80056,-2.74627 0.29398,-0.66458 1.21772,-1.73612 1.49664,-1.73612 0.21222,0 0.19442,0.3968 -0.0342,0.76285 -0.25665,0.41097 -0.0612,0.68778 0.99438,1.40877 1.62838,1.11223 1.78351,1.97543 0.58672,3.2653 -0.91154,0.98245 -1.43553,1.23526 -2.79916,1.35052 l -1.11199,0.094 -0.41307,-0.54157 c -0.2272,-0.29787 -0.41309,-0.63942 -0.41309,-0.75899 0,-0.31168 1.41943,-1.59633 1.89595,-1.71595 0.62198,-0.15608 1.19679,0.4495 1.06971,1.12702 l -0.0957,0.5103 0.50369,-0.10774 c 1.11215,-0.23791 1.16263,-0.72305 0.16412,-1.57655 -0.39587,-0.33835 -0.93303,-0.73006 -1.19372,-0.87048 l -0.474,-0.25524 -1.2922,1.3127 c -1.40901,1.43137 -2.69237,2.19001 -3.40302,2.01166 -0.45995,-0.11544 -0.90781,-0.81484 -1.03629,-1.6183 -0.0525,-0.32832 -0.11983,-0.59698 -0.1496,-0.59698 -0.0298,0 -0.68426,0.64252 -1.45436,1.42783 -2.33743,2.38349 -2.90547,2.14317 -3.1097,-1.31575 -0.009,-0.1474 -0.0605,-0.28424 -0.1152,-0.30409 -0.0547,-0.0198 -0.64796,0.55026 -1.31844,1.26688 -1.11493,1.19166 -2.65378,2.29415 -3.90401,2.79704 -0.69498,0.27951 -1.67717,0.35119 -2.14818,0.15677 -0.59822,-0.24694 -0.67953,-0.38283 -0.79732,-1.33271 -0.0525,-0.42373 -0.16399,-0.79033 -0.2476,-0.81465 -0.0837,-0.0243 -0.56261,0.33385 -1.06439,0.79597 -1.17957,1.08644 -2.09677,1.63497 -2.51293,1.50286 -0.40741,-0.1293 -0.65011,-0.77041 -0.53131,-1.40361 0.0512,-0.27265 0.0475,-0.49575 -0.008,-0.49575 -0.0556,0 -0.73181,0.37634 -1.50262,0.83629 -0.77081,0.45996 -1.54458,0.8363 -1.7195,0.8363 -0.40632,0 -0.77089,-0.36478 -0.88442,-0.88495 -0.21471,-0.98362 -0.21251,-0.9833 -1.19031,-0.17526 -0.40759,0.33679 -0.9366,0.72787 -1.17562,0.86905 -0.239,0.14121 -0.43458,0.30496 -0.43458,0.36393 0,0.16169 -0.86572,0.31867 -1.18991,0.21577 -0.5896,-0.18714 -0.65749,-0.87781 -0.24913,-2.53378 0.0651,-0.26398 0.0297,-0.42469 -0.10589,-0.48038 -0.11202,-0.046 -0.46299,-0.19463 -0.77994,-0.3302 l -0.57629,-0.24643 -1.47642,1.50426 c -1.66373,1.69505 -2.27137,2.11259 -3.27462,2.25012 -1.30024,0.17822 -2.83943,-0.46514 -2.83943,-1.18684 0,-0.15269 -0.0587,-0.2776 -0.13036,-0.2776 -0.0717,0 -0.75456,0.41053 -1.51752,0.91231 -1.48825,0.97882 -1.94323,1.09249 -2.39122,0.59748 z m 23.847,-2.21959 c 0.80452,-0.50739 2.54386,-2.24835 2.54386,-2.54617 0,-0.17094 -0.13139,-0.20187 -0.57018,-0.13422 -0.31361,0.0484 -0.74125,0.17129 -0.95035,0.27321 -0.20908,0.10192 -0.56521,0.22963 -0.79142,0.28384 -0.95933,0.22982 -1.9502,2.52902 -1.08993,2.52902 0.11816,0 0.50427,-0.18256 0.85802,-0.40568 z m -17.61638,-1.03667 c 0.43918,-0.29154 0.92704,-0.67204 1.0841,-0.84558 0.24421,-0.26987 0.25342,-0.33586 0.0635,-0.45598 -0.33703,-0.21318 -0.62926,-0.17378 -1.17374,0.15819 -0.56396,0.34383 -1.11541,1.15483 -0.99629,1.46519 0.1084,0.28254 0.11506,0.28045 1.02243,-0.32182 z m 29.89498,-5.85618 c 1.10244,-2.02276 1.10471,-2.03142 1.02002,-3.90345 -0.0434,-0.95753 -0.11835,-1.78049 -0.16669,-1.82883 -0.0484,-0.0483 -0.15499,0.0885 -0.23699,0.30417 -0.082,0.21563 -0.35173,0.82553 -0.59944,1.35535 -0.60777,1.29993 -0.90895,2.53312 -1.01579,4.1591 l -0.0893,1.35815 0.39908,-0.45614 c 0.21947,-0.2509 0.52956,-0.69567 0.68908,-0.98835 z m 14.66111,7.89472 c -0.45278,-0.10737 -0.85497,-0.39076 -1.51201,-1.06529 l -0.89514,-0.91898 0.37158,-0.69588 c 0.50313,-0.94221 2.50439,-2.94817 3.28896,-3.29668 1.17845,-0.52351 2.22448,0.005 1.97366,0.99793 -0.18164,0.71874 -1.02762,1.80869 -1.90535,2.45485 -0.95067,0.69988 -0.99232,0.88488 -0.26172,1.16263 0.52813,0.20082 1.15633,0.0291 2.34815,-0.64182 0.56388,-0.31745 0.8795,-0.61394 1.02547,-0.96338 0.24747,-0.59221 1.42674,-1.82819 2.19633,-2.3019 0.77357,-0.47617 1.59965,-0.56845 2.5822,-0.2885 1.8841,0.53684 6.38847,0.60555 6.88893,0.10504 0.24993,-0.2499 0.55793,-0.1918 0.55185,0.10414 -0.007,0.36356 -0.58201,1.01801 -1.13491,1.29275 -1.03717,0.51536 -5.37255,0.44241 -7.29168,-0.12268 -0.99216,-0.29216 -1.59406,-0.15926 -2.27533,0.50247 -0.68744,0.66773 -0.69152,1.18533 -0.0124,1.55879 0.25088,0.13798 0.47741,0.395 0.5034,0.57118 0.0572,0.3882 -0.36275,1.24669 -0.62135,1.27008 -0.52345,0.0473 -0.97827,-0.0734 -1.26032,-0.33448 -0.45458,-0.4208 -1.15191,-0.35928 -2.01586,0.17777 -0.83613,0.51977 -1.61605,0.65217 -2.54455,0.43196 z m 1.22502,-3.4794 c 0.79084,-0.43858 0.99018,-0.77759 0.67818,-1.15348 -0.40539,-0.48848 -1.38652,-0.13063 -2.17656,0.79391 -0.88205,1.03216 -0.0671,1.22772 1.49838,0.35957 z m -34.68256,-2.64065 c -0.52922,-0.45522 -0.41534,-1.04646 0.28472,-1.47802 l 0.49009,-0.30213 0.41815,0.46131 c 0.51363,0.56663 0.51477,0.62243 0.0246,1.20507 -0.47188,0.56083 -0.67558,0.57986 -1.21745,0.11377 z m -10.55309,-0.30504 c 0,-0.11163 0.18815,-0.37611 0.41812,-0.5878 0.52626,-0.48432 1.62158,-1.75863 3.1178,-3.62728 1.09313,-1.36519 1.81279,-1.99199 2.03359,-1.7712 0.0528,0.0529 -0.24106,0.49202 -0.65318,0.97592 -0.41206,0.48389 -0.98449,1.18771 -1.27206,1.56406 -0.28755,0.37631 -0.59225,0.76096 -0.67707,0.85473 -0.0848,0.0938 -0.66326,0.76094 -1.28537,1.48252 -1.0436,1.21049 -1.68183,1.63134 -1.68183,1.10905 z m 31.93106,-1.21211 c -0.70226,-0.23947 -0.75785,-0.66551 -0.16135,-1.23701 0.44511,-0.42637 0.47789,-0.43354 1.07815,-0.23545 0.34052,0.11237 0.73232,0.2871 0.87069,0.3883 0.22874,0.16725 0.21352,0.23382 -0.16748,0.73338 -0.45249,0.59322 -0.73173,0.6537 -1.62001,0.35078 z"
       id="path17784"
       sodipodi:nodetypes="sssssssssssssssssssssssssssssssssssssssssssssssssssssssssssssssssssssssssssssssssssssssssssssssssscssssssscssssssssssssssssssssssssssssssssssssssssscsssscssscsssssssssssssssssssssssssscsssssssssssssssssssssssssscsssscsssssssssssssssssssssssssscssssssssssssssssss" />
    <path
       style="fill:#112f25;fill-opacity:1;stroke-width:0.152053"
       d="m 144.3628,138.10789 c -0.86111,-0.20537 -1.62735,-0.63251 -2.26804,-1.26428 -0.45222,-0.44593 -1.18467,-1.91897 -1.36054,-2.73627 -0.0583,-0.27083 -0.1702,-0.53213 -0.24873,-0.58066 -0.0785,-0.0485 -0.60351,0.24416 -1.16668,0.65043 -2.02218,1.45875 -3.28999,1.95847 -4.35761,1.7177 -0.66127,-0.14915 -0.894,-0.32761 -1.31453,-1.00804 -0.17507,-0.28329 -0.3878,-0.51509 -0.47268,-0.51509 -0.0849,0 -0.4614,0.27028 -0.83669,0.60066 -0.76404,0.67252 -1.55482,0.99457 -2.10381,0.8568 -0.21965,-0.0551 -0.52541,-0.36311 -0.763,-0.76851 l -0.39645,-0.67654 -0.86352,0.57875 c -1.11242,0.7456 -1.99356,1.08141 -2.83732,1.08141 -1.50114,0 -1.72741,-1.50588 -0.45373,-3.01959 0.45418,-0.53975 0.38754,-0.78173 -0.21532,-0.78173 -0.32842,0 -0.61674,0.2241 -1.32056,1.02637 -1.29259,1.47344 -2.21456,2.17588 -3.27152,2.49256 -0.56983,0.17071 -0.69046,0.1556 -1.28804,-0.1614 -0.47572,-0.25238 -0.6862,-0.47215 -0.75587,-0.78928 -0.1212,-0.55187 -0.30249,-0.54975 -1.41708,0.0167 -1.25529,0.63791 -1.60186,0.60973 -1.90791,-0.15512 -0.13451,-0.33621 -0.2445,-0.96915 -0.24439,-1.40647 0,-0.6903 -0.16203,-2.28275 -0.39233,-3.85131 l -0.0692,-0.47117 -1.8601,-0.0881 c -1.02301,-0.0485 -2.04822,-0.15973 -2.27819,-0.24728 -0.48798,-0.18579 -0.54333,-0.58668 -0.14836,-1.07444 0.26742,-0.33028 0.28618,-0.33147 2.14741,-0.13965 2.24502,0.23135 2.20867,0.25448 2.36787,-1.50484 0.1084,-1.19785 0.37692,-1.85735 0.75628,-1.85735 0.28498,0 0.39823,0.61248 0.35476,1.91897 -0.0459,1.37922 0.1022,1.57826 1.17435,1.57826 0.92496,0 1.26124,0.25033 0.99772,0.74274 -0.25461,0.4757 -0.78613,0.77756 -1.37367,0.7801 -0.29501,0.003 -0.60981,0.0526 -0.69953,0.11403 -0.15825,0.10835 -0.0817,1.47604 0.20619,3.68496 0.12367,0.94861 0.3103,1.0541 1.36332,0.77055 0.60484,-0.16291 0.65553,-0.22693 1.18681,-1.50029 0.15002,-0.35952 0.50271,-0.85561 0.78375,-1.10239 0.9266,-0.81357 2.32505,-0.51173 2.32505,0.50183 0,0.32221 -0.83439,2.02444 -1.06095,2.16451 -0.26463,0.16354 -0.17978,0.68672 0.11062,0.68204 0.62326,-0.0101 2.49095,-1.2882 2.98567,-2.04324 0.20886,-0.31875 0.20272,-0.40487 -0.0663,-0.93258 -0.16303,-0.31978 -0.29644,-0.77563 -0.29644,-1.01298 0,-0.92943 0.94422,-2.08849 1.70162,-2.08884 0.55742,0 0.6473,0.20786 0.60611,1.40367 l -0.0354,1.02791 0.7217,0.34266 c 0.39695,0.18846 0.70678,0.39396 0.68847,0.4567 -0.0182,0.0627 -0.0332,0.23391 -0.0332,0.38044 0,0.14653 -0.3079,0.59706 -0.68424,1.00116 -0.75716,0.81298 -0.91046,1.48965 -0.39947,1.76313 0.84299,0.45116 3.2888,-0.80489 3.76452,-1.93331 0.47787,-1.13353 0.86154,-1.85764 0.98425,-1.85764 0.20153,0 0.40632,0.50554 0.33872,0.83627 -0.33427,1.63557 -0.22426,2.45943 0.34758,2.60299 0.21159,0.0531 0.56031,0.0167 0.77494,-0.0813 0.72493,-0.3303 1.94183,-1.50825 2.31952,-2.24533 0.57434,-1.1208 0.9506,-1.59107 1.44058,-1.80049 0.5656,-0.24178 1.118,-0.0212 1.24841,0.4985 0.15103,0.60174 -0.0621,1.82928 -0.47368,2.72831 -0.21225,0.4636 -0.38592,0.9031 -0.38592,0.9766 0,0.56409 2.51621,-0.51798 3.7633,-1.61838 l 0.7983,-0.70437 0.005,-2.83922 c 0.006,-3.0494 0.17521,-4.26641 0.74845,-5.37485 0.43096,-0.83336 0.70337,-1.14046 1.40994,-1.58946 0.7348,-0.46691 1.25098,-0.45675 1.74204,0.0343 0.38222,0.38222 0.39201,0.43857 0.31047,1.7866 -0.10758,1.77874 -0.63185,3.93626 -1.16954,4.81312 -0.47543,0.7753 -1.35469,2.28092 -1.64203,2.81164 -0.28467,0.52589 0.0505,2.41988 0.55187,3.11841 0.62378,0.86908 1.11696,1.31813 1.90545,1.73498 1.19372,0.63103 3.48675,0.53014 6.30785,-0.27755 2.42882,-0.69535 3.83294,-1.43568 4.97268,-2.62173 0.93774,-0.97586 1.12715,-1.04463 1.12715,-0.40918 0,0.44712 -1.46343,2.02787 -2.24266,2.42245 -0.31369,0.15888 -0.67294,0.36237 -0.7984,0.45228 -0.78907,0.5656 -4.71321,1.87123 -5.91752,1.96892 -2.2512,0.18256 -2.71835,0.18391 -3.44789,0.0101 z m -8.97199,-4.6319 c 0.19216,-0.21233 0.24799,-0.49736 0.21362,-1.09045 -0.0257,-0.44162 -0.11496,-0.82484 -0.1986,-0.85162 -0.15173,-0.0486 -0.83629,1.01505 -0.83629,1.29945 0,0.28564 0.29715,0.93009 0.42884,0.93009 0.0727,0 0.24934,-0.12936 0.39243,-0.28747 z m -15.63902,-0.43984 c 0.44815,-0.3755 0.54999,-0.74629 0.2794,-1.01688 -0.31052,-0.31056 -0.44585,-0.29384 -0.81304,0.10028 -0.3537,0.37965 -0.37161,0.48453 -0.15261,0.89366 0.19087,0.35666 0.28432,0.35978 0.68625,0.023 z m 22.30062,-3.03599 c 0.23206,-0.26681 0.51543,-0.77036 0.9281,-1.64931 0.35372,-0.7534 0.71453,-2.56079 0.73104,-3.66204 0.0122,-0.81511 -0.0389,-1.05564 -0.25894,-1.21648 -1.10054,-0.80475 -1.88974,1.19192 -1.88905,4.77922 0,1.1081 0.0582,2.0147 0.12888,2.0147 0.0707,0 0.23265,-0.11975 0.35997,-0.26609 z m -60.74077,5.82996 c -0.5693,-0.20632 -0.84685,-0.38714 -1.35496,-0.88276 -0.24619,-0.24013 -0.31247,-0.24201 -0.84288,-0.0238 -0.31663,0.13018 -0.64069,0.2988 -0.72014,0.37468 -0.0794,0.0759 -0.37169,0.13793 -0.64948,0.13793 -0.61679,0 -0.69024,-0.15227 -1.02684,-2.12873 -0.38659,-2.26984 -0.72459,-2.91291 -1.13144,-2.15268 -0.18291,0.34181 -2.78834,2.09809 -4.0422,2.72481 -2.53397,1.26659 -5.28939,1.8564 -6.27973,1.34427 -0.55573,-0.28739 -0.60735,-0.61894 -0.17684,-1.13575 0.24307,-0.29176 0.37853,-0.33721 0.7172,-0.24053 0.22963,0.0655 0.86228,0.12035 1.40586,0.12186 1.72686,0.005 5.09636,-1.34069 7.41755,-2.96172 1.27796,-0.89244 1.37538,-1.0841 1.70598,-3.35674 0.56935,-3.9139 0.78528,-4.55364 1.87573,-5.55744 0.79455,-0.73139 1.29516,-0.82015 1.76723,-0.31342 0.50642,0.54356 0.48266,1.92378 -0.0532,3.09432 -0.42646,0.93147 -1.95482,3.47261 -2.37424,3.94745 -0.42598,0.48231 -0.48585,0.91004 -0.24871,1.77676 0.12163,0.44447 0.34079,1.40684 0.48705,2.1386 0.22193,1.11048 0.3135,1.33046 0.55382,1.33046 0.54917,0 1.20743,-0.47286 1.46781,-1.05442 0.32157,-0.71826 1.11614,-1.63705 1.66198,-1.9218 0.82534,-0.43058 1.79303,-0.15166 1.62128,0.46736 -0.0233,0.0836 -0.0825,0.33544 -0.13171,0.55954 -0.0493,0.22416 -0.17496,0.49953 -0.2794,0.61198 -0.10443,0.11245 -0.4201,0.49935 -0.70151,0.85982 -0.59775,0.76554 -0.51996,0.93189 0.4889,1.04561 1.00711,0.1135 1.97966,-0.0757 2.61889,-0.50951 0.75314,-0.5111 1.02291,-0.27062 0.48602,0.43328 -0.79423,1.04129 -3.04409,1.71209 -4.26199,1.27069 z m 0.58637,-3.14325 c 0.28604,-0.23738 0.27114,-0.59597 -0.0246,-0.59597 -0.50665,0 -1.12297,0.47188 -1.12807,0.86368 -0.003,0.20936 0.80359,0.0222 1.15279,-0.26771 z m -3.87265,-5.71796 c 0.81465,-1.18407 1.34927,-2.42631 1.34673,-3.12928 -0.003,-0.71221 -0.0989,-0.92335 -0.48626,-1.06614 -0.30628,-0.11293 -0.83981,0.48673 -0.97274,1.09326 -0.0474,0.21637 -0.1779,0.70133 -0.29001,1.07767 -0.23063,0.77425 -0.37539,2.73693 -0.20185,2.73693 0.0627,0 0.33452,-0.3206 0.60413,-0.71244 z m 26.0523,8.79469 c -1.13133,-0.4165 -1.36197,-0.56642 -1.88243,-1.22356 -0.59963,-0.75708 -0.85564,-1.4891 -0.98954,-2.8293 -0.12512,-1.25246 -0.21082,-1.59652 -0.39765,-1.59652 -0.18819,0 -0.83865,1.43018 -1.51884,3.33944 -0.53557,1.50341 -1.03124,2.21639 -1.33043,1.91365 -0.0604,-0.0612 -0.10996,-1.48915 -0.10996,-3.17323 0,-2.64908 -0.0319,-3.06826 -0.23654,-3.10856 -0.13009,-0.0257 -0.39301,0.0891 -0.58425,0.25498 -0.19124,0.16589 -0.41164,0.32287 -0.48974,0.34893 -0.17412,0.058 -1.13999,2.69724 -1.51792,4.14777 -0.25011,0.95972 -0.56565,1.44679 -0.93739,1.44679 -0.077,0 -0.0879,-1.20044 -0.0254,-2.8095 0.10369,-2.6724 0.095,-2.81427 -0.17857,-2.90732 -1.38342,-0.47056 -3.0309,-1.76747 -3.55817,-2.80099 -0.7956,-1.55948 -0.71006,-3.06908 0.24469,-4.31948 1.66002,-2.17408 3.27205,-1.26661 4.16912,2.34691 0.17629,0.71014 0.38465,1.50132 0.46294,1.75815 0.0784,0.25684 0.14245,0.71962 0.14245,1.02844 0,0.30879 0.0827,0.69392 0.18386,0.85585 0.14859,0.23794 0.13399,0.39891 -0.076,0.83939 -0.38272,0.80253 -0.33396,0.79227 0.4831,-0.10176 1.28558,-1.40661 2.76545,-1.87825 2.99712,-0.9552 0.0525,0.20929 0.0689,1.09776 0.0365,1.9744 -0.0324,0.87664 -0.0433,1.5939 -0.0241,1.5939 0.019,0 0.42127,-0.64751 0.89352,-1.43893 0.84516,-1.41624 1.45648,-2.21258 1.69495,-2.208 0.37444,0.007 0.54224,0.3384 0.58693,1.15842 0.0805,1.47791 0.32819,2.88523 0.6137,3.48689 0.31916,0.6726 1.32963,1.42735 2.28325,1.7054 0.64791,0.18891 0.69775,0.18127 0.97387,-0.14997 0.16008,-0.19198 0.29329,-0.43584 0.2961,-0.54191 0.003,-0.1061 0.43505,-0.61929 0.9606,-1.14041 0.7121,-0.7061 1.18668,-1.03225 1.86264,-1.28008 1.38157,-0.50655 2.18318,-0.52306 2.30753,-0.0476 0.0437,0.16727 0.13497,0.30411 0.2027,0.30411 0.25165,0 0.23479,0.5497 -0.0337,1.09633 -0.78115,1.5907 0.32841,2.31613 1.88871,1.23486 0.69381,-0.48083 0.88161,-0.36806 0.51641,0.31007 -0.31268,0.58062 -1.96183,1.61623 -2.57381,1.61623 -0.39344,0 -1.17272,-0.79261 -1.17272,-1.19277 0,-0.27749 -0.21992,-0.21243 -1.1675,0.34534 -1.5259,0.89818 -3.67061,1.20673 -4.99594,0.71882 z m 4.871,-1.68799 c 1.06577,-0.52321 1.29599,-0.69781 1.66246,-1.26092 0.25861,-0.3973 0.25874,-0.42135 0.003,-0.51943 -0.62132,-0.23844 -2.77911,0.63847 -3.30528,1.34324 -0.69345,0.92879 0.16957,1.15885 1.6397,0.43711 z m -15.03912,-7.10475 c -0.14063,-1.37239 -0.80018,-3.30903 -1.31448,-3.85955 -0.52962,-0.567 -1.07902,-0.5842 -1.50156,-0.047 -0.87167,1.10818 0.21108,3.46099 2.1177,4.60166 0.29273,0.17513 0.59295,0.31864 0.66722,0.31898 0.0756,0 0.0893,-0.44614 0.0311,-1.01404 z m 35.5718,1.32483 c -0.54642,-0.60376 0.0812,-1.49217 0.90765,-1.28477 0.79944,0.20064 0.70202,0.96134 -0.18098,1.4129 -0.42703,0.21842 -0.41044,0.22133 -0.72667,-0.12813 z m -8.65767,-1.80666 c -0.10242,-0.16571 0.72271,-3.41037 1.13435,-4.46061 0.32861,-0.83844 1.00589,-1.69421 1.23084,-1.55517 0.23609,0.14589 0.1329,0.83238 -0.25136,1.67243 -0.20904,0.4571 -0.38012,0.90467 -0.38012,0.99463 0,0.52858 -0.81325,2.70184 -1.14449,3.05853 -0.42412,0.45667 -0.4718,0.48016 -0.58922,0.29019 z"
       id="path17786"
       sodipodi:nodetypes="ssssssssssscsssssssssssscssssssssscssssssssssscscsssssssssssssssscsssssssssssssssssssssssssssssssscssssssssssssssssssssssssssssssssssssssssssssssssssssssssssssssssssssssssssssssssssssssssssssssssscssssssssssss" />
    <path
       style="fill:#112f25;fill-opacity:1;stroke-width:0.152053"
       d="m 115.06829,221.12773 c -0.18867,-0.71329 -0.2744,-1.92566 -0.39521,-5.58794 -0.0524,-1.58893 -0.20119,-3.84691 -0.33059,-5.01772 -0.12938,-1.17081 -0.23445,-3.2189 -0.23342,-4.55134 0.003,-1.50852 -0.0616,-2.52412 -0.16624,-2.69168 -0.13213,-0.21159 -0.0929,-0.40286 0.18344,-0.89456 0.19336,-0.34401 0.32488,-0.65209 0.29231,-0.68466 -0.0638,-0.0638 -1.37342,1.43901 -1.87214,2.14828 -0.58854,0.83704 -1.45767,1.46566 -1.69635,1.22696 -0.15697,-0.15698 0.31502,-0.77513 2.00906,-2.63097 1.42619,-1.56244 1.78012,-2.04536 1.97229,-2.6911 0.33104,-1.11239 0.93223,-1.77215 1.20811,-1.32578 0.0771,0.12478 -0.20868,1.64079 -0.46773,2.48113 -0.0733,0.23773 -0.0101,0.25803 0.5325,0.17127 0.40854,-0.0654 0.88178,-0.0114 1.40676,0.16031 0.87744,0.28699 1.37991,0.24186 2.73627,-0.24582 0.8278,-0.29763 0.87858,-0.29917 1.41912,-0.0427 0.64884,0.30789 0.80505,0.63947 0.98806,2.09711 0.0729,0.58037 0.22323,1.11265 0.33406,1.18295 0.32925,0.20873 1.02122,0.15034 1.43555,-0.12115 0.55158,-0.36142 1.29927,-2.0356 1.41695,-3.17291 0.0655,-0.63272 0.2212,-1.12659 0.46924,-1.48857 0.76772,-1.12043 1.59941,-0.66029 1.03714,0.5738 -0.22775,0.49983 0.0649,0.84537 1.089,1.28596 0.95851,0.41232 1.04185,0.71064 0.46191,1.65314 -0.98565,1.60189 -0.22045,2.18151 1.32443,1.00319 0.98462,-0.75102 1.10979,0.0961 0.15181,1.02778 -0.85701,0.83346 -1.17819,1.032 -1.78371,1.10249 -1.05606,0.12298 -1.49474,-0.91242 -0.99126,-2.3395 0.31501,-0.89286 0.29027,-1.04373 -0.19005,-1.15845 -0.22998,-0.055 -0.50282,-0.16656 -0.60627,-0.24802 -0.25683,-0.20217 -0.64818,-0.0292 -0.64818,0.28657 0,0.32589 -1.22565,2.30378 -1.69793,2.74 -0.51557,0.47619 -1.5516,0.75305 -2.01975,0.53975 -0.57298,-0.26107 -0.81886,-0.771 -0.93147,-1.93178 -0.12684,-1.30696 -0.49347,-1.82245 -1.19626,-1.6819 -0.81063,0.16213 -1.14893,0.49022 -1.14977,1.11522 0,0.31787 -0.15066,0.81333 -0.34214,1.12844 -0.4147,0.68252 -2.3147,2.18702 -3.10935,2.46216 -0.31742,0.10989 -0.57529,0.26133 -0.57298,0.33655 0.003,0.0752 0.0541,0.92364 0.11509,1.88535 0.061,0.96176 0.18182,2.94602 0.2685,4.40954 0.21643,3.65509 0.43167,5.90108 0.62942,6.56839 0.22373,0.75493 -0.0593,1.4904 -0.57362,1.4904 -0.28297,0 -0.38666,-0.11671 -0.5066,-0.57021 z m 2.17437,-16.15942 c 0.79812,-0.57314 0.90644,-0.77851 0.67662,-1.28284 l -0.16891,-0.37073 -0.56136,0.28641 c -0.85135,0.43431 -2.05791,1.58075 -1.91204,1.81674 0.1996,0.32297 1.21256,0.0913 1.96569,-0.44958 z m -1.16099,-1.86995 c 0.44077,-0.39679 0.43291,-0.55906 -0.0272,-0.55906 -0.44154,0 -0.84714,0.36692 -0.84714,0.76634 0,0.34528 0.35359,0.26143 0.87431,-0.20728 z m -23.03928,6.44512 c -0.52448,-0.14999 -1.08643,-0.39291 -1.24878,-0.53983 -0.27308,-0.24709 -0.27792,-0.30049 -0.0648,-0.71265 0.31039,-0.60018 0.49986,-0.64434 1.29773,-0.30229 0.37426,0.16042 1.08763,0.33718 1.58523,0.39285 0.83034,0.0928 0.99599,0.0571 2.01371,-0.43492 1.34893,-0.65209 2.46431,-1.40213 2.46431,-1.65716 0,-0.10372 -0.29253,-0.4331 -0.65008,-0.73197 -0.73957,-0.6182 -1.78277,-2.48688 -1.78277,-3.19345 0,-0.24643 0.0965,-0.63285 0.2145,-0.85867 0.91562,-1.7526 3.5878,-2.3535 6.28743,-1.41378 l 1.25611,0.4372 0.27842,-0.40124 c 0.54816,-0.7901 1.64018,-2.85234 2.04089,-3.85421 0.31086,-0.77722 0.40497,-1.26596 0.39529,-2.05269 -0.019,-1.54512 0.3711,-3.0184 0.96795,-3.65551 0.77001,-0.82201 0.89667,-0.23916 0.43164,1.98596 -0.38513,1.84277 -0.29094,2.20789 1.09365,4.23844 0.66035,0.9684 0.97772,1.61459 1.18983,2.42255 0.50525,1.92445 0.36206,3.00755 -0.6079,4.59759 -1.56073,2.55849 -5.41719,3.89416 -8.98623,3.11232 l -1.14038,-0.24985 -0.45617,0.37028 c -1.77043,1.43711 -4.38618,2.81377 -5.29074,2.78456 -0.18436,-0.006 -0.76436,-0.13356 -1.28884,-0.28353 z m 12.6605,-4.04373 c 1.43991,-0.29742 2.056,-0.5593 3.05893,-1.30022 0.99253,-0.73321 1.15768,-1.02505 1.14398,-2.02131 -0.018,-1.28892 -0.29253,-2.35632 -0.89432,-3.47456 -0.55457,-1.0305 -1.4705,-2.24647 -1.69215,-2.24647 -0.0603,0 -0.202,0.25659 -0.31488,0.57018 -0.11284,0.31361 -0.47913,1.01496 -0.81393,1.55855 -0.33481,0.54359 -0.72808,1.22579 -0.87395,1.51596 l -0.26519,0.5276 0.46993,0.34669 c 0.41682,0.30752 0.64518,0.34668 2.02067,0.34668 1.67468,0 1.86473,0.096 1.59486,0.80587 -0.2186,0.57494 -0.51372,0.70617 -1.77282,0.78848 -0.93374,0.061 -1.44256,0.01 -2.26816,-0.22878 l -1.06437,-0.30747 -0.38013,0.42915 c -1.58723,1.792 -1.90066,2.17858 -1.90066,2.34429 0,0.25834 1.04873,0.55221 2.02113,0.56634 0.44254,0.006 1.31154,-0.093 1.93106,-0.22098 z m -4.32493,-0.93726 c 0.75922,-0.63889 1.98993,-2.18514 1.9391,-2.43634 -0.14287,-0.70604 -3.69998,-1.23928 -4.83941,-0.72546 -0.33237,0.14983 -0.60428,0.37732 -0.60428,0.50549 0,0.75932 1.31897,2.46702 2.20477,2.85451 0.641,0.28043 0.75091,0.26365 1.29982,-0.1982 z m -28.33987,2.13291 c -0.19224,-0.19222 -0.0961,-0.31787 1.38954,-1.81618 0.82002,-0.82701 1.70953,-1.76263 1.9767,-2.07912 l 0.48575,-0.5755 v -2.74037 c 0,-3.42368 0.10819,-3.89559 1.13647,-4.95723 0.92821,-0.95835 1.519,-1.07564 2.0456,-0.40611 0.81071,1.03061 0.0259,4.40412 -1.59126,6.84057 -0.4222,0.63605 -0.52644,0.94159 -0.52644,1.5431 0,0.88395 0.49731,1.75498 1.04706,1.83396 0.75441,0.10837 1.07603,-0.10523 1.45748,-0.96774 0.38471,-0.8699 1.4904,-2.09614 2.05031,-2.27386 0.18066,-0.0573 0.4208,-0.0241 0.53975,0.0746 0.39259,0.32583 -0.0793,1.71759 -0.92196,2.71899 -0.46977,0.5583 -0.36238,0.80859 0.46394,1.0813 0.69874,0.23061 2.92354,-0.16735 4.02887,-0.72065 0.74416,-0.3725 0.88458,-0.52144 1.25563,-1.33172 0.67336,-1.47053 0.79811,-1.67257 1.03254,-1.67257 0.62399,0 -0.31417,2.14194 -1.51236,3.45297 -0.89628,0.98063 -1.79147,1.36832 -3.83469,1.66066 -1.18583,0.16968 -1.38218,0.16084 -2.04398,-0.0919 -0.40267,-0.1538 -0.87747,-0.43646 -1.05514,-0.62815 l -0.32303,-0.34853 -0.88982,0.27532 c -0.48937,0.1514 -1.01869,0.24162 -1.1762,0.2004 -0.37134,-0.0971 -0.9937,-1.01476 -1.19714,-1.76509 l -0.15975,-0.58944 -1.64513,1.69183 c -1.58792,1.63303 -1.81361,1.80961 -2.03274,1.59046 z m 8.78126,-3.48813 c 0.27352,-0.10494 0.33554,-0.72499 0.0635,-0.63429 -0.0974,0.0325 -0.27678,0.20921 -0.39867,0.3928 -0.22395,0.33724 -0.11637,0.41476 0.3352,0.24149 z m -3.35838,-3.36691 c 0.19706,-0.31361 0.39946,-0.74125 0.44981,-0.95033 0.0503,-0.20907 0.19786,-0.75427 0.32785,-1.21152 0.41428,-1.45733 0.21397,-2.61306 -0.46998,-2.71182 -0.24966,-0.0361 -0.37735,0.0956 -0.58992,0.60819 -0.2123,0.51192 -0.27447,1.10895 -0.28582,2.74479 -0.008,1.14977 0.036,2.09061 0.0977,2.09071 0.0617,1.1e-4 0.27337,-0.25641 0.47041,-0.57002 z m 78.33352,6.23417 c -0.4649,-0.46183 -0.78828,-1.15134 -1.21227,-2.5849 -0.16383,-0.55388 -0.36621,-0.95033 -0.48509,-0.95033 -0.11221,0 -0.20399,0.0545 -0.20399,0.12105 0,0.12422 -1.40335,1.59906 -1.9104,2.00768 -1.35705,1.09373 -2.27481,1.46037 -3.2385,1.29384 -0.68821,-0.1189 -0.96986,-0.32462 -1.28834,-0.94094 -0.30448,-0.58928 -0.78237,-0.77555 -1.14585,-0.44664 -0.3669,0.33205 -1.4767,0.70196 -2.10593,0.70196 -0.29019,0 -0.72927,-0.11911 -0.97568,-0.26466 -0.3013,-0.17801 -0.48326,-0.21167 -0.55562,-0.10279 -0.16055,0.24151 -1.48839,0.56886 -1.88807,0.46543 -0.19156,-0.0496 -0.53779,-0.25495 -0.76938,-0.45641 l -0.42111,-0.36629 -0.48712,0.45506 c -0.5596,0.52271 -1.01653,0.72581 -1.63317,0.72581 -0.94771,0 -1.30117,-0.46477 -1.46447,-1.92559 -0.14923,-1.33466 -0.25299,-1.42864 -0.76359,-0.69135 -0.23947,0.34581 -0.48657,0.63132 -0.54909,0.63447 -0.0625,0.003 -0.36883,0.24643 -0.68064,0.54057 -0.7739,0.72993 -1.60692,1.13778 -2.32391,1.13778 -0.87688,0 -1.11308,-0.43809 -1.18012,-2.18881 -0.0455,-1.18912 -0.009,-1.4541 0.25778,-1.8786 0.56692,-0.90136 0.8645,-0.53306 0.95014,1.1761 0.0541,1.08114 0.0778,1.14538 0.47247,1.28418 0.54806,0.19275 1.53533,-0.27897 2.52886,-1.20832 0.40087,-0.37494 0.84151,-0.68176 0.97917,-0.68176 0.27242,0 0.33518,-0.75893 0.15362,-1.85711 -0.0801,-0.48437 -0.17174,-0.58949 -0.64453,-0.73919 -1.25055,-0.39595 -1.50368,-0.82299 -0.92437,-1.55945 0.25649,-0.3261 0.39383,-0.37889 0.78306,-0.30102 0.63561,0.12713 0.88257,-0.23363 0.88257,-1.28929 0,-0.77917 0.31962,-1.75424 0.63992,-1.9522 0.34303,-0.21198 0.47935,0.29633 0.46239,1.72424 -0.0101,0.84378 0.0515,1.56506 0.14287,1.67521 0.10994,0.13245 0.63048,0.19341 1.65156,0.19341 1.15276,0 1.54527,0.0542 1.73,0.23894 0.31282,0.31282 0.30155,0.56232 -0.0446,0.98986 -0.25161,0.31068 -0.44436,0.35708 -1.71058,0.41153 -0.78489,0.0338 -1.49548,0.12751 -1.57911,0.20831 -0.20513,0.19817 -0.14542,3.33444 0.0763,4.00622 0.13785,0.41775 0.25625,0.53133 0.5537,0.53133 0.89521,0 1.6633,-0.71025 1.876,-1.73477 0.17214,-0.82909 0.65561,-1.76241 0.91294,-1.76241 0.1827,0 0.18479,0.0124 0.21879,1.33046 0.0436,1.68931 0.23979,1.96402 1.21113,1.69582 0.6645,-0.18349 0.69458,-0.23218 0.85812,-1.38909 0.19775,-1.39907 0.96332,-2.23282 1.36356,-1.48498 0.13311,0.24869 0.11747,0.54264 -0.0682,1.28292 -0.27323,1.0895 -0.20695,1.41718 0.31293,1.54768 0.44111,0.1107 0.94387,-0.007 1.90799,-0.44564 0.61523,-0.28006 0.74617,-0.41484 0.83166,-0.8559 0.15372,-0.79351 0.62902,-1.49 1.35985,-1.99287 0.96505,-0.66395 1.42711,-0.71453 2.01422,-0.22056 0.2661,0.22392 0.48382,0.53602 0.48382,0.69355 0,0.35873 -0.75216,1.96731 -0.91988,1.96731 -0.0682,0 -0.17092,0.15397 -0.22825,0.34214 -0.0573,0.18817 -0.2055,0.45754 -0.32925,0.59862 -0.12374,0.14107 -0.18002,0.32924 -0.12507,0.41817 0.42992,0.69564 2.84483,-0.8686 4.1375,-2.68007 l 0.73409,-1.02873 0.0315,-2.43631 c 0.0175,-1.33998 0.11192,-2.91528 0.21013,-3.50067 0.3456,-2.05954 1.43325,-3.63405 2.51034,-3.63405 0.82336,0 1.11795,0.47545 1.12112,1.8094 0.003,1.1008 -0.2186,2.20478 -0.44182,2.20478 -0.0702,0 -0.17357,0.3063 -0.22972,0.68069 -0.0561,0.37438 -0.16936,0.72228 -0.25159,0.77311 -0.16841,0.10409 -1.04934,1.91159 -1.04934,2.15302 0,0.0859 -0.18044,0.47906 -0.401,0.87368 -0.36118,0.64625 -0.39214,0.82299 -0.31184,1.78083 0.049,0.58486 0.15314,1.14303 0.23138,1.24037 0.0783,0.0973 0.18791,0.39066 0.24368,0.65185 0.0558,0.26117 0.30912,0.75727 0.5629,1.10239 0.41045,0.55811 0.53034,0.62749 1.08453,0.62749 0.86328,0 1.86605,-0.52414 2.81728,-1.47254 0.99404,-0.99108 1.39452,-1.86862 1.61619,-3.54156 0.13827,-1.04317 0.22436,-1.30376 0.44481,-1.3462 0.78457,-0.1511 0.82741,1.39666 0.0809,2.92537 -0.24133,0.49424 -0.43879,0.95972 -0.43879,1.03444 0,0.20156 -1.65176,2.42261 -2.09621,2.81863 -0.21116,0.18818 -0.44574,0.34214 -0.52134,0.34214 -0.0755,0 -0.0951,0.0684 -0.0434,0.15203 0.0517,0.0836 -0.0159,0.15205 -0.15041,0.15205 -0.13441,0 -0.52763,0.13687 -0.87382,0.30411 -0.40248,0.19447 -0.94062,0.30412 -1.49246,0.30412 -0.73805,0 -0.92398,-0.0606 -1.28391,-0.41815 z m -8.74372,-2.09971 c 0,-0.13038 -0.0696,-0.19407 -0.15457,-0.14155 -0.0849,0.0525 -0.11514,0.1592 -0.067,0.23704 0.13036,0.21093 0.22161,0.17161 0.22161,-0.0955 z m 2.44452,-1.57588 c 0.50178,-0.50176 0.53932,-0.65598 0.2237,-0.91795 -0.48141,-0.39952 -1.14771,0.22064 -1.14771,1.0682 0,0.42892 0.4118,0.36195 0.92401,-0.15025 z m 7.15491,-6.68764 c 0.4227,-0.8241 0.51208,-1.16678 0.51208,-1.96313 0,-0.77951 -0.0567,-1.00621 -0.29517,-1.18059 -0.39635,-0.2898 -0.43339,-0.27853 -0.66834,0.20351 -0.34256,0.70279 -0.63323,2.33418 -0.62968,3.53399 l 0.003,1.14046 0.28284,-0.36793 c 0.15554,-0.20235 0.51326,-0.81719 0.79488,-1.36631 z m -26.18695,3.42458 c -0.81105,-0.75205 -0.93504,-1.85353 -0.25659,-2.27936 0.21555,-0.13528 0.38296,-0.044 0.94726,0.51644 0.77018,0.76494 0.87596,1.26183 0.38153,1.79248 -0.395,0.42402 -0.58881,0.41867 -1.0722,-0.0296 z m -11.27614,-0.71419 c -0.34769,-0.20248 -0.33608,-0.87635 0.023,-1.3436 l 0.28246,-0.36743 0.7025,0.3302 c 0.55121,0.25908 0.70249,0.40955 0.70249,0.69869 0,0.20267 -0.10752,0.47601 -0.23894,0.60745 -0.26879,0.26879 -1.06868,0.30941 -1.47164,0.0747 z"
       id="path17788"
       sodipodi:nodetypes="ssscsssssssssssssssssssssssssssssssscsssssssssscsssssssssssssssssscssssssssscssssssssssscssssscssssssssssssscsssssssssssssssssscssscssssssssssssssssssssssssssscsssssssssssssssssssssssssssssssssssssssssssssscssssssssssssssssssssssssssssssssssssssscsssssssssscssss" />
    <path
       style="fill:#112f25;fill-opacity:1;stroke-width:0.152053"
       d="m 91.79075,160.83398 c -1.14644,-0.33869 -1.27928,-0.68032 -0.53996,-1.38866 l 0.44842,-0.42961 0.57795,0.28713 c 0.79143,0.39312 3.6911,0.41574 4.37928,0.0342 0.82338,-0.45657 1.42838,-1.11993 1.85796,-2.03721 0.38899,-0.83074 0.42278,-1.04894 0.4219,-2.72759 -0.003,-2.07471 -0.15608,-2.51447 -1.44354,-4.09464 -0.99057,-1.21576 -1.98575,-1.68394 -3.57399,-1.68146 -1.03381,0.003 -1.35366,0.0687 -2.12381,0.44551 -1.78046,0.87111 -2.6447,2.01401 -2.97733,3.93745 -0.14277,0.82542 -0.13888,1.2329 0.0188,1.9767 0.1719,0.81103 0.30712,1.04558 1.00629,1.74514 0.44423,0.44453 0.80769,0.86939 0.80769,0.94419 0,0.17296 -0.78729,0.90853 -0.97242,0.90853 -0.33692,0 -1.17166,-0.82608 -1.61147,-1.5948 -0.58233,-1.0178 -0.72891,-2.13101 -0.45551,-3.45935 0.2141,-1.0404 0.88006,-2.64843 1.33778,-3.2303 0.86591,-1.10083 2.93532,-2.42186 4.65064,-2.96878 1.30098,-0.41479 3.09261,0.0464 4.34951,1.11966 0.73321,0.62608 1.70328,1.99887 2.05708,2.91108 0.5673,1.46272 0.31224,4.0254 -0.58245,5.85213 -0.48567,0.99158 -2.47994,2.90042 -3.3949,3.24948 -0.9067,0.34589 -3.35465,0.46215 -4.23785,0.20124 z"
       id="path17790"
       sodipodi:nodetypes="sscssscsssssssssssssssss" />
  </g>
</svg>
