<?xml version="1.0" encoding="UTF-8" standalone="no"?>
<svg
   xmlns:dc="http://purl.org/dc/elements/1.1/"
   xmlns:cc="http://creativecommons.org/ns#"
   xmlns:rdf="http://www.w3.org/1999/02/22-rdf-syntax-ns#"
   xmlns:svg="http://www.w3.org/2000/svg"
   xmlns="http://www.w3.org/2000/svg"
   xmlns:sodipodi="http://sodipodi.sourceforge.net/DTD/sodipodi-0.dtd"
   xmlns:inkscape="http://www.inkscape.org/namespaces/inkscape"
   width="36.258904mm"
   height="15.527667mm"
   viewBox="0 0 36.258904 15.527667"
   version="1.1"
   id="svg8"
   inkscape:version="1.0.2-2 (e86c870879, 2021-01-15)"
   sodipodi:docname="The Center Desktop VF.svg">
  <defs
     id="defs2" />
  <sodipodi:namedview
     id="base"
     pagecolor="#ffffff"
     bordercolor="#666666"
     borderopacity="1.0"
     inkscape:pageopacity="0.0"
     inkscape:pageshadow="2"
     inkscape:zoom="1.4"
     inkscape:cx="0.44173482"
     inkscape:cy="64.564847"
     inkscape:document-units="mm"
     inkscape:current-layer="layer1"
     inkscape:document-rotation="0"
     showgrid="false"
     fit-margin-top="5"
     fit-margin-left="5"
     fit-margin-right="5"
     fit-margin-bottom="5"
     inkscape:showpageshadow="false"
     lock-margins="true"
     inkscape:window-width="958"
     inkscape:window-height="1018"
     inkscape:window-x="0"
     inkscape:window-y="0"
     inkscape:window-maximized="0" />
  <metadata
     id="metadata5">
    <rdf:RDF>
      <cc:Work
         rdf:about="">
        <dc:format>image/svg+xml</dc:format>
        <dc:type
           rdf:resource="http://purl.org/dc/dcmitype/StillImage" />
        <dc:title></dc:title>
      </cc:Work>
    </rdf:RDF>
  </metadata>
  <g
     inkscape:label="Calque 1"
     inkscape:groupmode="layer"
     id="layer1"
     transform="translate(-62.694775,-131.90161)">
    <path
       style="fill:#d4c36c;fill-opacity:1;stroke-width:0.0666761"
       d="m 76.92995,142.36262 c 0,-0.12957 0.5285,-0.67821 0.88619,-0.91996 0.19111,-0.12914 0.54211,-0.3416 0.7801,-0.47212 0.41746,-0.22894 0.43416,-0.24819 0.47704,-0.54704 0.0512,-0.35754 0.24702,-0.67057 0.73211,-1.16967 0.37766,-0.38847 0.53038,-0.45334 0.93879,-0.39856 0.4848,0.0651 0.52168,0.39087 0.10419,0.92138 -0.33411,0.42451 -0.44426,0.52049 -0.60089,0.52333 -0.18621,0.004 -0.13668,-0.15609 0.13324,-0.42559 0.24083,-0.24089 0.24509,-0.25336 0.12126,-0.34452 -0.07,-0.052 -0.24151,-0.0946 -0.37872,-0.0946 -0.48115,0 -0.70046,0.60088 -0.39796,1.09035 0.1973,0.319 0.45381,0.41227 0.8913,0.32386 0.57444,-0.11605 0.69196,-0.18174 0.73808,-0.41241 0.0495,-0.24647 0.5121,-0.81745 0.81391,-1.00391 0.11613,-0.0722 0.30422,-0.13121 0.41662,-0.13121 0.43045,0 0.31461,0.43586 -0.27983,1.05341 -0.18716,0.19432 -0.35031,0.38181 -0.36258,0.41669 -0.0667,0.18805 0.44563,0.12993 0.97239,-0.11058 0.2004,-0.0915 0.21678,-0.12291 0.21678,-0.4167 0,-0.26714 0.0322,-0.34881 0.20309,-0.51246 0.27022,-0.25889 0.32062,-0.16566 0.28369,0.52617 l -0.0292,0.54369 0.25432,-0.2399 c 0.43595,-0.41129 0.71504,-0.58567 1.01346,-0.6334 0.35801,-0.0572 0.40537,0.005 0.40669,0.53175 v 0.3919 l 0.28337,-0.0453 c 0.15544,-0.0249 0.31192,-0.0738 0.34676,-0.10852 0.0837,-0.083 0.23662,-0.0813 0.23662,0.004 0,0.12855 -0.23783,0.34757 -0.5666,0.522 -0.69895,0.3706 -0.81958,0.32493 -0.84776,-0.32119 -0.0172,-0.39139 -0.0344,-0.43547 -0.16909,-0.45463 -0.19286,-0.0275 -0.69212,0.329 -0.7996,0.57072 -0.10591,0.23698 -0.39764,0.55065 -0.51292,0.55065 -0.10422,0 -0.1691,-0.20051 -0.17306,-0.53343 0,-0.19698 -0.0172,-0.21692 -0.0837,-0.12781 -0.13325,0.17241 -0.82878,0.51834 -1.15433,0.57364 -0.16398,0.0279 -0.25386,-0.007 -0.43915,-0.16949 -0.13497,-0.11781 -0.25882,-0.18006 -0.29382,-0.14685 -0.0923,0.0872 -1.0404,0.33726 -1.27923,0.33726 -0.15373,0 -0.28523,-0.072 -0.49464,-0.27131 l -0.28528,-0.27135 -0.28337,0.15466 c -0.42293,0.23084 -0.99922,0.64823 -1.38718,1.00478 -0.35491,0.32626 -0.43159,0.36956 -0.43159,0.24359 z m 5.05399,-2.02084 c 0.27141,-0.14113 0.51821,-0.42825 0.43762,-0.50881 -0.0922,-0.0916 -0.53139,0.0957 -0.62193,0.26461 -0.0735,0.13791 -0.0922,0.3379 -0.0322,0.3379 0.0206,0 0.11615,-0.0421 0.21656,-0.0937 z m 4.40767,1.08833 c -0.14862,-0.12961 -0.15889,-0.17713 -0.14007,-0.71674 0.0172,-0.31789 0,-0.84049 -0.0241,-1.16137 l -0.0444,-0.5834 h -0.58899 c -0.32438,0 -0.60794,-0.0301 -0.63061,-0.0673 -0.13666,-0.22027 0.29189,-0.52711 0.75258,-0.53944 0.46223,-0.0125 0.57224,-0.0752 0.63558,-0.36265 0.13669,-0.61935 0.19167,-0.77088 0.32748,-0.89728 0.0785,-0.0735 0.16393,-0.13365 0.18976,-0.13365 0.0991,0 0.10927,0.27448 0.0206,0.64504 -0.16057,0.67997 -0.17608,0.65729 0.4699,0.65617 0.71501,0 0.79682,0.0646 0.51023,0.41107 -0.20619,0.24893 -0.22088,0.25468 -0.65882,0.25468 h -0.44786 l 0.0222,0.90012 c 0.0172,0.73002 0.0426,0.92163 0.13324,1.01379 0.1042,0.10677 0.13322,0.0933 0.46122,-0.22143 0.19246,-0.18431 0.34997,-0.34916 0.34997,-0.36639 0,-0.17159 0.75517,-0.94505 0.9774,-1.00112 0.26339,-0.0665 0.42291,0.0819 0.42291,0.39354 0,0.25658 -0.0343,0.3129 -0.40482,0.66318 -0.22259,0.21052 -0.38721,0.41102 -0.36586,0.44552 0.0854,0.13813 0.4318,0.1484 0.71739,0.0215 0.27554,-0.1227 0.71996,-0.51211 0.71996,-0.63095 0,-0.0314 -0.0408,-0.13834 -0.0905,-0.23737 -0.25738,-0.51207 -0.13496,-1.00761 0.33618,-1.36355 0.30406,-0.22968 0.46837,-0.23256 0.56986,-0.01 0.0649,0.1416 0.0564,0.23015 -0.0391,0.48341 -0.21384,0.56123 -0.21879,0.53201 0.11615,0.68015 0.35203,0.15574 0.38071,0.26254 0.17166,0.63525 -0.12472,0.22353 -0.12811,0.25507 -0.0322,0.40101 0.14176,0.21632 0.34025,0.25245 1.0867,0.19767 0.88566,-0.0651 1.20269,-0.22834 1.45989,-0.7521 0.15372,-0.31174 0.18841,-0.47105 0.18536,-0.83529 v -0.45008 h 0.19662 0.19656 l -0.0408,0.39823 c -0.10248,0.97431 -0.86038,1.82123 -1.85568,2.07179 -1.00389,0.25267 -1.52895,0.25215 -1.73461,0 -0.14859,-0.18401 -0.15373,-0.38233 -0.0172,-0.66029 0.12814,-0.25516 0.0888,-0.38916 -0.1179,-0.42087 -0.11612,-0.018 -0.25789,0.0817 -0.5874,0.41524 -0.43794,0.44329 -1.04246,0.79808 -1.35967,0.79808 -0.0871,0 -0.24241,-0.0657 -0.3483,-0.14578 -0.10591,-0.0802 -0.20462,-0.15483 -0.21947,-0.16596 -0.0172,-0.0112 -0.0444,-0.13263 -0.0683,-0.26998 l -0.0391,-0.24983 -0.13324,0.15385 c -0.35547,0.41292 -0.70631,0.74437 -0.78812,0.74437 -0.0512,0 -0.16224,-0.0625 -0.25074,-0.13885 z m 2.11444,-1.17172 c 0.27911,-0.21305 0.28951,-0.44501 0.0206,-0.47629 -0.17695,-0.0206 -0.3057,0.15441 -0.37029,0.50336 -0.0378,0.19732 0.0649,0.18942 0.34912,-0.0271 z m -15.01558,1.01577 c -0.45828,-0.19952 -0.62672,-0.72169 -0.38449,-1.19205 0.29977,-0.58223 0.80796,-1.02002 1.24949,-1.07656 0.35563,-0.0455 0.53227,0.13821 0.42672,0.44385 -0.10252,0.29735 -0.47405,0.7314 -0.75517,0.8828 -0.12814,0.0683 -0.2308,0.14878 -0.2308,0.17873 0,0.0301 0.0922,0.10276 0.20773,0.16188 0.23384,0.12094 0.66172,0.0976 1.52585,-0.083 0.4513,-0.0943 0.53073,-0.13589 0.81309,-0.42529 0.29602,-0.30353 0.52046,-0.79262 0.52046,-1.13422 0,-0.10736 0.14349,-0.2094 0.24887,-0.17658 0.0275,0.008 0.0391,0.0875 0.0275,0.17628 -0.0391,0.30899 -0.34504,0.84147 -0.72477,1.26702 -0.46117,0.51706 -1.06929,0.82858 -1.90474,0.9756 -0.66035,0.11621 -0.7548,0.11639 -1.01872,0 z m 0.30591,-1.1917 c 0.50512,-0.18255 0.68035,-0.3764 0.42773,-0.47332 -0.35052,-0.13448 -0.69469,0.0488 -0.69469,0.36995 0,0.10431 0.0172,0.18921 0.0172,0.18869 0.0172,-5.3e-4 0.12303,-0.0391 0.25011,-0.0853 z m -3.73872,0.76972 c 0,-0.27092 -0.10933,-0.71275 -0.12298,-0.51427 0,0.0657 -0.54673,0.50606 -0.83576,0.6786 -0.0734,0.0446 -0.19849,0.0821 -0.27551,0.0834 -0.11962,0.004 -0.15547,-0.0678 -0.2494,-0.49729 -0.0598,-0.27484 -0.12814,-0.70988 -0.15372,-0.96684 -0.0241,-0.25687 -0.0632,-0.46709 -0.0906,-0.46709 -0.0717,0 -0.20122,0.32115 -0.20122,0.4991 0,0.18658 -0.36176,0.61668 -0.42838,0.50911 -0.0241,-0.0391 0.0361,-0.26981 0.13324,-0.51259 0.12467,-0.31062 0.15544,-0.46237 0.10589,-0.51207 -0.0495,-0.0497 -0.0172,-0.15244 0.12814,-0.34684 0.13493,-0.18711 0.21214,-0.3917 0.24066,-0.63401 0.0444,-0.37695 0.32724,-0.80237 0.473,-0.71228 0.0425,0.0262 0.07,0.21907 0.0632,0.46069 -0.0172,0.56252 0.0172,0.59822 0.50456,0.57115 0.23109,-0.0129 0.41235,0.007 0.42397,0.0444 0.0172,0.0365 -0.0615,0.16614 -0.1623,0.28772 -0.13832,0.16725 -0.25294,0.23037 -0.46918,0.25937 l -0.28578,0.0382 0.0444,0.27402 c 0.10589,0.66339 0.24837,1.10749 0.35513,1.10749 0.14515,0 0.73718,-0.40879 0.7724,-0.53342 0.0172,-0.055 0.0478,-0.46005 0.07,-0.90012 0.0615,-1.13899 0.1025,-1.25847 0.6023,-1.75026 0.35647,-0.34993 0.46151,-0.41674 0.65627,-0.41674 0.17169,0 0.26819,0.0461 0.37114,0.17705 0.25011,0.31788 0.0854,0.76753 -0.73803,2.01981 -0.36423,0.55345 -0.45813,0.74871 -0.45813,0.95013 0,0.13945 0.0206,0.25352 0.0444,0.25352 0.0241,0 0.15539,-0.11252 0.28988,-0.25005 0.13489,-0.13752 0.36174,-0.33175 0.503,-0.4316 0.22701,-0.16038 0.26937,-0.17031 0.36386,-0.0848 0.058,0.0533 0.14515,0.2451 0.19166,0.42636 0.0905,0.35024 0.2068,0.44772 0.40838,0.3398 0.16227,-0.0871 0.39968,-0.0851 0.39968,0.004 0,0.19784 -0.85198,0.72177 -1.01237,0.62261 -0.0378,-0.0228 -0.15375,-0.23427 -0.25913,-0.47005 -0.16569,-0.36742 -0.20942,-0.41945 -0.31055,-0.36433 -0.18788,0.10234 -0.39663,0.31849 -0.68632,0.71069 -0.14862,0.20055 -0.29856,0.36467 -0.33409,0.36467 -0.0357,0 -0.0667,-0.1425 -0.0684,-0.31672 z m 1.01071,-2.17633 c 0.42309,-0.71563 0.47688,-0.95811 0.26083,-1.17413 -0.15378,-0.15423 -0.17765,-0.1575 -0.45014,-0.0625 -0.23447,0.0818 -0.27974,0.20249 -0.28591,0.7626 0,0.22005 -0.0257,0.60121 -0.0546,0.84705 -0.0632,0.57003 0,0.5278 0.52917,-0.373 z"
       id="path917-9-8-1-8-0-8-2-9"
       sodipodi:nodetypes="ssscssssssssssscsscccsssssssccsscsscsscccsssccscscsccsssscsscsssssssssssssssssssccccsscssssssscsssscsccccsssssssssccssccssscssscscsscssssssscscsscsssssssssssssssscsssssscsssccsccsscsc"
       inkscape:export-xdpi="96"
       inkscape:export-ydpi="96" />
  </g>
</svg>
