<?xml version="1.0" encoding="UTF-8" standalone="no"?>
<svg
   xmlns:dc="http://purl.org/dc/elements/1.1/"
   xmlns:cc="http://creativecommons.org/ns#"
   xmlns:rdf="http://www.w3.org/1999/02/22-rdf-syntax-ns#"
   xmlns:svg="http://www.w3.org/2000/svg"
   xmlns="http://www.w3.org/2000/svg"
   xmlns:sodipodi="http://sodipodi.sourceforge.net/DTD/sodipodi-0.dtd"
   xmlns:inkscape="http://www.inkscape.org/namespaces/inkscape"
   width="41.443409mm"
   height="18.595776mm"
   viewBox="0 0 41.443409 18.595775"
   version="1.1"
   id="svg8"
   inkscape:version="1.0.2-2 (e86c870879, 2021-01-15)"
   sodipodi:docname="The Light Desktop VF.svg">
  <defs
     id="defs2" />
  <sodipodi:namedview
     id="base"
     pagecolor="#ffffff"
     bordercolor="#666666"
     borderopacity="1.0"
     inkscape:pageopacity="0.0"
     inkscape:pageshadow="2"
     inkscape:zoom="0.49497475"
     inkscape:cx="-90.277943"
     inkscape:cy="95.828183"
     inkscape:document-units="mm"
     inkscape:current-layer="layer1"
     inkscape:document-rotation="0"
     showgrid="false"
     fit-margin-top="5"
     fit-margin-left="5"
     fit-margin-right="5"
     fit-margin-bottom="5"
     inkscape:showpageshadow="false"
     lock-margins="true"
     inkscape:window-width="958"
     inkscape:window-height="1018"
     inkscape:window-x="0"
     inkscape:window-y="0"
     inkscape:window-maximized="0" />
  <metadata
     id="metadata5">
    <rdf:RDF>
      <cc:Work
         rdf:about="">
        <dc:format>image/svg+xml</dc:format>
        <dc:type
           rdf:resource="http://purl.org/dc/dcmitype/StillImage" />
        <dc:title></dc:title>
      </cc:Work>
    </rdf:RDF>
  </metadata>
  <g
     inkscape:label="Calque 1"
     inkscape:groupmode="layer"
     id="layer1"
     transform="translate(-59.279582,-130.783)">
    <path
       style="fill:#d4c36c;fill-opacity:1;stroke-width:0.0768959"
       d="m 87.43941,144.26709 c -0.33494,-0.14693 -0.49252,-0.42489 -0.49252,-0.86848 0,-0.66269 0.1864,-1.02389 1.06854,-2.07052 0.45959,-0.5452 0.52121,-0.70297 0.42096,-1.07717 -0.0581,-0.21743 -0.0986,-0.21634 -0.34174,0.009 -0.10808,0.10015 -0.32224,0.2276 -0.47604,0.2832 -0.62825,0.22719 -0.88572,-0.27911 -0.48736,-0.95836 0.21984,-0.37495 0.8414,-1.03877 1.15493,-1.2335 0.22955,-0.14257 0.75721,-0.20118 0.86254,-0.0958 0.0321,0.0323 0.01,0.22196 -0.0513,0.42149 -0.11967,0.39511 -0.14743,1.12076 -0.052,1.35699 0.054,0.13288 0.10264,0.10624 0.46911,-0.2557 l 0.40912,-0.40403 0.0465,-0.60679 c 0.0547,-0.7093 0.27334,-1.20642 0.76803,-1.74603 0.68257,-0.74442 1.21422,-0.97984 1.35813,-0.6013 0.14872,0.3911 -0.17259,1.01011 -1.08355,2.08736 -0.41111,0.48613 -0.60621,0.77994 -0.60621,0.91291 0,0.26826 0.10403,0.24714 0.52454,-0.10656 0.39896,-0.33561 0.72093,-0.48519 0.89807,-0.41721 0.12814,0.0492 0.17907,0.21441 0.21019,0.68143 0.0275,0.4061 0.2377,0.44208 0.70522,0.12043 0.18846,-0.12968 0.36232,-0.23578 0.3865,-0.23578 0.11702,0 0.0108,0.16329 -0.32152,0.49417 -0.41288,0.41114 -0.87511,0.68009 -1.05199,0.61222 -0.11334,-0.0434 -0.23592,-0.38276 -0.28852,-0.79882 -0.0206,-0.1632 -0.0623,-0.19055 -0.27282,-0.18105 -0.28672,0.0128 -0.63182,0.27693 -0.96737,0.7402 -0.22997,0.3175 -0.23034,0.31765 -0.30122,0.12926 -0.039,-0.10372 -0.0533,-0.30104 -0.0314,-0.43848 0.022,-0.13746 0.007,-0.24993 -0.0342,-0.24993 -0.0404,0 -0.22786,0.14206 -0.41624,0.31566 l -0.34245,0.31566 v 0.9081 c 0,1.26894 -0.22505,2.10409 -0.74938,2.74753 -0.29104,0.35719 -0.48165,0.40081 -0.91691,0.20982 z m 0.84495,-0.52111 c 0.0751,-0.0549 0.18497,-0.30579 0.24418,-0.55751 0.10911,-0.46379 0.15272,-2.04262 0.0588,-2.13631 -0.054,-0.0543 -0.32044,0.217 -0.80153,0.81716 -0.33055,0.41243 -0.45363,0.7648 -0.45421,1.30095 0,0.38282 0.0695,0.46188 0.53335,0.60262 0.27503,0.0835 0.26757,0.0839 0.41917,-0.0269 z m -0.1523,-3.86228 c 0.22069,-0.10471 0.25543,-0.16668 0.32322,-0.57672 0.0748,-0.45257 0.0734,-0.45942 -0.10486,-0.45942 -0.58653,0 -1.09482,0.66891 -0.78856,1.03787 0.12139,0.14629 0.25918,0.14587 0.5702,-0.002 z m 2.6393,-1.29842 c 0.79259,-0.91161 1.09493,-1.43074 0.99094,-1.70172 -0.069,-0.17963 -0.38433,-0.1302 -0.71985,0.11281 -0.3566,0.25834 -0.53049,0.65002 -0.59137,1.33216 -0.0445,0.49912 0.0465,0.57194 0.32028,0.25675 z m -18.059985,2.61668 c -0.11102,-0.058 -0.279268,-0.18267 -0.373724,-0.27713 -0.138907,-0.1389 -0.156528,-0.2032 -0.09231,-0.33628 0.04379,-0.0905 0.098,-0.25176 0.120835,-0.35832 0.02249,-0.10658 0.104378,-0.26229 0.181292,-0.34603 0.07694,-0.0837 0.239713,-0.28407 0.361633,-0.44516 0.240506,-0.3177 0.553219,-0.51451 0.817479,-0.51451 0.14717,0 0.16132,0.0296 0.11804,0.24608 -0.0275,0.13536 -0.0749,0.26512 -0.10621,0.28837 -0.0314,0.0233 -0.20637,0.2432 -0.389122,0.48878 -0.370708,0.49843 -0.353166,0.62653 0.09784,0.71115 0.34518,0.0647 0.80058,-0.0727 1.67608,-0.50593 0.62887,-0.31119 0.72734,-0.34199 0.61511,-0.19235 -0.17166,0.2289 -1.22285,0.87841 -1.84962,1.14279 -0.540315,0.22794 -0.875568,0.256 -1.177325,0.0985 z m 0.585099,-1.32172 c 0.157906,-0.14631 0.190906,-0.22022 0.126996,-0.28413 -0.151655,-0.15171 -0.506223,0.0286 -0.534401,0.27181 -0.03138,0.27077 0.12356,0.27544 0.407405,0.0123 z m -6.205273,1.17815 c -0.06223,-0.10888 -0.09916,-0.45812 -0.0997,-0.94198 0,-0.94278 -0.07702,-1.03001 -0.414866,-0.47654 -0.207989,0.3407 -0.305912,0.33131 -0.128191,-0.0123 0.239554,-0.4632 0.202697,-0.49007 -0.590285,-0.43009 -0.39116,0.0296 -0.87376,0.0787 -1.072409,0.10898 -0.484929,0.0741 -0.601451,-0.002 -0.434393,-0.28313 0.184838,-0.31106 0.386424,-0.38224 1.372288,-0.48444 0.486357,-0.0504 0.940435,-0.12155 1.009067,-0.15806 0.06861,-0.0365 0.166423,-0.23191 0.217197,-0.43419 0.09811,-0.38994 0.268261,-0.63692 0.438838,-0.63692 0.07596,0 0.103478,0.13198 0.103478,0.49713 0,0.43759 0.02064,0.50788 0.173011,0.58713 0.09512,0.0495 0.181161,0.0964 0.191082,0.10407 0.02746,0.0215 -0.261805,0.57234 -0.367665,0.69994 -0.129513,0.15604 -0.05741,1.2539 0.08864,1.35239 0.309959,0.20882 1.234255,-0.20128 1.603957,-0.71164 0.154834,-0.21371 0.224816,-0.42316 0.261673,-0.78287 0.08747,-0.85337 0.543772,-1.80278 1.143503,-2.37897 0.326019,-0.31324 0.476805,-0.35936 0.550095,-0.16829 0.07424,0.19337 0.05543,0.38492 -0.07625,0.77922 -0.172059,0.51536 -0.246089,0.55712 -0.203623,0.11488 0.02995,-0.31271 0.01296,-0.38654 -0.101839,-0.43045 -0.170629,-0.0654 -0.327236,0.09 -0.611081,0.6066 -0.165656,0.30144 -0.214895,0.50073 -0.227807,0.92276 -0.009,0.29605 -0.04307,0.60027 -0.07617,0.67609 -0.06771,0.15614 -0.01508,0.87439 0.0698,0.95955 0.03056,0.0308 0.182748,-0.088 0.337952,-0.26382 0.155073,-0.17583 0.358352,-0.35789 0.45175,-0.40459 0.207857,-0.10389 0.285221,0.0125 0.3624,0.54518 0.02871,0.19744 0.104589,0.40253 0.168724,0.45576 0.115597,0.0959 0.169519,0.0859 0.788935,-0.14544 0.07705,-0.0288 0.06967,0.0156 -0.02746,0.16373 -0.140361,0.21409 -0.860187,0.66646 -1.060529,0.66646 -0.130969,0 -0.286544,-0.37401 -0.286544,-0.68886 0,-0.11249 -0.04789,-0.27012 -0.106627,-0.35033 -0.103108,-0.14105 -0.115702,-0.1389 -0.384439,0.0661 -0.15285,0.11656 -0.277839,0.24002 -0.277839,0.27434 0,0.0343 -0.101521,0.19004 -0.225425,0.34604 l -0.225399,0.2836 -0.04307,-0.33072 c -0.02381,-0.18189 -0.05199,-0.43182 -0.06292,-0.55542 l -0.01984,-0.22472 -0.499851,0.44132 c -0.852619,0.75277 -1.505055,0.99819 -1.708203,0.64251 z m 11.723959,-0.10391 c -0.1347,-0.0609 -0.11584,-0.19317 0.0575,-0.40071 0.11912,-0.14297 0.24297,-0.18385 0.6318,-0.20869 0.72591,-0.0464 1.09247,-0.16235 2.02153,-0.63983 l 0.8459,-0.43469 0.12088,-0.61516 c 0.22797,-1.15944 0.53526,-1.82667 1.14226,-2.4799 0.40074,-0.43135 0.5678,-0.49263 0.69496,-0.25497 0.3325,0.62128 -0.25993,2.06554 -1.24011,3.02313 -0.22616,0.22098 -0.29506,0.34848 -0.29506,0.54612 0,0.32147 0.29382,0.77216 0.52517,0.80545 0.23442,0.0338 0.8418,-0.37653 1.12805,-0.76204 0.12695,-0.17086 0.32486,-0.42093 0.43995,-0.55577 l 0.20916,-0.24513 v 0.58294 c 0,0.54013 0.0164,0.59043 0.19219,0.68461 0.1637,0.0876 0.25405,0.0797 0.65357,-0.0567 0.49514,-0.16907 0.65255,-0.11629 0.41987,0.14078 -0.162,0.17901 -1.15139,0.68606 -1.33863,0.68606 -0.24048,0 -0.38614,-0.25611 -0.38614,-0.67889 0,-0.21871 -0.0269,-0.39764 -0.0602,-0.39764 -0.0328,0 -0.28379,0.22751 -0.55745,0.50557 -0.27366,0.27806 -0.59105,0.5549 -0.70527,0.61517 -0.50554,0.26682 -0.88789,0.003 -0.97613,-0.67247 -0.0293,-0.22541 -0.0887,-0.40335 -0.13179,-0.3954 -0.0431,0.008 -0.38163,0.18962 -0.75234,0.4037 -0.37063,0.21411 -0.69392,0.38927 -0.71821,0.38927 -0.0243,0 -0.23672,0.0911 -0.47212,0.20245 -0.41286,0.19528 -1.22648,0.31452 -1.45161,0.21269 z m 4.5026,-2.44843 c 0.70609,-0.63795 1.0641,-2.11909 0.51223,-2.11909 -0.24048,0 -0.44416,0.31253 -0.65146,0.99963 -0.18499,0.61345 -0.30689,1.38413 -0.21878,1.38413 0.0355,0 0.19688,-0.11909 0.35801,-0.26467 z m 10.52414,2.05892 c -0.0281,-0.0282 -0.0513,-0.51134 -0.0513,-1.07365 v -1.0224 l -0.70503,-0.0221 c -0.47924,-0.015 -0.71525,-0.0529 -0.73695,-0.11822 -0.0175,-0.0529 0.0233,-0.0961 0.0899,-0.0961 0.067,0 0.12179,-0.05 0.12179,-0.11097 0,-0.20435 0.32345,-0.3504 0.77594,-0.3504 h 0.43426 l 0.0479,-0.28836 c 0.0262,-0.15859 0.0479,-0.41041 0.0486,-0.5596 0,-0.30071 0.17989,-0.61306 0.35118,-0.61306 0.1224,0 0.13536,0.10006 0.11266,0.86509 -0.0169,0.58245 -0.0164,0.58308 0.56645,0.43629 0.18071,-0.0454 0.44037,-0.0714 0.57708,-0.0576 l 0.24861,0.0251 -0.24514,0.31798 c -0.22474,0.29143 -0.28297,0.32223 -0.69694,0.36907 l -0.45172,0.0512 v 0.80359 0.80359 h 0.2323 c 0.12782,0 0.37076,-0.0916 0.53986,-0.20349 0.38714,-0.25615 0.46241,-0.19704 0.14869,0.11668 -0.52673,0.52671 -1.24005,0.89538 -1.40787,0.72762 z m -8.73278,-2.5386 c -0.0803,-0.17609 -0.0725,-0.23489 0.0533,-0.40371 0.31909,-0.42789 0.59002,-0.17054 0.35015,0.33258 -0.15745,0.33009 -0.27614,0.351 -0.4037,0.0711 z"
       id="path917-9-8-1-8-0-4-3"
       sodipodi:nodetypes="ccssssssssccsssscssccsccsssscssscsssccsssssscssssssssssscssscsccsscscscsssssscscsssssssssscssssssssssccscscccsssssccccsccscsscscsscsssccssssscsccsssscsccccccsscscsssccsssscssccssssscssssss"
       inkscape:export-xdpi="96"
       inkscape:export-ydpi="96" />
  </g>
</svg>
