<?xml version="1.0" encoding="UTF-8" standalone="no"?>
<svg
   xmlns:dc="http://purl.org/dc/elements/1.1/"
   xmlns:cc="http://creativecommons.org/ns#"
   xmlns:rdf="http://www.w3.org/1999/02/22-rdf-syntax-ns#"
   xmlns:svg="http://www.w3.org/2000/svg"
   xmlns="http://www.w3.org/2000/svg"
   xmlns:sodipodi="http://sodipodi.sourceforge.net/DTD/sodipodi-0.dtd"
   xmlns:inkscape="http://www.inkscape.org/namespaces/inkscape"
   width="12.396577mm"
   height="9.914319mm"
   viewBox="0 0 12.396577 9.914319"
   version="1.1"
   id="svg8"
   inkscape:version="1.0.2-2 (e86c870879, 2021-01-15)"
   sodipodi:docname="Feuille 004 Hover.svg">
  <defs
     id="defs2" />
  <sodipodi:namedview
     id="base"
     pagecolor="#ffffff"
     bordercolor="#666666"
     borderopacity="1.0"
     inkscape:pageopacity="0.0"
     inkscape:pageshadow="2"
     inkscape:zoom="3.959798"
     inkscape:cx="38.257126"
     inkscape:cy="30.135961"
     inkscape:document-units="mm"
     inkscape:current-layer="g11248"
     inkscape:document-rotation="0"
     showgrid="false"
     fit-margin-top="0"
     fit-margin-left="0"
     fit-margin-right="0"
     fit-margin-bottom="0"
     inkscape:window-width="958"
     inkscape:window-height="1018"
     inkscape:window-x="946"
     inkscape:window-y="0"
     inkscape:window-maximized="0" />
  <metadata
     id="metadata5">
    <rdf:RDF>
      <cc:Work
         rdf:about="">
        <dc:format>image/svg+xml</dc:format>
        <dc:type
           rdf:resource="http://purl.org/dc/dcmitype/StillImage" />
        <dc:title />
      </cc:Work>
    </rdf:RDF>
  </metadata>
  <g
     inkscape:label="Calque 1"
     inkscape:groupmode="layer"
     id="layer1"
     transform="translate(-107.39166,-155.26399)">
    <g
       id="g11248"
       transform="matrix(0.26458333,0,0,0.26458333,2773.9015,1451.0616)">
      <path
         inkscape:connector-curvature="0"
         id="path44-0-5-6-5-2-4-0-4-5-9-5"
         d="m -10075.424,-4894.9371 c 0,0 15.836,-2.1321 23.501,1.8844 7.666,4.0163 14.963,9.4725 18.43,21.3701 0,0 -8.358,11.2228 -19.132,9.4537 -10.774,-1.7687 -16.451,-10.15 -18.767,-19.0572 -2.317,-8.9065 -4.032,-13.651 -4.032,-13.651 z"
         style="fill:#fbf7ee;fill-opacity:1;stroke:#112f25;stroke-width:4;stroke-linecap:butt;stroke-linejoin:miter;stroke-miterlimit:4;stroke-dasharray:none;stroke-opacity:1;paint-order:markers stroke fill" />
      <g
         aria-label="004"
         transform="rotate(38.700394)"
         id="text8537-8-1-9-8-2-7-6-8-0-0-0-7-3-6"
         style="font-style:normal;font-variant:normal;font-weight:normal;font-stretch:normal;font-size:15.3525px;line-height:2.86525px;font-family:Respira;-inkscape-font-specification:Respira;font-variant-ligatures:normal;font-variant-caps:normal;font-variant-numeric:normal;font-feature-settings:normal;text-align:start;letter-spacing:0px;word-spacing:0px;writing-mode:lr-tb;text-anchor:start;fill:#112f25;fill-opacity:1;stroke:none;stroke-width:0.209999">
        <path
           d="m -10908.031,2472.9693 q 0.998,0 1.766,0.2815 0.767,0.2814 1.279,0.806 0.525,0.5245 0.78,1.2666 0.269,0.742 0.269,1.6759 0,0.7549 -0.205,1.3818 -0.204,0.6141 -0.55,1.113 -0.345,0.4862 -0.793,0.87 -0.448,0.371 -0.934,0.6525 0.205,-0.4094 0.294,-1.0107 0.09,-0.6141 0.09,-1.2666 0,-1.1003 -0.281,-1.8679 -0.269,-0.7676 -0.768,-1.241 -0.499,-0.4861 -1.203,-0.7036 -0.703,-0.2175 -1.573,-0.2175 -0.717,0 -1.177,0.1791 -0.461,0.1791 -0.704,0.307 0.281,-0.4605 0.627,-0.8699 0.345,-0.4094 0.793,-0.7037 0.448,-0.3071 1.011,-0.4734 0.563,-0.1791 1.279,-0.1791 z m -2.098,10.0815 q -0.947,0 -1.714,-0.2559 -0.768,-0.2687 -1.318,-0.7804 -0.537,-0.5118 -0.832,-1.241 -0.294,-0.742 -0.294,-1.6888 0,-0.6908 0.218,-1.2538 0.217,-0.5757 0.562,-1.049 0.359,-0.4862 0.806,-0.87 0.461,-0.3966 0.947,-0.7037 -0.205,0.4094 -0.294,0.9212 -0.09,0.4989 -0.09,1.1514 0,1.1003 0.269,1.8807 0.282,0.7676 0.793,1.2538 0.512,0.4861 1.254,0.7036 0.742,0.2175 1.689,0.2175 0.64,0 1.036,-0.077 0.397,-0.09 0.665,-0.2303 -0.23,0.4094 -0.55,0.7804 -0.307,0.3582 -0.755,0.6397 -0.435,0.2814 -1.023,0.435 -0.589,0.1663 -1.369,0.1663 z"
           style="font-style:normal;font-variant:normal;font-weight:normal;font-stretch:normal;font-size:15.3525px;font-family:Respira;-inkscape-font-specification:Respira;fill:#112f25;fill-opacity:1;stroke-width:0.209999"
           id="path834" />
        <path
           d="m -10896.593,2472.9693 q 0.998,0 1.765,0.2815 0.768,0.2814 1.28,0.806 0.524,0.5245 0.78,1.2666 0.269,0.742 0.269,1.6759 0,0.7549 -0.205,1.3818 -0.205,0.6141 -0.55,1.113 -0.346,0.4862 -0.793,0.87 -0.448,0.371 -0.934,0.6525 0.204,-0.4094 0.294,-1.0107 0.09,-0.6141 0.09,-1.2666 0,-1.1003 -0.282,-1.8679 -0.269,-0.7676 -0.768,-1.241 -0.498,-0.4861 -1.202,-0.7036 -0.704,-0.2175 -1.574,-0.2175 -0.716,0 -1.177,0.1791 -0.46,0.1791 -0.703,0.307 0.281,-0.4605 0.626,-0.8699 0.346,-0.4094 0.794,-0.7037 0.447,-0.3071 1.01,-0.4734 0.563,-0.1791 1.28,-0.1791 z m -2.098,10.0815 q -0.947,0 -1.715,-0.2559 -0.767,-0.2687 -1.318,-0.7804 -0.537,-0.5118 -0.831,-1.241 -0.294,-0.742 -0.294,-1.6888 0,-0.6908 0.217,-1.2538 0.218,-0.5757 0.563,-1.049 0.358,-0.4862 0.806,-0.87 0.461,-0.3966 0.947,-0.7037 -0.205,0.4094 -0.294,0.9212 -0.09,0.4989 -0.09,1.1514 0,1.1003 0.269,1.8807 0.281,0.7676 0.793,1.2538 0.512,0.4861 1.254,0.7036 0.742,0.2175 1.688,0.2175 0.64,0 1.037,-0.077 0.396,-0.09 0.665,-0.2303 -0.23,0.4094 -0.55,0.7804 -0.307,0.3582 -0.755,0.6397 -0.435,0.2814 -1.023,0.435 -0.589,0.1663 -1.369,0.1663 z"
           style="font-style:normal;font-variant:normal;font-weight:normal;font-stretch:normal;font-size:15.3525px;font-family:Respira;-inkscape-font-specification:Respira;fill:#112f25;fill-opacity:1;stroke-width:0.209999"
           id="path836" />
        <path
           d="m -10885.296,2480.6839 q 0,-0.806 0,-1.6248 0.01,-0.8188 0.01,-1.5608 0,-0.7548 0,-1.3945 0.01,-0.6525 0.01,-1.1259 l 2.124,-2.2261 0.04,7.9321 h 0.589 q 0.704,0 1.126,-0.064 0.435,-0.064 0.729,-0.2175 0.307,-0.1663 0.537,-0.435 0.243,-0.2815 0.55,-0.6909 l 0.08,0.051 q -0.268,0.3071 -0.576,0.7293 -0.294,0.4221 -0.614,0.8955 -0.307,0.4606 -0.614,0.9595 -0.294,0.4862 -0.55,0.9468 h -1.241 q 0.01,0.5373 0.01,0.9723 0,0.435 0.01,0.7548 0.01,0.7165 0.05,1.1259 0.05,0.4222 0.128,0.6397 0.09,0.2175 0.192,0.2942 0.115,0.09 0.256,0.128 h -3.506 q 0.166,-0.051 0.282,-0.1152 0.115,-0.064 0.179,-0.2431 0.08,-0.1791 0.115,-0.5117 0.04,-0.3326 0.04,-0.9339 0,-0.3711 0,-0.9212 0.01,-0.5373 0.01,-1.1898 h -6.704 l -0.04,-0.077 1.752,-1.983 q 0.05,-0.038 0.103,-0.051 0.06,-0.026 0.166,-0.038 0.115,-0.013 0.294,-0.013 0.192,-0.013 0.499,-0.013 z m -4.657,-0.2686 q 0.87,-1.0747 1.279,-2.111 0.422,-1.0363 0.435,-1.8935 0.01,-0.8571 -0.409,-1.3049 -0.423,-0.4606 -1.254,-0.4606 -0.294,0 -0.576,0.09 -0.281,0.09 -0.512,0.2686 0.18,-0.3582 0.423,-0.7164 0.243,-0.371 0.55,-0.6653 0.32,-0.2943 0.716,-0.4734 0.41,-0.1919 0.921,-0.1919 0.499,0 0.896,0.1535 0.397,0.1408 0.665,0.3967 0.269,0.2558 0.41,0.6268 0.153,0.3583 0.153,0.7933 0,0.7548 -0.32,1.4584 -0.32,0.7037 -0.844,1.3818 -0.512,0.6652 -1.177,1.3305 -0.665,0.6525 -1.356,1.3178 z"
           style="font-style:normal;font-variant:normal;font-weight:normal;font-stretch:normal;font-size:15.3525px;font-family:Respira;-inkscape-font-specification:Respira;fill:#112f25;fill-opacity:1;stroke-width:0.209999"
           id="path838" />
      </g>
    </g>
  </g>
</svg>
