<?xml version="1.0" encoding="UTF-8" standalone="no"?>
<svg
   xmlns:dc="http://purl.org/dc/elements/1.1/"
   xmlns:cc="http://creativecommons.org/ns#"
   xmlns:rdf="http://www.w3.org/1999/02/22-rdf-syntax-ns#"
   xmlns:svg="http://www.w3.org/2000/svg"
   xmlns="http://www.w3.org/2000/svg"
   xmlns:sodipodi="http://sodipodi.sourceforge.net/DTD/sodipodi-0.dtd"
   xmlns:inkscape="http://www.inkscape.org/namespaces/inkscape"
   width="11.586096mm"
   height="7.6236115mm"
   viewBox="0 0 11.586095 7.6236114"
   version="1.1"
   id="svg8"
   inkscape:version="1.0.2-2 (e86c870879, 2021-01-15)"
   sodipodi:docname="Feuille 005' Hover.svg">
  <defs
     id="defs2">
    <inkscape:path-effect
       effect="spiro"
       id="path-effect10981"
       is_visible="true"
       lpeversion="0" />
  </defs>
  <sodipodi:namedview
     id="base"
     pagecolor="#ffffff"
     bordercolor="#666666"
     borderopacity="1.0"
     inkscape:pageopacity="0.0"
     inkscape:pageshadow="2"
     inkscape:zoom="3.959798"
     inkscape:cx="43.451777"
     inkscape:cy="20.695798"
     inkscape:document-units="mm"
     inkscape:current-layer="layer1"
     inkscape:document-rotation="0"
     showgrid="false"
     fit-margin-top="0"
     fit-margin-left="0"
     fit-margin-right="0"
     fit-margin-bottom="0"
     inkscape:window-width="958"
     inkscape:window-height="1018"
     inkscape:window-x="946"
     inkscape:window-y="0"
     inkscape:window-maximized="0" />
  <metadata
     id="metadata5">
    <rdf:RDF>
      <cc:Work
         rdf:about="">
        <dc:format>image/svg+xml</dc:format>
        <dc:type
           rdf:resource="http://purl.org/dc/dcmitype/StillImage" />
        <dc:title />
      </cc:Work>
    </rdf:RDF>
  </metadata>
  <g
     inkscape:label="Calque 1"
     inkscape:groupmode="layer"
     id="layer1"
     transform="translate(-106.01723,-157.7617)">
    <path
       inkscape:connector-curvature="0"
       id="path82-78-7-5-7-4-7-8-5-6"
       d="m 117.60333,164.72962 c -0.27728,-0.25752 -0.4662,-0.96925 -4.28784,0.28773 -3.92033,1.28942 -6.25792,-1.9872 -6.57516,-2.68459 -0.3175,-0.69737 -1.26682,-3.89314 -0.3003,-3.56341 0.96599,0.32996 0.92287,-0.0167 1.67031,-0.38256 0.74772,-0.36587 2.94931,-0.96996 4.07512,-0.37365 1.12633,0.59611 5.1763,1.96998 5.41787,6.71648 z"
       style="fill:#112f25;fill-opacity:1;stroke:none;stroke-width:1.05833;stroke-linecap:butt;stroke-linejoin:miter;stroke-miterlimit:5.6;stroke-dasharray:none;stroke-opacity:1;paint-order:markers stroke fill"
       sodipodi:nodetypes="csssssc" />
    <g
       aria-label="005'"
       transform="rotate(22.877641)"
       id="text8537-8-1-9-8-2-7-6-8-0-0-0-1-2-2"
       style="font-style:normal;font-variant:normal;font-weight:normal;font-stretch:normal;font-size:4.06202px;line-height:0.758097px;font-family:Respira;-inkscape-font-specification:Respira;font-variant-ligatures:normal;font-variant-caps:normal;font-variant-numeric:normal;font-feature-settings:normal;text-align:start;letter-spacing:0px;word-spacing:0px;writing-mode:lr-tb;text-anchor:start;fill:#fbf7ee;fill-opacity:1;stroke:none;stroke-width:0.0555622">
      <path
         d="m 162.33243,104.31189 q 0.26404,0 0.46714,0.0745 0.2031,0.0745 0.3385,0.21325 0.13878,0.13879 0.20648,0.33512 0.0711,0.19633 0.0711,0.44344 0,0.19971 -0.0542,0.36558 -0.0542,0.16248 -0.14556,0.29449 -0.0914,0.12863 -0.20987,0.23018 -0.11847,0.0982 -0.2471,0.17264 0.0542,-0.10832 0.0779,-0.26742 0.0237,-0.16248 0.0237,-0.33511 0,-0.29111 -0.0745,-0.49422 -0.0711,-0.2031 -0.2031,-0.32834 -0.13202,-0.12863 -0.3182,-0.18618 -0.18617,-0.0575 -0.41635,-0.0575 -0.18956,0 -0.31142,0.0474 -0.12186,0.0474 -0.18618,0.0812 0.0745,-0.12186 0.16587,-0.23018 0.0914,-0.10832 0.20987,-0.18618 0.11847,-0.0812 0.26741,-0.12524 0.14894,-0.0474 0.3385,-0.0474 z m -0.55514,2.6674 q -0.25049,0 -0.45359,-0.0677 -0.2031,-0.0711 -0.34866,-0.20649 -0.14217,-0.1354 -0.22002,-0.32835 -0.0779,-0.19633 -0.0779,-0.44682 0,-0.18279 0.0576,-0.33173 0.0575,-0.15232 0.14894,-0.27757 0.0948,-0.12863 0.21325,-0.23018 0.12186,-0.10494 0.25049,-0.18618 -0.0542,0.10832 -0.0778,0.24372 -0.0237,0.13202 -0.0237,0.30466 0,0.29111 0.0711,0.49759 0.0745,0.2031 0.20987,0.33173 0.1354,0.12864 0.33173,0.18618 0.19633,0.0576 0.44682,0.0576 0.16926,0 0.27419,-0.0203 0.10494,-0.0237 0.17602,-0.0609 -0.0609,0.10832 -0.14555,0.20648 -0.0812,0.0948 -0.19972,0.16925 -0.11509,0.0745 -0.2708,0.11509 -0.15571,0.044 -0.3622,0.044 z"
         style="font-style:normal;font-variant:normal;font-weight:normal;font-stretch:normal;font-size:4.06202px;font-family:Respira;-inkscape-font-specification:Respira;fill:#fbf7ee;fill-opacity:1;stroke-width:0.0555622"
         id="path834" />
      <path
         d="m 165.35864,104.31189 q 0.26403,0 0.46713,0.0745 0.2031,0.0745 0.3385,0.21325 0.13878,0.13879 0.20649,0.33512 0.0711,0.19633 0.0711,0.44344 0,0.19971 -0.0542,0.36558 -0.0542,0.16248 -0.14556,0.29449 -0.0914,0.12863 -0.20987,0.23018 -0.11847,0.0982 -0.2471,0.17264 0.0542,-0.10832 0.0779,-0.26742 0.0237,-0.16248 0.0237,-0.33511 0,-0.29111 -0.0745,-0.49422 -0.0711,-0.2031 -0.2031,-0.32834 -0.13202,-0.12863 -0.3182,-0.18618 -0.18617,-0.0575 -0.41635,-0.0575 -0.18956,0 -0.31142,0.0474 -0.12186,0.0474 -0.18618,0.0812 0.0745,-0.12186 0.16587,-0.23018 0.0914,-0.10832 0.20987,-0.18618 0.11847,-0.0812 0.26741,-0.12524 0.14894,-0.0474 0.33851,-0.0474 z m -0.55515,2.6674 q -0.25049,0 -0.45359,-0.0677 -0.2031,-0.0711 -0.34866,-0.20649 -0.14217,-0.1354 -0.22002,-0.32835 -0.0779,-0.19633 -0.0779,-0.44682 0,-0.18279 0.0575,-0.33173 0.0575,-0.15232 0.14894,-0.27757 0.0948,-0.12863 0.21325,-0.23018 0.12186,-0.10494 0.2505,-0.18618 -0.0542,0.10832 -0.0779,0.24372 -0.0237,0.13202 -0.0237,0.30466 0,0.29111 0.0711,0.49759 0.0745,0.2031 0.20987,0.33173 0.1354,0.12864 0.33173,0.18618 0.19633,0.0576 0.44683,0.0576 0.16925,0 0.27418,-0.0203 0.10494,-0.0237 0.17602,-0.0609 -0.0609,0.10832 -0.14555,0.20648 -0.0812,0.0948 -0.19972,0.16925 -0.11509,0.0745 -0.2708,0.11509 -0.15571,0.044 -0.3622,0.044 z"
         style="font-style:normal;font-variant:normal;font-weight:normal;font-stretch:normal;font-size:4.06202px;font-family:Respira;-inkscape-font-specification:Respira;fill:#fbf7ee;fill-opacity:1;stroke-width:0.0555622"
         id="path836" />
      <path
         d="m 168.64548,104.36606 q 0.18956,0 0.31819,-0.0237 0.13202,-0.0271 0.23018,-0.0711 0.0982,-0.0474 0.17941,-0.11509 0.0812,-0.0677 0.16925,-0.15571 l 0.0203,0.0135 q -0.0914,0.0812 -0.20648,0.19972 -0.1151,0.11509 -0.23696,0.24711 -0.11847,0.13201 -0.23695,0.26741 -0.11847,0.1354 -0.21664,0.25726 h -1.36416 l 0.0135,1.18137 -0.57207,0.52807 v -1.3574 q 0,-0.0237 0.0339,-0.0711 0.0339,-0.0508 0.14217,-0.1591 l 0.30466,-0.30803 0.36558,-0.43328 z m -0.10493,2.93819 q 0.0406,-0.0542 0.0711,-0.13202 0.0305,-0.0745 0.0474,-0.16248 0.0203,-0.088 0.0271,-0.18279 0.0102,-0.0982 0.0102,-0.18956 0,-0.14555 -0.0406,-0.27757 -0.0372,-0.13202 -0.12186,-0.23018 -0.0846,-0.10155 -0.22003,-0.1591 -0.1354,-0.0609 -0.33173,-0.0609 -0.16925,0 -0.32496,0.0508 -0.15233,0.0508 -0.30465,0.1794 0.14555,-0.16248 0.28095,-0.28772 0.1354,-0.12525 0.26742,-0.20987 0.1354,-0.088 0.2708,-0.13202 0.1354,-0.0474 0.28434,-0.0474 0.22341,0 0.37574,0.0677 0.15571,0.0643 0.25049,0.17602 0.0982,0.11171 0.13878,0.26403 0.044,0.14894 0.044,0.31481 0,0.16248 -0.0542,0.31142 -0.0542,0.14894 -0.15233,0.28096 -0.0948,0.12863 -0.22679,0.23695 -0.13202,0.10832 -0.29111,0.18956 z m -1.2423,-0.65331 q -0.0406,0.0643 -0.0575,0.1354 -0.0135,0.0677 -0.0135,0.16587 0,0.10493 0.0474,0.18956 0.0474,0.088 0.13202,0.14894 0.088,0.0643 0.20987,0.0982 0.12186,0.0339 0.26741,0.0339 0.16925,0 0.34527,-0.0271 0.17941,-0.0271 0.30466,-0.0846 -0.0779,0.10832 -0.17264,0.22341 -0.0948,0.11509 -0.22003,0.20649 -0.12186,0.0948 -0.28095,0.15571 -0.1591,0.0609 -0.36558,0.0609 -0.18279,0 -0.32497,-0.0406 -0.13878,-0.0372 -0.23695,-0.10494 -0.0982,-0.0677 -0.14894,-0.16248 -0.0508,-0.0914 -0.0508,-0.2031 0,-0.22003 0.12863,-0.40959 0.12863,-0.18956 0.43667,-0.38589 z"
         style="font-style:normal;font-variant:normal;font-weight:normal;font-stretch:normal;font-size:4.06202px;font-family:Respira;-inkscape-font-specification:Respira;fill:#fbf7ee;fill-opacity:1;stroke-width:0.0555622"
         id="path838" />
      <path
         d="m 169.65422,103.6789 q 0.0609,0 0.10155,0.0474 0.044,0.044 0.044,0.10493 0,0.0271 -0.0101,0.12525 -0.0102,0.0982 -0.0271,0.2471 -0.0135,0.14556 -0.0339,0.32835 -0.0169,0.18279 -0.0339,0.37912 -0.0169,0.19633 -0.0305,0.39605 -0.0135,0.19633 -0.0203,0.37235 -0.007,-0.17602 -0.0203,-0.37235 -0.0135,-0.19633 -0.0305,-0.39266 -0.0135,-0.19633 -0.0339,-0.37912 -0.0169,-0.18618 -0.0305,-0.33174 -0.0135,-0.14555 -0.0237,-0.24372 -0.007,-0.0982 -0.007,-0.12524 0,-0.0609 0.0474,-0.10832 0.0508,-0.0474 0.10833,-0.0474 z"
         style="font-style:normal;font-variant:normal;font-weight:normal;font-stretch:normal;font-size:4.06202px;font-family:Respira;-inkscape-font-specification:Respira;fill:#fbf7ee;fill-opacity:1;stroke-width:0.0555622"
         id="path840" />
    </g>
  </g>
</svg>
