<?xml version="1.0" encoding="UTF-8" standalone="no"?>
<svg
   xmlns:dc="http://purl.org/dc/elements/1.1/"
   xmlns:cc="http://creativecommons.org/ns#"
   xmlns:rdf="http://www.w3.org/1999/02/22-rdf-syntax-ns#"
   xmlns:svg="http://www.w3.org/2000/svg"
   xmlns="http://www.w3.org/2000/svg"
   xmlns:sodipodi="http://sodipodi.sourceforge.net/DTD/sodipodi-0.dtd"
   xmlns:inkscape="http://www.inkscape.org/namespaces/inkscape"
   width="12.33038mm"
   height="14.390443mm"
   viewBox="0 0 12.33038 14.390443"
   version="1.1"
   id="svg8"
   inkscape:version="1.0.2-2 (e86c870879, 2021-01-15)"
   sodipodi:docname="Feuille 003' Hover.svg">
  <defs
     id="defs2">
    <inkscape:path-effect
       effect="spiro"
       id="path-effect11393"
       is_visible="true"
       lpeversion="0" />
  </defs>
  <sodipodi:namedview
     id="base"
     pagecolor="#ffffff"
     bordercolor="#666666"
     borderopacity="1.0"
     inkscape:pageopacity="0.0"
     inkscape:pageshadow="2"
     inkscape:zoom="3.959798"
     inkscape:cx="29.764415"
     inkscape:cy="39.692176"
     inkscape:document-units="mm"
     inkscape:current-layer="layer1"
     inkscape:document-rotation="0"
     showgrid="false"
     fit-margin-top="0"
     fit-margin-left="0"
     fit-margin-right="0"
     fit-margin-bottom="0"
     inkscape:window-width="958"
     inkscape:window-height="1018"
     inkscape:window-x="946"
     inkscape:window-y="0"
     inkscape:window-maximized="0" />
  <metadata
     id="metadata5">
    <rdf:RDF>
      <cc:Work
         rdf:about="">
        <dc:format>image/svg+xml</dc:format>
        <dc:type
           rdf:resource="http://purl.org/dc/dcmitype/StillImage" />
        <dc:title />
      </cc:Work>
    </rdf:RDF>
  </metadata>
  <g
     inkscape:label="Calque 1"
     inkscape:groupmode="layer"
     id="layer1"
     transform="translate(-109.63869,-152.73557)">
    <path
       inkscape:original-d="m 116.66973,159.11188 c 0,0 0.51541,-0.47934 0.77258,-0.71863 0.25718,-0.23929 0.7419,-0.96428 1.11258,-1.446 0.37041,-0.48173 0.3638,-0.96944 0.5453,-1.45376 0.18151,-0.48432 -0.0159,-1.07204 -0.0238,-1.60766 -0.008,-0.53562 -0.082,-0.62725 -0.12356,-0.94046 -0.0413,-0.31321 -0.0185,-0.0781 -0.0299,-0.11673 -0.0106,-0.0386 -0.14843,-0.0616 -0.22304,-0.092 -0.0743,-0.0304 -0.2876,0.0836 -0.4318,0.12578 -0.14394,0.0422 -0.36857,0.19717 -0.55325,0.29615 -0.18467,0.099 0.0987,0.14327 0.14764,0.21532 0.049,0.072 0.37121,0.0907 0.55642,0.13645 0.18521,0.0458 0.0833,0.16287 0.12435,0.24471 0.0413,0.0818 0.0159,0.95848 0.0212,1.43812 0.008,0.47966 -0.78687,1.69682 -1.18083,2.54563 -0.39397,0.84884 -0.20056,0.27787 -0.3011,0.41722 -0.10081,0.13933 -0.33549,0.48149 -0.50377,0.72263 -0.16801,0.24114 0.0894,0.23323 0.0894,0.23323 z"
       inkscape:path-effect="#path-effect11393"
       inkscape:connector-curvature="0"
       id="path1285-2-0-9-2-9-2-8-3"
       d="m 116.66973,159.11188 c 0.27005,-0.22559 0.52807,-0.46558 0.77258,-0.71863 0.42366,-0.43845 0.8079,-0.91789 1.11258,-1.446 0.26007,-0.45078 0.46231,-0.94 0.5453,-1.45376 0.0858,-0.53093 0.0427,-1.07398 -0.0238,-1.60766 -0.0391,-0.31376 -0.0862,-0.62649 -0.12356,-0.94046 -0.005,-0.0402 -0.01,-0.0816 -0.0299,-0.11673 -0.0211,-0.0368 -0.0575,-0.0634 -0.0974,-0.0778 -0.0399,-0.0144 -0.0833,-0.0172 -0.12559,-0.0142 -0.14996,0.0107 -0.28536,0.0918 -0.4318,0.12578 -0.11117,0.0258 -0.22817,0.0243 -0.33678,0.0593 -0.0543,0.0175 -0.10643,0.0446 -0.1468,0.0849 -0.0404,0.0403 -0.0682,0.0948 -0.0697,0.15188 -0.001,0.046 0.0148,0.0917 0.0417,0.12903 0.0269,0.0373 0.0644,0.0664 0.10592,0.0863 0.0873,0.0419 0.1877,0.0432 0.28433,0.0501 0.0483,0.003 0.0968,0.009 0.14352,0.0213 0.0467,0.0127 0.092,0.0333 0.12857,0.0651 0.0351,0.0304 0.0613,0.0702 0.0806,0.11248 0.0193,0.0423 0.0322,0.0872 0.0437,0.13223 0.12015,0.46807 0.10963,0.96303 0.0212,1.43812 -0.17256,0.92701 -0.63293,1.77821 -1.18083,2.54563 -0.0997,0.13959 -0.20239,0.27696 -0.3011,0.41722 -0.16901,0.24015 -0.32622,0.48872 -0.50377,0.72263 -0.0175,0.023 -0.0352,0.0463 -0.0463,0.073 -0.011,0.0267 -0.0145,0.0572 -0.006,0.0847 0.009,0.0275 0.0302,0.0504 0.0564,0.0624 0.0263,0.012 0.056,0.0131 0.0849,0.0131 z"
       style="fill:#112f25;fill-opacity:1;stroke:none;stroke-width:0.264583px;stroke-linecap:butt;stroke-linejoin:miter;stroke-opacity:1" />
    <path
       inkscape:connector-curvature="0"
       id="path44-21-8-5-24-37-4-6-1"
       d="m 109.63869,167.12601 c 0,0 4.55824,-0.0316 6.81064,-1.30538 2.25214,-1.27378 4.41087,-2.89338 5.51974,-5.98265 0,0 -2.31484,-2.50029 -5.44539,-1.67627 -3.13055,0.82402 -4.8469,3.1152 -5.59673,5.41793 -0.74983,2.30269 -1.28826,3.54637 -1.28826,3.54637 z"
       style="fill:#112f25;fill-opacity:1;stroke:none;stroke-width:1.05833;stroke-linecap:butt;stroke-linejoin:miter;stroke-miterlimit:4;stroke-dasharray:none;stroke-opacity:1;paint-order:markers stroke fill" />
    <g
       aria-label="003'"
       transform="rotate(-32.222874)"
       id="text8537-8-1-9-8-2-7-6-8-0-0-6-5-1"
       style="font-style:normal;font-variant:normal;font-weight:normal;font-stretch:normal;font-size:4.06202px;line-height:0.758097px;font-family:Respira;-inkscape-font-specification:Respira;font-variant-ligatures:normal;font-variant-caps:normal;font-variant-numeric:normal;font-feature-settings:normal;text-align:start;letter-spacing:0px;word-spacing:0px;writing-mode:lr-tb;text-anchor:start;fill:#fbf7ee;fill-opacity:1;stroke:none;stroke-width:0.0555622">
      <path
         d="m 7.9945721,197.99903 q 0.2640313,0 0.4671323,0.0745 0.203101,0.0745 0.3385017,0.21325 0.1387856,0.13879 0.206486,0.33512 0.071085,0.19633 0.071085,0.44344 0,0.19971 -0.05416,0.36558 -0.05416,0.16248 -0.1455557,0.2945 -0.091395,0.12863 -0.209871,0.23018 -0.1184756,0.0982 -0.2471062,0.17263 0.05416,-0.10832 0.077855,-0.26741 0.023695,-0.16248 0.023695,-0.33512 0,-0.29111 -0.07447,-0.49421 -0.071085,-0.2031 -0.203101,-0.32835 -0.1320156,-0.12863 -0.3181915,-0.18617 -0.1861759,-0.0575 -0.416357,-0.0575 -0.189561,0 -0.3114216,0.0474 -0.1218606,0.0474 -0.1861759,0.0812 0.07447,-0.12186 0.1658658,-0.23018 0.091395,-0.10832 0.2098711,-0.18618 0.1184755,-0.0812 0.2674163,-0.12524 0.1489407,-0.0474 0.3385016,-0.0474 z m -0.5551427,2.66739 q -0.2504912,0 -0.4535922,-0.0677 -0.203101,-0.0711 -0.3486567,-0.20648 -0.1421707,-0.13541 -0.2200261,-0.32835 -0.077855,-0.19633 -0.077855,-0.44682 0,-0.18279 0.057545,-0.33174 0.057545,-0.15232 0.1489407,-0.27757 0.09478,-0.12863 0.2132561,-0.23018 0.1218606,-0.10493 0.2504912,-0.18617 -0.05416,0.10832 -0.077855,0.24372 -0.023695,0.13201 -0.023695,0.30465 0,0.29111 0.071085,0.4976 0.07447,0.2031 0.209871,0.33173 0.1354006,0.12863 0.3317316,0.18617 0.196331,0.0575 0.4468222,0.0575 0.1692508,0 0.2741863,-0.0203 0.1049355,-0.0237 0.1760209,-0.0609 -0.06093,0.10832 -0.1455557,0.20649 -0.08124,0.0948 -0.199716,0.16925 -0.1150906,0.0745 -0.2708013,0.11509 -0.1557108,0.044 -0.3621968,0.044 z"
         style="font-style:normal;font-variant:normal;font-weight:normal;font-stretch:normal;font-size:4.06202px;font-family:Respira;-inkscape-font-specification:Respira;fill:#fbf7ee;fill-opacity:1;stroke-width:0.0555622"
         id="path835" />
      <path
         d="m 11.020773,197.99903 q 0.264031,0 0.467132,0.0745 0.203101,0.0745 0.338502,0.21325 0.138785,0.13879 0.206486,0.33512 0.07109,0.19633 0.07109,0.44344 0,0.19971 -0.05416,0.36558 -0.05416,0.16248 -0.145556,0.2945 -0.09139,0.12863 -0.209871,0.23018 -0.118476,0.0982 -0.247106,0.17263 0.05416,-0.10832 0.07785,-0.26741 0.0237,-0.16248 0.0237,-0.33512 0,-0.29111 -0.07447,-0.49421 -0.07109,-0.2031 -0.203101,-0.32835 -0.132016,-0.12863 -0.318192,-0.18617 -0.186176,-0.0575 -0.416357,-0.0575 -0.189561,0 -0.311421,0.0474 -0.121861,0.0474 -0.186176,0.0812 0.07447,-0.12186 0.165866,-0.23018 0.0914,-0.10832 0.209871,-0.18618 0.118475,-0.0812 0.267416,-0.12524 0.148941,-0.0474 0.338502,-0.0474 z m -0.555143,2.66739 q -0.250491,0 -0.453592,-0.0677 -0.2031013,-0.0711 -0.348657,-0.20648 -0.1421707,-0.13541 -0.220026,-0.32835 -0.077855,-0.19633 -0.077855,-0.44682 0,-0.18279 0.057545,-0.33174 0.057545,-0.15232 0.1489407,-0.27757 0.09478,-0.12863 0.213256,-0.23018 0.1218606,-0.10493 0.2504914,-0.18617 -0.05416,0.10832 -0.077856,0.24372 -0.023695,0.13201 -0.023695,0.30465 0,0.29111 0.071086,0.4976 0.07447,0.2031 0.209871,0.33173 0.1354,0.12863 0.331731,0.18617 0.196331,0.0575 0.446823,0.0575 0.16925,0 0.274186,-0.0203 0.104935,-0.0237 0.176021,-0.0609 -0.06093,0.10832 -0.145556,0.20649 -0.08124,0.0948 -0.199716,0.16925 -0.115091,0.0745 -0.270801,0.11509 -0.155711,0.044 -0.362197,0.044 z"
         style="font-style:normal;font-variant:normal;font-weight:normal;font-stretch:normal;font-size:4.06202px;font-family:Respira;-inkscape-font-specification:Respira;fill:#fbf7ee;fill-opacity:1;stroke-width:0.0555622"
         id="path837" />
      <path
         d="m 13.43767,199.26841 q -0.05077,0.0914 -0.118475,0.17264 -0.06432,0.0812 -0.145556,0.14217 -0.07785,0.0609 -0.169251,0.0982 -0.08801,0.0372 -0.189561,0.0372 -0.230181,0 -0.345272,-0.11171 -0.111705,-0.1117 -0.111705,-0.30127 0,-0.11509 0.04739,-0.22002 0.04739,-0.10832 0.128631,-0.19972 0.08124,-0.0914 0.189561,-0.16925 0.10832,-0.0778 0.230181,-0.14217 -0.04739,0.0982 -0.06093,0.18956 -0.01354,0.088 -0.01354,0.16587 0,0.17263 0.08124,0.29449 0.08124,0.11848 0.253876,0.11848 0.05754,0 0.108321,-0.0135 0.05416,-0.0169 0.11509,-0.0609 z m 0.484058,0.24034 q 0.04739,-0.0508 0.0914,-0.10494 0.04739,-0.0542 0.08124,-0.11848 0.03724,-0.0643 0.05755,-0.13878 0.02031,-0.0779 0.02031,-0.17264 0,-0.23356 -0.172636,-0.37573 -0.169251,-0.14556 -0.500982,-0.14556 -0.165866,0 -0.301267,0.0339 -0.132016,0.0339 -0.236951,0.0846 0.05754,-0.0982 0.142171,-0.19972 0.08801,-0.10155 0.209871,-0.18279 0.12186,-0.0846 0.277571,-0.1354 0.155711,-0.0542 0.355427,-0.0542 0.423127,0 0.636383,0.18279 0.213256,0.18279 0.216641,0.50437 0,0.16248 -0.08124,0.29788 -0.07785,0.1354 -0.203101,0.24033 -0.125245,0.10156 -0.284341,0.17264 -0.155711,0.0711 -0.308036,0.11171 z m 0.440052,1.4894 q 0.09478,-0.10832 0.111705,-0.21664 0.02031,-0.10493 0.02031,-0.21325 0,-0.1354 -0.08801,-0.24034 -0.08801,-0.10494 -0.240336,-0.17941 -0.148941,-0.0745 -0.348657,-0.11847 -0.199716,-0.0474 -0.423127,-0.0643 l 0.487442,-0.41635 q 0.226796,0.0203 0.429897,0.0677 0.206486,0.0474 0.362197,0.12863 0.159096,0.0779 0.250491,0.18956 0.09478,0.10832 0.09478,0.25049 0,0.24372 -0.179406,0.45021 -0.176021,0.20987 -0.477287,0.36219 z m -1.337082,-0.71085 q -0.04062,0.0643 -0.05755,0.1354 -0.01354,0.0677 -0.01354,0.16587 0,0.1117 0.06093,0.2031 0.06432,0.0948 0.165866,0.16248 0.10155,0.0711 0.233566,0.10832 0.132016,0.0372 0.270801,0.0372 0.182791,0 0.362197,-0.0237 0.179406,-0.0237 0.304652,-0.0711 -0.07447,0.10155 -0.169251,0.21326 -0.0914,0.1117 -0.216641,0.2031 -0.125246,0.0914 -0.284342,0.15233 -0.159095,0.0609 -0.365581,0.0609 -0.209871,0 -0.368967,-0.044 -0.159096,-0.044 -0.267416,-0.11847 -0.108321,-0.0745 -0.165866,-0.17603 -0.05416,-0.0982 -0.05416,-0.21325 0,-0.22003 0.128631,-0.40959 0.128631,-0.18956 0.436667,-0.38589 z"
         style="font-style:normal;font-variant:normal;font-weight:normal;font-stretch:normal;font-size:4.06202px;font-family:Respira;-inkscape-font-specification:Respira;fill:#fbf7ee;fill-opacity:1;stroke-width:0.0555622"
         id="path839" />
      <path
         d="m 15.404359,197.36603 q 0.06093,0 0.101551,0.0474 0.04401,0.044 0.04401,0.10494 0,0.0271 -0.01016,0.12524 -0.01015,0.0982 -0.02708,0.24711 -0.01354,0.14555 -0.03385,0.32834 -0.01692,0.1828 -0.03385,0.37913 -0.01693,0.19633 -0.03046,0.39604 -0.01354,0.19633 -0.02031,0.37236 -0.0068,-0.17603 -0.02031,-0.37236 -0.01354,-0.19633 -0.03046,-0.39266 -0.01354,-0.19633 -0.03385,-0.37912 -0.01693,-0.18618 -0.03047,-0.33173 -0.01354,-0.14556 -0.0237,-0.24372 -0.0068,-0.0982 -0.0068,-0.12525 0,-0.0609 0.04739,-0.10832 0.05078,-0.0474 0.108321,-0.0474 z"
         style="font-style:normal;font-variant:normal;font-weight:normal;font-stretch:normal;font-size:4.06202px;font-family:Respira;-inkscape-font-specification:Respira;fill:#fbf7ee;fill-opacity:1;stroke-width:0.0555622"
         id="path841" />
    </g>
  </g>
</svg>
