<?xml version="1.0" encoding="UTF-8" standalone="no"?>
<svg
   width="43.372345"
   height="20.356022"
   viewBox="0 0 11.475599 5.3858642"
   version="1.1"
   id="svg8"
   inkscape:version="1.1.2 (b8e25be833, 2022-02-05)"
   sodipodi:docname="IMAGE Inferno Coming Soon Desktop VF (FEUILLE UNIQUEMENT).svg"
   xmlns:inkscape="http://www.inkscape.org/namespaces/inkscape"
   xmlns:sodipodi="http://sodipodi.sourceforge.net/DTD/sodipodi-0.dtd"
   xmlns="http://www.w3.org/2000/svg"
   xmlns:svg="http://www.w3.org/2000/svg"
   xmlns:rdf="http://www.w3.org/1999/02/22-rdf-syntax-ns#"
   xmlns:cc="http://creativecommons.org/ns#"
   xmlns:dc="http://purl.org/dc/elements/1.1/">
  <defs
     id="defs2">
    <inkscape:path-effect
       effect="spiro"
       id="path-effect1347"
       is_visible="true"
       lpeversion="0" />
    <inkscape:path-effect
       effect="spiro"
       id="path-effect8678"
       is_visible="true"
       lpeversion="0" />
    <inkscape:path-effect
       effect="spiro"
       id="path-effect8570"
       is_visible="true"
       lpeversion="0" />
    <inkscape:path-effect
       effect="spiro"
       id="path-effect8572"
       is_visible="true"
       lpeversion="0" />
    <inkscape:path-effect
       effect="spiro"
       id="path-effect8574"
       is_visible="true"
       lpeversion="0" />
    <inkscape:path-effect
       effect="spiro"
       id="path-effect8576"
       is_visible="true"
       lpeversion="0" />
    <inkscape:path-effect
       effect="spiro"
       id="path-effect8578"
       is_visible="true"
       lpeversion="0" />
    <inkscape:path-effect
       effect="spiro"
       id="path-effect8580"
       is_visible="true"
       lpeversion="0" />
    <inkscape:path-effect
       effect="spiro"
       id="path-effect8582"
       is_visible="true"
       lpeversion="0" />
    <inkscape:path-effect
       effect="spiro"
       id="path-effect8584"
       is_visible="true"
       lpeversion="0" />
    <inkscape:path-effect
       effect="spiro"
       id="path-effect8586"
       is_visible="true"
       lpeversion="0" />
    <inkscape:path-effect
       effect="spiro"
       id="path-effect8588"
       is_visible="true"
       lpeversion="0" />
    <inkscape:path-effect
       effect="spiro"
       id="path-effect8590"
       is_visible="true"
       lpeversion="0" />
    <inkscape:path-effect
       effect="spiro"
       id="path-effect8592"
       is_visible="true"
       lpeversion="0" />
    <inkscape:path-effect
       effect="spiro"
       id="path-effect8594"
       is_visible="true"
       lpeversion="0" />
    <inkscape:path-effect
       effect="spiro"
       id="path-effect8596"
       is_visible="true"
       lpeversion="0" />
    <inkscape:path-effect
       effect="spiro"
       id="path-effect8598"
       is_visible="true"
       lpeversion="0" />
    <inkscape:path-effect
       effect="spiro"
       id="path-effect8600"
       is_visible="true"
       lpeversion="0" />
    <inkscape:path-effect
       effect="spiro"
       id="path-effect8602"
       is_visible="true"
       lpeversion="0" />
    <inkscape:path-effect
       effect="spiro"
       id="path-effect8604"
       is_visible="true"
       lpeversion="0" />
    <inkscape:path-effect
       effect="spiro"
       id="path-effect8606"
       is_visible="true"
       lpeversion="0" />
    <inkscape:path-effect
       effect="spiro"
       id="path-effect8608"
       is_visible="true"
       lpeversion="0" />
    <inkscape:path-effect
       effect="spiro"
       id="path-effect8610"
       is_visible="true"
       lpeversion="0" />
    <inkscape:path-effect
       effect="spiro"
       id="path-effect8612"
       is_visible="true"
       lpeversion="0" />
    <inkscape:path-effect
       effect="spiro"
       id="path-effect8614"
       is_visible="true"
       lpeversion="0" />
    <inkscape:path-effect
       effect="spiro"
       id="path-effect8616"
       is_visible="true"
       lpeversion="0" />
    <inkscape:path-effect
       effect="spiro"
       id="path-effect8618"
       is_visible="true"
       lpeversion="0" />
    <inkscape:path-effect
       effect="spiro"
       id="path-effect8620"
       is_visible="true"
       lpeversion="0" />
    <inkscape:path-effect
       effect="spiro"
       id="path-effect8622"
       is_visible="true"
       lpeversion="0" />
    <inkscape:path-effect
       effect="spiro"
       id="path-effect8624"
       is_visible="true"
       lpeversion="0" />
    <inkscape:path-effect
       effect="spiro"
       id="path-effect8626"
       is_visible="true"
       lpeversion="0" />
    <inkscape:path-effect
       effect="spiro"
       id="path-effect8628"
       is_visible="true"
       lpeversion="0" />
    <inkscape:path-effect
       effect="spiro"
       id="path-effect8630"
       is_visible="true"
       lpeversion="0" />
    <inkscape:path-effect
       effect="spiro"
       id="path-effect8632"
       is_visible="true"
       lpeversion="0" />
    <inkscape:path-effect
       effect="spiro"
       id="path-effect8634"
       is_visible="true"
       lpeversion="0" />
    <inkscape:path-effect
       effect="spiro"
       id="path-effect8636"
       is_visible="true"
       lpeversion="0" />
    <inkscape:path-effect
       effect="spiro"
       id="path-effect8638"
       is_visible="true"
       lpeversion="0" />
    <inkscape:path-effect
       effect="spiro"
       id="path-effect8640"
       is_visible="true"
       lpeversion="0" />
    <inkscape:path-effect
       effect="spiro"
       id="path-effect8642"
       is_visible="true"
       lpeversion="0" />
    <inkscape:path-effect
       effect="spiro"
       id="path-effect8644"
       is_visible="true"
       lpeversion="0" />
    <inkscape:path-effect
       effect="spiro"
       id="path-effect8646"
       is_visible="true"
       lpeversion="0" />
    <inkscape:path-effect
       effect="spiro"
       id="path-effect8648"
       is_visible="true"
       lpeversion="0" />
    <inkscape:path-effect
       effect="spiro"
       id="path-effect8650"
       is_visible="true"
       lpeversion="0" />
    <inkscape:path-effect
       effect="spiro"
       id="path-effect8652"
       is_visible="true"
       lpeversion="0" />
    <inkscape:path-effect
       effect="spiro"
       id="path-effect8654"
       is_visible="true"
       lpeversion="0" />
    <inkscape:path-effect
       effect="spiro"
       id="path-effect8656"
       is_visible="true"
       lpeversion="0" />
    <inkscape:path-effect
       effect="spiro"
       id="path-effect8658"
       is_visible="true"
       lpeversion="0" />
    <inkscape:path-effect
       effect="spiro"
       id="path-effect8660"
       is_visible="true"
       lpeversion="0" />
    <inkscape:path-effect
       effect="spiro"
       id="path-effect8662"
       is_visible="true"
       lpeversion="0" />
    <inkscape:path-effect
       effect="spiro"
       id="path-effect8664"
       is_visible="true"
       lpeversion="0" />
    <inkscape:path-effect
       effect="spiro"
       id="path-effect8666"
       is_visible="true"
       lpeversion="0" />
    <inkscape:path-effect
       effect="spiro"
       id="path-effect8668"
       is_visible="true"
       lpeversion="0" />
    <inkscape:path-effect
       effect="spiro"
       id="path-effect8670"
       is_visible="true"
       lpeversion="0" />
    <inkscape:path-effect
       effect="spiro"
       id="path-effect8672"
       is_visible="true"
       lpeversion="0" />
    <inkscape:path-effect
       effect="spiro"
       id="path-effect8674"
       is_visible="true"
       lpeversion="0" />
    <inkscape:path-effect
       effect="spiro"
       id="path-effect8676"
       is_visible="true"
       lpeversion="0" />
    <inkscape:path-effect
       effect="spiro"
       id="path-effect8680"
       is_visible="true"
       lpeversion="0" />
    <inkscape:path-effect
       effect="spiro"
       id="path-effect8682"
       is_visible="true"
       lpeversion="0" />
    <inkscape:path-effect
       effect="spiro"
       id="path-effect8684"
       is_visible="true"
       lpeversion="0" />
    <inkscape:path-effect
       effect="spiro"
       id="path-effect8686"
       is_visible="true"
       lpeversion="0" />
    <inkscape:path-effect
       effect="spiro"
       id="path-effect8688"
       is_visible="true"
       lpeversion="0" />
    <inkscape:path-effect
       effect="spiro"
       id="path-effect8690"
       is_visible="true"
       lpeversion="0" />
    <inkscape:path-effect
       effect="spiro"
       id="path-effect8692"
       is_visible="true"
       lpeversion="0" />
    <inkscape:path-effect
       effect="spiro"
       id="path-effect8694"
       is_visible="true"
       lpeversion="0" />
    <inkscape:path-effect
       effect="spiro"
       id="path-effect8696"
       is_visible="true"
       lpeversion="0" />
    <inkscape:path-effect
       effect="spiro"
       id="path-effect8698"
       is_visible="true"
       lpeversion="0" />
    <inkscape:path-effect
       effect="spiro"
       id="path-effect8700"
       is_visible="true"
       lpeversion="0" />
    <inkscape:path-effect
       effect="spiro"
       id="path-effect8702"
       is_visible="true"
       lpeversion="0" />
    <inkscape:path-effect
       effect="spiro"
       id="path-effect8704"
       is_visible="true"
       lpeversion="0" />
    <inkscape:path-effect
       effect="spiro"
       id="path-effect8706"
       is_visible="true"
       lpeversion="0" />
    <inkscape:path-effect
       effect="spiro"
       id="path-effect8708"
       is_visible="true"
       lpeversion="0" />
    <inkscape:path-effect
       effect="spiro"
       id="path-effect8710"
       is_visible="true"
       lpeversion="0" />
    <inkscape:path-effect
       effect="spiro"
       id="path-effect8712"
       is_visible="true"
       lpeversion="0" />
    <inkscape:path-effect
       effect="spiro"
       id="path-effect8714"
       is_visible="true"
       lpeversion="0" />
    <inkscape:path-effect
       effect="spiro"
       id="path-effect8716"
       is_visible="true"
       lpeversion="0" />
    <inkscape:path-effect
       effect="spiro"
       id="path-effect8718"
       is_visible="true"
       lpeversion="0" />
    <inkscape:path-effect
       effect="spiro"
       id="path-effect8720"
       is_visible="true"
       lpeversion="0" />
    <inkscape:path-effect
       effect="spiro"
       id="path-effect8722"
       is_visible="true"
       lpeversion="0" />
    <inkscape:path-effect
       effect="spiro"
       id="path-effect8724"
       is_visible="true"
       lpeversion="0" />
    <inkscape:path-effect
       effect="spiro"
       id="path-effect8726"
       is_visible="true"
       lpeversion="0" />
    <inkscape:path-effect
       effect="spiro"
       id="path-effect8728"
       is_visible="true"
       lpeversion="0" />
    <inkscape:path-effect
       effect="spiro"
       id="path-effect8730"
       is_visible="true"
       lpeversion="0" />
    <inkscape:path-effect
       effect="spiro"
       id="path-effect8732"
       is_visible="true"
       lpeversion="0" />
    <inkscape:path-effect
       effect="spiro"
       id="path-effect8734"
       is_visible="true"
       lpeversion="0" />
    <inkscape:path-effect
       effect="spiro"
       id="path-effect8736"
       is_visible="true"
       lpeversion="0" />
    <inkscape:path-effect
       effect="spiro"
       id="path-effect8738"
       is_visible="true"
       lpeversion="0" />
    <inkscape:path-effect
       effect="spiro"
       id="path-effect8740"
       is_visible="true"
       lpeversion="0" />
    <inkscape:path-effect
       effect="spiro"
       id="path-effect8742"
       is_visible="true"
       lpeversion="0" />
    <inkscape:path-effect
       effect="spiro"
       id="path-effect8744"
       is_visible="true"
       lpeversion="0" />
    <inkscape:path-effect
       effect="spiro"
       id="path-effect8746"
       is_visible="true"
       lpeversion="0" />
    <inkscape:path-effect
       effect="spiro"
       id="path-effect8748"
       is_visible="true"
       lpeversion="0" />
    <clipPath
       clipPathUnits="userSpaceOnUse"
       id="clipPath8937">
      <path
         style="fill:#5f0100;fill-opacity:1;stroke:none;stroke-width:0.121439;stroke-opacity:1"
         d="m -1978.3396,304.78193 c -0.1499,0 -1.0929,0.0827 -2.0949,0.18156 -2.1883,0.21365 -4.5727,0.23116 -6.0371,0.0432 -0.5913,-0.0759 -1.1077,-0.1057 -1.1478,-0.0644 -0.041,0.0416 0.091,0.26107 0.2939,0.49104 0.604,0.688 1.1227,1.50051 1.1227,1.75882 0,0.25733 -0.5277,0.74591 -0.8058,0.74591 -0.2332,0 -0.2231,0.0233 0.3239,0.61122 0.728,0.78885 0.7882,1.36953 0.1762,1.69725 -0.166,0.0872 -0.3005,0.19298 -0.2993,0.23183 0,0.0393 0.2747,0.23235 0.6072,0.4297 0.5763,0.34216 0.7569,0.55174 0.4755,0.55174 -0.071,0 -0.5493,-0.19529 -1.0627,-0.43288 -0.5133,-0.23808 -1.2033,-0.46559 -1.5333,-0.50557 -0.4515,-0.0549 -0.707,-0.17235 -1.0321,-0.4745 l -0.4323,-0.40217 h 0.9528 c 1.1319,0 1.6583,-0.23598 1.6583,-0.73094 0,-0.58687 -0.2862,-0.81624 -1.0912,-0.87434 -0.4776,-0.0347 -0.8471,-0.13787 -1.0585,-0.29551 -0.5649,-0.42186 -0.4934,-0.53131 0.3482,-0.53131 0.9258,0 1.5997,-0.28792 1.6592,-0.70792 0.039,-0.27808 -0.3727,-1.02648 -0.8621,-1.5647 -0.1341,-0.14702 -0.6057,-0.38787 -1.0471,-0.53289 -1.1204,-0.36833 -1.6536,-0.65604 -2.2716,-1.22613 -0.5039,-0.46416 -0.6848,-0.8259 -0.4132,-0.8259 0.1562,0 0.6072,0.44902 0.6072,0.60486 0,0.0666 0.2134,0.22749 0.4745,0.36097 0.619,0.31576 1.4685,0.60669 1.4685,0.50303 0,-0.0462 -0.1104,-0.29596 -0.2429,-0.5579 -0.1341,-0.26202 -0.2428,-0.57846 -0.2428,-0.70292 0,-0.22757 0.4862,-0.76846 0.9022,-1.00216 0.2169,-0.12179 0.2158,-0.14481 -0.036,-0.71694 -0.1436,-0.32489 -0.2289,-0.6232 -0.1895,-0.66297 0.039,-0.0393 0.2559,0.14481 0.4808,0.41368 0.7003,0.83134 1.0817,1.19922 1.6992,1.63906 0.7389,0.52623 1.1153,1.07149 1.2194,1.7666 0.074,0.49617 0.1104,0.54046 0.5152,0.61629 0.5297,0.0989 3.9668,-0.0371 4.856,-0.19298 0.3532,-0.0622 0.8099,-0.19537 1.0148,-0.29851 0.3926,-0.19531 0.6438,-0.13552 1.1057,0.26816 0.2885,0.25162 0.267,0.38999 -0.06,0.39312 z m -8.978,-0.93591 c -0.2458,-0.18849 -0.5452,-0.51938 -0.6653,-0.73628 -0.2625,-0.47472 -0.3402,-0.48647 -0.5997,-0.092 -0.1671,0.25482 -0.1754,0.3624 -0.051,0.6627 0.1623,0.39182 0.5204,0.55478 1.5925,0.72409 0.5513,0.0872 0.6097,0.0781 0.4068,-0.0573 -0.1293,-0.0896 -0.4376,-0.3139 -0.6835,-0.50186 z m 0.3666,-1.06463 c -0.1215,-0.26908 -0.5876,-0.45016 -0.5876,-0.22979 0,0.11263 0.6056,1.13395 0.6729,1.13395 0.1089,0 0.054,-0.60177 -0.085,-0.90509 z m 0.8684,28.92036 c -0.06,0.1448 -0.2603,0.36216 -0.4477,0.47932 -0.1873,0.11721 -0.3639,0.23029 -0.3926,0.2514 -0.028,0.0233 0.062,0.19302 0.2006,0.37981 0.687,0.92959 0.7153,1.82592 0.085,2.75249 -0.3011,0.44392 -0.3038,0.46691 -0.1199,1.00764 0.3532,1.03674 0.2174,2.51132 -0.2511,2.72457 -0.2371,0.1079 -0.3654,0.0711 -0.7792,-0.2137 -0.771,-0.53446 -0.9671,-0.88905 -0.9671,-1.75027 0,-0.55335 0.079,-0.89805 0.3035,-1.34337 0.3816,-0.75306 0.3865,-0.97182 0.022,-0.97182 -0.3523,0 -0.6924,0.36402 -1.0984,1.1756 -0.1731,0.34584 -0.3704,0.66347 -0.4386,0.70546 -0.267,0.16547 -0.09,0.51985 0.6406,1.27675 0.4187,0.43407 1.0016,1.08987 1.295,1.45706 0.2937,0.36748 0.8351,0.98075 1.2036,1.36289 0.3685,0.3824 0.6427,0.72245 0.6094,0.756 -0.1561,0.15631 -1.0517,-0.67051 -2.3244,-2.1444 -1.8995,-2.19951 -1.7698,-2.10211 -2.7419,-2.05867 -0.7395,0.0323 -0.8606,0 -1.3965,-0.35433 -0.8063,-0.53676 -1.8783,-1.53405 -2.091,-1.94492 -0.098,-0.18841 -0.1762,-0.58849 -0.1762,-0.89136 0,-0.43087 0.073,-0.63288 0.3387,-0.92948 0.3057,-0.34216 0.4054,-0.37854 1.0219,-0.37087 0.8649,0.0233 2.0832,0.56155 2.7546,1.24656 l 0.475,0.48461 0.3105,-0.31041 c 0.3969,-0.39706 0.8491,-0.39801 1.5916,0 0.6587,0.35018 0.8311,0.28885 1.1182,-0.3987 0.2805,-0.67096 0.022,-1.38128 -0.7334,-2.00305 -0.8845,-0.72983 -1.7827,-1.57798 -1.8984,-1.79282 -0.2121,-0.39529 0,-0.7951 0.5555,-1.03865 0.486,-0.21373 0.5357,-0.27458 0.5366,-0.66114 0,-0.67352 -0.177,-1.11747 -0.6511,-1.617 -0.2424,-0.25503 -0.4406,-0.53496 -0.4406,-0.62204 0,-0.0872 0.1151,-0.41915 0.2566,-0.73829 0.2264,-0.51176 0.2393,-0.63886 0.1089,-1.07799 -0.2952,-1.00002 -0.5935,-1.37575 -1.2644,-1.59359 -4.9112,-2.06467 -2.7594,-6.7537 0.2634,-1.68343 0.6553,1.12207 0.7579,1.19721 1.5816,1.16276 0.694,-0.03 0.9544,-0.12636 0.6347,-0.24085 -0.3565,-0.12636 -1.4177,-1.2406 -1.6788,-1.76339 -0.3217,-0.64384 -0.3584,-1.5561 -0.071,-1.79348 0.1658,-0.13788 0.3098,-0.10113 0.9714,0.24124 0.4275,0.22061 0.7769,0.45154 0.7769,0.51105 0,0.0596 0.1026,0.10792 0.2289,0.10792 0.5342,0 1.1589,-1.75191 1.086,-3.04445 -0.025,-0.46287 -0.028,-0.84178 -0.016,-0.84178 0.022,0 0.2568,0.17235 0.5202,0.38468 0.4697,0.3778 0.4785,0.39939 0.4785,1.18457 0,0.91204 -0.3116,2.12259 -0.7668,2.97741 -0.2573,0.48323 -0.2997,0.69209 -0.2455,1.20684 0.054,0.50686 0.142,0.69326 0.4783,1.00489 0.2269,0.2114 0.4126,0.43728 0.4126,0.5039 0,0.18843 -1.0637,0.39822 -2.1598,0.42508 -0.5475,0.0233 -0.9957,0.0549 -0.9965,0.092 0,0.0371 0.1309,0.34174 0.292,0.67585 0.2455,0.50922 0.3707,0.63101 0.7716,0.75116 0.9603,0.28773 2.0927,1.67335 2.0927,2.56082 0,0.73205 -0.6769,1.11011 -1.427,0.79669 -0.3765,-0.15862 -0.3938,-0.15161 -0.3804,0.10096 0.036,0.6898 0.188,0.92787 0.9356,1.47688 0.9637,0.70728 1.2622,1.30037 0.992,1.97085 z m -1.1612,-1.59338 c -0.3048,-0.30493 -0.5083,-0.22288 -0.6656,0.26451 -0.08,0.25048 -0.199,0.52139 -0.2629,0.60208 -0.1754,0.22059 0,0.39984 0.391,0.39984 0.608,0 0.9645,-0.83968 0.5375,-1.26643 z m -0.1931,-4.25336 c -0.2513,-0.5515 -0.9519,-0.37272 -0.9519,0.24334 0,0.4019 0.417,1.26889 0.6105,1.26889 0.4214,0 0.6231,-0.89387 0.3414,-1.51223 z m -1.0345,-5.15834 c 0.033,-0.17232 0.095,-0.42143 0.1372,-0.55494 0.1168,-0.36356 -0.1861,-0.68453 -0.6679,-0.70818 l -0.4196,-0.0233 0.03,0.58208 c 0.038,0.7362 0.2997,1.24568 0.7955,1.54784 0.5928,0.36147 0.7632,0.29667 0.3892,-0.14703 -0.2299,-0.27321 -0.3075,-0.47768 -0.265,-0.6985 z m -2.6617,0.48715 c -2.2587,-3.85149 -2.3284,0.48554 -0.054,1.06828 0.6321,0.14245 0.6392,0 0.054,-1.06828 z m -0.049,14.50205 c -0.096,0.0571 -0.1026,0.12856 -0.022,0.20907 0.066,0.0666 0.1858,0.0803 0.2643,0.0323 0.095,-0.0571 0.1026,-0.12872 0.022,-0.2091 -0.066,-0.0666 -0.1857,-0.0805 -0.2641,-0.0323 z m -0.7591,-0.0434 c -0.2838,-0.33734 -0.773,-0.83711 -1.0871,-1.11037 l -0.571,-0.49655 -0.1879,0.36328 c -0.5662,1.09495 0.2734,2.31854 1.5906,2.31854 0.9594,0 1.0036,-0.18611 0.2554,-1.0749 z m -0.1664,-1.70897 c -0.3088,-0.0781 -0.5861,-0.11721 -0.6162,-0.0872 -0.1294,0.12872 0.357,0.80907 0.6262,0.8764 0.382,0.0965 0.5511,-0.0233 0.5511,-0.36674 0,-0.23392 -0.096,-0.30586 -0.5611,-0.4233 z"
         id="path8939"
         sodipodi:nodetypes="ssssssscsssssccsssssssssssssssscssssssscccsscssccsssscsssssssssssssscssssscscsssscssssssssssccsssssscssscsssscsccsssssssssssssssssscssccssssssscssssssssssssss"
         inkscape:export-xdpi="96"
         inkscape:export-ydpi="96" />
    </clipPath>
  </defs>
  <sodipodi:namedview
     id="base"
     pagecolor="#ffffff"
     bordercolor="#666666"
     borderopacity="1.0"
     inkscape:pageopacity="0.0"
     inkscape:pageshadow="2"
     inkscape:zoom="0.7225416"
     inkscape:cx="-87.884213"
     inkscape:cy="161.92839"
     inkscape:document-units="mm"
     inkscape:current-layer="layer1"
     inkscape:document-rotation="0"
     showgrid="false"
     inkscape:window-width="1920"
     inkscape:window-height="1017"
     inkscape:window-x="-8"
     inkscape:window-y="-8"
     inkscape:window-maximized="1"
     units="px"
     inkscape:pagecheckerboard="0"
     fit-margin-top="0"
     fit-margin-left="0"
     fit-margin-right="0"
     fit-margin-bottom="0" />
  <metadata
     id="metadata5">
    <rdf:RDF>
      <cc:Work
         rdf:about="">
        <dc:format>image/svg+xml</dc:format>
        <dc:type
           rdf:resource="http://purl.org/dc/dcmitype/StillImage" />
      </cc:Work>
    </rdf:RDF>
  </metadata>
  <g
     inkscape:label="Calque 1"
     inkscape:groupmode="layer"
     id="layer1"
     transform="translate(-275.04182,118.56751)">
    <rect
       y="-214.17497"
       x="22.76214"
       height="264.33151"
       width="502.40475"
       id="rect8149-2-6-4-6-2-1"
       style="opacity:0;fill:none;fill-opacity:1;fill-rule:nonzero;stroke:none;stroke-width:0.94515;stroke-linecap:square;stroke-linejoin:round;stroke-miterlimit:4;stroke-dasharray:none;stroke-dashoffset:0;stroke-opacity:1;paint-order:markers stroke fill" />
    <path
       inkscape:original-d="m 286.51742,-115.97868 c 0,0 -1.062,-0.51688 -1.5929,-0.77582 -0.5308,-0.25895 -1.1466,-0.80465 -1.7197,-1.20748 -0.5732,-0.40283 -1.5693,-0.40109 -2.3538,-0.60214 -0.7845,-0.20104 -1.9479,0.38981 -2.9218,0.5842 -0.9738,0.19439 -2.8874,2.65069 -2.8874,2.65069 0,0 0.5519,0.72212 1.2883,1.05223 0.7365,0.33011 1.1575,1.07392 2.2096,0.98931 1.0521,-0.0846 2.3579,0.11677 3.1567,-0.25481 0.7988,-0.37157 1.8726,-0.8085 2.3966,-1.11574 0.5239,-0.30725 1.572,-0.92274 1.572,-0.92274 0,0 0.8524,-0.39769 0.8524,-0.39769 z"
       inkscape:path-effect="#path-effect1347"
       inkscape:connector-curvature="0"
       id="path994-9-8-3-6-6-23-8-1-0-4-5-0"
       d="m 286.51742,-115.97868 c -0.56252,-0.18569 -1.09989,-0.44741 -1.5929,-0.77582 -0.58338,-0.3886 -1.10528,-0.87009 -1.7197,-1.20748 -0.71647,-0.39343 -1.53684,-0.57575 -2.3538,-0.60214 -1.00159,-0.0323 -2.01095,0.16636 -2.9218,0.5842 -1.2071,0.55375 -2.23267,1.49524 -2.8874,2.65069 0.39647,0.3887 0.82825,0.74137 1.2883,1.05223 0.67288,0.45467 1.41482,0.82254 2.2096,0.98931 1.04525,0.21932 2.14284,0.081 3.1567,-0.25481 0.83781,-0.27745 1.62604,-0.68546 2.3966,-1.11574 0.53054,-0.29626 1.0547,-0.60393 1.572,-0.92274 l 0.8524,-0.39769 z"
       style="fill:#5f0100;fill-opacity:1;stroke:none;stroke-width:0.245653px;stroke-linecap:butt;stroke-linejoin:miter;stroke-opacity:1" />
  </g>
</svg>
