<?xml version="1.0" encoding="UTF-8" standalone="no"?>
<svg
   xmlns:dc="http://purl.org/dc/elements/1.1/"
   xmlns:cc="http://creativecommons.org/ns#"
   xmlns:rdf="http://www.w3.org/1999/02/22-rdf-syntax-ns#"
   xmlns:svg="http://www.w3.org/2000/svg"
   xmlns="http://www.w3.org/2000/svg"
   xmlns:sodipodi="http://sodipodi.sourceforge.net/DTD/sodipodi-0.dtd"
   xmlns:inkscape="http://www.inkscape.org/namespaces/inkscape"
   width="9.7716846mm"
   height="14.098931mm"
   viewBox="0 0 9.7716847 14.098931"
   version="1.1"
   id="svg8"
   inkscape:version="1.0.2-2 (e86c870879, 2021-01-15)"
   sodipodi:docname="Feuille 004'.svg">
  <defs
     id="defs2">
    <inkscape:path-effect
       effect="spiro"
       id="path-effect11519"
       is_visible="true"
       lpeversion="0" />
    <inkscape:path-effect
       effect="spiro"
       id="path-effect70432"
       is_visible="true"
       lpeversion="0" />
    <inkscape:path-effect
       effect="spiro"
       id="path-effect13651"
       is_visible="true"
       lpeversion="0" />
  </defs>
  <sodipodi:namedview
     id="base"
     pagecolor="#ffffff"
     bordercolor="#666666"
     borderopacity="1.0"
     inkscape:pageopacity="0.0"
     inkscape:pageshadow="2"
     inkscape:zoom="3.959798"
     inkscape:cx="25.894363"
     inkscape:cy="24.541176"
     inkscape:document-units="mm"
     inkscape:current-layer="layer1"
     inkscape:document-rotation="0"
     showgrid="false"
     fit-margin-top="0"
     fit-margin-left="0"
     fit-margin-right="0"
     fit-margin-bottom="0"
     inkscape:window-width="958"
     inkscape:window-height="1018"
     inkscape:window-x="946"
     inkscape:window-y="0"
     inkscape:window-maximized="0" />
  <metadata
     id="metadata5">
    <rdf:RDF>
      <cc:Work
         rdf:about="">
        <dc:format>image/svg+xml</dc:format>
        <dc:type
           rdf:resource="http://purl.org/dc/dcmitype/StillImage" />
        <dc:title />
      </cc:Work>
    </rdf:RDF>
  </metadata>
  <g
     inkscape:label="Calque 1"
     inkscape:groupmode="layer"
     id="layer1"
     transform="translate(-110.66264,-156.74427)">
    <path
       inkscape:original-d="m 119.35087,157.27344 c -0.51885,0.043 -1.0369,0.086 -1.55469,0.12867 -0.51752,0.0429 -2.26166,0.77039 -3.39196,1.15549 -1.1303,0.38494 -1.74704,2.47589 -2.62017,3.71364 -0.87286,1.2378 -0.0418,3.346 -0.0616,5.01896 -0.0212,1.67285 0.0648,0.92985 0.0984,1.39467 0.0331,0.46479 -0.62918,1.62928 -0.62918,1.62928 0,0 1.16734,-0.52837 2.01163,-1.1593 0.84508,-0.63082 1.7907,-0.93522 2.72256,-1.9866 0.93186,-1.05137 2.02697,-1.76858 2.56275,-3.06104 0.53605,-1.29233 1.39145,-3.39947 1.37478,-4.11149 -0.0185,-0.71194 -0.0288,-2.05209 -0.049,-2.13628 -0.0212,-0.084 0.0765,-0.14118 -0.0593,-0.25259 -0.13547,-0.11105 0.11403,-0.37651 -0.40429,-0.33341 z"
       inkscape:path-effect="#path-effect13651"
       inkscape:connector-curvature="0"
       id="path1010-4-1-5-8-7-1-0-7-6-2"
       d="m 119.35087,157.27344 c -0.52008,0.014 -1.03938,0.057 -1.55469,0.12867 -1.19284,0.16597 -2.38451,0.49559 -3.39196,1.15549 -1.29566,0.84868 -2.21585,2.21848 -2.62017,3.71364 -0.43982,1.62644 -0.29323,3.35009 -0.0616,5.01896 0.0642,0.4626 0.13487,0.92907 0.0984,1.39467 -0.0461,0.58864 -0.26769,1.16243 -0.62918,1.62928 0.68389,-0.36263 1.35499,-0.74938 2.01163,-1.1593 0.95408,-0.5956 1.87976,-1.24181 2.72256,-1.9866 1.00128,-0.88484 1.88391,-1.91009 2.56275,-3.06104 0.74001,-1.25465 1.23451,-2.66163 1.37478,-4.11149 0.0688,-0.71067 0.0527,-1.42958 -0.049,-2.13628 -0.0124,-0.0858 -0.0262,-0.17242 -0.0593,-0.25259 -0.0694,-0.16812 -0.22604,-0.29734 -0.40429,-0.33341 z"
       style="fill:#fbf7ee;fill-opacity:1;stroke:#112f25;stroke-width:1.05833;stroke-linecap:round;stroke-linejoin:round;stroke-miterlimit:5;stroke-dasharray:none;stroke-opacity:1;paint-order:markers stroke fill"
       sodipodi:nodetypes="sssscscsssccss" />
    <g
       aria-label="004'"
       transform="rotate(-61.234006)"
       id="text8537-8-1-9-8-2-7-6-8-0-0-0-7-6-4-3-5"
       style="font-style:normal;font-variant:normal;font-weight:normal;font-stretch:normal;font-size:4.06202px;line-height:0.758097px;font-family:Respira;-inkscape-font-specification:Respira;font-variant-ligatures:normal;font-variant-caps:normal;font-variant-numeric:normal;font-feature-settings:normal;text-align:start;letter-spacing:0px;word-spacing:0px;writing-mode:lr-tb;text-anchor:start;fill:#112f25;fill-opacity:1;stroke:none;stroke-width:0.0555622">
      <path
         d="m -91.134728,178.34316 q 0.264031,0 0.467132,0.0745 0.203101,0.0745 0.338501,0.21326 0.138786,0.13878 0.206486,0.33511 0.07109,0.19633 0.07109,0.44344 0,0.19972 -0.05416,0.36558 -0.05416,0.16248 -0.145556,0.2945 -0.0914,0.12863 -0.209871,0.23018 -0.118476,0.0982 -0.247106,0.17264 0.05416,-0.10833 0.07785,-0.26742 0.02369,-0.16248 0.02369,-0.33512 0,-0.29111 -0.07447,-0.49421 -0.07109,-0.2031 -0.203101,-0.32835 -0.132016,-0.12863 -0.318192,-0.18617 -0.186176,-0.0576 -0.416357,-0.0576 -0.189561,0 -0.311421,0.0474 -0.121861,0.0474 -0.186176,0.0812 0.07447,-0.12186 0.165866,-0.23018 0.0914,-0.10832 0.209871,-0.18617 0.118475,-0.0812 0.267416,-0.12525 0.148941,-0.0474 0.338502,-0.0474 z m -0.555143,2.66739 q -0.250491,0 -0.453592,-0.0677 -0.203101,-0.0711 -0.348657,-0.20648 -0.142171,-0.1354 -0.220026,-0.32835 -0.07786,-0.19633 -0.07786,-0.44682 0,-0.18279 0.05755,-0.33173 0.05755,-0.15233 0.14894,-0.27758 0.09478,-0.12863 0.213256,-0.23018 0.121861,-0.10493 0.250492,-0.18617 -0.05416,0.10832 -0.07786,0.24372 -0.02369,0.13201 -0.02369,0.30465 0,0.29111 0.07109,0.4976 0.07447,0.2031 0.209871,0.33173 0.1354,0.12863 0.331731,0.18618 0.196331,0.0575 0.446822,0.0575 0.169251,0 0.274187,-0.0203 0.104935,-0.0237 0.176021,-0.0609 -0.06093,0.10832 -0.145556,0.20649 -0.08124,0.0948 -0.199716,0.16925 -0.115091,0.0745 -0.270801,0.11509 -0.155711,0.044 -0.362197,0.044 z"
         style="font-style:normal;font-variant:normal;font-weight:normal;font-stretch:normal;font-size:4.06202px;font-family:Respira;-inkscape-font-specification:Respira;fill:#112f25;fill-opacity:1;stroke-width:0.0555622"
         id="path836" />
      <path
         d="m -88.108528,178.34316 q 0.264031,0 0.467132,0.0745 0.203101,0.0745 0.338502,0.21326 0.138786,0.13878 0.206486,0.33511 0.07108,0.19633 0.07108,0.44344 0,0.19972 -0.05416,0.36558 -0.05416,0.16248 -0.145556,0.2945 -0.0914,0.12863 -0.209871,0.23018 -0.118475,0.0982 -0.247106,0.17264 0.05416,-0.10833 0.07786,-0.26742 0.02369,-0.16248 0.02369,-0.33512 0,-0.29111 -0.07447,-0.49421 -0.07108,-0.2031 -0.203101,-0.32835 -0.132015,-0.12863 -0.318191,-0.18617 -0.186176,-0.0576 -0.416357,-0.0576 -0.189561,0 -0.311422,0.0474 -0.12186,0.0474 -0.186176,0.0812 0.07447,-0.12186 0.165866,-0.23018 0.0914,-0.10832 0.209871,-0.18617 0.118476,-0.0812 0.267416,-0.12525 0.148941,-0.0474 0.338502,-0.0474 z m -0.555143,2.66739 q -0.250491,0 -0.453592,-0.0677 -0.203101,-0.0711 -0.348657,-0.20648 -0.14217,-0.1354 -0.220026,-0.32835 -0.07785,-0.19633 -0.07785,-0.44682 0,-0.18279 0.05755,-0.33173 0.05755,-0.15233 0.148941,-0.27758 0.09478,-0.12863 0.213256,-0.23018 0.121861,-0.10493 0.250491,-0.18617 -0.05416,0.10832 -0.07785,0.24372 -0.02369,0.13201 -0.02369,0.30465 0,0.29111 0.07108,0.4976 0.07447,0.2031 0.209871,0.33173 0.135401,0.12863 0.331732,0.18618 0.196331,0.0575 0.446822,0.0575 0.169251,0 0.274186,-0.0203 0.104936,-0.0237 0.176021,-0.0609 -0.06093,0.10832 -0.145556,0.20649 -0.08124,0.0948 -0.199716,0.16925 -0.11509,0.0745 -0.270801,0.11509 -0.155711,0.044 -0.362197,0.044 z"
         style="font-style:normal;font-variant:normal;font-weight:normal;font-stretch:normal;font-size:4.06202px;font-family:Respira;-inkscape-font-specification:Respira;fill:#112f25;fill-opacity:1;stroke-width:0.0555622"
         id="path838" />
      <path
         d="m -85.119563,180.38433 q 0,-0.21326 0,-0.4299 0.0034,-0.21664 0.0034,-0.41297 0,-0.19972 0,-0.36897 0.0034,-0.17264 0.0034,-0.29788 l 0.561913,-0.589 0.01016,2.09872 h 0.155711 q 0.186176,0 0.297881,-0.0169 0.115091,-0.0169 0.192946,-0.0575 0.08124,-0.044 0.142171,-0.11509 0.06431,-0.0745 0.145556,-0.18279 l 0.02031,0.0135 q -0.07108,0.0812 -0.152326,0.19295 -0.07785,0.1117 -0.162481,0.23695 -0.08124,0.12186 -0.16248,0.25388 -0.07786,0.12863 -0.145556,0.25049 h -0.328347 q 0.0034,0.14217 0.0034,0.25726 0,0.11509 0.0034,0.19972 0.0034,0.18956 0.01354,0.29788 0.01354,0.1117 0.03385,0.16925 0.0237,0.0575 0.05078,0.0778 0.03047,0.0237 0.0677,0.0339 h -0.927494 q 0.044,-0.0135 0.07447,-0.0305 0.03046,-0.0169 0.04739,-0.0643 0.02031,-0.0474 0.03047,-0.1354 0.01015,-0.088 0.01015,-0.2471 0,-0.0982 0,-0.24373 0.0034,-0.14217 0.0034,-0.3148 h -1.773748 l -0.01015,-0.0203 0.463747,-0.52468 q 0.01354,-0.0102 0.02708,-0.0135 0.01693,-0.007 0.044,-0.0102 0.03047,-0.003 0.07786,-0.003 0.05078,-0.003 0.132015,-0.003 z m -1.232146,-0.0711 q 0.230182,-0.28434 0.338502,-0.55853 0.111706,-0.27418 0.115091,-0.50098 0.0034,-0.2268 -0.108321,-0.34527 -0.111705,-0.12186 -0.331732,-0.12186 -0.07785,0 -0.152325,0.0237 -0.07447,0.0237 -0.135401,0.0711 0.04739,-0.0948 0.111706,-0.18956 0.06432,-0.0982 0.145555,-0.17602 0.08463,-0.0779 0.189561,-0.12525 0.108321,-0.0508 0.243721,-0.0508 0.132016,0 0.236952,0.0406 0.104935,0.0372 0.17602,0.10493 0.07109,0.0677 0.108321,0.16587 0.04062,0.0948 0.04062,0.20987 0,0.19971 -0.08462,0.38589 -0.08463,0.18618 -0.223411,0.36558 -0.135401,0.17602 -0.311422,0.35204 -0.176021,0.17264 -0.358812,0.34866 z"
         style="font-style:normal;font-variant:normal;font-weight:normal;font-stretch:normal;font-size:4.06202px;font-family:Respira;-inkscape-font-specification:Respira;fill:#112f25;fill-opacity:1;stroke-width:0.0555622"
         id="path840" />
      <path
         d="m -83.437216,177.71016 q 0.06093,0 0.10155,0.0474 0.04401,0.044 0.04401,0.10494 0,0.0271 -0.01016,0.12524 -0.01016,0.0982 -0.02708,0.24711 -0.01354,0.14556 -0.03385,0.32835 -0.01693,0.18279 -0.03385,0.37912 -0.01693,0.19633 -0.03046,0.39604 -0.01354,0.19634 -0.02031,0.37236 -0.0068,-0.17602 -0.02031,-0.37236 -0.01354,-0.19633 -0.03047,-0.39266 -0.01354,-0.19633 -0.03385,-0.37912 -0.01693,-0.18617 -0.03046,-0.33173 -0.01354,-0.14556 -0.0237,-0.24372 -0.0068,-0.0982 -0.0068,-0.12525 0,-0.0609 0.04739,-0.10832 0.05078,-0.0474 0.108321,-0.0474 z"
         style="font-style:normal;font-variant:normal;font-weight:normal;font-stretch:normal;font-size:4.06202px;font-family:Respira;-inkscape-font-specification:Respira;fill:#112f25;fill-opacity:1;stroke-width:0.0555622"
         id="path842" />
    </g>
  </g>
</svg>
