<?xml version="1.0" encoding="UTF-8" standalone="no"?>
<svg
   xmlns:dc="http://purl.org/dc/elements/1.1/"
   xmlns:cc="http://creativecommons.org/ns#"
   xmlns:rdf="http://www.w3.org/1999/02/22-rdf-syntax-ns#"
   xmlns:svg="http://www.w3.org/2000/svg"
   xmlns="http://www.w3.org/2000/svg"
   xmlns:sodipodi="http://sodipodi.sourceforge.net/DTD/sodipodi-0.dtd"
   xmlns:inkscape="http://www.inkscape.org/namespaces/inkscape"
   width="6.875237mm"
   height="14.07631mm"
   viewBox="0 0 6.875237 14.07631"
   version="1.1"
   id="svg8"
   inkscape:version="1.0.2-2 (e86c870879, 2021-01-15)"
   sodipodi:docname="Feuille 002' Hover.svg">
  <defs
     id="defs2">
    <inkscape:path-effect
       effect="spiro"
       id="path-effect11136"
       is_visible="true"
       lpeversion="0" />
  </defs>
  <sodipodi:namedview
     id="base"
     pagecolor="#ffffff"
     bordercolor="#666666"
     borderopacity="1.0"
     inkscape:pageopacity="0.0"
     inkscape:pageshadow="2"
     inkscape:zoom="3.959798"
     inkscape:cx="27.099934"
     inkscape:cy="39.728503"
     inkscape:document-units="mm"
     inkscape:current-layer="layer1"
     inkscape:document-rotation="0"
     showgrid="false"
     fit-margin-top="0"
     fit-margin-left="0"
     fit-margin-right="0"
     fit-margin-bottom="0"
     inkscape:window-width="958"
     inkscape:window-height="1018"
     inkscape:window-x="946"
     inkscape:window-y="0"
     inkscape:window-maximized="0" />
  <metadata
     id="metadata5">
    <rdf:RDF>
      <cc:Work
         rdf:about="">
        <dc:format>image/svg+xml</dc:format>
        <dc:type
           rdf:resource="http://purl.org/dc/dcmitype/StillImage" />
        <dc:title />
      </cc:Work>
    </rdf:RDF>
  </metadata>
  <g
     inkscape:label="Calque 1"
     inkscape:groupmode="layer"
     id="layer1"
     transform="translate(-110.34366,-152.72596)">
    <path
       inkscape:connector-curvature="0"
       id="path44-0-3-2-44-8-8-8-4-8"
       d="m 115.30659,166.80227 c 0,0 2.01533,-4.01029 1.90818,-6.55564 -0.1069,-2.54534 -0.55933,-5.16368 -2.77046,-7.52067 0,0 -3.2295,0.90863 -3.91054,4.02243 -0.68051,3.11375 0.5588,5.64539 2.24129,7.33491 1.68248,1.68953 2.53153,2.71897 2.53153,2.71897 z"
       style="fill:#112f25;fill-opacity:1;stroke:none;stroke-width:1.05833;stroke-linecap:butt;stroke-linejoin:miter;stroke-miterlimit:4;stroke-dasharray:none;stroke-opacity:1;paint-order:markers stroke fill" />
    <g
       aria-label="002'"
       transform="rotate(81.897637)"
       id="text8537-8-1-9-8-2-7-6-8-0-0-0-7-3-1-9-1"
       style="font-style:normal;font-variant:normal;font-weight:normal;font-stretch:normal;font-size:4.06202px;line-height:0.758097px;font-family:Respira;-inkscape-font-specification:Respira;font-variant-ligatures:normal;font-variant-caps:normal;font-variant-numeric:normal;font-feature-settings:normal;text-align:start;letter-spacing:0px;word-spacing:0px;writing-mode:lr-tb;text-anchor:start;fill:#fbf7ee;fill-opacity:1;stroke:none;stroke-width:0.0555622">
      <path
         d="m 170.75628,-91.303225 q 0.26403,0 0.46713,0.07447 0.2031,0.07447 0.3385,0.213256 0.13879,0.138786 0.20649,0.335117 0.0711,0.196331 0.0711,0.443437 0,0.199716 -0.0542,0.365582 -0.0542,0.162481 -0.14555,0.294496 -0.0914,0.128631 -0.20987,0.230181 -0.11848,0.09817 -0.24711,0.172636 0.0542,-0.10832 0.0779,-0.267416 0.0237,-0.162481 0.0237,-0.335117 0,-0.291111 -0.0745,-0.494212 -0.0711,-0.203101 -0.2031,-0.328347 -0.13202,-0.12863 -0.31819,-0.186176 -0.18618,-0.05754 -0.41636,-0.05754 -0.18956,0 -0.31142,0.04739 -0.12186,0.04739 -0.18618,0.08124 0.0745,-0.121861 0.16587,-0.230181 0.0914,-0.108321 0.20987,-0.186176 0.11848,-0.08124 0.26742,-0.125246 0.14894,-0.04739 0.3385,-0.04739 z m -0.55514,2.667393 q -0.2505,0 -0.4536,-0.0677 -0.2031,-0.07109 -0.34865,-0.206486 -0.14217,-0.135401 -0.22003,-0.328347 -0.0779,-0.196331 -0.0779,-0.446822 0,-0.182791 0.0575,-0.331732 0.0576,-0.152326 0.14894,-0.277571 0.0948,-0.128631 0.21326,-0.230181 0.12186,-0.104936 0.25049,-0.186176 -0.0542,0.10832 -0.0779,0.243721 -0.0237,0.132016 -0.0237,0.304651 0,0.291112 0.0711,0.497598 0.0745,0.203101 0.20987,0.331731 0.1354,0.128631 0.33174,0.186176 0.19633,0.05755 0.44682,0.05755 0.16925,0 0.27418,-0.02031 0.10494,-0.0237 0.17603,-0.06093 -0.0609,0.108321 -0.14556,0.206486 -0.0812,0.09478 -0.19972,0.169251 -0.11509,0.07447 -0.2708,0.115091 -0.15571,0.04401 -0.36219,0.04401 z"
         style="font-style:normal;font-variant:normal;font-weight:normal;font-stretch:normal;font-size:4.06202px;font-family:Respira;-inkscape-font-specification:Respira;fill:#fbf7ee;fill-opacity:1;stroke-width:0.0555622"
         id="path834" />
      <path
         d="m 173.78248,-91.303225 q 0.26403,0 0.46713,0.07447 0.2031,0.07447 0.3385,0.213256 0.13879,0.138786 0.20649,0.335117 0.0711,0.196331 0.0711,0.443437 0,0.199716 -0.0542,0.365582 -0.0542,0.162481 -0.14555,0.294496 -0.0914,0.128631 -0.20987,0.230181 -0.11848,0.09817 -0.24711,0.172636 0.0542,-0.10832 0.0779,-0.267416 0.0237,-0.162481 0.0237,-0.335117 0,-0.291111 -0.0745,-0.494212 -0.0711,-0.203101 -0.2031,-0.328347 -0.13202,-0.12863 -0.31819,-0.186176 -0.18618,-0.05754 -0.41636,-0.05754 -0.18956,0 -0.31142,0.04739 -0.12186,0.04739 -0.18618,0.08124 0.0745,-0.121861 0.16587,-0.230181 0.0914,-0.108321 0.20987,-0.186176 0.11848,-0.08124 0.26742,-0.125246 0.14894,-0.04739 0.3385,-0.04739 z m -0.55514,2.667393 q -0.2505,0 -0.4536,-0.0677 -0.2031,-0.07109 -0.34865,-0.206486 -0.14217,-0.135401 -0.22003,-0.328347 -0.0779,-0.196331 -0.0779,-0.446822 0,-0.182791 0.0575,-0.331732 0.0575,-0.152326 0.14894,-0.277571 0.0948,-0.128631 0.21326,-0.230181 0.12186,-0.104936 0.25049,-0.186176 -0.0542,0.10832 -0.0779,0.243721 -0.0237,0.132016 -0.0237,0.304651 0,0.291112 0.0711,0.497598 0.0745,0.203101 0.20987,0.331731 0.13541,0.128631 0.33174,0.186176 0.19633,0.05755 0.44682,0.05755 0.16925,0 0.27418,-0.02031 0.10494,-0.0237 0.17603,-0.06093 -0.0609,0.108321 -0.14556,0.206486 -0.0812,0.09478 -0.19972,0.169251 -0.11509,0.07447 -0.2708,0.115091 -0.15571,0.04401 -0.36219,0.04401 z"
         style="font-style:normal;font-variant:normal;font-weight:normal;font-stretch:normal;font-size:4.06202px;font-family:Respira;-inkscape-font-specification:Respira;fill:#fbf7ee;fill-opacity:1;stroke-width:0.0555622"
         id="path836" />
      <path
         d="m 176.19261,-90.15232 q -0.12525,0.236952 -0.28096,0.379122 -0.15571,0.142171 -0.35204,0.142171 -0.19295,0 -0.30465,-0.10832 -0.11171,-0.111706 -0.11171,-0.284342 0,-0.203101 0.1591,-0.392662 0.16248,-0.192946 0.44005,-0.341886 -0.0372,0.0677 -0.0609,0.14894 -0.0203,0.07786 -0.0203,0.155711 0,0.07447 0.0203,0.145556 0.0237,0.0677 0.0643,0.12186 0.0406,0.05416 0.0982,0.08801 0.0575,0.03046 0.12524,0.03046 0.0643,0 0.11848,-0.01693 0.0542,-0.02031 0.10494,-0.0677 z m -0.23357,0.819174 q 0.2268,-0.192945 0.39266,-0.338501 0.16587,-0.145556 0.27419,-0.264031 0.10832,-0.118476 0.15909,-0.216642 0.0542,-0.10155 0.0542,-0.199715 0,-0.236952 -0.17263,-0.372352 -0.16925,-0.135401 -0.47052,-0.135401 -0.12524,0 -0.24372,0.02708 -0.11848,0.0237 -0.20649,0.07109 0.0643,-0.111706 0.15571,-0.209872 0.0914,-0.09816 0.20988,-0.172635 0.11847,-0.07447 0.26403,-0.115091 0.14894,-0.044 0.32834,-0.044 0.19633,0 0.34528,0.04739 0.14894,0.044 0.2471,0.128631 0.10155,0.08124 0.15233,0.196331 0.0508,0.11509 0.0508,0.257261 0,0.138786 -0.0711,0.257261 -0.0677,0.118476 -0.18618,0.230181 -0.11847,0.108321 -0.27419,0.209871 -0.15232,0.101551 -0.32496,0.206486 -0.17263,0.101551 -0.34865,0.209871 -0.17602,0.108321 -0.33512,0.226796 z m -0.0846,0.06093 q 0.0711,-0.03385 0.39605,-0.03385 h 0.87672 q 0.18956,0 0.31481,-0.02369 0.12524,-0.02708 0.21325,-0.07109 0.088,-0.04739 0.15233,-0.11509 0.0643,-0.0677 0.13201,-0.155711 l 0.0203,0.01354 q -0.0711,0.08124 -0.15571,0.199716 -0.0846,0.11509 -0.17263,0.247106 -0.0846,0.132016 -0.16925,0.270801 -0.0812,0.135401 -0.15233,0.257262 h -2.11902 l -0.0102,-0.01354 z"
         style="font-style:normal;font-variant:normal;font-weight:normal;font-stretch:normal;font-size:4.06202px;font-family:Respira;-inkscape-font-specification:Respira;fill:#fbf7ee;fill-opacity:1;stroke-width:0.0555622"
         id="path838" />
      <path
         d="m 178.04759,-91.936223 q 0.0609,0 0.10156,0.04739 0.044,0.044 0.044,0.104936 0,0.02708 -0.0102,0.125245 -0.0102,0.09817 -0.0271,0.247106 -0.0135,0.145556 -0.0339,0.328347 -0.0169,0.182791 -0.0339,0.379122 -0.0169,0.196331 -0.0305,0.396047 -0.0135,0.196331 -0.0203,0.372352 -0.007,-0.176021 -0.0203,-0.372352 -0.0135,-0.196331 -0.0305,-0.392662 -0.0135,-0.196331 -0.0339,-0.379122 -0.0169,-0.186176 -0.0305,-0.331732 -0.0135,-0.145555 -0.0237,-0.243721 -0.007,-0.09817 -0.007,-0.125245 0,-0.06093 0.0474,-0.108321 0.0508,-0.04739 0.10832,-0.04739 z"
         style="font-style:normal;font-variant:normal;font-weight:normal;font-stretch:normal;font-size:4.06202px;font-family:Respira;-inkscape-font-specification:Respira;fill:#fbf7ee;fill-opacity:1;stroke-width:0.0555622"
         id="path840" />
    </g>
  </g>
</svg>
