<?xml version="1.0" encoding="UTF-8" standalone="no"?>
<svg
   xmlns:dc="http://purl.org/dc/elements/1.1/"
   xmlns:cc="http://creativecommons.org/ns#"
   xmlns:rdf="http://www.w3.org/1999/02/22-rdf-syntax-ns#"
   xmlns:svg="http://www.w3.org/2000/svg"
   xmlns="http://www.w3.org/2000/svg"
   xmlns:sodipodi="http://sodipodi.sourceforge.net/DTD/sodipodi-0.dtd"
   xmlns:inkscape="http://www.inkscape.org/namespaces/inkscape"
   width="11.09424mm"
   height="8.9585161mm"
   viewBox="0 0 11.09424 8.9585162"
   version="1.1"
   id="svg8"
   inkscape:version="1.0.2-2 (e86c870879, 2021-01-15)"
   sodipodi:docname="Feuille 004.svg">
  <defs
     id="defs2" />
  <sodipodi:namedview
     id="base"
     pagecolor="#ffffff"
     bordercolor="#666666"
     borderopacity="1.0"
     inkscape:pageopacity="0.0"
     inkscape:pageshadow="2"
     inkscape:zoom="3.959798"
     inkscape:cx="18.59678"
     inkscape:cy="13.336925"
     inkscape:document-units="mm"
     inkscape:current-layer="layer1"
     inkscape:document-rotation="0"
     showgrid="false"
     fit-margin-top="0"
     fit-margin-left="0"
     fit-margin-right="0"
     fit-margin-bottom="0"
     inkscape:window-width="958"
     inkscape:window-height="1018"
     inkscape:window-x="946"
     inkscape:window-y="0"
     inkscape:window-maximized="0" />
  <metadata
     id="metadata5">
    <rdf:RDF>
      <cc:Work
         rdf:about="">
        <dc:format>image/svg+xml</dc:format>
        <dc:type
           rdf:resource="http://purl.org/dc/dcmitype/StillImage" />
        <dc:title />
      </cc:Work>
    </rdf:RDF>
  </metadata>
  <g
     inkscape:label="Calque 1"
     inkscape:groupmode="layer"
     id="layer1"
     transform="translate(-112.59346,-159.70874)">
    <path
       inkscape:connector-curvature="0"
       id="path44-0-5-6-5-2-4-0-4-5-9-3-6"
       d="m 112.59346,159.85833 c 0,0 4.18994,-0.56412 6.21797,0.49858 2.0283,1.06265 3.95896,2.50626 4.87627,5.65417 0,0 -2.21138,2.96937 -5.062,2.50129 -2.85062,-0.46797 -4.35266,-2.68552 -4.96544,-5.04221 -0.61304,-2.35652 -1.0668,-3.61183 -1.0668,-3.61183 z"
       style="fill:#112f25;fill-opacity:1;stroke:none;stroke-width:0.301509px;stroke-linecap:butt;stroke-linejoin:miter;stroke-opacity:1" />
    <g
       aria-label="004"
       transform="rotate(38.700393)"
       id="text8537-8-1-9-8-2-7-6-8-0-0-0-7-3-7-9"
       style="font-style:normal;font-variant:normal;font-weight:normal;font-stretch:normal;font-size:4.06202px;line-height:0.758097px;font-family:Respira;-inkscape-font-specification:Respira;font-variant-ligatures:normal;font-variant-caps:normal;font-variant-numeric:normal;font-feature-settings:normal;text-align:start;letter-spacing:0px;word-spacing:0px;writing-mode:lr-tb;text-anchor:start;fill:#fbf7ee;fill-opacity:1;stroke:none;stroke-width:0.0555622">
      <path
         d="m 191.96056,52.630357 q 0.26403,0 0.46713,0.07447 0.20311,0.07447 0.33851,0.213256 0.13878,0.138785 0.20648,0.335116 0.0711,0.196331 0.0711,0.443437 0,0.199716 -0.0542,0.365582 -0.0542,0.162481 -0.14556,0.294497 -0.0914,0.12863 -0.20987,0.230181 -0.11847,0.09817 -0.24711,0.172636 0.0542,-0.108321 0.0779,-0.267417 0.0237,-0.162481 0.0237,-0.335116 0,-0.291112 -0.0745,-0.494213 -0.0711,-0.203101 -0.2031,-0.328346 -0.13201,-0.128631 -0.31819,-0.186176 -0.18617,-0.05755 -0.41635,-0.05755 -0.18957,0 -0.31143,0.04739 -0.12186,0.04739 -0.18617,0.08124 0.0745,-0.121861 0.16586,-0.230181 0.0914,-0.108321 0.20987,-0.186176 0.11848,-0.08124 0.26742,-0.125246 0.14894,-0.04739 0.3385,-0.04739 z m -0.55514,2.667393 q -0.25049,0 -0.45359,-0.0677 -0.2031,-0.07108 -0.34866,-0.206486 -0.14217,-0.135401 -0.22003,-0.328347 -0.0778,-0.196331 -0.0778,-0.446822 0,-0.182791 0.0575,-0.331732 0.0575,-0.152325 0.14895,-0.277571 0.0948,-0.128631 0.21325,-0.230181 0.12186,-0.104936 0.25049,-0.186176 -0.0542,0.108321 -0.0778,0.243721 -0.0237,0.132016 -0.0237,0.304652 0,0.291111 0.0711,0.497597 0.0745,0.203101 0.20987,0.331732 0.1354,0.12863 0.33173,0.186176 0.19633,0.05754 0.44682,0.05754 0.16925,0 0.27419,-0.02031 0.10493,-0.02369 0.17602,-0.06093 -0.0609,0.10832 -0.14556,0.206486 -0.0812,0.09478 -0.19971,0.16925 -0.11509,0.07447 -0.2708,0.115091 -0.15571,0.044 -0.3622,0.044 z"
         style="font-style:normal;font-variant:normal;font-weight:normal;font-stretch:normal;font-size:4.06202px;font-family:Respira;-inkscape-font-specification:Respira;fill:#fbf7ee;fill-opacity:1;stroke-width:0.0555622"
         id="path833" />
      <path
         d="m 194.98676,52.630357 q 0.26403,0 0.46714,0.07447 0.2031,0.07447 0.3385,0.213256 0.13878,0.138785 0.20648,0.335116 0.0711,0.196331 0.0711,0.443437 0,0.199716 -0.0542,0.365582 -0.0542,0.162481 -0.14556,0.294497 -0.0914,0.12863 -0.20987,0.230181 -0.11847,0.09817 -0.2471,0.172636 0.0542,-0.108321 0.0779,-0.267417 0.0237,-0.162481 0.0237,-0.335116 0,-0.291112 -0.0745,-0.494213 -0.0711,-0.203101 -0.20311,-0.328346 -0.13201,-0.128631 -0.31819,-0.186176 -0.18617,-0.05755 -0.41635,-0.05755 -0.18957,0 -0.31143,0.04739 -0.12186,0.04739 -0.18617,0.08124 0.0745,-0.121861 0.16586,-0.230181 0.0914,-0.108321 0.20988,-0.186176 0.11847,-0.08124 0.26741,-0.125246 0.14894,-0.04739 0.3385,-0.04739 z m -0.55514,2.667393 q -0.25049,0 -0.45359,-0.0677 -0.2031,-0.07108 -0.34866,-0.206486 -0.14217,-0.135401 -0.22002,-0.328347 -0.0779,-0.196331 -0.0779,-0.446822 0,-0.182791 0.0575,-0.331732 0.0575,-0.152325 0.14894,-0.277571 0.0948,-0.128631 0.21325,-0.230181 0.12186,-0.104936 0.25049,-0.186176 -0.0542,0.108321 -0.0779,0.243721 -0.0237,0.132016 -0.0237,0.304652 0,0.291111 0.0711,0.497597 0.0745,0.203101 0.20987,0.331732 0.1354,0.12863 0.33173,0.186176 0.19633,0.05754 0.44682,0.05754 0.16925,0 0.27419,-0.02031 0.10493,-0.02369 0.17602,-0.06093 -0.0609,0.10832 -0.14556,0.206486 -0.0812,0.09478 -0.19971,0.16925 -0.11509,0.07447 -0.2708,0.115091 -0.15571,0.044 -0.3622,0.044 z"
         style="font-style:normal;font-variant:normal;font-weight:normal;font-stretch:normal;font-size:4.06202px;font-family:Respira;-inkscape-font-specification:Respira;fill:#fbf7ee;fill-opacity:1;stroke-width:0.0555622"
         id="path835" />
      <path
         d="m 197.97573,54.671522 q 0,-0.213256 0,-0.429897 0.003,-0.216641 0.003,-0.412972 0,-0.199716 0,-0.368967 0.003,-0.172636 0.003,-0.297881 l 0.56191,-0.588993 0.0102,2.09871 h 0.15571 q 0.18617,0 0.29788,-0.01693 0.11509,-0.01693 0.19294,-0.05755 0.0812,-0.044 0.14218,-0.115091 0.0643,-0.07447 0.14555,-0.182791 l 0.0203,0.01354 q -0.0711,0.08124 -0.15232,0.192946 -0.0779,0.111706 -0.16249,0.236951 -0.0812,0.121861 -0.16248,0.253877 -0.0778,0.12863 -0.14555,0.250491 h -0.32835 q 0.003,0.142171 0.003,0.257261 0,0.115091 0.003,0.199716 0.003,0.189561 0.0135,0.297882 0.0135,0.111705 0.0339,0.16925 0.0237,0.05755 0.0508,0.07786 0.0305,0.0237 0.0677,0.03385 h -0.9275 q 0.044,-0.01354 0.0745,-0.03046 0.0305,-0.01693 0.0474,-0.06432 0.0203,-0.04739 0.0305,-0.135401 0.0102,-0.08801 0.0102,-0.247106 0,-0.09817 0,-0.243722 0.003,-0.14217 0.003,-0.314806 h -1.77375 l -0.0102,-0.02031 0.46375,-0.524678 q 0.0135,-0.01016 0.0271,-0.01354 0.0169,-0.0068 0.044,-0.01015 0.0305,-0.0034 0.0779,-0.0034 0.0508,-0.0034 0.13202,-0.0034 z m -1.23215,-0.07109 q 0.23018,-0.284342 0.3385,-0.558528 0.11171,-0.274186 0.11509,-0.500982 0.003,-0.226796 -0.10832,-0.345272 -0.1117,-0.121861 -0.33173,-0.121861 -0.0778,0 -0.15232,0.0237 -0.0745,0.0237 -0.1354,0.07109 0.0474,-0.09478 0.1117,-0.189561 0.0643,-0.09817 0.14556,-0.176021 0.0846,-0.07785 0.18956,-0.125246 0.10832,-0.05077 0.24372,-0.05077 0.13202,0 0.23695,0.04062 0.10494,0.03724 0.17602,0.104936 0.0711,0.0677 0.10832,0.165866 0.0406,0.09478 0.0406,0.209871 0,0.199716 -0.0846,0.385892 -0.0846,0.186175 -0.22341,0.365581 -0.1354,0.176021 -0.31143,0.352042 -0.17602,0.172636 -0.35881,0.348657 z"
         style="font-style:normal;font-variant:normal;font-weight:normal;font-stretch:normal;font-size:4.06202px;font-family:Respira;-inkscape-font-specification:Respira;fill:#fbf7ee;fill-opacity:1;stroke-width:0.0555622"
         id="path837" />
    </g>
  </g>
</svg>
