<?xml version="1.0" encoding="UTF-8" standalone="no"?>
<svg
   xmlns:dc="http://purl.org/dc/elements/1.1/"
   xmlns:cc="http://creativecommons.org/ns#"
   xmlns:rdf="http://www.w3.org/1999/02/22-rdf-syntax-ns#"
   xmlns:svg="http://www.w3.org/2000/svg"
   xmlns="http://www.w3.org/2000/svg"
   xmlns:sodipodi="http://sodipodi.sourceforge.net/DTD/sodipodi-0.dtd"
   xmlns:inkscape="http://www.inkscape.org/namespaces/inkscape"
   width="8.133894mm"
   height="15.013147mm"
   viewBox="0 0 8.1338939 15.013147"
   version="1.1"
   id="svg8"
   inkscape:version="1.0.2-2 (e86c870879, 2021-01-15)"
   sodipodi:docname="Feuille 003 Hover.svg">
  <defs
     id="defs2" />
  <sodipodi:namedview
     id="base"
     pagecolor="#ffffff"
     bordercolor="#666666"
     borderopacity="1.0"
     inkscape:pageopacity="0.0"
     inkscape:pageshadow="2"
     inkscape:zoom="3.959798"
     inkscape:cx="8.9884268"
     inkscape:cy="36.993657"
     inkscape:document-units="mm"
     inkscape:current-layer="text8537-8-1-9-8-2-7-6-8-0-0-4-4"
     inkscape:document-rotation="0"
     showgrid="false"
     fit-margin-top="0"
     fit-margin-left="0"
     fit-margin-right="0"
     fit-margin-bottom="0"
     inkscape:window-width="958"
     inkscape:window-height="1018"
     inkscape:window-x="946"
     inkscape:window-y="0"
     inkscape:window-maximized="0" />
  <metadata
     id="metadata5">
    <rdf:RDF>
      <cc:Work
         rdf:about="">
        <dc:format>image/svg+xml</dc:format>
        <dc:type
           rdf:resource="http://purl.org/dc/dcmitype/StillImage" />
        <dc:title />
      </cc:Work>
    </rdf:RDF>
  </metadata>
  <g
     inkscape:label="Calque 1"
     inkscape:groupmode="layer"
     id="layer1"
     transform="translate(-111.05981,-153.44955)">
    <g
       id="g11237"
       transform="matrix(0.26458333,0,0,0.26458333,2813.8745,1445.7333)">
      <path
         inkscape:connector-curvature="0"
         id="path38-0-0-3-3-2-8-3-3"
         d="m -10208.676,-4831.7811 c 0,0 4.528,-4.9314 7.892,-7.1513 3.364,-2.2199 9.654,-8.8532 11.271,-19.4248 1.616,-10.5715 2.14,-20.2062 2.884,-22.6614 0.743,-2.4551 -14.705,-0.7429 -16.633,1.5515 -1.927,2.2944 -7.447,10.3586 -9.006,16.9591 -1.56,6.6005 -1.454,9.6411 0.02,14.5309 1.47,4.8899 3.572,16.196 3.572,16.196 z"
         style="fill:#fbf7ee;fill-opacity:1;stroke:#112f25;stroke-width:4;stroke-linecap:butt;stroke-linejoin:miter;stroke-miterlimit:4;stroke-dasharray:none;stroke-opacity:1;paint-order:markers stroke fill"
         sodipodi:nodetypes="csssssccc" />
      <g
         aria-label="003"
         transform="rotate(-71.364377)"
         id="text8537-8-1-9-8-2-7-6-8-0-0-4-4"
         style="font-style:normal;font-variant:normal;font-weight:normal;font-stretch:normal;font-size:15.3525px;line-height:2.86525px;font-family:Respira;-inkscape-font-specification:Respira;font-variant-ligatures:normal;font-variant-caps:normal;font-variant-numeric:normal;font-feature-settings:normal;text-align:start;letter-spacing:0px;word-spacing:0px;writing-mode:lr-tb;text-anchor:start;fill:#112f25;fill-opacity:1;stroke:none;stroke-width:0.209999">
        <path
           d="m 1335.0643,-11224.821 q 0.9979,0 1.7655,0.281 0.7676,0.282 1.2794,0.806 0.5245,0.525 0.7804,1.267 0.2687,0.742 0.2687,1.676 0,0.755 -0.2047,1.382 -0.2047,0.614 -0.5502,1.113 -0.3454,0.486 -0.7932,0.87 -0.4478,0.371 -0.9339,0.652 0.2047,-0.409 0.2942,-1.011 0.09,-0.614 0.09,-1.266 0,-1.1 -0.2815,-1.868 -0.2686,-0.768 -0.7676,-1.241 -0.499,-0.486 -1.2026,-0.704 -0.7037,-0.217 -1.5736,-0.217 -0.7165,0 -1.1771,0.179 -0.4605,0.179 -0.7036,0.307 0.2814,-0.461 0.6269,-0.87 0.3454,-0.409 0.7932,-0.704 0.4478,-0.307 1.0107,-0.473 0.5629,-0.179 1.2794,-0.179 z m -2.0982,10.081 q -0.9468,0 -1.7144,-0.256 -0.7676,-0.268 -1.3177,-0.78 -0.5374,-0.512 -0.8316,-1.241 -0.2943,-0.742 -0.2943,-1.689 0,-0.691 0.2175,-1.254 0.2175,-0.575 0.5629,-1.049 0.3583,-0.486 0.806,-0.87 0.4606,-0.396 0.9468,-0.703 -0.2047,0.409 -0.2943,0.921 -0.09,0.499 -0.09,1.151 0,1.101 0.2686,1.881 0.2815,0.768 0.7932,1.254 0.5118,0.486 1.2538,0.703 0.7421,0.218 1.6888,0.218 0.6397,0 1.0363,-0.08 0.3966,-0.09 0.6653,-0.23 -0.2303,0.409 -0.5502,0.78 -0.307,0.358 -0.7548,0.64 -0.435,0.281 -1.0235,0.435 -0.5885,0.166 -1.3689,0.166 z"
           style="font-style:normal;font-variant:normal;font-weight:normal;font-stretch:normal;font-size:15.3525px;font-family:Respira;-inkscape-font-specification:Respira;fill:#112f25;fill-opacity:1;stroke-width:0.209999"
           id="path834" />
        <path
           d="m 1346.5019,-11224.821 q 0.9979,0 1.7655,0.281 0.7676,0.282 1.2794,0.806 0.5245,0.525 0.7804,1.267 0.2687,0.742 0.2687,1.676 0,0.755 -0.2047,1.382 -0.2047,0.614 -0.5502,1.113 -0.3454,0.486 -0.7932,0.87 -0.4478,0.371 -0.9339,0.652 0.2047,-0.409 0.2942,-1.011 0.09,-0.614 0.09,-1.266 0,-1.1 -0.2815,-1.868 -0.2687,-0.768 -0.7676,-1.241 -0.499,-0.486 -1.2026,-0.704 -0.7037,-0.217 -1.5737,-0.217 -0.7164,0 -1.177,0.179 -0.4606,0.179 -0.7036,0.307 0.2814,-0.461 0.6269,-0.87 0.3454,-0.409 0.7932,-0.704 0.4478,-0.307 1.0107,-0.473 0.5629,-0.179 1.2794,-0.179 z m -2.0982,10.081 q -0.9468,0 -1.7144,-0.256 -0.7676,-0.268 -1.3177,-0.78 -0.5374,-0.512 -0.8316,-1.241 -0.2943,-0.742 -0.2943,-1.689 0,-0.691 0.2175,-1.254 0.2175,-0.575 0.5629,-1.049 0.3583,-0.486 0.806,-0.87 0.4606,-0.396 0.9468,-0.703 -0.2047,0.409 -0.2943,0.921 -0.09,0.499 -0.09,1.151 0,1.101 0.2686,1.881 0.2815,0.768 0.7932,1.254 0.5118,0.486 1.2538,0.703 0.7421,0.218 1.6888,0.218 0.6397,0 1.0363,-0.08 0.3966,-0.09 0.6653,-0.23 -0.2303,0.409 -0.5502,0.78 -0.307,0.358 -0.7548,0.64 -0.435,0.281 -1.0235,0.435 -0.5885,0.166 -1.3689,0.166 z"
           style="font-style:normal;font-variant:normal;font-weight:normal;font-stretch:normal;font-size:15.3525px;font-family:Respira;-inkscape-font-specification:Respira;fill:#112f25;fill-opacity:1;stroke-width:0.209999"
           id="path836" />
        <path
           d="m 1355.6366,-11220.024 q -0.1919,0.346 -0.4478,0.653 -0.2431,0.307 -0.5501,0.537 -0.2943,0.231 -0.6397,0.371 -0.3327,0.141 -0.7165,0.141 -0.87,0 -1.3049,-0.422 -0.4222,-0.422 -0.4222,-1.139 0,-0.435 0.1791,-0.831 0.1791,-0.41 0.4861,-0.755 0.3071,-0.346 0.7165,-0.64 0.4094,-0.294 0.87,-0.537 -0.1791,0.371 -0.2303,0.716 -0.051,0.333 -0.051,0.627 0,0.653 0.3071,1.113 0.307,0.448 0.9595,0.448 0.2175,0 0.4094,-0.05 0.2047,-0.06 0.435,-0.231 z m 1.8295,0.909 q 0.1791,-0.192 0.3454,-0.397 0.1791,-0.205 0.3071,-0.448 0.1407,-0.243 0.2175,-0.524 0.077,-0.294 0.077,-0.653 0,-0.882 -0.6525,-1.42 -0.6397,-0.55 -1.8934,-0.55 -0.6269,0 -1.1387,0.128 -0.4989,0.128 -0.8955,0.32 0.2174,-0.371 0.5373,-0.755 0.3326,-0.384 0.7932,-0.691 0.4606,-0.32 1.0491,-0.512 0.5885,-0.204 1.3433,-0.204 1.5993,0 2.4053,0.691 0.806,0.691 0.8188,1.906 0,0.614 -0.3071,1.126 -0.2942,0.512 -0.7676,0.908 -0.4734,0.384 -1.0747,0.653 -0.5885,0.268 -1.1642,0.422 z m 1.6632,5.629 q 0.3582,-0.409 0.4222,-0.819 0.077,-0.396 0.077,-0.806 0,-0.512 -0.3326,-0.908 -0.3327,-0.397 -0.9084,-0.678 -0.5629,-0.282 -1.3177,-0.448 -0.7549,-0.179 -1.5992,-0.243 l 1.8423,-1.574 q 0.8571,0.08 1.6248,0.256 0.7804,0.179 1.3689,0.486 0.6013,0.295 0.9467,0.717 0.3583,0.409 0.3583,0.947 0,0.921 -0.6781,1.701 -0.6653,0.793 -1.8039,1.369 z m -5.0536,-2.687 q -0.1535,0.243 -0.2175,0.512 -0.051,0.256 -0.051,0.627 0,0.422 0.2303,0.768 0.243,0.358 0.6268,0.614 0.3839,0.268 0.8828,0.409 0.499,0.141 1.0235,0.141 0.6909,0 1.3689,-0.09 0.6781,-0.09 1.1515,-0.268 -0.2815,0.383 -0.6397,0.806 -0.3454,0.422 -0.8188,0.767 -0.4734,0.346 -1.0747,0.576 -0.6013,0.23 -1.3817,0.23 -0.7932,0 -1.3945,-0.166 -0.6013,-0.166 -1.0107,-0.448 -0.4094,-0.281 -0.6269,-0.665 -0.2047,-0.371 -0.2047,-0.806 0,-0.832 0.4861,-1.548 0.4862,-0.717 1.6504,-1.459 z"
           style="font-style:normal;font-variant:normal;font-weight:normal;font-stretch:normal;font-size:15.3525px;font-family:Respira;-inkscape-font-specification:Respira;fill:#112f25;fill-opacity:1;stroke-width:0.209999"
           id="path838" />
      </g>
    </g>
  </g>
</svg>
