<?xml version="1.0" encoding="UTF-8" standalone="no"?>
<svg
   xmlns:dc="http://purl.org/dc/elements/1.1/"
   xmlns:cc="http://creativecommons.org/ns#"
   xmlns:rdf="http://www.w3.org/1999/02/22-rdf-syntax-ns#"
   xmlns:svg="http://www.w3.org/2000/svg"
   xmlns="http://www.w3.org/2000/svg"
   xmlns:sodipodi="http://sodipodi.sourceforge.net/DTD/sodipodi-0.dtd"
   xmlns:inkscape="http://www.inkscape.org/namespaces/inkscape"
   width="13.448361mm"
   height="8.9215784mm"
   viewBox="0 0 13.448361 8.9215784"
   version="1.1"
   id="svg8"
   inkscape:version="1.0.2-2 (e86c870879, 2021-01-15)"
   sodipodi:docname="Feuille 005 Hover.svg">
  <defs
     id="defs2">
    <inkscape:path-effect
       effect="spiro"
       id="path-effect10981"
       is_visible="true"
       lpeversion="0" />
  </defs>
  <sodipodi:namedview
     id="base"
     pagecolor="#ffffff"
     bordercolor="#666666"
     borderopacity="1.0"
     inkscape:pageopacity="0.0"
     inkscape:pageshadow="2"
     inkscape:zoom="3.959798"
     inkscape:cx="44.53784"
     inkscape:cy="25.734385"
     inkscape:document-units="mm"
     inkscape:current-layer="layer1"
     inkscape:document-rotation="0"
     showgrid="false"
     fit-margin-top="0"
     fit-margin-left="0"
     fit-margin-right="0"
     fit-margin-bottom="0"
     inkscape:window-width="958"
     inkscape:window-height="1018"
     inkscape:window-x="946"
     inkscape:window-y="0"
     inkscape:window-maximized="0" />
  <metadata
     id="metadata5">
    <rdf:RDF>
      <cc:Work
         rdf:about="">
        <dc:format>image/svg+xml</dc:format>
        <dc:type
           rdf:resource="http://purl.org/dc/dcmitype/StillImage" />
        <dc:title></dc:title>
      </cc:Work>
    </rdf:RDF>
  </metadata>
  <g
     inkscape:label="Calque 1"
     inkscape:groupmode="layer"
     id="layer1"
     transform="translate(-105.72988,-156.42857)">
    <g
       id="g11243"
       transform="matrix(0.26458333,0,0,0.26458333,2782.7991,1442.793)">
      <path
         inkscape:original-d="m -10105.817,-4845.8416 c 0,0 -3.931,-1.889 -5.897,-2.832 -1.967,-0.943 -3.493,-2.363 -5.24,-3.544 -1.748,-1.18 -0.725,-2.706 -1.089,-4.058 -0.364,-1.352 0.669,-1.361 1.002,-2.04 0.334,-0.679 1.119,-0.244 1.677,-0.365 0.558,-0.121 0.853,-0.361 1.278,-0.539 0.425,-0.179 0.62,-0.01 0.928,-0.01 0.309,0 0.272,0.763 0.406,1.146 0.134,0.383 -1.114,0.655 -1.673,0.984 -0.558,0.329 -0.706,-0.03 -1.06,-0.04 -0.355,-0.01 -0.201,0.648 -0.303,0.974 -0.102,0.326 0.476,0.556 0.713,0.835 0.236,0.279 1.568,0.754 2.35,1.133 0.782,0.378 2.423,0.895 3.633,1.345 1.21,0.449 2.782,1.541 4.171,2.313 1.389,0.772 2.446,2.281 2.446,2.281 0,0 -3.342,2.41 -3.342,2.41 z"
         inkscape:path-effect="#path-effect10981"
         inkscape:connector-curvature="0"
         id="path1371-5-2-3-1-8-9-7-8"
         d="m -10105.817,-4845.8416 c -1.943,-0.9894 -3.91,-1.9337 -5.897,-2.832 -0.973,-0.4399 -1.955,-0.8704 -2.867,-1.4258 -0.912,-0.5553 -1.76,-1.2439 -2.373,-2.1182 -0.82,-1.1686 -1.181,-2.6334 -1.089,-4.058 0.02,-0.3952 0.09,-0.7931 0.241,-1.1575 0.155,-0.3645 0.412,-0.6952 0.761,-0.8825 0.253,-0.1359 0.542,-0.1909 0.826,-0.2283 0.285,-0.038 0.574,-0.06 0.851,-0.1367 0.446,-0.1243 0.841,-0.386 1.278,-0.539 0.15,-0.053 0.306,-0.092 0.465,-0.1001 0.159,-0.01 0.321,0.018 0.463,0.09 0.196,0.1 0.342,0.2865 0.41,0.4959 0.07,0.2094 0.06,0.4394 -0,0.6501 -0.101,0.3373 -0.345,0.6262 -0.651,0.7995 -0.307,0.1733 -0.673,0.233 -1.022,0.1845 -0.179,-0.025 -0.353,-0.077 -0.531,-0.1016 -0.179,-0.025 -0.368,-0.02 -0.529,0.062 -0.165,0.085 -0.284,0.2472 -0.333,0.4263 -0.05,0.1791 -0.03,0.3726 0.03,0.5477 0.124,0.3505 0.412,0.617 0.713,0.835 0.707,0.5117 1.53,0.8336 2.35,1.133 1.213,0.4432 2.44,0.8497 3.633,1.345 1.472,0.6112 2.893,1.36 4.171,2.313 0.895,0.6679 1.717,1.4344 2.446,2.281 l -3.342,2.41 z"
         style="fill:#112f25;fill-opacity:1;stroke:none;stroke-width:1px;stroke-linecap:butt;stroke-linejoin:miter;stroke-opacity:1" />
      <path
         inkscape:connector-curvature="0"
         id="path74-1-8-8-8-0-7-9-7"
         d="m -10069.943,-4853.7338 c 0,0 -6.033,-7.6028 -16.81,-5.8636 -10.777,1.7394 -12.066,2.6114 -16.199,2.2085 -4.133,-0.4029 -0.687,3.0707 1.582,2.863 1.938,-0.1774 -8.204,2.3616 -10.508,7.9262 -2.305,5.5646 -3.542,13.7112 -0.879,15.4806 2.663,1.7694 8.576,0.9269 14.111,-0.8993 5.536,-1.8263 16.891,-9.3032 19.025,-12.6471 2.135,-3.344 3.638,-6.6682 6.466,-7.6896 2.829,-1.0215 3.212,-1.3787 3.212,-1.3787 z"
         style="fill:#fbf7ee;fill-opacity:1;stroke:#112f25;stroke-width:4;stroke-linecap:butt;stroke-linejoin:miter;stroke-miterlimit:4;stroke-dasharray:none;stroke-opacity:1;paint-order:markers stroke fill"
         sodipodi:nodetypes="cssssssssc" />
      <text
         xml:space="preserve"
         style="font-style:normal;font-variant:normal;font-weight:normal;font-stretch:normal;font-size:15.3525px;line-height:2.86525px;font-family:Respira;-inkscape-font-specification:Respira;font-variant-ligatures:normal;font-variant-caps:normal;font-variant-numeric:normal;font-feature-settings:normal;text-align:start;letter-spacing:0px;word-spacing:0px;writing-mode:lr-tb;text-anchor:start;fill:#112f25;fill-opacity:1;stroke:none;stroke-width:0.209999"
         x="-6314.9829"
         y="-9255.0791"
         id="text8537-8-1-9-8-2-7-6-8-0-0-0-6-4"
         transform="rotate(-30.144423)"><tspan
           sodipodi:role="line"
           id="tspan8535-8-6-7-8-5-3-2-3-0-8-3-0-6"
           x="-6314.9829"
           y="-9255.0791"
           style="font-style:normal;font-variant:normal;font-weight:normal;font-stretch:normal;font-size:15.3525px;font-family:Respira;-inkscape-font-specification:Respira;fill:#112f25;fill-opacity:1;stroke-width:0.209999">005</tspan></text>
    </g>
  </g>
</svg>
