<?xml version="1.0" encoding="UTF-8" standalone="no"?>
<svg
   xmlns:dc="http://purl.org/dc/elements/1.1/"
   xmlns:cc="http://creativecommons.org/ns#"
   xmlns:rdf="http://www.w3.org/1999/02/22-rdf-syntax-ns#"
   xmlns:svg="http://www.w3.org/2000/svg"
   xmlns="http://www.w3.org/2000/svg"
   xmlns:sodipodi="http://sodipodi.sourceforge.net/DTD/sodipodi-0.dtd"
   xmlns:inkscape="http://www.inkscape.org/namespaces/inkscape"
   width="9.1001434mm"
   height="12.756337mm"
   viewBox="0 0 9.1001433 12.756337"
   version="1.1"
   id="svg8"
   inkscape:version="1.0.2-2 (e86c870879, 2021-01-15)"
   sodipodi:docname="Feuille 007'.svg">
  <defs
     id="defs2">
    <inkscape:path-effect
       effect="spiro"
       id="path-effect11014"
       is_visible="true"
       lpeversion="0" />
    <inkscape:path-effect
       effect="spiro"
       id="path-effect11611"
       is_visible="true"
       lpeversion="0" />
    <inkscape:path-effect
       effect="spiro"
       id="path-effect70430"
       is_visible="true"
       lpeversion="0" />
    <inkscape:path-effect
       effect="spiro"
       id="path-effect13649"
       is_visible="true"
       lpeversion="0" />
  </defs>
  <sodipodi:namedview
     id="base"
     pagecolor="#ffffff"
     bordercolor="#666666"
     borderopacity="1.0"
     inkscape:pageopacity="0.0"
     inkscape:pageshadow="2"
     inkscape:zoom="3.959798"
     inkscape:cx="11.773727"
     inkscape:cy="34.140205"
     inkscape:document-units="mm"
     inkscape:current-layer="layer1"
     inkscape:document-rotation="0"
     showgrid="false"
     fit-margin-top="0"
     fit-margin-left="0"
     fit-margin-right="0"
     fit-margin-bottom="0"
     inkscape:window-width="958"
     inkscape:window-height="1018"
     inkscape:window-x="946"
     inkscape:window-y="0"
     inkscape:window-maximized="0" />
  <metadata
     id="metadata5">
    <rdf:RDF>
      <cc:Work
         rdf:about="">
        <dc:format>image/svg+xml</dc:format>
        <dc:type
           rdf:resource="http://purl.org/dc/dcmitype/StillImage" />
        <dc:title />
      </cc:Work>
    </rdf:RDF>
  </metadata>
  <g
     inkscape:label="Calque 1"
     inkscape:groupmode="layer"
     id="layer1"
     transform="translate(-114.39872,-154.20453)">
    <path
       inkscape:original-d="m 122.92482,165.96771 c 0,0 -0.11007,-1.38203 -0.16431,-2.07325 -0.0542,-0.69112 0.13758,-1.63851 0.20691,-2.45787 0.0696,-0.81942 -0.53923,-1.82687 -0.80831,-2.74048 -0.26908,-0.9136 -1.59226,-1.7408 -2.3876,-2.61136 -0.7956,-0.87053 -4.51432,-1.34979 -4.51432,-1.34979 0,0 -0.41433,0.98737 -0.3085,1.92894 0.10557,0.94157 -0.4109,1.80938 0.31803,2.82435 0.72919,1.01502 1.31551,2.45655 2.18837,3.04466 0.87286,0.58812 1.98146,1.416 2.6199,1.76403 0.6387,0.34804 1.91691,1.04394 1.91691,1.04394 l 0.93292,0.62688 z"
       inkscape:path-effect="#path-effect13649"
       inkscape:connector-curvature="0"
       id="path994-6-1-2-81-4-19-8-4-8-2-78"
       d="m 122.92482,165.96771 c -0.14972,-0.67914 -0.20519,-1.379 -0.16431,-2.07325 0.0484,-0.82142 0.23066,-1.63537 0.20691,-2.45787 -0.0278,-0.96125 -0.33939,-1.9009 -0.80831,-2.74048 -0.58027,-1.03894 -1.405,-1.94008 -2.3876,-2.61136 -1.3177,-0.90021 -2.91875,-1.37893 -4.51432,-1.34979 -0.16251,0.63152 -0.26594,1.27823 -0.3085,1.92894 -0.0622,0.95163 0.008,1.92238 0.31803,2.82435 0.41076,1.19626 1.22707,2.22266 2.18837,3.04466 0.80137,0.68525 1.70479,1.24025 2.6199,1.76403 0.63151,0.36145 1.27067,0.70954 1.91691,1.04394 l 0.93292,0.62688 z"
       style="fill:#fbf7ee;fill-opacity:1;stroke:#112f25;stroke-width:1.05833;stroke-linecap:butt;stroke-linejoin:miter;stroke-miterlimit:4;stroke-dasharray:none;stroke-opacity:1;paint-order:markers stroke fill"
       sodipodi:nodetypes="csssscssssccc" />
    <g
       aria-label="007'"
       transform="rotate(58.627375)"
       id="text8537-8-1-9-8-2-7-6-8-0-0-2-2-3-9-6"
       style="font-style:normal;font-variant:normal;font-weight:normal;font-stretch:normal;font-size:4.06202px;line-height:0.758097px;font-family:Respira;-inkscape-font-specification:Respira;font-variant-ligatures:normal;font-variant-caps:normal;font-variant-numeric:normal;font-feature-settings:normal;text-align:start;letter-spacing:0px;word-spacing:0px;writing-mode:lr-tb;text-anchor:start;fill:#112f25;fill-opacity:1;stroke:none;stroke-width:0.0555622">
      <path
         d="m 194.7615,-19.728757 q 0.26403,0 0.46713,0.07447 0.2031,0.07447 0.3385,0.213256 0.13879,0.138786 0.20649,0.335117 0.0711,0.19633 0.0711,0.443437 0,0.199716 -0.0542,0.365581 -0.0542,0.162481 -0.14555,0.294497 -0.0914,0.128631 -0.20988,0.230181 -0.11847,0.09817 -0.2471,0.172636 0.0542,-0.108321 0.0779,-0.267416 0.0237,-0.162481 0.0237,-0.335117 0,-0.291111 -0.0745,-0.494212 -0.0711,-0.203101 -0.2031,-0.328347 -0.13202,-0.128631 -0.31819,-0.186176 -0.18618,-0.05755 -0.41636,-0.05755 -0.18956,0 -0.31142,0.04739 -0.12186,0.04739 -0.18618,0.08124 0.0745,-0.12186 0.16587,-0.230181 0.0914,-0.10832 0.20987,-0.186176 0.11847,-0.08124 0.26741,-0.125245 0.14895,-0.04739 0.33851,-0.04739 z m -0.55515,2.667393 q -0.25049,0 -0.45359,-0.0677 -0.2031,-0.07109 -0.34866,-0.206486 -0.14217,-0.1354 -0.22002,-0.328346 -0.0779,-0.196331 -0.0779,-0.446823 0,-0.182791 0.0575,-0.331731 0.0575,-0.152326 0.14894,-0.277572 0.0948,-0.12863 0.21326,-0.230181 0.12186,-0.104935 0.25049,-0.186176 -0.0542,0.108321 -0.0779,0.243722 -0.0237,0.132015 -0.0237,0.304651 0,0.291111 0.0711,0.497597 0.0745,0.203101 0.20987,0.331732 0.1354,0.128631 0.33173,0.186176 0.19634,0.05754 0.44683,0.05754 0.16925,0 0.27418,-0.02031 0.10494,-0.0237 0.17602,-0.06093 -0.0609,0.10832 -0.14555,0.206486 -0.0812,0.09478 -0.19972,0.169251 -0.11509,0.07447 -0.2708,0.11509 -0.15571,0.044 -0.3622,0.044 z"
         style="font-style:normal;font-variant:normal;font-weight:normal;font-stretch:normal;font-size:4.06202px;font-family:Respira;-inkscape-font-specification:Respira;fill:#112f25;fill-opacity:1;stroke-width:0.0555622"
         id="path837" />
      <path
         d="m 197.7877,-19.728757 q 0.26403,0 0.46713,0.07447 0.2031,0.07447 0.3385,0.213256 0.13879,0.138786 0.20649,0.335117 0.0711,0.19633 0.0711,0.443437 0,0.199716 -0.0542,0.365581 -0.0542,0.162481 -0.14555,0.294497 -0.0914,0.128631 -0.20987,0.230181 -0.11848,0.09817 -0.24711,0.172636 0.0542,-0.108321 0.0778,-0.267416 0.0237,-0.162481 0.0237,-0.335117 0,-0.291111 -0.0745,-0.494212 -0.0711,-0.203101 -0.2031,-0.328347 -0.13202,-0.128631 -0.31819,-0.186176 -0.18618,-0.05755 -0.41636,-0.05755 -0.18956,0 -0.31142,0.04739 -0.12186,0.04739 -0.18618,0.08124 0.0745,-0.12186 0.16587,-0.230181 0.0914,-0.10832 0.20987,-0.186176 0.11847,-0.08124 0.26742,-0.125245 0.14894,-0.04739 0.3385,-0.04739 z m -0.55515,2.667393 q -0.25049,0 -0.45359,-0.0677 -0.2031,-0.07109 -0.34865,-0.206486 -0.14218,-0.1354 -0.22003,-0.328346 -0.0779,-0.196331 -0.0779,-0.446823 0,-0.182791 0.0575,-0.331731 0.0575,-0.152326 0.14894,-0.277572 0.0948,-0.12863 0.21326,-0.230181 0.12186,-0.104935 0.25049,-0.186176 -0.0542,0.108321 -0.0779,0.243722 -0.0237,0.132015 -0.0237,0.304651 0,0.291111 0.0711,0.497597 0.0745,0.203101 0.20987,0.331732 0.1354,0.128631 0.33173,0.186176 0.19634,0.05754 0.44683,0.05754 0.16925,0 0.27418,-0.02031 0.10494,-0.0237 0.17602,-0.06093 -0.0609,0.10832 -0.14555,0.206486 -0.0812,0.09478 -0.19972,0.169251 -0.11509,0.07447 -0.2708,0.11509 -0.15571,0.044 -0.3622,0.044 z"
         style="font-style:normal;font-variant:normal;font-weight:normal;font-stretch:normal;font-size:4.06202px;font-family:Respira;-inkscape-font-specification:Respira;fill:#112f25;fill-opacity:1;stroke-width:0.0555622"
         id="path839" />
      <path
         d="m 201.43336,-18.899427 q -0.23357,0.765013 -0.42313,1.303231 -0.18956,0.538218 -0.38251,0.880104 -0.18956,0.341887 -0.4062,0.497598 -0.21664,0.159095 -0.51114,0.159095 -0.32834,0 -0.51452,-0.152325 -0.18279,-0.152326 -0.18279,-0.419742 0,-0.115091 0.044,-0.223411 0.0474,-0.108321 0.12186,-0.203101 0.0745,-0.0914 0.17264,-0.169251 0.0982,-0.08124 0.20649,-0.138786 -0.0474,0.09478 -0.0474,0.223411 0,0.189561 0.11847,0.297882 0.12186,0.111705 0.36558,0.111705 0.18279,0 0.35205,-0.12186 0.17263,-0.118476 0.34527,-0.379122 0.17602,-0.260647 0.35542,-0.670234 0.18279,-0.412972 0.3859,-0.995194 z m 0.0677,-0.189561 q -0.0474,0.03385 -0.37236,0.03385 h -1.20845 q -0.18956,0 -0.3148,0.02708 -0.12186,0.0237 -0.20649,0.07109 -0.0846,0.04401 -0.14556,0.115091 -0.0609,0.0677 -0.12524,0.152326 l -0.0203,-0.01354 q 0.0677,-0.08124 0.14555,-0.19633 0.0779,-0.118476 0.1591,-0.250492 0.0812,-0.132015 0.1591,-0.267416 0.0779,-0.138786 0.14217,-0.260646 h 2.09871 z"
         style="font-style:normal;font-variant:normal;font-weight:normal;font-stretch:normal;font-size:4.06202px;font-family:Respira;-inkscape-font-specification:Respira;fill:#112f25;fill-opacity:1;stroke-width:0.0555622"
         id="path841" />
      <path
         d="m 202.03927,-20.361755 q 0.0609,0 0.10155,0.04739 0.044,0.04401 0.044,0.104935 0,0.02708 -0.0102,0.125246 -0.0101,0.09816 -0.0271,0.247106 -0.0135,0.145556 -0.0339,0.328347 -0.0169,0.18279 -0.0339,0.379121 -0.0169,0.196331 -0.0305,0.396047 -0.0135,0.196331 -0.0203,0.372352 -0.007,-0.176021 -0.0203,-0.372352 -0.0135,-0.196331 -0.0305,-0.392662 -0.0135,-0.196331 -0.0339,-0.379121 -0.0169,-0.186176 -0.0305,-0.331732 -0.0135,-0.145556 -0.0237,-0.243721 -0.007,-0.09817 -0.007,-0.125246 0,-0.06093 0.0474,-0.10832 0.0508,-0.04739 0.10832,-0.04739 z"
         style="font-style:normal;font-variant:normal;font-weight:normal;font-stretch:normal;font-size:4.06202px;font-family:Respira;-inkscape-font-specification:Respira;fill:#112f25;fill-opacity:1;stroke-width:0.0555622"
         id="path843" />
    </g>
  </g>
</svg>
