<?xml version="1.0" encoding="UTF-8" standalone="no"?>
<svg
   xmlns:dc="http://purl.org/dc/elements/1.1/"
   xmlns:cc="http://creativecommons.org/ns#"
   xmlns:rdf="http://www.w3.org/1999/02/22-rdf-syntax-ns#"
   xmlns:svg="http://www.w3.org/2000/svg"
   xmlns="http://www.w3.org/2000/svg"
   xmlns:sodipodi="http://sodipodi.sourceforge.net/DTD/sodipodi-0.dtd"
   xmlns:inkscape="http://www.inkscape.org/namespaces/inkscape"
   width="8.933239mm"
   height="14.136564mm"
   viewBox="0 0 8.9332389 14.136564"
   version="1.1"
   id="svg8"
   inkscape:version="1.0.2-2 (e86c870879, 2021-01-15)"
   sodipodi:docname="Feuille 001' Hover.svg">
  <defs
     id="defs2">
    <inkscape:path-effect
       effect="spiro"
       id="path-effect11429"
       is_visible="true"
       lpeversion="0" />
  </defs>
  <sodipodi:namedview
     id="base"
     pagecolor="#ffffff"
     bordercolor="#666666"
     borderopacity="1.0"
     inkscape:pageopacity="0.0"
     inkscape:pageshadow="2"
     inkscape:zoom="3.959798"
     inkscape:cx="24.893435"
     inkscape:cy="37.104907"
     inkscape:document-units="mm"
     inkscape:current-layer="text8537-8-1-9-8-2-7-6-8-0-0-0-7-3-1-7-5-9"
     inkscape:document-rotation="0"
     showgrid="false"
     fit-margin-top="0"
     fit-margin-left="0"
     fit-margin-right="0"
     fit-margin-bottom="0"
     inkscape:window-width="964"
     inkscape:window-height="1018"
     inkscape:window-x="946"
     inkscape:window-y="0"
     inkscape:window-maximized="0" />
  <metadata
     id="metadata5">
    <rdf:RDF>
      <cc:Work
         rdf:about="">
        <dc:format>image/svg+xml</dc:format>
        <dc:type
           rdf:resource="http://purl.org/dc/dcmitype/StillImage" />
        <dc:title />
      </cc:Work>
    </rdf:RDF>
  </metadata>
  <g
     inkscape:label="Calque 1"
     inkscape:groupmode="layer"
     id="layer1"
     transform="translate(-110.92747,-153.42012)">
    <path
       inkscape:original-d="m 115.87626,162.70353 c 0,0 0.0963,0.62587 0.14446,0.93821 0.0482,0.31235 0.34264,1.03953 0.51383,1.55888 0.17118,0.51916 0.53763,0.76075 0.80618,1.14062 0.26882,0.37988 0.80592,0.53004 1.20862,0.79486 0.40243,0.26482 0.50826,0.25601 0.76226,0.3834 0.254,0.12759 0.0675,0.0257 0.10213,0.0368 0.0339,0.0117 0.12065,-0.0793 0.18098,-0.11951 0.0603,-0.0399 0.0833,-0.25627 0.12461,-0.38491 0.0415,-0.12843 0.0397,-0.37397 0.0593,-0.56142 0.0185,-0.18751 -0.15637,0 -0.23468,0 -0.0783,2e-5 -0.25533,0.23042 -0.38286,0.34515 -0.12779,0.11469 -0.16324,-0.0204 -0.245,-0.0311 -0.0818,-0.0106 -0.72125,-0.47265 -1.08109,-0.71114 -0.36089,-0.23654 -0.86492,-1.44328 -1.29751,-2.16548 -0.4326,-0.72226 -0.10557,-0.28972 -0.15849,-0.43498 -0.0526,-0.14544 -0.18865,-0.49305 -0.2831,-0.74017 -0.0945,-0.24691 -0.21881,-0.0513 -0.21881,-0.0513 z"
       inkscape:path-effect="#path-effect11429"
       inkscape:connector-curvature="0"
       id="path1285-2-0-9-2-9-2-8-5-4"
       d="m 115.87626,162.70353 c 0.0314,0.31501 0.0797,0.62833 0.14446,0.93821 0.11222,0.5369 0.27483,1.06519 0.51383,1.55888 0.204,0.42139 0.4658,0.81918 0.80618,1.14062 0.3518,0.33222 0.77778,0.57462 1.20862,0.79486 0.25325,0.12946 0.50978,0.25244 0.76226,0.3834 0.0323,0.0168 0.0658,0.034 0.10213,0.0368 0.038,0.003 0.0762,-0.0108 0.10702,-0.0333 0.0308,-0.0225 0.0548,-0.0532 0.074,-0.0862 0.0678,-0.117 0.076,-0.25872 0.12461,-0.38491 0.0369,-0.0958 0.097,-0.18208 0.12577,-0.28058 0.0144,-0.0493 0.0206,-0.10169 0.011,-0.1521 -0.01,-0.0504 -0.0359,-0.0987 -0.0775,-0.12874 -0.0335,-0.0242 -0.0755,-0.0357 -0.11688,-0.0347 -0.0413,0.001 -0.082,0.014 -0.1178,0.0347 -0.0755,0.0435 -0.12725,0.11762 -0.1812,0.18609 -0.027,0.0342 -0.0552,0.0678 -0.0883,0.0961 -0.0331,0.0284 -0.0713,0.0517 -0.11336,0.0629 -0.0404,0.0108 -0.0832,0.0101 -0.12447,0.003 -0.0412,-0.007 -0.0812,-0.0202 -0.12053,-0.0343 -0.40943,-0.14684 -0.77545,-0.40166 -1.08109,-0.71114 -0.59474,-0.60222 -0.95528,-1.39135 -1.29751,-2.16548 -0.0625,-0.14139 -0.12518,-0.28402 -0.15849,-0.43498 -0.0294,-0.13332 -0.0355,-0.27115 -0.0683,-0.40365 -0.0164,-0.0663 -0.0397,-0.13125 -0.0747,-0.18989 -0.0349,-0.0586 -0.082,-0.11086 -0.1401,-0.14663 -0.0649,-0.0399 -0.14291,-0.0582 -0.21881,-0.0513 z"
       style="fill:#112f25;fill-opacity:1;stroke:none;stroke-width:0.238029px;stroke-linecap:butt;stroke-linejoin:miter;stroke-opacity:1" />
    <path
       inkscape:connector-curvature="0"
       id="path44-21-8-5-24-37-4-6-7-5"
       d="m 113.46591,153.42012 c 0,0 -2.28045,3.40837 -2.47095,5.72847 -0.1905,2.31995 -0.0762,4.74514 1.66238,7.13184 0,0 3.0308,-0.459 3.99997,-3.20534 0.96891,-2.74633 0.1315,-5.18176 -1.20332,-6.9037 -1.33483,-1.72193 -1.98808,-2.75127 -1.98808,-2.75127 z"
       style="fill:#112f25;fill-opacity:1;stroke:none;stroke-width:1.05833;stroke-linecap:butt;stroke-linejoin:miter;stroke-miterlimit:4;stroke-dasharray:none;stroke-opacity:1;paint-order:markers stroke fill" />
    <g
       aria-label="001'"
       transform="rotate(90.043104)"
       id="text8537-8-1-9-8-2-7-6-8-0-0-0-7-3-1-7-5-9"
       style="font-style:normal;font-variant:normal;font-weight:normal;font-stretch:normal;font-size:4.06202px;line-height:0.758097px;font-family:Respira;-inkscape-font-specification:Respira;font-variant-ligatures:normal;font-variant-caps:normal;font-variant-numeric:normal;font-feature-settings:normal;text-align:start;letter-spacing:0px;word-spacing:0px;writing-mode:lr-tb;text-anchor:start;fill:#fbf7ee;fill-opacity:1;stroke:none;stroke-width:0.0555622">
      <path
         d="m 158.00005,-115.15977 q 0.26403,0 0.46713,0.0745 0.20311,0.0745 0.33851,0.21326 0.13878,0.13878 0.20648,0.33511 0.0711,0.19633 0.0711,0.44344 0,0.19972 -0.0542,0.36558 -0.0542,0.16248 -0.14556,0.2945 -0.0914,0.12863 -0.20987,0.23018 -0.11847,0.0982 -0.24711,0.17264 0.0542,-0.10832 0.0779,-0.26742 0.0237,-0.16248 0.0237,-0.33512 0,-0.29111 -0.0745,-0.49421 -0.0711,-0.2031 -0.2031,-0.32835 -0.13201,-0.12863 -0.31819,-0.18617 -0.18617,-0.0576 -0.41635,-0.0576 -0.18957,0 -0.31143,0.0474 -0.12186,0.0474 -0.18617,0.0812 0.0745,-0.12186 0.16586,-0.23018 0.0914,-0.10832 0.20987,-0.18617 0.11848,-0.0812 0.26742,-0.12525 0.14894,-0.0474 0.3385,-0.0474 z m -0.55514,2.66739 q -0.25049,0 -0.45359,-0.0677 -0.2031,-0.0711 -0.34866,-0.20648 -0.14217,-0.1354 -0.22003,-0.32835 -0.0779,-0.19633 -0.0779,-0.44682 0,-0.18279 0.0575,-0.33173 0.0575,-0.15233 0.14895,-0.27757 0.0948,-0.12864 0.21325,-0.23019 0.12186,-0.10493 0.25049,-0.18617 -0.0542,0.10832 -0.0778,0.24372 -0.0237,0.13202 -0.0237,0.30465 0,0.29111 0.0711,0.4976 0.0745,0.2031 0.20987,0.33173 0.1354,0.12863 0.33173,0.18618 0.19633,0.0575 0.44682,0.0575 0.16925,0 0.27419,-0.0203 0.10493,-0.0237 0.17602,-0.0609 -0.0609,0.10832 -0.14556,0.20649 -0.0812,0.0948 -0.19971,0.16925 -0.11509,0.0745 -0.2708,0.11509 -0.15571,0.044 -0.3622,0.044 z"
         style="font-style:normal;font-variant:normal;font-weight:normal;font-stretch:normal;font-size:4.06202px;font-family:Respira;-inkscape-font-specification:Respira;fill:#fbf7ee;fill-opacity:1;stroke-width:0.0555622"
         id="path835" />
      <path
         d="m 161.02625,-115.15977 q 0.26403,0 0.46714,0.0745 0.2031,0.0745 0.3385,0.21326 0.13878,0.13878 0.20648,0.33511 0.0711,0.19633 0.0711,0.44344 0,0.19972 -0.0542,0.36558 -0.0542,0.16248 -0.14556,0.2945 -0.0914,0.12863 -0.20987,0.23018 -0.11847,0.0982 -0.2471,0.17264 0.0542,-0.10832 0.0779,-0.26742 0.0237,-0.16248 0.0237,-0.33512 0,-0.29111 -0.0745,-0.49421 -0.0711,-0.2031 -0.20311,-0.32835 -0.13201,-0.12863 -0.31819,-0.18617 -0.18617,-0.0576 -0.41635,-0.0576 -0.18957,0 -0.31143,0.0474 -0.12186,0.0474 -0.18617,0.0812 0.0745,-0.12186 0.16586,-0.23018 0.0914,-0.10832 0.20987,-0.18617 0.11848,-0.0812 0.26742,-0.12525 0.14894,-0.0474 0.3385,-0.0474 z m -0.55514,2.66739 q -0.25049,0 -0.45359,-0.0677 -0.2031,-0.0711 -0.34866,-0.20648 -0.14217,-0.1354 -0.22002,-0.32835 -0.0779,-0.19633 -0.0779,-0.44682 0,-0.18279 0.0575,-0.33173 0.0575,-0.15233 0.14894,-0.27757 0.0948,-0.12864 0.21325,-0.23019 0.12186,-0.10493 0.25049,-0.18617 -0.0542,0.10832 -0.0779,0.24372 -0.0237,0.13202 -0.0237,0.30465 0,0.29111 0.0711,0.4976 0.0745,0.2031 0.20987,0.33173 0.1354,0.12863 0.33173,0.18618 0.19633,0.0575 0.44682,0.0575 0.16925,0 0.27419,-0.0203 0.10493,-0.0237 0.17602,-0.0609 -0.0609,0.10832 -0.14556,0.20649 -0.0812,0.0948 -0.19971,0.16925 -0.11509,0.0745 -0.2708,0.11509 -0.15571,0.044 -0.3622,0.044 z"
         style="font-style:normal;font-variant:normal;font-weight:normal;font-stretch:normal;font-size:4.06202px;font-family:Respira;-inkscape-font-specification:Respira;fill:#fbf7ee;fill-opacity:1;stroke-width:0.0555622"
         id="path837" />
      <path
         d="m 162.38703,-112.54315 q 0.044,-0.0135 0.0711,-0.0305 0.0305,-0.0169 0.0474,-0.0643 0.0203,-0.0474 0.0305,-0.1354 0.0102,-0.088 0.0135,-0.24711 0.003,-0.19972 0.007,-0.38589 0.003,-0.18956 0.007,-0.37574 0.003,-0.18617 0.003,-0.37573 0,-0.19295 0,-0.39605 -0.007,-0.15571 -0.0237,-0.24711 -0.0169,-0.0948 -0.0711,-0.14555 -0.0508,-0.0508 -0.15232,-0.0677 -0.0982,-0.0169 -0.26404,-0.0237 0.42652,0.003 0.7007,-0.0237 0.27757,-0.0271 0.41974,-0.0508 -0.007,0.25726 -0.0101,0.52129 -0.003,0.26065 -0.003,0.51453 0,0.25387 0,0.49759 0.003,0.24034 0.0102,0.45698 0.003,0.18956 0.0169,0.30127 0.0135,0.10832 0.0339,0.16586 0.0203,0.0576 0.0474,0.0812 0.0305,0.0203 0.0677,0.0305 z"
         style="font-style:normal;font-variant:normal;font-weight:normal;font-stretch:normal;font-size:4.06202px;font-family:Respira;-inkscape-font-specification:Respira;fill:#fbf7ee;fill-opacity:1;stroke-width:0.0555622"
         id="path839" />
      <path
         d="m 163.73088,-115.79277 q 0.0609,0 0.10155,0.0474 0.044,0.044 0.044,0.10494 0,0.0271 -0.0102,0.12524 -0.0102,0.0982 -0.0271,0.24711 -0.0135,0.14556 -0.0339,0.32835 -0.0169,0.18279 -0.0339,0.37912 -0.0169,0.19633 -0.0305,0.39605 -0.0135,0.19633 -0.0203,0.37235 -0.007,-0.17602 -0.0203,-0.37235 -0.0135,-0.19634 -0.0305,-0.39267 -0.0135,-0.19633 -0.0339,-0.37912 -0.0169,-0.18617 -0.0305,-0.33173 -0.0135,-0.14556 -0.0237,-0.24372 -0.007,-0.0982 -0.007,-0.12525 0,-0.0609 0.0474,-0.10832 0.0508,-0.0474 0.10832,-0.0474 z"
         style="font-style:normal;font-variant:normal;font-weight:normal;font-stretch:normal;font-size:4.06202px;font-family:Respira;-inkscape-font-specification:Respira;fill:#fbf7ee;fill-opacity:1;stroke-width:0.0555622"
         id="path841" />
    </g>
  </g>
</svg>
