<?xml version="1.0" encoding="UTF-8" standalone="no"?>
<svg
   xmlns:dc="http://purl.org/dc/elements/1.1/"
   xmlns:cc="http://creativecommons.org/ns#"
   xmlns:rdf="http://www.w3.org/1999/02/22-rdf-syntax-ns#"
   xmlns:svg="http://www.w3.org/2000/svg"
   xmlns="http://www.w3.org/2000/svg"
   xmlns:sodipodi="http://sodipodi.sourceforge.net/DTD/sodipodi-0.dtd"
   xmlns:inkscape="http://www.inkscape.org/namespaces/inkscape"
   width="7.0890636mm"
   height="13.344978mm"
   viewBox="0 0 7.0890637 13.344978"
   version="1.1"
   id="svg8"
   inkscape:version="1.0.2-2 (e86c870879, 2021-01-15)"
   sodipodi:docname="Feuille 003.svg">
  <defs
     id="defs2" />
  <sodipodi:namedview
     id="base"
     pagecolor="#ffffff"
     bordercolor="#666666"
     borderopacity="1.0"
     inkscape:pageopacity="0.0"
     inkscape:pageshadow="2"
     inkscape:zoom="3.959798"
     inkscape:cx="11.484807"
     inkscape:cy="39.808725"
     inkscape:document-units="mm"
     inkscape:current-layer="layer1"
     inkscape:document-rotation="0"
     showgrid="false"
     fit-margin-top="0"
     fit-margin-left="0"
     fit-margin-right="0"
     fit-margin-bottom="0"
     inkscape:window-width="958"
     inkscape:window-height="1018"
     inkscape:window-x="946"
     inkscape:window-y="0"
     inkscape:window-maximized="0" />
  <metadata
     id="metadata5">
    <rdf:RDF>
      <cc:Work
         rdf:about="">
        <dc:format>image/svg+xml</dc:format>
        <dc:type
           rdf:resource="http://purl.org/dc/dcmitype/StillImage" />
        <dc:title />
      </cc:Work>
    </rdf:RDF>
  </metadata>
  <g
     inkscape:label="Calque 1"
     inkscape:groupmode="layer"
     id="layer1"
     transform="translate(-114.47517,-152.70473)">
    <path
       inkscape:connector-curvature="0"
       id="path38-0-0-3-3-2-8-3-2-6"
       d="m 115.7241,166.04971 c 0,0 1.19803,-1.30477 2.08809,-1.89211 0.89006,-0.58735 2.55429,-2.34241 2.98212,-5.13948 0.42757,-2.79704 0.56621,-5.34623 0.76306,-5.99583 0.19658,-0.64958 -3.8907,-0.19656 -4.40082,0.4105 -0.50985,0.60706 -1.97035,2.74071 -2.38283,4.4871 -0.41275,1.74638 -0.38471,2.55087 0.005,3.84463 0.38893,1.29379 0.94615,4.28519 0.94615,4.28519 z"
       style="fill:#112f25;fill-opacity:1;stroke:none;stroke-width:0.53975;stroke-linecap:butt;stroke-linejoin:miter;stroke-miterlimit:4;stroke-dasharray:none;stroke-opacity:1" />
    <g
       aria-label="003"
       transform="rotate(-71.364377)"
       id="text8537-8-1-9-8-2-7-6-8-0-0-4-3-1"
       style="font-style:normal;font-variant:normal;font-weight:normal;font-stretch:normal;font-size:4.06202px;line-height:0.758097px;font-family:Respira;-inkscape-font-specification:Respira;font-variant-ligatures:normal;font-variant-caps:normal;font-variant-numeric:normal;font-feature-settings:normal;text-align:start;letter-spacing:0px;word-spacing:0px;writing-mode:lr-tb;text-anchor:start;fill:#fbf7ee;fill-opacity:1;stroke:none;stroke-width:0.0555622">
      <path
         d="m -115.39505,160.76032 q 0.26403,0 0.46713,0.0745 0.2031,0.0745 0.3385,0.21326 0.13879,0.13878 0.20649,0.33511 0.0711,0.19633 0.0711,0.44344 0,0.19972 -0.0542,0.36558 -0.0542,0.16248 -0.14555,0.2945 -0.0914,0.12863 -0.20987,0.23018 -0.11848,0.0982 -0.24711,0.17264 0.0542,-0.10833 0.0779,-0.26742 0.0237,-0.16248 0.0237,-0.33512 0,-0.29111 -0.0745,-0.49421 -0.0711,-0.2031 -0.2031,-0.32835 -0.13202,-0.12863 -0.31819,-0.18617 -0.18618,-0.0576 -0.41636,-0.0576 -0.18956,0 -0.31142,0.0474 -0.12186,0.0474 -0.18618,0.0812 0.0745,-0.12186 0.16587,-0.23018 0.0914,-0.10832 0.20987,-0.18617 0.11848,-0.0812 0.26742,-0.12525 0.14894,-0.0474 0.3385,-0.0474 z m -0.55514,2.66739 q -0.25049,0 -0.4536,-0.0677 -0.2031,-0.0711 -0.34865,-0.20648 -0.14217,-0.1354 -0.22003,-0.32835 -0.0778,-0.19633 -0.0778,-0.44682 0,-0.18279 0.0575,-0.33173 0.0575,-0.15233 0.14894,-0.27757 0.0948,-0.12864 0.21326,-0.23019 0.12186,-0.10493 0.25049,-0.18617 -0.0542,0.10832 -0.0779,0.24372 -0.0237,0.13201 -0.0237,0.30465 0,0.29111 0.0711,0.4976 0.0745,0.2031 0.20988,0.33173 0.1354,0.12863 0.33173,0.18618 0.19633,0.0575 0.44682,0.0575 0.16925,0 0.27419,-0.0203 0.10493,-0.0237 0.17602,-0.0609 -0.0609,0.10832 -0.14556,0.20649 -0.0812,0.0948 -0.19972,0.16925 -0.11509,0.0745 -0.2708,0.11509 -0.15571,0.044 -0.36219,0.044 z"
         style="font-style:normal;font-variant:normal;font-weight:normal;font-stretch:normal;font-size:4.06202px;font-family:Respira;-inkscape-font-specification:Respira;fill:#fbf7ee;fill-opacity:1;stroke-width:0.0555622"
         id="path833" />
      <path
         d="m -112.36885,160.76032 q 0.26403,0 0.46713,0.0745 0.2031,0.0745 0.3385,0.21326 0.13879,0.13878 0.20649,0.33511 0.0711,0.19633 0.0711,0.44344 0,0.19972 -0.0542,0.36558 -0.0542,0.16248 -0.14555,0.2945 -0.0914,0.12863 -0.20987,0.23018 -0.11848,0.0982 -0.24711,0.17264 0.0542,-0.10833 0.0779,-0.26742 0.0237,-0.16248 0.0237,-0.33512 0,-0.29111 -0.0745,-0.49421 -0.0711,-0.2031 -0.2031,-0.32835 -0.13201,-0.12863 -0.31819,-0.18617 -0.18618,-0.0576 -0.41636,-0.0576 -0.18956,0 -0.31142,0.0474 -0.12186,0.0474 -0.18618,0.0812 0.0745,-0.12186 0.16587,-0.23018 0.0914,-0.10832 0.20987,-0.18617 0.11848,-0.0812 0.26742,-0.12525 0.14894,-0.0474 0.3385,-0.0474 z m -0.55514,2.66739 q -0.25049,0 -0.4536,-0.0677 -0.2031,-0.0711 -0.34865,-0.20648 -0.14217,-0.1354 -0.22003,-0.32835 -0.0778,-0.19633 -0.0778,-0.44682 0,-0.18279 0.0575,-0.33173 0.0575,-0.15233 0.14894,-0.27757 0.0948,-0.12864 0.21326,-0.23019 0.12186,-0.10493 0.25049,-0.18617 -0.0542,0.10832 -0.0779,0.24372 -0.0237,0.13201 -0.0237,0.30465 0,0.29111 0.0711,0.4976 0.0745,0.2031 0.20988,0.33173 0.1354,0.12863 0.33173,0.18618 0.19633,0.0575 0.44682,0.0575 0.16925,0 0.27419,-0.0203 0.10493,-0.0237 0.17602,-0.0609 -0.0609,0.10832 -0.14556,0.20649 -0.0812,0.0948 -0.19972,0.16925 -0.11509,0.0745 -0.2708,0.11509 -0.15571,0.044 -0.36219,0.044 z"
         style="font-style:normal;font-variant:normal;font-weight:normal;font-stretch:normal;font-size:4.06202px;font-family:Respira;-inkscape-font-specification:Respira;fill:#fbf7ee;fill-opacity:1;stroke-width:0.0555622"
         id="path835" />
      <path
         d="m -109.95195,162.0297 q -0.0508,0.0914 -0.11848,0.17264 -0.0643,0.0812 -0.14555,0.14217 -0.0779,0.0609 -0.16926,0.0982 -0.088,0.0372 -0.18956,0.0372 -0.23018,0 -0.34527,-0.11171 -0.1117,-0.1117 -0.1117,-0.30126 0,-0.11509 0.0474,-0.22003 0.0474,-0.10832 0.12863,-0.19972 0.0812,-0.0914 0.18956,-0.16925 0.10832,-0.0778 0.23018,-0.14217 -0.0474,0.0982 -0.0609,0.18956 -0.0135,0.088 -0.0135,0.16587 0,0.17264 0.0812,0.2945 0.0812,0.11847 0.25388,0.11847 0.0575,0 0.10832,-0.0135 0.0542,-0.0169 0.11509,-0.0609 z m 0.48405,0.24034 q 0.0474,-0.0508 0.0914,-0.10494 0.0474,-0.0542 0.0812,-0.11847 0.0372,-0.0643 0.0575,-0.13879 0.0203,-0.0778 0.0203,-0.17264 0,-0.23356 -0.17264,-0.37573 -0.16925,-0.14556 -0.50098,-0.14556 -0.16587,0 -0.30127,0.0339 -0.13201,0.0339 -0.23695,0.0846 0.0575,-0.0982 0.14217,-0.19972 0.088,-0.10155 0.20987,-0.18279 0.12186,-0.0846 0.27757,-0.1354 0.15571,-0.0542 0.35543,-0.0542 0.42313,0 0.63638,0.18279 0.21326,0.18279 0.21664,0.50437 0,0.16248 -0.0812,0.29788 -0.0778,0.1354 -0.2031,0.24034 -0.12524,0.10155 -0.28434,0.17263 -0.15571,0.0711 -0.30804,0.11171 z m 0.44006,1.4894 q 0.0948,-0.10832 0.1117,-0.21664 0.0203,-0.10493 0.0203,-0.21325 0,-0.1354 -0.088,-0.24034 -0.088,-0.10493 -0.24033,-0.1794 -0.14895,-0.0745 -0.34866,-0.11848 -0.19972,-0.0474 -0.42313,-0.0643 l 0.48744,-0.41635 q 0.2268,0.0203 0.4299,0.0677 0.20649,0.0474 0.3622,0.12863 0.15909,0.0779 0.25049,0.18956 0.0948,0.10832 0.0948,0.25049 0,0.24372 -0.17941,0.45021 -0.17602,0.20987 -0.47728,0.36219 z m -1.33708,-0.71085 q -0.0406,0.0643 -0.0576,0.1354 -0.0135,0.0677 -0.0135,0.16587 0,0.1117 0.0609,0.2031 0.0643,0.0948 0.16587,0.16248 0.10155,0.0711 0.23356,0.10832 0.13202,0.0372 0.2708,0.0372 0.18279,0 0.3622,-0.0237 0.17941,-0.0237 0.30465,-0.0711 -0.0745,0.10156 -0.16925,0.21326 -0.0914,0.11171 -0.21664,0.2031 -0.12525,0.0914 -0.28434,0.15233 -0.1591,0.0609 -0.36558,0.0609 -0.20987,0 -0.36897,-0.044 -0.1591,-0.044 -0.26742,-0.11847 -0.10832,-0.0745 -0.16586,-0.17602 -0.0542,-0.0982 -0.0542,-0.21326 0,-0.22003 0.12863,-0.40959 0.12863,-0.18956 0.43667,-0.38589 z"
         style="font-style:normal;font-variant:normal;font-weight:normal;font-stretch:normal;font-size:4.06202px;font-family:Respira;-inkscape-font-specification:Respira;fill:#fbf7ee;fill-opacity:1;stroke-width:0.0555622"
         id="path837" />
    </g>
  </g>
</svg>
