<?xml version="1.0" encoding="UTF-8" standalone="no"?>
<svg
   xmlns:dc="http://purl.org/dc/elements/1.1/"
   xmlns:cc="http://creativecommons.org/ns#"
   xmlns:rdf="http://www.w3.org/1999/02/22-rdf-syntax-ns#"
   xmlns:svg="http://www.w3.org/2000/svg"
   xmlns="http://www.w3.org/2000/svg"
   xmlns:sodipodi="http://sodipodi.sourceforge.net/DTD/sodipodi-0.dtd"
   xmlns:inkscape="http://www.inkscape.org/namespaces/inkscape"
   width="7.7522349mm"
   height="13.6717mm"
   viewBox="0 0 7.7522348 13.6717"
   version="1.1"
   id="svg8"
   inkscape:version="1.0.2-2 (e86c870879, 2021-01-15)"
   sodipodi:docname="Feuille 006'.svg">
  <defs
     id="defs2">
    <inkscape:path-effect
       effect="spiro"
       id="path-effect11046"
       is_visible="true"
       lpeversion="0" />
    <inkscape:path-effect
       effect="spiro"
       id="path-effect11579"
       is_visible="true"
       lpeversion="0" />
    <inkscape:path-effect
       effect="spiro"
       id="path-effect70376"
       is_visible="true"
       lpeversion="0" />
    <inkscape:path-effect
       effect="spiro"
       id="path-effect13595"
       is_visible="true"
       lpeversion="0" />
  </defs>
  <sodipodi:namedview
     id="base"
     pagecolor="#ffffff"
     bordercolor="#666666"
     borderopacity="1.0"
     inkscape:pageopacity="0.0"
     inkscape:pageshadow="2"
     inkscape:zoom="3.959798"
     inkscape:cx="9.4951236"
     inkscape:cy="12.56485"
     inkscape:document-units="mm"
     inkscape:current-layer="layer1"
     inkscape:document-rotation="0"
     showgrid="false"
     fit-margin-top="0"
     fit-margin-left="0"
     fit-margin-right="0"
     fit-margin-bottom="0"
     inkscape:window-width="958"
     inkscape:window-height="1018"
     inkscape:window-x="946"
     inkscape:window-y="0"
     inkscape:window-maximized="0" />
  <metadata
     id="metadata5">
    <rdf:RDF>
      <cc:Work
         rdf:about="">
        <dc:format>image/svg+xml</dc:format>
        <dc:type
           rdf:resource="http://purl.org/dc/dcmitype/StillImage" />
        <dc:title />
      </cc:Work>
    </rdf:RDF>
  </metadata>
  <g
     inkscape:label="Calque 1"
     inkscape:groupmode="layer"
     id="layer1"
     transform="translate(-114.79635,-160.14829)">
    <path
       inkscape:original-d="m 120.85114,160.76432 c 0.21722,0.0254 0.57626,0.53626 0.86413,0.80478 0.2876,0.26853 0.17489,0.72983 0.26194,1.09511 0.087,0.36531 0.0185,1.18663 0.0283,1.78033 0.008,0.59373 -0.25295,1.70783 -0.37968,2.56215 -0.127,0.85431 -1.18269,2.1382 -1.7743,3.2077 -0.59161,1.06952 -0.39767,0.70199 -0.5969,1.05338 -0.19923,0.3514 -0.85301,0.73695 -1.28005,1.1058 -0.42677,0.36889 -1.00515,0.18688 -1.50813,0.28073 -0.50323,0.0938 -0.0579,0.0241 -0.0873,0.0364 -0.0294,0.0124 -0.0275,0.60031 -0.0275,0.60031 0,0 -0.25691,-0.38002 -0.38549,-0.56962 -0.12886,-0.18963 -0.40826,-1.58189 -0.61278,-2.37244 -0.20426,-0.79055 0.0238,-1.31993 0.0341,-1.97948 0.0106,-0.65958 0.66728,-2.36834 1.00066,-3.55211 0.33337,-1.18375 0.94403,-1.47468 1.41552,-2.21163 0.47149,-0.73694 1.11601,-1.09431 1.67375,-1.6411 0.55774,-0.54676 0.48128,-0.18376 0.72152,-0.27525 0.23998,-0.0915 0.43498,0.0497 0.6522,0.075 z"
       inkscape:path-effect="#path-effect13595"
       inkscape:connector-curvature="0"
       id="path1258-3-2-6-97-1-5-6-0-7"
       d="m 120.85114,160.76432 c 0.36974,0.15699 0.68127,0.44713 0.86413,0.80478 0.17196,0.33634 0.22913,0.71879 0.26194,1.09511 0.0516,0.59165 0.049,1.1868 0.0283,1.78033 -0.0302,0.86603 -0.10119,1.74156 -0.37968,2.56215 -0.39354,1.15958 -1.17534,2.13965 -1.7743,3.2077 -0.19746,0.35211 -0.37593,0.71553 -0.5969,1.05338 -0.31445,0.48078 -0.73621,0.9207 -1.28005,1.1058 -0.48511,0.16511 -1.02367,0.11374 -1.50813,0.28073 -0.0298,0.0103 -0.0595,0.0214 -0.0873,0.0364 -0.053,0.0285 -0.0984,0.071 -0.13042,0.12196 -0.032,0.051 -0.0506,0.11028 -0.0534,0.17041 -0.003,0.0601 0.0103,0.1209 0.0376,0.17456 0.0272,0.0537 0.0686,0.10011 0.11873,0.13338 -0.14522,-0.17781 -0.27441,-0.36871 -0.38549,-0.56962 -0.39838,-0.72052 -0.55451,-1.55118 -0.61278,-2.37244 -0.0468,-0.6591 -0.0342,-1.32226 0.0341,-1.97948 0.12779,-1.22999 0.45327,-2.44325 1.00066,-3.55211 0.38805,-0.78609 0.88403,-1.51446 1.41552,-2.21163 0.47675,-0.62536 0.99735,-1.24004 1.67375,-1.6411 0.22293,-0.13218 0.46465,-0.24074 0.72152,-0.27525 0.21912,-0.0294 0.44548,-0.003 0.6522,0.075 z"
       style="fill:#fbf7ee;fill-opacity:1;stroke:#112f25;stroke-width:1.05833;stroke-linecap:round;stroke-linejoin:round;stroke-miterlimit:6.1;stroke-dasharray:none;stroke-opacity:1;paint-order:markers stroke fill" />
    <g
       aria-label="006'"
       transform="rotate(-60.260007)"
       id="text8537-8-1-9-8-2-7-6-8-0-0-2-1-6-6-4-29"
       style="font-style:normal;font-variant:normal;font-weight:normal;font-stretch:normal;font-size:4.06202px;line-height:0.758097px;font-family:Respira;-inkscape-font-specification:Respira;font-variant-ligatures:normal;font-variant-caps:normal;font-variant-numeric:normal;font-feature-settings:normal;text-align:start;letter-spacing:0px;word-spacing:0px;writing-mode:lr-tb;text-anchor:start;fill:#112f25;fill-opacity:1;stroke:none;stroke-width:0.0555622">
      <path
         d="m -89.015878,184.76937 q 0.264032,0 0.467133,0.0745 0.203101,0.0745 0.338501,0.21325 0.138786,0.13879 0.206486,0.33512 0.07109,0.19633 0.07109,0.44344 0,0.19971 -0.05416,0.36558 -0.05416,0.16248 -0.145555,0.2945 -0.0914,0.12863 -0.209871,0.23018 -0.118476,0.0982 -0.247107,0.17263 0.05416,-0.10832 0.07786,-0.26741 0.0237,-0.16248 0.0237,-0.33512 0,-0.29111 -0.07447,-0.49421 -0.07108,-0.2031 -0.203101,-0.32835 -0.132015,-0.12863 -0.318191,-0.18617 -0.186176,-0.0576 -0.416357,-0.0576 -0.189561,0 -0.311422,0.0474 -0.12186,0.0474 -0.186176,0.0812 0.07447,-0.12186 0.165866,-0.23018 0.0914,-0.10832 0.209871,-0.18618 0.118476,-0.0812 0.267417,-0.12524 0.14894,-0.0474 0.338501,-0.0474 z m -0.555142,2.66739 q -0.250492,0 -0.453593,-0.0677 -0.203101,-0.0711 -0.348656,-0.20648 -0.142171,-0.13541 -0.220026,-0.32835 -0.07786,-0.19633 -0.07786,-0.44682 0,-0.18279 0.05754,-0.33174 0.05755,-0.15232 0.148941,-0.27757 0.09478,-0.12863 0.213256,-0.23018 0.121861,-0.10493 0.250491,-0.18617 -0.05416,0.10832 -0.07785,0.24372 -0.0237,0.13201 -0.0237,0.30465 0,0.29111 0.07108,0.4976 0.07447,0.2031 0.209871,0.33173 0.135401,0.12863 0.331732,0.18617 0.196331,0.0575 0.446822,0.0575 0.169251,0 0.274186,-0.0203 0.104936,-0.0237 0.176021,-0.0609 -0.06093,0.10832 -0.145555,0.20648 -0.08124,0.0948 -0.199716,0.16926 -0.115091,0.0745 -0.270802,0.11509 -0.15571,0.044 -0.362196,0.044 z"
         style="font-style:normal;font-variant:normal;font-weight:normal;font-stretch:normal;font-size:4.06202px;font-family:Respira;-inkscape-font-specification:Respira;fill:#112f25;fill-opacity:1;stroke-width:0.0555622"
         id="path837" />
      <path
         d="m -85.989677,184.76937 q 0.264031,0 0.467132,0.0745 0.203101,0.0745 0.338502,0.21325 0.138785,0.13879 0.206486,0.33512 0.07109,0.19633 0.07109,0.44344 0,0.19971 -0.05416,0.36558 -0.05416,0.16248 -0.145556,0.2945 -0.09139,0.12863 -0.209871,0.23018 -0.118476,0.0982 -0.247106,0.17263 0.05416,-0.10832 0.07785,-0.26741 0.0237,-0.16248 0.0237,-0.33512 0,-0.29111 -0.07447,-0.49421 -0.07108,-0.2031 -0.203101,-0.32835 -0.132016,-0.12863 -0.318192,-0.18617 -0.186175,-0.0576 -0.416357,-0.0576 -0.189561,0 -0.311421,0.0474 -0.121861,0.0474 -0.186176,0.0812 0.07447,-0.12186 0.165866,-0.23018 0.09139,-0.10832 0.209871,-0.18618 0.118475,-0.0812 0.267416,-0.12524 0.148941,-0.0474 0.338502,-0.0474 z m -0.555143,2.66739 q -0.250491,0 -0.453592,-0.0677 -0.203101,-0.0711 -0.348657,-0.20648 -0.142171,-0.13541 -0.220026,-0.32835 -0.07785,-0.19633 -0.07785,-0.44682 0,-0.18279 0.05754,-0.33174 0.05755,-0.15232 0.148941,-0.27757 0.09478,-0.12863 0.213256,-0.23018 0.12186,-0.10493 0.250491,-0.18617 -0.05416,0.10832 -0.07785,0.24372 -0.0237,0.13201 -0.0237,0.30465 0,0.29111 0.07109,0.4976 0.07447,0.2031 0.209871,0.33173 0.1354,0.12863 0.331731,0.18617 0.196331,0.0575 0.446823,0.0575 0.16925,0 0.274186,-0.0203 0.104935,-0.0237 0.176021,-0.0609 -0.06093,0.10832 -0.145556,0.20648 -0.08124,0.0948 -0.199716,0.16926 -0.11509,0.0745 -0.270801,0.11509 -0.155711,0.044 -0.362197,0.044 z"
         style="font-style:normal;font-variant:normal;font-weight:normal;font-stretch:normal;font-size:4.06202px;font-family:Respira;-inkscape-font-specification:Respira;fill:#112f25;fill-opacity:1;stroke-width:0.0555622"
         id="path839" />
      <path
         d="m -82.482804,186.7733 q 0.04739,-0.10494 0.0677,-0.25049 0.02031,-0.14556 0.02031,-0.34866 0,-0.2031 -0.05078,-0.37235 -0.05077,-0.16925 -0.155711,-0.28773 -0.104935,-0.12186 -0.260646,-0.18617 -0.155711,-0.0677 -0.368967,-0.0677 -0.135401,0 -0.240336,0.0237 -0.101551,0.0237 -0.189561,0.0745 -0.08463,0.0474 -0.162481,0.12525 -0.07447,0.0745 -0.155711,0.1794 0.118476,-0.19633 0.247107,-0.36219 0.132015,-0.16587 0.277571,-0.28096 0.148941,-0.11848 0.318191,-0.18279 0.169251,-0.0677 0.368967,-0.0677 0.240336,0 0.412972,0.0778 0.176021,0.0745 0.287727,0.20649 0.11509,0.12863 0.169251,0.30127 0.05416,0.16925 0.05416,0.35542 0,0.16587 -0.04739,0.31819 -0.04739,0.15233 -0.135401,0.28773 -0.08463,0.1354 -0.203101,0.25049 -0.115091,0.11509 -0.253876,0.20649 z m -1.533413,-1.19491 q 0,0.35881 0.06431,0.61607 0.0677,0.25726 0.189561,0.42313 0.125246,0.16586 0.304652,0.24372 0.179406,0.0778 0.406202,0.0778 0.159096,0 0.301266,-0.0406 0.145556,-0.044 0.264032,-0.12186 -0.07786,0.14217 -0.162481,0.2708 -0.08463,0.12525 -0.199716,0.22003 -0.111706,0.0948 -0.260646,0.14894 -0.145556,0.0542 -0.348657,0.0542 -0.250491,0 -0.463747,-0.0948 -0.209871,-0.0982 -0.365582,-0.28096 -0.152326,-0.18617 -0.240336,-0.4502 -0.08801,-0.26742 -0.08801,-0.60254 0,-0.45359 0.179406,-0.84625 0.179406,-0.39266 0.494213,-0.70747 0.318191,-0.3148 0.754858,-0.53822 0.436667,-0.22341 0.95119,-0.33511 -0.433282,0.0982 -0.765014,0.30126 -0.331732,0.19972 -0.558528,0.46714 -0.223411,0.26741 -0.341886,0.57883 -0.115091,0.30804 -0.115091,0.61608 z"
         style="font-style:normal;font-variant:normal;font-weight:normal;font-stretch:normal;font-size:4.06202px;font-family:Respira;-inkscape-font-specification:Respira;fill:#112f25;fill-opacity:1;stroke-width:0.0555622"
         id="path841" />
      <path
         d="m -81.436835,184.13637 q 0.06093,0 0.101551,0.0474 0.044,0.044 0.044,0.10494 0,0.0271 -0.01015,0.12524 -0.01015,0.0982 -0.02708,0.24711 -0.01354,0.14555 -0.03385,0.32834 -0.01693,0.1828 -0.03385,0.37913 -0.01693,0.19633 -0.03047,0.39604 -0.01354,0.19633 -0.02031,0.37236 -0.0068,-0.17603 -0.02031,-0.37236 -0.01354,-0.19633 -0.03047,-0.39266 -0.01354,-0.19633 -0.03385,-0.37912 -0.01693,-0.18618 -0.03046,-0.33173 -0.01354,-0.14556 -0.0237,-0.24372 -0.0068,-0.0982 -0.0068,-0.12525 0,-0.0609 0.04739,-0.10832 0.05077,-0.0474 0.10832,-0.0474 z"
         style="font-style:normal;font-variant:normal;font-weight:normal;font-stretch:normal;font-size:4.06202px;font-family:Respira;-inkscape-font-specification:Respira;fill:#112f25;fill-opacity:1;stroke-width:0.0555622"
         id="path843" />
    </g>
  </g>
</svg>
