<?xml version="1.0" encoding="UTF-8" standalone="no"?>
<svg
   xmlns:dc="http://purl.org/dc/elements/1.1/"
   xmlns:cc="http://creativecommons.org/ns#"
   xmlns:rdf="http://www.w3.org/1999/02/22-rdf-syntax-ns#"
   xmlns:svg="http://www.w3.org/2000/svg"
   xmlns="http://www.w3.org/2000/svg"
   xmlns:sodipodi="http://sodipodi.sourceforge.net/DTD/sodipodi-0.dtd"
   xmlns:inkscape="http://www.inkscape.org/namespaces/inkscape"
   width="8.0415249mm"
   height="11.364829mm"
   viewBox="0 0 8.0415248 11.364829"
   version="1.1"
   id="svg8"
   inkscape:version="1.0.2-2 (e86c870879, 2021-01-15)"
   sodipodi:docname="Feuille 007' Hover.svg">
  <defs
     id="defs2">
    <inkscape:path-effect
       effect="spiro"
       id="path-effect11014"
       is_visible="true"
       lpeversion="0" />
    <inkscape:path-effect
       effect="spiro"
       id="path-effect11611"
       is_visible="true"
       lpeversion="0" />
  </defs>
  <sodipodi:namedview
     id="base"
     pagecolor="#ffffff"
     bordercolor="#666666"
     borderopacity="1.0"
     inkscape:pageopacity="0.0"
     inkscape:pageshadow="2"
     inkscape:zoom="3.959798"
     inkscape:cx="30.937483"
     inkscape:cy="30.007015"
     inkscape:document-units="mm"
     inkscape:current-layer="layer1"
     inkscape:document-rotation="0"
     showgrid="false"
     fit-margin-top="0"
     fit-margin-left="0"
     fit-margin-right="0"
     fit-margin-bottom="0"
     inkscape:window-width="958"
     inkscape:window-height="1018"
     inkscape:window-x="946"
     inkscape:window-y="0"
     inkscape:window-maximized="0" />
  <metadata
     id="metadata5">
    <rdf:RDF>
      <cc:Work
         rdf:about="">
        <dc:format>image/svg+xml</dc:format>
        <dc:type
           rdf:resource="http://purl.org/dc/dcmitype/StillImage" />
        <dc:title />
      </cc:Work>
    </rdf:RDF>
  </metadata>
  <g
     inkscape:label="Calque 1"
     inkscape:groupmode="layer"
     id="layer1"
     transform="translate(-109.32831,-155.2981)">
    <path
       inkscape:original-d="m 117.32511,166.66288 c 0,0 -0.11007,-1.38202 -0.16431,-2.07325 -0.0542,-0.69112 0.13759,-1.63851 0.20691,-2.45787 0.0696,-0.81942 -0.53922,-1.82687 -0.80831,-2.74048 -0.26908,-0.9136 -1.59226,-1.7408 -2.3876,-2.61135 -0.7956,-0.87054 -4.51432,-1.3498 -4.51432,-1.3498 0,0 -0.41433,0.98737 -0.3085,1.92894 0.10557,0.94157 -0.4109,1.80938 0.31803,2.82435 0.72919,1.01502 1.31551,2.45655 2.18837,3.04467 0.87286,0.58811 1.98146,1.41599 2.6199,1.76403 0.63871,0.34803 1.91691,1.04394 1.91691,1.04394 l 0.93292,0.62687 z"
       inkscape:path-effect="#path-effect11611"
       inkscape:connector-curvature="0"
       id="path994-6-1-2-81-4-19-8-4-8-8"
       d="m 117.32511,166.66288 c -0.14972,-0.67914 -0.20519,-1.379 -0.16431,-2.07325 0.0484,-0.82142 0.23066,-1.63537 0.20691,-2.45787 -0.0278,-0.96125 -0.33939,-1.9009 -0.80831,-2.74048 -0.58027,-1.03894 -1.40501,-1.94007 -2.3876,-2.61135 -1.3177,-0.90021 -2.91874,-1.37893 -4.51432,-1.3498 -0.16251,0.63152 -0.26594,1.27823 -0.3085,1.92894 -0.0622,0.95163 0.008,1.92238 0.31803,2.82435 0.41076,1.19627 1.22707,2.22267 2.18837,3.04467 0.80137,0.68525 1.70479,1.24025 2.6199,1.76403 0.63151,0.36145 1.27067,0.70954 1.91691,1.04394 l 0.93292,0.62687 z"
       style="fill:#112f25;fill-opacity:1;stroke:none;stroke-width:1.05833;stroke-linecap:butt;stroke-linejoin:miter;stroke-miterlimit:4;stroke-dasharray:none;stroke-opacity:1;paint-order:markers stroke fill"
       sodipodi:nodetypes="csssscssssccc" />
    <g
       aria-label="007'"
       transform="rotate(58.627375)"
       id="text8537-8-1-9-8-2-7-6-8-0-0-2-2-3-1"
       style="font-style:normal;font-variant:normal;font-weight:normal;font-stretch:normal;font-size:4.06202px;line-height:0.758097px;font-family:Respira;-inkscape-font-specification:Respira;font-variant-ligatures:normal;font-variant-caps:normal;font-variant-numeric:normal;font-feature-settings:normal;text-align:start;letter-spacing:0px;word-spacing:0px;writing-mode:lr-tb;text-anchor:start;fill:#fbf7ee;fill-opacity:1;stroke:none;stroke-width:0.0555622">
      <path
         d="m 192.43952,-14.58585 q 0.26403,0 0.46713,0.07447 0.2031,0.07447 0.3385,0.213256 0.13879,0.138786 0.20649,0.335117 0.0711,0.196331 0.0711,0.443437 0,0.199716 -0.0542,0.365582 -0.0542,0.16248 -0.14556,0.294496 -0.0914,0.128631 -0.20987,0.230181 -0.11848,0.09817 -0.24711,0.172636 0.0542,-0.10832 0.0779,-0.267416 0.0237,-0.162481 0.0237,-0.335117 0,-0.291111 -0.0745,-0.494212 -0.0711,-0.203101 -0.2031,-0.328347 -0.13201,-0.128631 -0.31819,-0.186176 -0.18618,-0.05755 -0.41636,-0.05755 -0.18956,0 -0.31142,0.04739 -0.12186,0.04739 -0.18617,0.08124 0.0745,-0.121861 0.16586,-0.230182 0.0914,-0.10832 0.20987,-0.186175 0.11848,-0.08124 0.26742,-0.125246 0.14894,-0.04739 0.3385,-0.04739 z m -0.55514,2.667393 q -0.25049,0 -0.45359,-0.0677 -0.20311,-0.07109 -0.34866,-0.206486 -0.14217,-0.1354 -0.22003,-0.328346 -0.0779,-0.196331 -0.0779,-0.446822 0,-0.182791 0.0575,-0.331732 0.0575,-0.152326 0.14894,-0.277571 0.0948,-0.128631 0.21326,-0.230182 0.12186,-0.104935 0.25049,-0.186175 -0.0542,0.10832 -0.0778,0.243721 -0.0237,0.132015 -0.0237,0.304651 0,0.291112 0.0711,0.497598 0.0745,0.203101 0.20987,0.331731 0.1354,0.128631 0.33173,0.186176 0.19633,0.05755 0.44682,0.05755 0.16925,0 0.27419,-0.02031 0.10493,-0.0237 0.17602,-0.06093 -0.0609,0.108321 -0.14556,0.206486 -0.0812,0.09478 -0.19971,0.169251 -0.11509,0.07447 -0.27081,0.11509 -0.15571,0.04401 -0.36219,0.04401 z"
         style="font-style:normal;font-variant:normal;font-weight:normal;font-stretch:normal;font-size:4.06202px;font-family:Respira;-inkscape-font-specification:Respira;fill:#fbf7ee;fill-opacity:1;stroke-width:0.0555622"
         id="path835" />
      <path
         d="m 195.46572,-14.58585 q 0.26403,0 0.46713,0.07447 0.2031,0.07447 0.33851,0.213256 0.13878,0.138786 0.20648,0.335117 0.0711,0.196331 0.0711,0.443437 0,0.199716 -0.0542,0.365582 -0.0542,0.16248 -0.14556,0.294496 -0.0914,0.128631 -0.20987,0.230181 -0.11848,0.09817 -0.24711,0.172636 0.0542,-0.10832 0.0779,-0.267416 0.0237,-0.162481 0.0237,-0.335117 0,-0.291111 -0.0745,-0.494212 -0.0711,-0.203101 -0.2031,-0.328347 -0.13201,-0.128631 -0.31819,-0.186176 -0.18617,-0.05755 -0.41636,-0.05755 -0.18956,0 -0.31142,0.04739 -0.12186,0.04739 -0.18617,0.08124 0.0745,-0.121861 0.16586,-0.230182 0.0914,-0.10832 0.20987,-0.186175 0.11848,-0.08124 0.26742,-0.125246 0.14894,-0.04739 0.3385,-0.04739 z m -0.55514,2.667393 q -0.25049,0 -0.45359,-0.0677 -0.2031,-0.07109 -0.34866,-0.206486 -0.14217,-0.1354 -0.22003,-0.328346 -0.0778,-0.196331 -0.0778,-0.446822 0,-0.182791 0.0575,-0.331732 0.0576,-0.152326 0.14894,-0.277571 0.0948,-0.128631 0.21326,-0.230182 0.12186,-0.104935 0.25049,-0.186175 -0.0542,0.10832 -0.0779,0.243721 -0.0237,0.132015 -0.0237,0.304651 0,0.291112 0.0711,0.497598 0.0745,0.203101 0.20987,0.331731 0.1354,0.128631 0.33173,0.186176 0.19633,0.05755 0.44682,0.05755 0.16925,0 0.27419,-0.02031 0.10493,-0.0237 0.17602,-0.06093 -0.0609,0.108321 -0.14556,0.206486 -0.0812,0.09478 -0.19971,0.169251 -0.11509,0.07447 -0.2708,0.11509 -0.15572,0.04401 -0.3622,0.04401 z"
         style="font-style:normal;font-variant:normal;font-weight:normal;font-stretch:normal;font-size:4.06202px;font-family:Respira;-inkscape-font-specification:Respira;fill:#fbf7ee;fill-opacity:1;stroke-width:0.0555622"
         id="path837" />
      <path
         d="m 199.11138,-13.756521 q -0.23357,0.765013 -0.42313,1.303231 -0.18956,0.538218 -0.3825,0.880104 -0.18956,0.341887 -0.40621,0.497598 -0.21664,0.159096 -0.51113,0.159096 -0.32835,0 -0.51453,-0.152326 -0.18279,-0.152326 -0.18279,-0.419742 0,-0.115091 0.044,-0.223411 0.0474,-0.108321 0.12186,-0.203101 0.0745,-0.0914 0.17263,-0.169251 0.0982,-0.08124 0.20649,-0.138786 -0.0474,0.09478 -0.0474,0.223411 0,0.189561 0.11848,0.297882 0.12186,0.111705 0.36558,0.111705 0.18279,0 0.35204,-0.12186 0.17264,-0.118476 0.34527,-0.379122 0.17602,-0.260646 0.35543,-0.670233 0.18279,-0.412972 0.38589,-0.995195 z m 0.0677,-0.189561 q -0.0474,0.03385 -0.37235,0.03385 h -1.20845 q -0.18956,0 -0.31481,0.02708 -0.12186,0.0237 -0.20649,0.07109 -0.0846,0.04401 -0.14555,0.115091 -0.0609,0.0677 -0.12525,0.152326 l -0.0203,-0.01354 q 0.0677,-0.08124 0.14556,-0.196331 0.0778,-0.118476 0.1591,-0.250492 0.0812,-0.132015 0.15909,-0.267416 0.0779,-0.138785 0.14217,-0.260646 h 2.09871 z"
         style="font-style:normal;font-variant:normal;font-weight:normal;font-stretch:normal;font-size:4.06202px;font-family:Respira;-inkscape-font-specification:Respira;fill:#fbf7ee;fill-opacity:1;stroke-width:0.0555622"
         id="path839" />
      <path
         d="m 199.7173,-15.218848 q 0.0609,0 0.10155,0.04739 0.044,0.04401 0.044,0.104935 0,0.02708 -0.0102,0.125246 -0.0102,0.09816 -0.0271,0.247106 -0.0135,0.145556 -0.0338,0.328347 -0.0169,0.182791 -0.0339,0.379122 -0.0169,0.196331 -0.0305,0.396047 -0.0135,0.19633 -0.0203,0.372351 -0.007,-0.176021 -0.0203,-0.372351 -0.0135,-0.196331 -0.0305,-0.392662 -0.0136,-0.196331 -0.0339,-0.379122 -0.0169,-0.186176 -0.0305,-0.331732 -0.0135,-0.145556 -0.0237,-0.243721 -0.007,-0.09817 -0.007,-0.125246 0,-0.06093 0.0474,-0.10832 0.0508,-0.04739 0.10833,-0.04739 z"
         style="font-style:normal;font-variant:normal;font-weight:normal;font-stretch:normal;font-size:4.06202px;font-family:Respira;-inkscape-font-specification:Respira;fill:#fbf7ee;fill-opacity:1;stroke-width:0.0555622"
         id="path841" />
    </g>
  </g>
</svg>
