<?xml version="1.0" encoding="UTF-8" standalone="no"?>
<svg
   xmlns:dc="http://purl.org/dc/elements/1.1/"
   xmlns:cc="http://creativecommons.org/ns#"
   xmlns:rdf="http://www.w3.org/1999/02/22-rdf-syntax-ns#"
   xmlns:svg="http://www.w3.org/2000/svg"
   xmlns="http://www.w3.org/2000/svg"
   xmlns:sodipodi="http://sodipodi.sourceforge.net/DTD/sodipodi-0.dtd"
   xmlns:inkscape="http://www.inkscape.org/namespaces/inkscape"
   width="9.0345297mm"
   height="14.116642mm"
   viewBox="0 0 9.0345296 14.116642"
   version="1.1"
   id="svg8"
   inkscape:version="1.0.2-2 (e86c870879, 2021-01-15)"
   sodipodi:docname="Feuille 007 Hover.svg">
  <defs
     id="defs2">
    <inkscape:path-effect
       effect="spiro"
       id="path-effect11014"
       is_visible="true"
       lpeversion="0" />
  </defs>
  <sodipodi:namedview
     id="base"
     pagecolor="#ffffff"
     bordercolor="#666666"
     borderopacity="1.0"
     inkscape:pageopacity="0.0"
     inkscape:pageshadow="2"
     inkscape:zoom="3.959798"
     inkscape:cx="32.408583"
     inkscape:cy="35.804322"
     inkscape:document-units="mm"
     inkscape:current-layer="g11258"
     inkscape:document-rotation="0"
     showgrid="false"
     fit-margin-top="0"
     fit-margin-left="0"
     fit-margin-right="0"
     fit-margin-bottom="0"
     inkscape:window-width="958"
     inkscape:window-height="1018"
     inkscape:window-x="946"
     inkscape:window-y="0"
     inkscape:window-maximized="0" />
  <metadata
     id="metadata5">
    <rdf:RDF>
      <cc:Work
         rdf:about="">
        <dc:format>image/svg+xml</dc:format>
        <dc:type
           rdf:resource="http://purl.org/dc/dcmitype/StillImage" />
        <dc:title />
      </cc:Work>
    </rdf:RDF>
  </metadata>
  <g
     inkscape:label="Calque 1"
     inkscape:groupmode="layer"
     id="layer1"
     transform="translate(-108.93908,-153.76423)">
    <g
       id="g11258"
       transform="matrix(0.26458333,0,0,0.26458333,2736.5141,1444.1793)">
      <path
         inkscape:original-d="m -9902.8595,-4874.4582 c 3.222,-2.1024 1.295,3.2853 1.943,4.9292 0.646,1.644 1.198,6.1184 1.797,9.179 0.599,3.0606 -0.189,6.0124 -0.284,9.02 -0.1,3.0076 -3.014,7.0148 -4.523,10.5236 -1.509,3.5088 -4.923,6.7389 -7.387,10.1098 -2.464,3.371 -5.356,2.811 -8.035,4.2179 -2.679,1.4069 -4.418,0.6376 -4.418,0.6376 0,0 -1.227,-1.8991 -1.227,-1.8991 0,0 -1.761,-3.9775 -2.643,-5.9649 -0.882,-1.9873 -0.695,-8.6094 -1.043,-12.9128 -0.348,-4.3034 4.104,-8.5273 6.154,-12.7894 2.051,-4.2621 6.667,-5.8279 9.999,-8.7406 3.331,-2.9125 6.446,-4.2078 9.667,-6.3103 z"
         inkscape:path-effect="#path-effect11014"
         inkscape:connector-curvature="0"
         id="path1106-0-7-8-9-9-4-0-0"
         d="m -9902.8595,-4874.4582 c 0.722,0.5499 1.178,1.3881 1.4451,2.2555 0.267,0.8674 0.3641,1.7761 0.4979,2.6737 0.4599,3.0844 1.3661,6.0904 1.797,9.179 0.4179,2.9955 0.3808,6.0695 -0.284,9.02 -0.8422,3.7382 -2.6585,7.176 -4.523,10.5236 -2.0416,3.6655 -4.2219,7.3556 -7.387,10.1098 -2.3024,2.0035 -5.0808,3.4513 -8.035,4.2179 -1.4432,0.3745 -2.9278,0.5888 -4.418,0.6376 l -1.227,-1.8991 c -1.0972,-1.8828 -1.9854,-3.8873 -2.643,-5.9649 -1.3146,-4.153 -1.6957,-8.6059 -1.043,-12.9128 0.7209,-4.757 2.7556,-9.3836 6.154,-12.7894 3.1354,-3.1423 7.3331,-5.1913 9.999,-8.7406 1.306,-1.7388 2.2068,-3.795 3.7687,-5.3081 0.781,-0.7565 1.7333,-1.3653 2.7951,-1.5997 0.5308,-0.1171 1.0847,-0.1389 1.6198,-0.043 0.5351,0.096 1.0509,0.311 1.4834,0.6404 z"
         style="fill:#fbf7ee;fill-opacity:1;stroke:#112f25;stroke-width:4;stroke-linecap:butt;stroke-linejoin:miter;stroke-miterlimit:4;stroke-dasharray:none;stroke-opacity:1;paint-order:markers stroke fill" />
      <g
         aria-label="007"
         transform="rotate(-59.71643)"
         id="text8537-8-1-9-8-2-7-6-8-0-0-2-3-0"
         style="font-style:normal;font-variant:normal;font-weight:normal;font-stretch:normal;font-size:15.3525px;line-height:2.86525px;font-family:Respira;-inkscape-font-specification:Respira;font-variant-ligatures:normal;font-variant-caps:normal;font-variant-numeric:normal;font-feature-settings:normal;text-align:start;letter-spacing:0px;word-spacing:0px;writing-mode:lr-tb;text-anchor:start;fill:#112f25;fill-opacity:1;stroke:none;stroke-width:0.209999">
        <path
           d="m -822.42842,-11011.865 q 0.99791,0 1.76554,0.281 0.76762,0.282 1.27937,0.806 0.52455,0.525 0.78042,1.267 0.26867,0.742 0.26867,1.676 0,0.755 -0.2047,1.382 -0.2047,0.614 -0.55013,1.113 -0.34543,0.486 -0.79321,0.87 -0.44778,0.371 -0.93395,0.652 0.2047,-0.409 0.29426,-1.011 0.0896,-0.614 0.0896,-1.266 0,-1.1 -0.28147,-1.868 -0.26867,-0.768 -0.76762,-1.241 -0.49896,-0.486 -1.20261,-0.704 -0.70366,-0.217 -1.57364,-0.217 -0.71645,0 -1.17702,0.179 -0.46058,0.179 -0.70366,0.307 0.28147,-0.461 0.6269,-0.87 0.34543,-0.409 0.79321,-0.704 0.44778,-0.307 1.01071,-0.473 0.56292,-0.179 1.27937,-0.179 z m -2.09817,10.081 q -0.94674,0 -1.71437,-0.256 -0.76762,-0.268 -1.31775,-0.78 -0.53734,-0.512 -0.8316,-1.241 -0.29425,-0.742 -0.29425,-1.689 0,-0.691 0.21749,-1.254 0.21749,-0.575 0.56293,-1.049 0.35822,-0.486 0.806,-0.87 0.46058,-0.396 0.94674,-0.703 -0.2047,0.409 -0.29426,0.921 -0.0896,0.499 -0.0896,1.151 0,1.101 0.26867,1.881 0.28146,0.768 0.79321,1.254 0.51175,0.486 1.25379,0.703 0.74203,0.218 1.68877,0.218 0.63969,0 1.03629,-0.08 0.39661,-0.09 0.66528,-0.23 -0.23029,0.409 -0.55013,0.78 -0.30705,0.359 -0.75483,0.64 -0.43499,0.281 -1.0235,0.435 -0.58852,0.166 -1.36893,0.166 z"
           style="font-style:normal;font-variant:normal;font-weight:normal;font-stretch:normal;font-size:15.3525px;font-family:Respira;-inkscape-font-specification:Respira;fill:#112f25;fill-opacity:1;stroke-width:0.209999"
           id="path835" />
        <path
           d="m -810.99082,-11011.865 q 0.99791,0 1.76553,0.281 0.76763,0.282 1.27938,0.806 0.52454,0.525 0.78042,1.267 0.26867,0.742 0.26867,1.676 0,0.755 -0.2047,1.382 -0.2047,0.614 -0.55013,1.113 -0.34544,0.486 -0.79322,0.87 -0.44778,0.371 -0.93394,0.652 0.2047,-0.409 0.29426,-1.011 0.0896,-0.614 0.0896,-1.266 0,-1.1 -0.28146,-1.868 -0.26867,-0.768 -0.76763,-1.241 -0.49895,-0.486 -1.20261,-0.704 -0.70365,-0.217 -1.57363,-0.217 -0.71645,0 -1.17702,0.179 -0.46058,0.179 -0.70366,0.307 0.28146,-0.461 0.62689,-0.87 0.34543,-0.409 0.79322,-0.704 0.44778,-0.307 1.0107,-0.473 0.56293,-0.179 1.27938,-0.179 z m -2.09818,10.081 q -0.94674,0 -1.71436,-0.256 -0.76763,-0.268 -1.31776,-0.78 -0.53733,-0.512 -0.83159,-1.241 -0.29426,-0.742 -0.29426,-1.689 0,-0.691 0.2175,-1.254 0.21749,-0.575 0.56292,-1.049 0.35823,-0.486 0.80601,-0.87 0.46057,-0.396 0.94674,-0.703 -0.2047,0.409 -0.29426,0.921 -0.0896,0.499 -0.0896,1.151 0,1.101 0.26867,1.881 0.28146,0.768 0.79321,1.254 0.51175,0.486 1.25379,0.703 0.74204,0.218 1.68878,0.218 0.63968,0 1.03629,-0.08 0.39661,-0.09 0.66528,-0.23 -0.23029,0.409 -0.55014,0.78 -0.30705,0.359 -0.75483,0.64 -0.43498,0.281 -1.0235,0.435 -0.58851,0.166 -1.36893,0.166 z"
           style="font-style:normal;font-variant:normal;font-weight:normal;font-stretch:normal;font-size:15.3525px;font-family:Respira;-inkscape-font-specification:Respira;fill:#112f25;fill-opacity:1;stroke-width:0.209999"
           id="path837" />
        <path
           d="m -797.21197,-11008.731 q -0.88277,2.892 -1.59922,4.926 -0.71645,2.034 -1.44569,3.326 -0.71645,1.292 -1.53525,1.881 -0.8188,0.601 -1.93186,0.601 -1.24099,0 -1.94465,-0.575 -0.69086,-0.576 -0.69086,-1.587 0,-0.435 0.16632,-0.844 0.17911,-0.41 0.46057,-0.768 0.28146,-0.345 0.65248,-0.64 0.37102,-0.307 0.78042,-0.524 -0.17911,0.358 -0.17911,0.844 0,0.717 0.44778,1.126 0.46058,0.422 1.38173,0.422 0.69086,0 1.33055,-0.46 0.65248,-0.448 1.30496,-1.433 0.66527,-0.985 1.34334,-2.533 0.69086,-1.561 1.45849,-3.762 z m 0.25587,-0.716 q -0.17911,0.128 -1.40731,0.128 h -4.56737 q -0.71645,0 -1.18982,0.102 -0.46057,0.09 -0.78041,0.269 -0.31985,0.166 -0.55014,0.435 -0.23028,0.256 -0.47336,0.576 l -0.0768,-0.05 q 0.25588,-0.307 0.55013,-0.742 0.29426,-0.447 0.60131,-0.946 0.30705,-0.499 0.60131,-1.011 0.29425,-0.525 0.53733,-0.985 h 7.93213 z"
           style="font-style:normal;font-variant:normal;font-weight:normal;font-stretch:normal;font-size:15.3525px;font-family:Respira;-inkscape-font-specification:Respira;fill:#112f25;fill-opacity:1;stroke-width:0.209999"
           id="path839" />
      </g>
    </g>
  </g>
</svg>
