<?xml version="1.0" encoding="UTF-8" standalone="no"?>
<svg
   xmlns:dc="http://purl.org/dc/elements/1.1/"
   xmlns:cc="http://creativecommons.org/ns#"
   xmlns:rdf="http://www.w3.org/1999/02/22-rdf-syntax-ns#"
   xmlns:svg="http://www.w3.org/2000/svg"
   xmlns="http://www.w3.org/2000/svg"
   xmlns:sodipodi="http://sodipodi.sourceforge.net/DTD/sodipodi-0.dtd"
   xmlns:inkscape="http://www.inkscape.org/namespaces/inkscape"
   width="7.9028425mm"
   height="16.549358mm"
   viewBox="0 0 7.9028425 16.549358"
   version="1.1"
   id="svg8"
   inkscape:version="1.0.2-2 (e86c870879, 2021-01-15)"
   sodipodi:docname="Feuille 002 Hover.svg">
  <defs
     id="defs2">
    <inkscape:path-effect
       effect="spiro"
       id="path-effect11136"
       is_visible="true"
       lpeversion="0" />
  </defs>
  <sodipodi:namedview
     id="base"
     pagecolor="#ffffff"
     bordercolor="#666666"
     borderopacity="1.0"
     inkscape:pageopacity="0.0"
     inkscape:pageshadow="2"
     inkscape:zoom="3.959798"
     inkscape:cx="26.481789"
     inkscape:cy="43.432138"
     inkscape:document-units="mm"
     inkscape:current-layer="g11232"
     inkscape:document-rotation="0"
     showgrid="false"
     fit-margin-top="0"
     fit-margin-left="0"
     fit-margin-right="0"
     fit-margin-bottom="0"
     inkscape:window-width="958"
     inkscape:window-height="1018"
     inkscape:window-x="946"
     inkscape:window-y="0"
     inkscape:window-maximized="0" />
  <metadata
     id="metadata5">
    <rdf:RDF>
      <cc:Work
         rdf:about="">
        <dc:format>image/svg+xml</dc:format>
        <dc:type
           rdf:resource="http://purl.org/dc/dcmitype/StillImage" />
        <dc:title />
      </cc:Work>
    </rdf:RDF>
  </metadata>
  <g
     inkscape:label="Calque 1"
     inkscape:groupmode="layer"
     id="layer1"
     transform="translate(-110.50721,-151.74604)">
    <g
       id="g11232"
       transform="matrix(0.26458333,0,0,0.26458333,2830.8031,1444.1756)">
      <path
         inkscape:original-d="m -10270.818,-4824.2794 c 1.678,-1.1104 3.352,-2.2199 5.027,-3.3279 1.674,-1.1083 6.248,-6.7768 9.369,-10.1636 3.123,-3.3868 1.385,-11.4753 2.076,-17.2112 0.691,-5.7361 -5.978,-11.1803 -8.971,-16.7688 -2.991,-5.5884 -1.921,-2.9637 -2.884,-4.4439 -0.963,-1.4802 -0.85,-6.5802 -0.85,-6.5802 0,0 -1.607,4.1834 -3.312,7.8531 -1.706,3.6695 -3.888,5.7847 -5.12,11.0123 -1.231,5.2274 -4.246,10.3974 -3.696,15.6857 0.549,5.2883 0.288,13.5371 1.647,15.8683 1.359,2.3311 3.85,6.7555 4.073,6.9967 0.222,0.2413 0,0.6109 0.663,0.7274 0.661,0.1162 0.302,1.4624 1.978,0.3521 z"
         inkscape:path-effect="#path-effect11136"
         inkscape:connector-curvature="0"
         id="path1010-4-1-5-8-7-1-5-6"
         d="m -10270.818,-4824.2794 c 1.008,-0.1678 1.938,-0.6607 2.756,-1.2725 0.819,-0.6117 1.539,-1.343 2.271,-2.0554 3.314,-3.2239 7.008,-6.1879 9.369,-10.1636 3.027,-5.0977 3.516,-11.4601 2.076,-17.2112 -1.55,-6.1915 -5.145,-11.6604 -8.971,-16.7688 -1.061,-1.4164 -2.154,-2.8317 -2.884,-4.4439 -0.926,-2.0447 -1.226,-4.3675 -0.85,-6.5802 -1.003,2.6588 -2.108,5.2791 -3.312,7.8531 -1.715,3.6677 -3.634,7.2459 -5.12,11.0123 -1.978,5.0129 -3.173,10.3219 -3.696,15.6857 -0.521,5.3444 -0.353,10.8848 1.647,15.8683 1.008,2.5115 2.459,4.8248 4.073,6.9967 0.196,0.2643 0.399,0.5304 0.663,0.7274 0.276,0.2059 0.609,0.3274 0.95,0.3775 0.34,0.05 0.688,0.031 1.028,-0.025 z"
         style="fill:#fbf7ee;fill-opacity:1;stroke:#112f25;stroke-width:4;stroke-linecap:square;stroke-linejoin:round;stroke-miterlimit:10.5;stroke-dasharray:none;stroke-opacity:1;paint-order:markers stroke fill" />
      <g
         aria-label="002"
         transform="rotate(-88.13374)"
         id="text8537-8-1-9-8-2-7-6-8-0-0-0-7-3-1-8"
         style="font-style:normal;font-variant:normal;font-weight:normal;font-stretch:normal;font-size:15.3525px;line-height:2.86525px;font-family:Respira;-inkscape-font-specification:Respira;font-variant-ligatures:normal;font-variant-caps:normal;font-variant-numeric:normal;font-feature-settings:normal;text-align:start;letter-spacing:0px;word-spacing:0px;writing-mode:lr-tb;text-anchor:start;fill:#112f25;fill-opacity:1;stroke:none;stroke-width:0.209999">
        <path
           d="m 4502.7934,-10424.824 q 0.9979,0 1.7655,0.281 0.7676,0.282 1.2794,0.806 0.5245,0.525 0.7804,1.267 0.2687,0.742 0.2687,1.676 0,0.755 -0.2047,1.382 -0.2047,0.614 -0.5501,1.113 -0.3455,0.486 -0.7933,0.87 -0.4477,0.371 -0.9339,0.652 0.2047,-0.409 0.2943,-1.011 0.09,-0.614 0.09,-1.266 0,-1.1 -0.2815,-1.868 -0.2686,-0.768 -0.7676,-1.241 -0.4989,-0.486 -1.2026,-0.704 -0.7036,-0.217 -1.5736,-0.217 -0.7165,0 -1.177,0.179 -0.4606,0.179 -0.7037,0.307 0.2815,-0.461 0.6269,-0.87 0.3454,-0.409 0.7932,-0.704 0.4478,-0.307 1.0107,-0.473 0.5629,-0.179 1.2794,-0.179 z m -2.0982,10.081 q -0.9467,0 -1.7144,-0.256 -0.7676,-0.268 -1.3177,-0.78 -0.5373,-0.512 -0.8316,-1.241 -0.2943,-0.742 -0.2943,-1.689 0,-0.691 0.2175,-1.254 0.2175,-0.575 0.563,-1.049 0.3582,-0.486 0.806,-0.87 0.4605,-0.396 0.9467,-0.703 -0.2047,0.409 -0.2943,0.921 -0.09,0.499 -0.09,1.151 0,1.101 0.2687,1.881 0.2814,0.768 0.7932,1.254 0.5117,0.486 1.2538,0.703 0.742,0.218 1.6887,0.218 0.6397,0 1.0363,-0.08 0.3966,-0.09 0.6653,-0.23 -0.2303,0.409 -0.5501,0.78 -0.3071,0.359 -0.7549,0.64 -0.4349,0.281 -1.0235,0.435 -0.5885,0.166 -1.3689,0.166 z"
           style="font-style:normal;font-variant:normal;font-weight:normal;font-stretch:normal;font-size:15.3525px;font-family:Respira;-inkscape-font-specification:Respira;fill:#112f25;fill-opacity:1;stroke-width:0.209999"
           id="path835" />
        <path
           d="m 4514.231,-10424.824 q 0.9979,0 1.7655,0.281 0.7676,0.282 1.2794,0.806 0.5245,0.525 0.7804,1.267 0.2687,0.742 0.2687,1.676 0,0.755 -0.2047,1.382 -0.2047,0.614 -0.5502,1.113 -0.3454,0.486 -0.7932,0.87 -0.4477,0.371 -0.9339,0.652 0.2047,-0.409 0.2942,-1.011 0.09,-0.614 0.09,-1.266 0,-1.1 -0.2815,-1.868 -0.2686,-0.768 -0.7676,-1.241 -0.4989,-0.486 -1.2026,-0.704 -0.7037,-0.217 -1.5736,-0.217 -0.7165,0 -1.1771,0.179 -0.4605,0.179 -0.7036,0.307 0.2815,-0.461 0.6269,-0.87 0.3454,-0.409 0.7932,-0.704 0.4478,-0.307 1.0107,-0.473 0.5629,-0.179 1.2794,-0.179 z m -2.0982,10.081 q -0.9467,0 -1.7144,-0.256 -0.7676,-0.268 -1.3177,-0.78 -0.5374,-0.512 -0.8316,-1.241 -0.2943,-0.742 -0.2943,-1.689 0,-0.691 0.2175,-1.254 0.2175,-0.575 0.563,-1.049 0.3582,-0.486 0.806,-0.87 0.4605,-0.396 0.9467,-0.703 -0.2047,0.409 -0.2943,0.921 -0.09,0.499 -0.09,1.151 0,1.101 0.2687,1.881 0.2814,0.768 0.7932,1.254 0.5117,0.486 1.2538,0.703 0.742,0.218 1.6887,0.218 0.6397,0 1.0363,-0.08 0.3966,-0.09 0.6653,-0.23 -0.2303,0.409 -0.5501,0.78 -0.3071,0.359 -0.7549,0.64 -0.435,0.281 -1.0235,0.435 -0.5885,0.166 -1.3689,0.166 z"
           style="font-style:normal;font-variant:normal;font-weight:normal;font-stretch:normal;font-size:15.3525px;font-family:Respira;-inkscape-font-specification:Respira;fill:#112f25;fill-opacity:1;stroke-width:0.209999"
           id="path837" />
        <path
           d="m 4523.3401,-10420.474 q -0.4734,0.895 -1.0619,1.433 -0.5885,0.537 -1.3305,0.537 -0.7293,0 -1.1515,-0.409 -0.4221,-0.423 -0.4221,-1.075 0,-0.768 0.6013,-1.484 0.6141,-0.729 1.6631,-1.292 -0.1407,0.256 -0.2302,0.563 -0.077,0.294 -0.077,0.588 0,0.282 0.077,0.55 0.09,0.256 0.243,0.461 0.1536,0.204 0.3711,0.332 0.2175,0.116 0.4733,0.116 0.2431,0 0.4478,-0.06 0.2047,-0.08 0.3966,-0.256 z m -0.8828,3.096 q 0.8572,-0.729 1.4841,-1.28 0.6269,-0.55 1.0363,-0.997 0.4094,-0.448 0.6013,-0.819 0.2047,-0.384 0.2047,-0.755 0,-0.896 -0.6525,-1.407 -0.6396,-0.512 -1.7783,-0.512 -0.4734,0 -0.9211,0.102 -0.4478,0.09 -0.7805,0.269 0.2431,-0.422 0.5886,-0.793 0.3454,-0.371 0.7932,-0.653 0.4477,-0.281 0.9979,-0.435 0.5629,-0.166 1.241,-0.166 0.742,0 1.3049,0.179 0.563,0.166 0.934,0.486 0.3838,0.307 0.5757,0.742 0.1919,0.435 0.1919,0.972 0,0.525 -0.2687,0.973 -0.2558,0.448 -0.7036,0.87 -0.4478,0.409 -1.0363,0.793 -0.5757,0.384 -1.2282,0.78 -0.6525,0.384 -1.3178,0.794 -0.6652,0.409 -1.2666,0.857 z m -0.3198,0.23 q 0.2687,-0.128 1.4969,-0.128 h 3.3136 q 0.7164,0 1.1898,-0.09 0.4733,-0.103 0.806,-0.269 0.3326,-0.179 0.5757,-0.435 0.2431,-0.256 0.499,-0.589 l 0.077,0.05 q -0.2687,0.307 -0.5885,0.754 -0.3198,0.435 -0.6525,0.934 -0.3198,0.499 -0.6397,1.024 -0.307,0.512 -0.5757,0.972 h -8.0089 l -0.038,-0.05 z"
           style="font-style:normal;font-variant:normal;font-weight:normal;font-stretch:normal;font-size:15.3525px;font-family:Respira;-inkscape-font-specification:Respira;fill:#112f25;fill-opacity:1;stroke-width:0.209999"
           id="path839" />
      </g>
    </g>
  </g>
</svg>
