<?xml version="1.0" encoding="UTF-8" standalone="no"?>
<svg
   xmlns:dc="http://purl.org/dc/elements/1.1/"
   xmlns:cc="http://creativecommons.org/ns#"
   xmlns:rdf="http://www.w3.org/1999/02/22-rdf-syntax-ns#"
   xmlns:svg="http://www.w3.org/2000/svg"
   xmlns="http://www.w3.org/2000/svg"
   xmlns:sodipodi="http://sodipodi.sourceforge.net/DTD/sodipodi-0.dtd"
   xmlns:inkscape="http://www.inkscape.org/namespaces/inkscape"
   width="13.745152mm"
   height="14.925223mm"
   viewBox="0 0 13.745152 14.925224"
   version="1.1"
   id="svg8"
   inkscape:version="1.0.2-2 (e86c870879, 2021-01-15)"
   sodipodi:docname="Feuille 003'.svg">
  <defs
     id="defs2">
    <inkscape:path-effect
       effect="spiro"
       id="path-effect11393"
       is_visible="true"
       lpeversion="0" />
    <inkscape:path-effect
       effect="spiro"
       id="path-effect70278"
       is_visible="true"
       lpeversion="0" />
    <inkscape:path-effect
       effect="spiro"
       id="path-effect13497"
       is_visible="true"
       lpeversion="0" />
  </defs>
  <sodipodi:namedview
     id="base"
     pagecolor="#ffffff"
     bordercolor="#666666"
     borderopacity="1.0"
     inkscape:pageopacity="0.0"
     inkscape:pageshadow="2"
     inkscape:zoom="3.959798"
     inkscape:cx="24.907974"
     inkscape:cy="18.832684"
     inkscape:document-units="mm"
     inkscape:current-layer="layer1"
     inkscape:document-rotation="0"
     showgrid="false"
     fit-margin-top="0"
     fit-margin-left="0"
     fit-margin-right="0"
     fit-margin-bottom="0"
     inkscape:window-width="958"
     inkscape:window-height="1018"
     inkscape:window-x="946"
     inkscape:window-y="0"
     inkscape:window-maximized="0" />
  <metadata
     id="metadata5">
    <rdf:RDF>
      <cc:Work
         rdf:about="">
        <dc:format>image/svg+xml</dc:format>
        <dc:type
           rdf:resource="http://purl.org/dc/dcmitype/StillImage" />
        <dc:title />
      </cc:Work>
    </rdf:RDF>
  </metadata>
  <g
     inkscape:label="Calque 1"
     inkscape:groupmode="layer"
     id="layer1"
     transform="translate(-110.92363,-158.25465)">
    <path
       inkscape:original-d="m 118.76282,164.63097 c 0,0 0.51541,-0.47935 0.77259,-0.71864 0.25717,-0.23929 0.74189,-0.96427 1.11257,-1.446 0.37041,-0.48173 0.3638,-0.96943 0.5453,-1.45375 0.18151,-0.48432 -0.0159,-1.07204 -0.0238,-1.60766 -0.008,-0.53563 -0.082,-0.62725 -0.12356,-0.94047 -0.0413,-0.31321 -0.0185,-0.0781 -0.0299,-0.11673 -0.0106,-0.0386 -0.14843,-0.0616 -0.22304,-0.092 -0.0744,-0.0304 -0.2876,0.0836 -0.4318,0.12578 -0.14393,0.0422 -0.36856,0.19717 -0.55324,0.29615 -0.18468,0.099 0.0987,0.14327 0.14763,0.21531 0.0489,0.072 0.37121,0.0907 0.55642,0.13645 0.18521,0.0458 0.0833,0.16288 0.12436,0.24471 0.0413,0.0818 0.0159,0.95848 0.0212,1.43812 0.008,0.47966 -0.78687,1.69682 -1.18083,2.54563 -0.39397,0.84884 -0.20056,0.27787 -0.3011,0.41723 -0.1008,0.13933 -0.33549,0.48148 -0.50376,0.72263 -0.16802,0.24114 0.0894,0.23323 0.0894,0.23323 z"
       inkscape:path-effect="#path-effect13497"
       inkscape:connector-curvature="0"
       id="path1285-2-0-9-2-9-2-8-34-6"
       d="m 118.76282,164.63097 c 0.27006,-0.22559 0.52808,-0.46559 0.77259,-0.71864 0.42366,-0.43845 0.8079,-0.9179 1.11257,-1.446 0.26007,-0.45078 0.4623,-0.93999 0.5453,-1.45375 0.0858,-0.53093 0.0427,-1.07398 -0.0238,-1.60766 -0.0391,-0.31376 -0.0862,-0.6265 -0.12356,-0.94047 -0.005,-0.0402 -0.01,-0.0816 -0.0299,-0.11673 -0.0211,-0.0368 -0.0575,-0.0634 -0.0974,-0.0778 -0.0399,-0.0144 -0.0833,-0.0172 -0.12559,-0.0142 -0.14996,0.0107 -0.28536,0.0918 -0.4318,0.12578 -0.11117,0.0258 -0.22817,0.0243 -0.33678,0.0593 -0.0543,0.0175 -0.10642,0.0446 -0.14679,0.0849 -0.0404,0.0403 -0.0682,0.0948 -0.0697,0.15187 -0.001,0.046 0.0148,0.0917 0.0417,0.12903 0.0269,0.0373 0.0644,0.0664 0.10592,0.0863 0.0873,0.0419 0.1877,0.0432 0.28433,0.0501 0.0483,0.003 0.0968,0.009 0.14352,0.0213 0.0467,0.0127 0.092,0.0333 0.12857,0.0651 0.0351,0.0304 0.0613,0.0702 0.0806,0.11248 0.0193,0.0423 0.0322,0.0872 0.0437,0.13223 0.12016,0.46807 0.10967,0.96304 0.0212,1.43812 -0.17262,0.92699 -0.63323,1.77801 -1.18083,2.54563 -0.0996,0.13962 -0.20227,0.27705 -0.3011,0.41723 -0.16921,0.24 -0.32715,0.48802 -0.50376,0.72263 -0.0173,0.023 -0.0349,0.0463 -0.0458,0.0729 -0.0109,0.0266 -0.0143,0.057 -0.005,0.0844 0.009,0.0274 0.03,0.0503 0.0561,0.0624 0.0261,0.0121 0.0558,0.0134 0.0846,0.0136 z"
       style="fill:#112f25;fill-opacity:1;stroke:none;stroke-width:0.264583px;stroke-linecap:butt;stroke-linejoin:miter;stroke-opacity:1" />
    <path
       inkscape:connector-curvature="0"
       id="path44-21-8-5-24-37-4-6-6-1"
       d="m 111.73178,172.64509 c 0,0 4.55825,-0.0316 6.81064,-1.30538 2.25214,-1.27378 4.41087,-2.89337 5.51974,-5.98265 0,0 -2.31484,-2.50028 -5.44539,-1.67627 -3.13055,0.82402 -4.8469,3.11521 -5.59673,5.41793 -0.74983,2.3027 -1.28826,3.54637 -1.28826,3.54637 z"
       style="fill:#fbf7ee;fill-opacity:1;stroke:#112f25;stroke-width:1.05833;stroke-linecap:butt;stroke-linejoin:miter;stroke-miterlimit:4;stroke-dasharray:none;stroke-opacity:1;paint-order:markers stroke fill" />
    <g
       aria-label="003'"
       transform="rotate(-32.222874)"
       id="text8537-8-1-9-8-2-7-6-8-0-0-6-5-5-28"
       style="font-style:normal;font-variant:normal;font-weight:normal;font-stretch:normal;font-size:4.06202px;line-height:0.758097px;font-family:Respira;-inkscape-font-specification:Respira;font-variant-ligatures:normal;font-variant-caps:normal;font-variant-numeric:normal;font-feature-settings:normal;text-align:start;letter-spacing:0px;word-spacing:0px;writing-mode:lr-tb;text-anchor:start;fill:#112f25;fill-opacity:1;stroke:none;stroke-width:0.0555622">
      <path
         d="m 6.8223733,203.78377 q 0.2640313,0 0.4671323,0.0745 0.203101,0.0745 0.3385017,0.21326 0.1387857,0.13878 0.206486,0.33512 0.071085,0.19633 0.071085,0.44343 0,0.19972 -0.05416,0.36558 -0.05416,0.16249 -0.1455557,0.2945 -0.091395,0.12863 -0.2098711,0.23018 -0.1184755,0.0982 -0.2471062,0.17264 0.05416,-0.10832 0.077855,-0.26742 0.023695,-0.16248 0.023695,-0.33511 0,-0.29112 -0.07447,-0.49422 -0.071085,-0.2031 -0.203101,-0.32834 -0.1320157,-0.12863 -0.3181916,-0.18618 -0.1861759,-0.0575 -0.416357,-0.0575 -0.1895609,0 -0.3114215,0.0474 -0.1218606,0.0474 -0.1861759,0.0812 0.07447,-0.12186 0.1658658,-0.23019 0.091395,-0.10832 0.209871,-0.18617 0.1184756,-0.0812 0.2674163,-0.12525 0.1489407,-0.0474 0.3385016,-0.0474 z m -0.5551427,2.6674 q -0.2504912,0 -0.4535922,-0.0677 -0.203101,-0.0711 -0.3486567,-0.20649 -0.1421707,-0.1354 -0.2200261,-0.32835 -0.077855,-0.19633 -0.077855,-0.44682 0,-0.18279 0.057545,-0.33173 0.057545,-0.15233 0.1489408,-0.27757 0.09478,-0.12863 0.213256,-0.23018 0.1218606,-0.10494 0.2504912,-0.18618 -0.05416,0.10832 -0.077855,0.24372 -0.023695,0.13202 -0.023695,0.30465 0,0.29111 0.071085,0.4976 0.07447,0.2031 0.209871,0.33173 0.1354007,0.12863 0.3317316,0.18618 0.196331,0.0575 0.4468222,0.0575 0.1692508,0 0.2741864,-0.0203 0.1049355,-0.0237 0.1760208,-0.0609 -0.06093,0.10832 -0.1455557,0.20649 -0.08124,0.0948 -0.199716,0.16925 -0.1150905,0.0745 -0.2708013,0.11509 -0.1557108,0.044 -0.3621968,0.044 z"
         style="font-style:normal;font-variant:normal;font-weight:normal;font-stretch:normal;font-size:4.06202px;font-family:Respira;-inkscape-font-specification:Respira;fill:#112f25;fill-opacity:1;stroke-width:0.0555622"
         id="path837" />
      <path
         d="m 9.8485739,203.78377 q 0.2640311,0 0.4671321,0.0745 0.203101,0.0745 0.338502,0.21326 0.138785,0.13878 0.206486,0.33512 0.07109,0.19633 0.07109,0.44343 0,0.19972 -0.05416,0.36558 -0.05416,0.16249 -0.145556,0.2945 -0.0914,0.12863 -0.209871,0.23018 -0.118475,0.0982 -0.247106,0.17264 0.05416,-0.10832 0.07785,-0.26742 0.0237,-0.16248 0.0237,-0.33511 0,-0.29112 -0.07447,-0.49422 -0.07109,-0.2031 -0.203101,-0.32834 -0.1320155,-0.12863 -0.3181915,-0.18618 -0.1861759,-0.0575 -0.416357,-0.0575 -0.1895609,0 -0.3114215,0.0474 -0.1218606,0.0474 -0.1861759,0.0812 0.07447,-0.12186 0.1658658,-0.23019 0.091395,-0.10832 0.209871,-0.18617 0.1184756,-0.0812 0.2674163,-0.12525 0.1489408,-0.0474 0.3385017,-0.0474 z m -0.5551427,2.6674 q -0.2504913,0 -0.4535922,-0.0677 -0.203101,-0.0711 -0.3486567,-0.20649 -0.1421707,-0.1354 -0.2200261,-0.32835 -0.077855,-0.19633 -0.077855,-0.44682 0,-0.18279 0.057545,-0.33173 0.057545,-0.15233 0.1489407,-0.27757 0.094781,-0.12863 0.213256,-0.23018 0.1218606,-0.10494 0.2504913,-0.18618 -0.05416,0.10832 -0.077855,0.24372 -0.023695,0.13202 -0.023695,0.30465 0,0.29111 0.071085,0.4976 0.07447,0.2031 0.209871,0.33173 0.1354007,0.12863 0.3317317,0.18618 0.1963309,0.0575 0.4468221,0.0575 0.1692509,0 0.2741863,-0.0203 0.104936,-0.0237 0.176021,-0.0609 -0.06093,0.10832 -0.145556,0.20649 -0.08124,0.0948 -0.1997157,0.16925 -0.1150906,0.0745 -0.2708014,0.11509 -0.1557107,0.044 -0.3621967,0.044 z"
         style="font-style:normal;font-variant:normal;font-weight:normal;font-stretch:normal;font-size:4.06202px;font-family:Respira;-inkscape-font-specification:Respira;fill:#112f25;fill-opacity:1;stroke-width:0.0555622"
         id="path839" />
      <path
         d="m 12.265471,205.05315 q -0.05077,0.0914 -0.118475,0.17264 -0.06432,0.0812 -0.145556,0.14217 -0.07786,0.0609 -0.169251,0.0982 -0.08801,0.0372 -0.189561,0.0372 -0.230181,0 -0.345271,-0.1117 -0.111706,-0.11171 -0.111706,-0.30127 0,-0.11509 0.04739,-0.22003 0.04739,-0.10832 0.128631,-0.19971 0.08124,-0.0914 0.189561,-0.16925 0.10832,-0.0779 0.230181,-0.14217 -0.04739,0.0982 -0.06093,0.18956 -0.01354,0.088 -0.01354,0.16586 0,0.17264 0.08124,0.2945 0.08124,0.11847 0.253876,0.11847 0.05755,0 0.108321,-0.0135 0.05416,-0.0169 0.11509,-0.0609 z m 0.484058,0.24034 q 0.04739,-0.0508 0.09139,-0.10494 0.04739,-0.0542 0.08124,-0.11847 0.03724,-0.0643 0.05755,-0.13879 0.02031,-0.0778 0.02031,-0.17263 0,-0.23357 -0.172636,-0.37574 -0.169251,-0.14555 -0.500982,-0.14555 -0.165866,0 -0.301267,0.0339 -0.132015,0.0339 -0.236951,0.0846 0.05755,-0.0982 0.142171,-0.19972 0.08801,-0.10155 0.209871,-0.18279 0.12186,-0.0846 0.277571,-0.1354 0.155711,-0.0542 0.355427,-0.0542 0.423127,0 0.636383,0.18279 0.213256,0.18279 0.216641,0.50437 0,0.16248 -0.08124,0.29788 -0.07786,0.1354 -0.203101,0.24034 -0.125246,0.10155 -0.284342,0.17263 -0.15571,0.0711 -0.308036,0.11171 z m 0.440052,1.48941 q 0.09478,-0.10832 0.111705,-0.21664 0.02031,-0.10494 0.02031,-0.21326 0,-0.1354 -0.08801,-0.24034 -0.08801,-0.10493 -0.240336,-0.1794 -0.148941,-0.0745 -0.348657,-0.11848 -0.199716,-0.0474 -0.423127,-0.0643 l 0.487443,-0.41636 q 0.226796,0.0203 0.429897,0.0677 0.206486,0.0474 0.362196,0.12863 0.159096,0.0779 0.250492,0.18956 0.09478,0.10832 0.09478,0.25049 0,0.24372 -0.179406,0.45021 -0.176021,0.20987 -0.477287,0.3622 z m -1.337082,-0.71086 q -0.04062,0.0643 -0.05754,0.1354 -0.01354,0.0677 -0.01354,0.16587 0,0.11171 0.06093,0.2031 0.06432,0.0948 0.165866,0.16248 0.101551,0.0711 0.233566,0.10832 0.132016,0.0372 0.270802,0.0372 0.182791,0 0.362196,-0.0237 0.179406,-0.0237 0.304652,-0.0711 -0.07447,0.10155 -0.169251,0.21325 -0.0914,0.11171 -0.216641,0.2031 -0.125246,0.0914 -0.284341,0.15233 -0.159096,0.0609 -0.365582,0.0609 -0.209871,0 -0.368967,-0.044 -0.159096,-0.044 -0.267416,-0.11848 -0.108321,-0.0745 -0.165866,-0.17602 -0.05416,-0.0982 -0.05416,-0.21326 0,-0.22002 0.12863,-0.40958 0.128631,-0.18957 0.436667,-0.3859 z"
         style="font-style:normal;font-variant:normal;font-weight:normal;font-stretch:normal;font-size:4.06202px;font-family:Respira;-inkscape-font-specification:Respira;fill:#112f25;fill-opacity:1;stroke-width:0.0555622"
         id="path841" />
      <path
         d="m 14.23216,203.15077 q 0.06093,0 0.101551,0.0474 0.04401,0.044 0.04401,0.10494 0,0.0271 -0.01015,0.12525 -0.01016,0.0982 -0.02708,0.2471 -0.01354,0.14556 -0.03385,0.32835 -0.01692,0.18279 -0.03385,0.37912 -0.01692,0.19633 -0.03046,0.39605 -0.01354,0.19633 -0.02031,0.37235 -0.0068,-0.17602 -0.02031,-0.37235 -0.01354,-0.19633 -0.03047,-0.39266 -0.01354,-0.19634 -0.03385,-0.37913 -0.01693,-0.18617 -0.03046,-0.33173 -0.01354,-0.14555 -0.0237,-0.24372 -0.0068,-0.0982 -0.0068,-0.12524 0,-0.0609 0.04739,-0.10833 0.05077,-0.0474 0.10832,-0.0474 z"
         style="font-style:normal;font-variant:normal;font-weight:normal;font-stretch:normal;font-size:4.06202px;font-family:Respira;-inkscape-font-specification:Respira;fill:#112f25;fill-opacity:1;stroke-width:0.0555622"
         id="path843" />
    </g>
  </g>
</svg>
