<?xml version="1.0" encoding="UTF-8" standalone="no"?>
<svg
   xmlns:dc="http://purl.org/dc/elements/1.1/"
   xmlns:cc="http://creativecommons.org/ns#"
   xmlns:rdf="http://www.w3.org/1999/02/22-rdf-syntax-ns#"
   xmlns:svg="http://www.w3.org/2000/svg"
   xmlns="http://www.w3.org/2000/svg"
   xmlns:sodipodi="http://sodipodi.sourceforge.net/DTD/sodipodi-0.dtd"
   xmlns:inkscape="http://www.inkscape.org/namespaces/inkscape"
   width="7.9102073mm"
   height="13.50769mm"
   viewBox="0 0 7.9102071 13.507691"
   version="1.1"
   id="svg8"
   inkscape:version="1.0.2-2 (e86c870879, 2021-01-15)"
   sodipodi:docname="Feuille 006.svg">
  <defs
     id="defs2">
    <inkscape:path-effect
       effect="spiro"
       id="path-effect11046"
       is_visible="true"
       lpeversion="0" />
    <inkscape:path-effect
       effect="spiro"
       id="path-effect70364"
       is_visible="true"
       lpeversion="0" />
    <inkscape:path-effect
       effect="spiro"
       id="path-effect13583"
       is_visible="true"
       lpeversion="0" />
  </defs>
  <sodipodi:namedview
     id="base"
     pagecolor="#ffffff"
     bordercolor="#666666"
     borderopacity="1.0"
     inkscape:pageopacity="0.0"
     inkscape:pageshadow="2"
     inkscape:zoom="3.959798"
     inkscape:cx="22.024074"
     inkscape:cy="36.099851"
     inkscape:document-units="mm"
     inkscape:current-layer="layer1"
     inkscape:document-rotation="0"
     showgrid="false"
     fit-margin-top="0"
     fit-margin-left="0"
     fit-margin-right="0"
     fit-margin-bottom="0"
     inkscape:window-width="958"
     inkscape:window-height="1018"
     inkscape:window-x="946"
     inkscape:window-y="0"
     inkscape:window-maximized="0" />
  <metadata
     id="metadata5">
    <rdf:RDF>
      <cc:Work
         rdf:about="">
        <dc:format>image/svg+xml</dc:format>
        <dc:type
           rdf:resource="http://purl.org/dc/dcmitype/StillImage" />
        <dc:title />
      </cc:Work>
    </rdf:RDF>
  </metadata>
  <g
     inkscape:label="Calque 1"
     inkscape:groupmode="layer"
     id="layer1"
     transform="translate(-111.68665,-153.68604)">
    <path
       inkscape:original-d="m 118.68617,167.19371 c 0,0 0.13203,-1.51617 0.1987,-2.27433 0.0667,-0.75817 0.43921,-1.7507 0.65961,-2.62615 0.22039,-0.87543 -0.2413,-2.07309 -0.36116,-3.10973 -0.11986,-1.03661 -1.36737,-2.16392 -2.05052,-3.24599 -0.68315,-1.08204 -4.5212,-2.25147 -4.5212,-2.25147 0,0 -0.6141,0.99708 -0.67178,2.03541 -0.0574,1.03836 -0.75829,1.88799 -0.17118,3.11486 0.58711,1.2269 0.94721,2.89087 1.76265,3.68054 0.81545,0.78968 1.83647,1.88024 2.44793,2.3689 0.61118,0.48868 1.83515,1.46584 1.83515,1.46584 0,0 0.8718,0.84214 0.8718,0.84214 z"
       inkscape:path-effect="#path-effect13583"
       inkscape:connector-curvature="0"
       id="path994-9-0-6-4-6-8-3-2-0-03"
       d="m 118.68617,167.19371 c -0.0361,-0.76244 0.031,-1.52969 0.1987,-2.27433 0.19847,-0.88118 0.53707,-1.73124 0.65961,-2.62615 0.14289,-1.0435 -0.0161,-2.11462 -0.36116,-3.10973 -0.42303,-1.22002 -1.12767,-2.34281 -2.05052,-3.24599 -1.22306,-1.19699 -2.82894,-1.99669 -4.5212,-2.25147 -0.2848,0.65632 -0.50995,1.33851 -0.67178,2.03541 -0.23669,1.01931 -0.33711,2.08167 -0.17118,3.11486 0.21822,1.3588 0.891,2.61556 1.76265,3.68054 0.7203,0.88005 1.5748,1.64022 2.44793,2.3689 0.60113,0.50168 1.21303,0.99044 1.83515,1.46584 l 0.8718,0.84214 z"
       style="fill:#112f25;fill-opacity:1;stroke:none;stroke-width:0.316542px;stroke-linecap:butt;stroke-linejoin:miter;stroke-opacity:1" />
    <g
       aria-label="006"
       transform="rotate(67.594793)"
       id="text8537-8-1-9-8-2-7-6-8-0-0-2-1-2-2-9"
       style="font-style:normal;font-variant:normal;font-weight:normal;font-stretch:normal;font-size:4.06202px;line-height:0.758097px;font-family:Respira;-inkscape-font-specification:Respira;font-variant-ligatures:normal;font-variant-caps:normal;font-variant-numeric:normal;font-feature-settings:normal;text-align:start;letter-spacing:0px;word-spacing:0px;writing-mode:lr-tb;text-anchor:start;fill:#fbf7ee;fill-opacity:1;stroke:none;stroke-width:0.0555622">
      <path
         d="m 188.98351,-47.268115 q 0.26403,0 0.46713,0.07447 0.20311,0.07447 0.33851,0.213256 0.13878,0.138785 0.20648,0.335116 0.0711,0.196331 0.0711,0.443438 0,0.199716 -0.0542,0.365581 -0.0542,0.162481 -0.14556,0.294497 -0.0914,0.12863 -0.20987,0.230181 -0.11848,0.09816 -0.24711,0.172636 0.0542,-0.108321 0.0779,-0.267417 0.0237,-0.16248 0.0237,-0.335116 0,-0.291112 -0.0745,-0.494213 -0.0711,-0.203101 -0.2031,-0.328346 -0.13201,-0.128631 -0.31819,-0.186176 -0.18617,-0.05754 -0.41636,-0.05754 -0.18956,0 -0.31142,0.04739 -0.12186,0.04739 -0.18617,0.08124 0.0745,-0.12186 0.16586,-0.230181 0.0914,-0.10832 0.20987,-0.186176 0.11848,-0.08124 0.26742,-0.125245 0.14894,-0.04739 0.3385,-0.04739 z m -0.55514,2.667393 q -0.25049,0 -0.45359,-0.0677 -0.2031,-0.07109 -0.34866,-0.206486 -0.14217,-0.135401 -0.22003,-0.328347 -0.0779,-0.196331 -0.0779,-0.446822 0,-0.182791 0.0575,-0.331731 0.0575,-0.152326 0.14894,-0.277572 0.0948,-0.12863 0.21326,-0.230181 0.12186,-0.104935 0.25049,-0.186176 -0.0542,0.108321 -0.0778,0.243721 -0.0237,0.132016 -0.0237,0.304652 0,0.291111 0.0711,0.497597 0.0745,0.203101 0.20987,0.331732 0.1354,0.128631 0.33173,0.186176 0.19633,0.05755 0.44682,0.05755 0.16925,0 0.27419,-0.02031 0.10493,-0.02369 0.17602,-0.06093 -0.0609,0.10832 -0.14556,0.206486 -0.0812,0.09478 -0.19971,0.169251 -0.11509,0.07447 -0.2708,0.11509 -0.15571,0.04401 -0.3622,0.04401 z"
         style="font-style:normal;font-variant:normal;font-weight:normal;font-stretch:normal;font-size:4.06202px;font-family:Respira;-inkscape-font-specification:Respira;fill:#fbf7ee;fill-opacity:1;stroke-width:0.0555622"
         id="path836" />
      <path
         d="m 192.00971,-47.268115 q 0.26403,0 0.46713,0.07447 0.20311,0.07447 0.33851,0.213256 0.13878,0.138785 0.20648,0.335116 0.0711,0.196331 0.0711,0.443438 0,0.199716 -0.0542,0.365581 -0.0542,0.162481 -0.14556,0.294497 -0.0914,0.12863 -0.20987,0.230181 -0.11847,0.09816 -0.24711,0.172636 0.0542,-0.108321 0.0779,-0.267417 0.0237,-0.16248 0.0237,-0.335116 0,-0.291112 -0.0745,-0.494213 -0.0711,-0.203101 -0.2031,-0.328346 -0.13201,-0.128631 -0.31819,-0.186176 -0.18617,-0.05754 -0.41635,-0.05754 -0.18957,0 -0.31143,0.04739 -0.12186,0.04739 -0.18617,0.08124 0.0745,-0.12186 0.16586,-0.230181 0.0914,-0.10832 0.20987,-0.186176 0.11848,-0.08124 0.26742,-0.125245 0.14894,-0.04739 0.3385,-0.04739 z m -0.55514,2.667393 q -0.25049,0 -0.45359,-0.0677 -0.2031,-0.07109 -0.34866,-0.206486 -0.14217,-0.135401 -0.22003,-0.328347 -0.0778,-0.196331 -0.0778,-0.446822 0,-0.182791 0.0575,-0.331731 0.0575,-0.152326 0.14895,-0.277572 0.0948,-0.12863 0.21325,-0.230181 0.12186,-0.104935 0.25049,-0.186176 -0.0542,0.108321 -0.0778,0.243721 -0.0237,0.132016 -0.0237,0.304652 0,0.291111 0.0711,0.497597 0.0745,0.203101 0.20987,0.331732 0.1354,0.128631 0.33173,0.186176 0.19633,0.05755 0.44682,0.05755 0.16925,0 0.27419,-0.02031 0.10493,-0.02369 0.17602,-0.06093 -0.0609,0.10832 -0.14556,0.206486 -0.0812,0.09478 -0.19971,0.169251 -0.11509,0.07447 -0.2708,0.11509 -0.15571,0.04401 -0.3622,0.04401 z"
         style="font-style:normal;font-variant:normal;font-weight:normal;font-stretch:normal;font-size:4.06202px;font-family:Respira;-inkscape-font-specification:Respira;fill:#fbf7ee;fill-opacity:1;stroke-width:0.0555622"
         id="path838" />
      <path
         d="m 195.51659,-45.264185 q 0.0474,-0.104935 0.0677,-0.250491 0.0203,-0.145556 0.0203,-0.348657 0,-0.203101 -0.0508,-0.372352 -0.0508,-0.16925 -0.15571,-0.287726 -0.10494,-0.121861 -0.26065,-0.186176 -0.15571,-0.0677 -0.36896,-0.0677 -0.1354,0 -0.24034,0.0237 -0.10155,0.02369 -0.18956,0.07447 -0.0846,0.04739 -0.16248,0.125246 -0.0745,0.07447 -0.15571,0.179406 0.11847,-0.196331 0.2471,-0.362197 0.13202,-0.165866 0.27758,-0.280956 0.14894,-0.118476 0.31819,-0.182791 0.16925,-0.0677 0.36896,-0.0677 0.24034,0 0.41298,0.07786 0.17602,0.07447 0.28772,0.206486 0.11509,0.12863 0.16925,0.301266 0.0542,0.169251 0.0542,0.355427 0,0.165866 -0.0474,0.318191 -0.0474,0.152326 -0.1354,0.287727 -0.0846,0.135401 -0.2031,0.250491 -0.11509,0.115091 -0.25387,0.206486 z m -1.53342,-1.194911 q 0,0.358812 0.0643,0.616073 0.0677,0.257262 0.18956,0.423127 0.12524,0.165866 0.30465,0.243722 0.17941,0.07786 0.4062,0.07786 0.1591,0 0.30127,-0.04062 0.14555,-0.044 0.26403,-0.121861 -0.0779,0.142171 -0.16248,0.270801 -0.0846,0.125246 -0.19972,0.220027 -0.1117,0.09478 -0.26064,0.14894 -0.14556,0.05416 -0.34866,0.05416 -0.25049,0 -0.46375,-0.09478 -0.20987,-0.09817 -0.36558,-0.280956 -0.15232,-0.186176 -0.24033,-0.450208 -0.088,-0.267416 -0.088,-0.602532 0,-0.453593 0.17941,-0.846255 0.17941,-0.392661 0.49421,-0.707468 0.31819,-0.314807 0.75486,-0.538218 0.43667,-0.223411 0.95119,-0.335116 -0.43328,0.09816 -0.76501,0.301266 -0.33173,0.199716 -0.55853,0.467132 -0.22341,0.267417 -0.34189,0.578838 -0.11509,0.308037 -0.11509,0.616073 z"
         style="font-style:normal;font-variant:normal;font-weight:normal;font-stretch:normal;font-size:4.06202px;font-family:Respira;-inkscape-font-specification:Respira;fill:#fbf7ee;fill-opacity:1;stroke-width:0.0555622"
         id="path840" />
    </g>
  </g>
</svg>
