<?xml version="1.0" encoding="UTF-8" standalone="no"?>
<svg
   xmlns:dc="http://purl.org/dc/elements/1.1/"
   xmlns:cc="http://creativecommons.org/ns#"
   xmlns:rdf="http://www.w3.org/1999/02/22-rdf-syntax-ns#"
   xmlns:svg="http://www.w3.org/2000/svg"
   xmlns="http://www.w3.org/2000/svg"
   xmlns:sodipodi="http://sodipodi.sourceforge.net/DTD/sodipodi-0.dtd"
   xmlns:inkscape="http://www.inkscape.org/namespaces/inkscape"
   width="12.730168mm"
   height="7.8613086mm"
   viewBox="0 0 12.730168 7.8613086"
   version="1.1"
   id="svg8"
   inkscape:version="1.0.2-2 (e86c870879, 2021-01-15)"
   sodipodi:docname="Feuille 005.svg">
  <defs
     id="defs2">
    <inkscape:path-effect
       effect="spiro"
       id="path-effect10981"
       is_visible="true"
       lpeversion="0" />
    <inkscape:path-effect
       effect="spiro"
       id="path-effect70418"
       is_visible="true"
       lpeversion="0" />
    <inkscape:path-effect
       effect="spiro"
       id="path-effect13637"
       is_visible="true"
       lpeversion="0" />
  </defs>
  <sodipodi:namedview
     id="base"
     pagecolor="#ffffff"
     bordercolor="#666666"
     borderopacity="1.0"
     inkscape:pageopacity="0.0"
     inkscape:pageshadow="2"
     inkscape:zoom="3.959798"
     inkscape:cx="16.7702"
     inkscape:cy="6.9974325"
     inkscape:document-units="mm"
     inkscape:current-layer="layer1"
     inkscape:document-rotation="0"
     showgrid="false"
     fit-margin-top="0"
     fit-margin-left="0"
     fit-margin-right="0"
     fit-margin-bottom="0"
     inkscape:window-width="958"
     inkscape:window-height="1018"
     inkscape:window-x="946"
     inkscape:window-y="0"
     inkscape:window-maximized="0" />
  <metadata
     id="metadata5">
    <rdf:RDF>
      <cc:Work
         rdf:about="">
        <dc:format>image/svg+xml</dc:format>
        <dc:type
           rdf:resource="http://purl.org/dc/dcmitype/StillImage" />
        <dc:title />
      </cc:Work>
    </rdf:RDF>
  </metadata>
  <g
     inkscape:label="Calque 1"
     inkscape:groupmode="layer"
     id="layer1"
     transform="translate(-113.07673,-161.38606)">
    <path
       inkscape:connector-curvature="0"
       id="path74-1-8-8-8-0-7-9-2-9"
       d="m 125.8069,163.00589 c 0,0 -1.59623,-2.01157 -4.44765,-1.55141 -2.85141,0.46022 -3.19246,0.69093 -4.28598,0.58433 -1.09352,-0.1066 -0.10001,0.75399 0.40693,0.66395 0.50694,-0.09 -2.159,0.71839 -2.7686,2.19069 -0.60987,1.4723 -0.93716,3.62776 -0.23257,4.09591 0.70459,0.46816 2.26907,0.24525 3.73354,-0.23794 1.46473,-0.48321 4.46907,-2.46147 5.03369,-3.34621 0.56489,-0.88477 0.96256,-1.76429 1.7108,-2.03454 0.7485,-0.27027 0.84984,-0.36478 0.84984,-0.36478 z"
       style="fill:#112f25;fill-opacity:1;stroke:none;stroke-width:0.273055px;stroke-linecap:butt;stroke-linejoin:miter;stroke-opacity:1" />
    <path
       inkscape:original-d="m 116.31524,165.09403 c 0,0 -1.04008,-0.49977 -1.56025,-0.74924 -0.52044,-0.24948 -0.92419,-0.62529 -1.38642,-0.93755 -0.46249,-0.31224 -0.19182,-0.71612 -0.28813,-1.07379 -0.0963,-0.35766 0.17701,-0.36007 0.26511,-0.53972 0.0884,-0.17965 0.29607,-0.0647 0.44371,-0.0966 0.14764,-0.0319 0.22569,-0.0954 0.33814,-0.14266 0.11245,-0.0473 0.16404,-0.003 0.24553,-0.003 0.0818,0 0.072,0.20191 0.10742,0.30327 0.0355,0.10136 -0.29474,0.17327 -0.44265,0.26032 -0.14763,0.0871 -0.18679,-0.007 -0.28045,-0.01 -0.0939,-0.003 -0.0532,0.17161 -0.0802,0.25781 -0.027,0.0862 0.12594,0.14698 0.18865,0.22085 0.0624,0.0739 0.41486,0.19955 0.62177,0.29972 0.2069,0.10017 0.64108,0.23696 0.96123,0.35584 0.32014,0.11888 0.73607,0.40777 1.10357,0.61209 0.36751,0.20431 0.64718,0.60356 0.64718,0.60356 0,0 -0.88424,0.63757 -0.88424,0.63757 z"
       inkscape:path-effect="#path-effect13637"
       inkscape:connector-curvature="0"
       id="path1371-5-2-3-1-8-9-7-1-9"
       d="m 116.31524,165.09403 c -0.5142,-0.26177 -1.03447,-0.5116 -1.56025,-0.74924 -0.25748,-0.11637 -0.51712,-0.23026 -0.75849,-0.37716 -0.24136,-0.14691 -0.46564,-0.32909 -0.62793,-0.56039 -0.21697,-0.30923 -0.31248,-0.69682 -0.28813,-1.07379 0.007,-0.10455 0.0227,-0.20983 0.0637,-0.30624 0.041,-0.0964 0.10909,-0.18393 0.2014,-0.23348 0.067,-0.036 0.14327,-0.0505 0.21867,-0.0604 0.0754,-0.01 0.15178,-0.0157 0.22504,-0.0362 0.11797,-0.0329 0.2226,-0.10205 0.33814,-0.14266 0.0397,-0.014 0.0809,-0.0245 0.12296,-0.0267 0.042,-0.002 0.085,0.005 0.12257,0.0237 0.0519,0.0264 0.0906,0.0758 0.10845,0.1312 0.0179,0.0554 0.0158,0.11631 -0.001,0.17207 -0.0269,0.0892 -0.0913,0.16552 -0.17245,0.21133 -0.0811,0.0458 -0.17789,0.0617 -0.2702,0.049 -0.0473,-0.006 -0.0933,-0.0201 -0.14057,-0.0266 -0.0473,-0.006 -0.0974,-0.005 -0.13988,0.0166 -0.0437,0.0224 -0.0752,0.0655 -0.0882,0.11286 -0.013,0.0474 -0.008,0.0986 0.008,0.14495 0.0328,0.0927 0.10898,0.16319 0.18865,0.22085 0.18701,0.13534 0.40494,0.2205 0.62177,0.29972 0.32095,0.11726 0.64566,0.2248 0.96123,0.35584 0.38949,0.16173 0.76555,0.3599 1.10357,0.61209 0.2369,0.17675 0.45436,0.37955 0.64718,0.60356 l -0.88424,0.63757 z"
       style="fill:#112f25;fill-opacity:1;stroke:none;stroke-width:0.264583px;stroke-linecap:butt;stroke-linejoin:miter;stroke-opacity:1" />
    <text
       xml:space="preserve"
       style="font-style:normal;font-variant:normal;font-weight:normal;font-stretch:normal;font-size:4.06202px;line-height:0.758097px;font-family:Respira;-inkscape-font-specification:Respira;font-variant-ligatures:normal;font-variant-caps:normal;font-variant-numeric:normal;font-feature-settings:normal;text-align:start;letter-spacing:0px;word-spacing:0px;writing-mode:lr-tb;text-anchor:start;fill:#fbf7ee;fill-opacity:1;stroke:none;stroke-width:0.0555622"
       x="15.205586"
       y="203.92363"
       id="text8537-8-1-9-8-2-7-6-8-0-0-0-6-3-8"
       transform="rotate(-30.144423)"><tspan
         sodipodi:role="line"
         id="tspan8535-8-6-7-8-5-3-2-3-0-8-3-0-1-64"
         x="15.205586"
         y="203.92363"
         style="font-style:normal;font-variant:normal;font-weight:normal;font-stretch:normal;font-size:4.06202px;font-family:Respira;-inkscape-font-specification:Respira;fill:#fbf7ee;fill-opacity:1;stroke-width:0.0555622">005</tspan></text>
  </g>
</svg>
