<?xml version="1.0" encoding="UTF-8" standalone="no"?>
<svg
   xmlns:dc="http://purl.org/dc/elements/1.1/"
   xmlns:cc="http://creativecommons.org/ns#"
   xmlns:rdf="http://www.w3.org/1999/02/22-rdf-syntax-ns#"
   xmlns:svg="http://www.w3.org/2000/svg"
   xmlns="http://www.w3.org/2000/svg"
   xmlns:sodipodi="http://sodipodi.sourceforge.net/DTD/sodipodi-0.dtd"
   xmlns:inkscape="http://www.inkscape.org/namespaces/inkscape"
   width="6.8533921mm"
   height="12.613407mm"
   viewBox="0 0 6.8533921 12.613407"
   version="1.1"
   id="svg8"
   inkscape:version="1.0.2-2 (e86c870879, 2021-01-15)"
   sodipodi:docname="Feuille 006' Hover.svg">
  <defs
     id="defs2">
    <inkscape:path-effect
       effect="spiro"
       id="path-effect11046"
       is_visible="true"
       lpeversion="0" />
    <inkscape:path-effect
       effect="spiro"
       id="path-effect11579"
       is_visible="true"
       lpeversion="0" />
  </defs>
  <sodipodi:namedview
     id="base"
     pagecolor="#ffffff"
     bordercolor="#666666"
     borderopacity="1.0"
     inkscape:pageopacity="0.0"
     inkscape:pageshadow="2"
     inkscape:zoom="3.959798"
     inkscape:cx="27.810696"
     inkscape:cy="33.918977"
     inkscape:document-units="mm"
     inkscape:current-layer="layer1"
     inkscape:document-rotation="0"
     showgrid="false"
     fit-margin-top="0"
     fit-margin-left="0"
     fit-margin-right="0"
     fit-margin-bottom="0"
     inkscape:window-width="958"
     inkscape:window-height="1018"
     inkscape:window-x="946"
     inkscape:window-y="0"
     inkscape:window-maximized="0" />
  <metadata
     id="metadata5">
    <rdf:RDF>
      <cc:Work
         rdf:about="">
        <dc:format>image/svg+xml</dc:format>
        <dc:type
           rdf:resource="http://purl.org/dc/dcmitype/StillImage" />
        <dc:title />
      </cc:Work>
    </rdf:RDF>
  </metadata>
  <g
     inkscape:label="Calque 1"
     inkscape:groupmode="layer"
     id="layer1"
     transform="translate(-110.15561,-154.26306)">
    <path
       inkscape:original-d="m 115.68117,154.34978 c 0.21722,0.0254 0.57626,0.53625 0.86413,0.80478 0.2876,0.26852 0.17489,0.72982 0.26194,1.09511 0.0871,0.36531 0.0185,1.18663 0.0283,1.78033 0.008,0.59372 -0.25294,1.70783 -0.37968,2.56214 -0.127,0.85432 -1.18269,2.13821 -1.77429,3.2077 -0.59161,1.06953 -0.39767,0.702 -0.5969,1.05339 -0.19924,0.35139 -0.85302,0.73694 -1.28006,1.1058 -0.42677,0.36888 -1.00515,0.18688 -1.50812,0.28072 -0.50319,0.0939 -0.0579,0.0241 -0.0873,0.0364 -0.0294,0.0124 -0.0275,0.60032 -0.0275,0.60032 0,0 -0.25691,-0.38002 -0.38545,-0.56963 -0.12885,-0.18962 -0.40825,-1.58189 -0.61277,-2.37243 -0.20426,-0.79055 0.0238,-1.31993 0.0341,-1.97948 0.0106,-0.65958 0.66723,-2.36834 1.0006,-3.55212 0.33338,-1.18374 0.94403,-1.47468 1.41552,-2.21162 0.47149,-0.73694 1.11601,-1.09432 1.67376,-1.64111 0.55774,-0.54676 0.48127,-0.18375 0.72151,-0.27524 0.23998,-0.0915 0.43498,0.0497 0.6522,0.075 z"
       inkscape:path-effect="#path-effect11579"
       inkscape:connector-curvature="0"
       id="path1258-3-2-6-97-1-5-6-3"
       d="m 115.68117,154.34978 c 0.36974,0.15699 0.68127,0.44713 0.86413,0.80478 0.17196,0.33634 0.22913,0.71879 0.26194,1.09511 0.0516,0.59165 0.049,1.1868 0.0283,1.78033 -0.0302,0.86603 -0.10119,1.74156 -0.37968,2.56214 -0.39354,1.15957 -1.17533,2.13965 -1.77429,3.2077 -0.19746,0.35211 -0.37593,0.71554 -0.5969,1.05339 -0.31445,0.48078 -0.73621,0.9207 -1.28006,1.1058 -0.48511,0.1651 -1.02366,0.11373 -1.50812,0.28072 -0.0298,0.0103 -0.0595,0.0214 -0.0873,0.0364 -0.053,0.0285 -0.0984,0.071 -0.13043,0.12196 -0.032,0.051 -0.0506,0.11029 -0.0534,0.17041 -0.003,0.0601 0.0103,0.1209 0.0376,0.17457 0.0272,0.0537 0.0686,0.10011 0.11873,0.13338 -0.1452,-0.17782 -0.27438,-0.36872 -0.38545,-0.56963 -0.39835,-0.72053 -0.5545,-1.55118 -0.61277,-2.37243 -0.0468,-0.6591 -0.0342,-1.32226 0.0341,-1.97948 0.12778,-1.22999 0.45322,-2.44326 1.0006,-3.55212 0.38804,-0.78609 0.88403,-1.51445 1.41552,-2.21162 0.47675,-0.62537 0.99735,-1.24005 1.67376,-1.64111 0.22293,-0.13218 0.46465,-0.24073 0.72151,-0.27524 0.21912,-0.0294 0.44548,-0.003 0.6522,0.075 z"
       style="fill:#112f25;fill-opacity:1;stroke:none;stroke-width:1.05833;stroke-linecap:round;stroke-linejoin:round;stroke-miterlimit:6.1;stroke-dasharray:none;stroke-opacity:1;paint-order:markers stroke fill" />
    <g
       aria-label="006'"
       transform="rotate(-60.260007)"
       id="text8537-8-1-9-8-2-7-6-8-0-0-2-1-6-6-2"
       style="font-style:normal;font-variant:normal;font-weight:normal;font-stretch:normal;font-size:4.06202px;line-height:0.758097px;font-family:Respira;-inkscape-font-specification:Respira;font-variant-ligatures:normal;font-variant-caps:normal;font-variant-numeric:normal;font-feature-settings:normal;text-align:start;letter-spacing:0px;word-spacing:0px;writing-mode:lr-tb;text-anchor:start;fill:#fbf7ee;fill-opacity:1;stroke:none;stroke-width:0.0555622">
      <path
         d="m -86.010781,177.09876 q 0.264031,0 0.467132,0.0745 0.203101,0.0745 0.338502,0.21326 0.138785,0.13878 0.206486,0.33511 0.07108,0.19633 0.07108,0.44344 0,0.19972 -0.05416,0.36558 -0.05416,0.16248 -0.145556,0.2945 -0.0914,0.12863 -0.209871,0.23018 -0.118476,0.0982 -0.247106,0.17264 0.05416,-0.10833 0.07785,-0.26742 0.0237,-0.16248 0.0237,-0.33512 0,-0.29111 -0.07447,-0.49421 -0.07109,-0.2031 -0.203101,-0.32835 -0.132016,-0.12863 -0.318192,-0.18617 -0.186176,-0.0575 -0.416357,-0.0575 -0.189561,0 -0.311421,0.0474 -0.121861,0.0474 -0.186176,0.0812 0.07447,-0.12186 0.165866,-0.23018 0.0914,-0.10832 0.209871,-0.18617 0.118475,-0.0812 0.267416,-0.12525 0.148941,-0.0474 0.338502,-0.0474 z m -0.555143,2.66739 q -0.250491,0 -0.453592,-0.0677 -0.203101,-0.0711 -0.348657,-0.20648 -0.142171,-0.1354 -0.220026,-0.32835 -0.07785,-0.19633 -0.07785,-0.44682 0,-0.18279 0.05755,-0.33173 0.05755,-0.15233 0.148941,-0.27758 0.09478,-0.12863 0.213256,-0.23018 0.12186,-0.10493 0.250491,-0.18617 -0.05416,0.10832 -0.07786,0.24372 -0.02369,0.13201 -0.02369,0.30465 0,0.29111 0.07109,0.4976 0.07447,0.2031 0.209871,0.33173 0.1354,0.12863 0.331731,0.18618 0.196331,0.0575 0.446823,0.0575 0.16925,0 0.274186,-0.0203 0.104935,-0.0237 0.176021,-0.0609 -0.06093,0.10832 -0.145556,0.20649 -0.08124,0.0948 -0.199716,0.16925 -0.115091,0.0745 -0.270801,0.11509 -0.155711,0.044 -0.362197,0.044 z"
         style="font-style:normal;font-variant:normal;font-weight:normal;font-stretch:normal;font-size:4.06202px;font-family:Respira;-inkscape-font-specification:Respira;fill:#fbf7ee;fill-opacity:1;stroke-width:0.0555622"
         id="path835" />
      <path
         d="m -82.984581,177.09876 q 0.264031,0 0.467132,0.0745 0.203101,0.0745 0.338502,0.21326 0.138786,0.13878 0.206486,0.33511 0.07108,0.19633 0.07108,0.44344 0,0.19972 -0.05416,0.36558 -0.05416,0.16248 -0.145555,0.2945 -0.0914,0.12863 -0.209872,0.23018 -0.118475,0.0982 -0.247106,0.17264 0.05416,-0.10833 0.07786,-0.26742 0.0237,-0.16248 0.0237,-0.33512 0,-0.29111 -0.07447,-0.49421 -0.07108,-0.2031 -0.203101,-0.32835 -0.132015,-0.12863 -0.318191,-0.18617 -0.186176,-0.0575 -0.416357,-0.0575 -0.189561,0 -0.311422,0.0474 -0.12186,0.0474 -0.186176,0.0812 0.07447,-0.12186 0.165866,-0.23018 0.0914,-0.10832 0.209871,-0.18617 0.118476,-0.0812 0.267417,-0.12525 0.14894,-0.0474 0.338501,-0.0474 z m -0.555143,2.66739 q -0.250491,0 -0.453592,-0.0677 -0.203101,-0.0711 -0.348656,-0.20648 -0.142171,-0.1354 -0.220026,-0.32835 -0.07786,-0.19633 -0.07786,-0.44682 0,-0.18279 0.05755,-0.33173 0.05755,-0.15233 0.148941,-0.27758 0.09478,-0.12863 0.213256,-0.23018 0.121861,-0.10493 0.250491,-0.18617 -0.05416,0.10832 -0.07785,0.24372 -0.0237,0.13201 -0.0237,0.30465 0,0.29111 0.07109,0.4976 0.07447,0.2031 0.209871,0.33173 0.135401,0.12863 0.331732,0.18618 0.196331,0.0575 0.446822,0.0575 0.169251,0 0.274186,-0.0203 0.104936,-0.0237 0.176021,-0.0609 -0.06093,0.10832 -0.145555,0.20649 -0.08124,0.0948 -0.199716,0.16925 -0.115091,0.0745 -0.270802,0.11509 -0.155711,0.044 -0.362197,0.044 z"
         style="font-style:normal;font-variant:normal;font-weight:normal;font-stretch:normal;font-size:4.06202px;font-family:Respira;-inkscape-font-specification:Respira;fill:#fbf7ee;fill-opacity:1;stroke-width:0.0555622"
         id="path837" />
      <path
         d="m -79.477708,179.10269 q 0.04739,-0.10494 0.0677,-0.25049 0.02031,-0.14556 0.02031,-0.34866 0,-0.2031 -0.05078,-0.37235 -0.05078,-0.16925 -0.15571,-0.28773 -0.104936,-0.12186 -0.260647,-0.18617 -0.155711,-0.0677 -0.368967,-0.0677 -0.1354,0 -0.240336,0.0237 -0.10155,0.0237 -0.189561,0.0745 -0.08463,0.0474 -0.16248,0.12525 -0.07447,0.0745 -0.155711,0.1794 0.118475,-0.19633 0.247106,-0.36219 0.132016,-0.16587 0.277571,-0.28096 0.148941,-0.11847 0.318192,-0.18279 0.169251,-0.0677 0.368967,-0.0677 0.240336,0 0.412972,0.0779 0.176021,0.0745 0.287726,0.20648 0.115091,0.12863 0.169251,0.30127 0.05416,0.16925 0.05416,0.35542 0,0.16587 -0.04739,0.3182 -0.04739,0.15232 -0.135401,0.28772 -0.08463,0.1354 -0.203101,0.25049 -0.11509,0.11509 -0.253876,0.20649 z m -1.533412,-1.19491 q 0,0.35881 0.06432,0.61607 0.0677,0.25726 0.189561,0.42313 0.125245,0.16586 0.304651,0.24372 0.179406,0.0779 0.406202,0.0779 0.159096,0 0.301267,-0.0406 0.145555,-0.044 0.264031,-0.12187 -0.07785,0.14218 -0.162481,0.27081 -0.08463,0.12524 -0.199716,0.22002 -0.111705,0.0948 -0.260646,0.14894 -0.145556,0.0542 -0.348657,0.0542 -0.250491,0 -0.463747,-0.0948 -0.209871,-0.0982 -0.365582,-0.28095 -0.152325,-0.18618 -0.240336,-0.45021 -0.08801,-0.26742 -0.08801,-0.60253 0,-0.4536 0.179406,-0.84626 0.179405,-0.39266 0.494212,-0.70747 0.318192,-0.3148 0.754859,-0.53821 0.436667,-0.22342 0.951189,-0.33512 -0.433282,0.0982 -0.765013,0.30127 -0.331732,0.19971 -0.558528,0.46713 -0.223411,0.26741 -0.341887,0.57884 -0.11509,0.30803 -0.11509,0.61607 z"
         style="font-style:normal;font-variant:normal;font-weight:normal;font-stretch:normal;font-size:4.06202px;font-family:Respira;-inkscape-font-specification:Respira;fill:#fbf7ee;fill-opacity:1;stroke-width:0.0555622"
         id="path839" />
      <path
         d="m -78.431738,176.46576 q 0.06093,0 0.10155,0.0474 0.04401,0.044 0.04401,0.10494 0,0.0271 -0.01016,0.12524 -0.01015,0.0982 -0.02708,0.24711 -0.01354,0.14556 -0.03385,0.32835 -0.01693,0.18279 -0.03385,0.37912 -0.01693,0.19633 -0.03046,0.39604 -0.01354,0.19634 -0.02031,0.37236 -0.0068,-0.17602 -0.02031,-0.37236 -0.01354,-0.19633 -0.03047,-0.39266 -0.01354,-0.19633 -0.03385,-0.37912 -0.01693,-0.18617 -0.03047,-0.33173 -0.01354,-0.14556 -0.0237,-0.24372 -0.0068,-0.0982 -0.0068,-0.12525 0,-0.0609 0.04739,-0.10832 0.05078,-0.0474 0.108321,-0.0474 z"
         style="font-style:normal;font-variant:normal;font-weight:normal;font-stretch:normal;font-size:4.06202px;font-family:Respira;-inkscape-font-specification:Respira;fill:#fbf7ee;fill-opacity:1;stroke-width:0.0555622"
         id="path841" />
    </g>
  </g>
</svg>
