<?xml version="1.0" encoding="UTF-8" standalone="no"?>
<!-- Created with Inkscape (http://www.inkscape.org/) -->

<svg
   width="3.1017001mm"
   height="3.0797701mm"
   viewBox="0 0 3.1017001 3.0797701"
   version="1.1"
   id="svg2660"
   inkscape:version="1.1.2 (b8e25be833, 2022-02-05)"
   sodipodi:docname="circled-R.svg"
   xmlns:inkscape="http://www.inkscape.org/namespaces/inkscape"
   xmlns:sodipodi="http://sodipodi.sourceforge.net/DTD/sodipodi-0.dtd"
   xmlns="http://www.w3.org/2000/svg"
   xmlns:svg="http://www.w3.org/2000/svg">
  <sodipodi:namedview
     id="namedview2662"
     pagecolor="#ffffff"
     bordercolor="#666666"
     borderopacity="1.0"
     inkscape:pageshadow="2"
     inkscape:pageopacity="0.0"
     inkscape:pagecheckerboard="0"
     inkscape:document-units="mm"
     showgrid="false"
     fit-margin-top="0"
     fit-margin-left="0"
     fit-margin-right="0"
     fit-margin-bottom="0"
     inkscape:zoom="0.77771465"
     inkscape:cx="-108.65168"
     inkscape:cy="28.28801"
     inkscape:window-width="2048"
     inkscape:window-height="1089"
     inkscape:window-x="-8"
     inkscape:window-y="-8"
     inkscape:window-maximized="1"
     inkscape:current-layer="layer1" />
  <defs
     id="defs2657" />
  <g
     inkscape:label="Layer 1"
     inkscape:groupmode="layer"
     id="layer1"
     transform="translate(-133.8512,-141.00646)">
    <path
       d="m 134.4691,141.65855 q -0.074,0.0815 -0.1333,0.18522 -0.059,0.10373 -0.1013,0.22476 -0.039,0.11854 -0.062,0.24942 -0.02,0.13088 -0.02,0.2618 0,0.28647 0.091,0.51123 0.094,0.22471 0.2569,0.37786 0.1654,0.15559 0.3926,0.23709 0.2273,0.0815 0.4965,0.0815 0.1778,0 0.3062,-0.0222 0.1284,-0.0222 0.2297,-0.0692 0.1037,-0.0469 0.1877,-0.12347 0.086,-0.0741 0.1803,-0.17782 -0.099,0.12099 -0.2174,0.24202 -0.1161,0.12347 -0.2618,0.22227 -0.1432,0.10124 -0.3186,0.163 -0.1728,0.0642 -0.3803,0.0642 -0.2815,0 -0.5161,-0.0889 -0.2322,-0.0889 -0.4001,-0.24943 -0.1655,-0.15807 -0.2569,-0.37786 -0.091,-0.22227 -0.091,-0.489 0,-0.17289 0.064,-0.35315 0.064,-0.1803 0.158,-0.3433 0.094,-0.16548 0.2001,-0.30129 0.1086,-0.13584 0.1951,-0.22475 z m 2.1092,1.22742 q 0.027,-0.0444 0.047,-0.0889 0.02,-0.0469 0.032,-0.0963 0.012,-0.0494 0.017,-0.10866 0,-0.0618 0,-0.13584 0,-0.28399 -0.089,-0.50382 -0.089,-0.21979 -0.2494,-0.37045 -0.1606,-0.15063 -0.3828,-0.2272 -0.2223,-0.0766 -0.4915,-0.0766 -0.1877,0 -0.3359,0.0296 -0.1481,0.0296 -0.2667,0.079 -0.1161,0.0494 -0.2074,0.11114 -0.089,0.0617 -0.1606,0.1284 0.082,-0.0889 0.205,-0.19508 0.126,-0.1087 0.284,-0.20253 0.1581,-0.0938 0.3458,-0.15807 0.1901,-0.0642 0.4001,-0.0642 0.2815,0 0.5063,0.0766 0.2272,0.0741 0.3877,0.21486 0.1605,0.13829 0.247,0.33833 0.086,0.20005 0.086,0.44703 0,0.14077 -0.042,0.26176 -0.042,0.12103 -0.1012,0.22476 -0.059,0.10124 -0.126,0.18274 -0.064,0.0791 -0.1111,0.13336 z m -1.3633,0.15807 -0.4001,0.37786 0.01,-0.99033 q 0.012,-0.0196 0.042,-0.0519 0.032,-0.0322 0.074,-0.0716 l 0.2766,-0.23461 z m 0.3309,-1.35093 q 0.1778,0 0.2964,0.0248 0.1185,0.0222 0.1877,0.0667 0.072,0.042 0.099,0.10373 0.03,0.0618 0.03,0.13829 0,0.0667 -0.027,0.12843 -0.027,0.0593 -0.074,0.11607 -0.047,0.0568 -0.1087,0.11113 -0.062,0.0543 -0.1309,0.10621 0.049,-0.0543 0.049,-0.16052 0,-0.084 -0.032,-0.13832 -0.03,-0.0568 -0.1013,-0.0864 -0.072,-0.0322 -0.1877,-0.0444 -0.116,-0.0122 -0.284,-0.0122 h -0.6544 l 0.4099,-0.35319 z m 0.012,0.75572 h 0.074 q 0.1111,0 0.1827,0.0445 0.072,0.042 0.121,0.10869 0.049,0.0642 0.086,0.14078 0.04,0.0765 0.082,0.14321 0.042,0.0642 0.099,0.10869 0.057,0.042 0.1457,0.042 0.035,0 0.059,-0.005 0.027,-0.007 0.052,-0.0222 0.025,-0.0174 0.049,-0.042 0.025,-0.027 0.057,-0.0667 -0.035,0.0568 -0.094,0.13337 -0.057,0.0766 -0.1285,0.14573 -0.069,0.0667 -0.1482,0.11607 -0.077,0.0469 -0.1457,0.0469 -0.096,0 -0.1556,-0.042 -0.059,-0.0444 -0.1012,-0.11114 -0.042,-0.0667 -0.079,-0.14077 -0.035,-0.0765 -0.081,-0.14322 -0.047,-0.0667 -0.1161,-0.10869 -0.067,-0.0444 -0.1754,-0.0444 h -0.099 z"
       style="font-style:normal;font-variant:normal;font-weight:normal;font-stretch:normal;font-size:8px;line-height:1.25;font-family:Respira;-inkscape-font-specification:Respira;text-align:start;letter-spacing:0.25px;text-anchor:start;white-space:pre;inline-size:352.071;fill:#fbf7f0;fill-opacity:1;stroke:none;stroke-width:0.370448"
       id="path1336" />
  </g>
</svg>
