<?xml version="1.0" encoding="UTF-8" standalone="no"?>
<!-- Created with Inkscape (http://www.inkscape.org/) -->

<svg
   width="28.659369mm"
   height="28.165474mm"
   viewBox="0 0 28.659369 28.165474"
   version="1.1"
   id="svg1811"
   inkscape:version="1.1.2 (b8e25be833, 2022-02-05)"
   sodipodi:docname="coming-soon-sun.svg"
   xmlns:inkscape="http://www.inkscape.org/namespaces/inkscape"
   xmlns:sodipodi="http://sodipodi.sourceforge.net/DTD/sodipodi-0.dtd"
   xmlns="http://www.w3.org/2000/svg"
   xmlns:svg="http://www.w3.org/2000/svg">
  <sodipodi:namedview
     id="namedview1813"
     pagecolor="#ffffff"
     bordercolor="#666666"
     borderopacity="1.0"
     inkscape:pageshadow="2"
     inkscape:pageopacity="0.0"
     inkscape:pagecheckerboard="0"
     inkscape:document-units="mm"
     showgrid="false"
     inkscape:zoom="0.74029882"
     inkscape:cx="160.0705"
     inkscape:cy="275.5644"
     inkscape:window-width="1920"
     inkscape:window-height="1017"
     inkscape:window-x="-8"
     inkscape:window-y="-8"
     inkscape:window-maximized="1"
     inkscape:current-layer="layer1" />
  <defs
     id="defs1808" />
  <g
     inkscape:label="Layer 1"
     inkscape:groupmode="layer"
     id="layer1"
     transform="translate(-62.51144,-75.624846)">
    <path
       style="fill:#fbf7f0;fill-opacity:1;stroke-width:0.0707906"
       d="m 79.8601,103.6843 c -0.022,-0.0583 0.042,-0.2648 0.1438,-0.45884 0.1015,-0.19405 0.1845,-0.43463 0.1845,-0.53462 0,-0.1 0.051,-0.27943 0.1122,-0.39878 0.081,-0.15602 0.091,-0.23857 0.035,-0.29382 -0.096,-0.0959 -0.096,-0.48106 0,-0.89662 0.051,-0.22153 0.051,-0.32475 0,-0.34216 -0.1341,-0.0447 -0.079,-0.20658 0.1704,-0.50567 0.2901,-0.347293 0.3697,-0.686573 0.2652,-1.130353 -0.042,-0.17812 -0.097,-0.44982 -0.1223,-0.60373 -0.025,-0.15393 -0.1104,-0.40613 -0.1891,-0.56047 -0.1354,-0.26535 -0.1369,-0.29374 -0.028,-0.52247 0.1113,-0.23352 0.1256,-0.24019 0.4145,-0.19325 0.3872,0.0629 0.4185,0.0984 0.4796,0.54462 0.092,0.67085 0.201,0.94131 0.6607,1.63856 0.5611,0.851113 0.7342,1.319373 0.7712,2.086533 0.028,0.58087 0.025,0.5933 -0.1902,0.8092 -0.5053,0.50658 -2.1789,1.46789 -2.5556,1.46789 -0.06,0 -0.1281,-0.0477 -0.1505,-0.10602 z m -5.4765,-0.42286 c -1.2131,-0.20479 -2.6676,-0.65206 -2.9106,-0.89506 -0.3402,-0.34025 -0.066,-0.48667 0.9153,-0.48913 0.3771,-0.003 0.819,-0.0325 0.9819,-0.0701 0.3383,-0.0781 0.8982,-0.43292 1.1463,-0.72652 0.092,-0.10951 0.479,-0.42103 0.8588,-0.69223 0.4334,-0.30941 0.7185,-0.565293 0.7653,-0.686973 0.041,-0.10665 0.108,-0.45783 0.1487,-0.78036 0.041,-0.32258 0.1064,-0.64698 0.146,-0.72096 0.04,-0.074 0.072,-0.19421 0.072,-0.2672 0,-0.073 0.041,-0.18929 0.092,-0.25845 0.088,-0.11959 0.1043,-0.1184 0.3464,0.0243 0.2877,0.16976 0.3296,0.25763 0.5897,1.23693 0.2697,1.01579 0.3122,2.028403 0.115,2.745663 -0.2261,0.82285 -0.5688,1.54305 -0.7707,1.61981 -0.242,0.092 -1.8689,0.0661 -2.4961,-0.0398 z m 8.9904,-1.13334 c 0,-0.11967 0.6397,-1.09551 0.8118,-1.2383 0.4365,-0.3623 0.8104,-1.247333 0.8147,-1.928553 0,-0.25122 -0.1795,-0.75012 -0.3058,-0.84246 -0.033,-0.0241 -0.037,-0.25585 -0.01,-0.51515 0.038,-0.35332 0.086,-0.49625 0.1917,-0.57041 0.078,-0.0544 0.1774,-0.0882 0.2216,-0.075 0.3149,0.0938 0.5405,0.096 0.5405,0.006 0,-0.25133 -1.3349,-1.66818 -1.5717,-1.66818 -0.161,0 -0.4812,-0.304 -0.4812,-0.4569 0,-0.0757 0.069,-0.10941 0.2245,-0.10941 0.1235,0 0.2828,-0.0528 0.3541,-0.11729 0.1188,-0.10758 0.1485,-0.10803 0.3595,-0.006 0.1265,0.0614 0.3892,0.16701 0.5839,0.23461 0.452,0.15698 1.4489,1.12173 1.6543,1.60105 0.075,0.17602 0.2805,0.48133 0.4555,0.67844 0.3023,0.34033 0.4741,0.77973 0.4741,1.21269 0,0.21466 -0.3291,0.63228 -1.337,1.697123 -1.0191,1.07669 -1.4861,1.4751 -2.257,1.92558 -0.5004,0.29242 -0.7243,0.34571 -0.7243,0.17235 z m -14.0424,-0.98999 c -0.8765,-0.31248 -2.6642,-1.723553 -2.6642,-2.102963 0,-0.21418 0.1743,-0.22911 1.1033,-0.0945 0.9958,0.14427 1.3514,0.12112 2.0979,-0.13653 0.2892,-0.0998 0.6441,-0.17282 0.7939,-0.1633 0.2471,0.0156 0.2914,-0.0109 0.5047,-0.30136 0.1286,-0.17521 0.2358,-0.36335 0.2384,-0.41809 0.01,-0.18775 0.6629,-1.06852 0.7934,-1.06852 0.4439,0 0.3223,0.98927 -0.2259,1.83742 -0.1587,0.24556 -0.3529,0.61854 -0.4316,0.82878 -0.079,0.21027 -0.2174,0.43103 -0.3083,0.490623 -0.091,0.0596 -0.2837,0.294 -0.4282,0.52091 -0.4119,0.64654 -0.8534,0.82857 -1.4734,0.60754 z m -4.1508,-4.502923 c -0.097,-0.0336 -0.3044,-0.0807 -0.4602,-0.10462 -0.2148,-0.0331 -0.36,-0.12398 -0.6017,-0.37631 -0.6051,-0.63193 -1.2696,-2.03605 -1.2727,-2.68944 v -0.30858 l 0.23,0.0383 c 1.1263,0.1877 1.4837,0.20944 1.961,0.11938 0.5925,-0.11179 0.7675,-0.057 1.2481,0.39052 0.3129,0.29142 0.3255,0.31843 0.302,0.6467 l -0.025,0.34255 0.2113,-0.0249 c 0.2511,-0.0296 0.7888,-0.29313 1.1872,-0.58176 0.2921,-0.21159 0.7487,-0.28004 0.9629,-0.14433 0.1912,0.12115 -0.042,0.54004 -0.7081,1.27423 -0.4258,0.46903 -0.8172,0.71567 -1.1357,0.71567 -0.1301,0 -0.2342,0.0587 -0.3103,0.17479 -0.1477,0.22529 -0.9088,0.6061 -1.192,0.59637 -0.1203,-0.004 -0.2984,-0.035 -0.3957,-0.0685 z m 23.8462,-0.11578 c -0.044,-0.10864 -0.1028,-0.73906 -0.1313,-1.40097 -0.037,-0.8504 -0.088,-1.30725 -0.1755,-1.55736 -0.1925,-0.55113 -0.2425,-0.62476 -0.3583,-0.52864 -0.078,0.0651 -0.2009,0.0146 -0.5886,-0.2432 -0.2692,-0.17899 -0.5413,-0.32544 -0.6046,-0.32544 -0.1508,0 -0.7377,-0.27691 -0.8047,-0.37965 -0.029,-0.044 -0.116,-0.27128 -0.1938,-0.50501 l -0.1416,-0.42495 -0.4365,-0.0354 c -0.3359,-0.0273 -0.507,-0.085 -0.7429,-0.25088 -0.3926,-0.27606 -0.4275,-0.42534 -0.1131,-0.48432 0.1302,-0.0243 0.4759,-0.18679 0.7683,-0.36084 0.6288,-0.37414 0.9753,-0.44151 2.6148,-0.50815 1.019,-0.0414 1.1094,-0.0349 1.2337,0.0895 0.074,0.0738 0.2926,0.21386 0.4862,0.3112 0.1937,0.0973 0.4109,0.25662 0.4827,0.35396 0.314,0.42534 0.3315,1.38337 0.057,3.11481 -0.2059,1.29899 -0.2742,1.60165 -0.5065,2.24567 -0.2177,0.60346 -0.3944,0.88853 -0.6288,1.01399 -0.1154,0.0618 -0.1492,0.0423 -0.2164,-0.12435 z m -13.9355,-0.43614 c -1.9365,-0.42458 -3.7456,-1.86449 -4.5617,-3.63082 -0.495,-1.07148 -0.602,-1.83888 -0.4671,-3.35034 0.06,-0.66889 0.087,-0.75483 0.5035,-1.59279 0.4294,-0.8636 0.4644,-0.90983 1.4033,-1.8496 1.092,-1.0932 1.3945,-1.27862 2.5811,-1.58271 0.5874,-0.15055 0.8588,-0.17886 1.7132,-0.17886 1.2513,0 1.574,0.0643 2.4856,0.4952 1.3381,0.63246 2.0717,1.20925 2.7562,2.16699 0.494,0.6913 0.7159,1.24314 0.8794,2.18696 0.2323,1.34168 0.2487,1.93638 0.076,2.76937 -0.3103,1.49945 -0.6251,2.17146 -1.4099,3.00937 -0.6594,0.70392 -1.0031,0.89902 -2.6329,1.4946 -0.5792,0.21162 -2.484,0.24749 -3.3271,0.0626 z m -11.2557,-5.87634 -0.9557,-0.26186 -0.1971,-0.56348 c -0.1591,-0.45495 -0.1904,-0.64532 -0.1624,-0.98825 0.051,-0.62105 0.3607,-1.77241 0.6702,-2.48922 0.1486,-0.34404 0.327,-0.80076 0.3965,-1.01492 0.1798,-0.55359 0.454,-1.07593 0.5485,-1.04444 0.044,0.0148 0.1082,0.12041 0.1421,0.23476 0.034,0.11438 0.1235,0.40135 0.1991,0.6377 0.076,0.23635 0.1374,0.4967 0.1374,0.57854 0,0.0934 0.1491,0.27612 0.4003,0.49054 0.4787,0.40881 0.5881,0.64188 0.5992,1.27746 0.012,0.66786 0.058,0.81679 0.381,1.23068 0.1557,0.19944 0.3322,0.42588 0.3921,0.50321 0.091,0.11809 0.237,0.1501 0.9073,0.19971 0.8327,0.0616 0.9682,0.11396 1.0841,0.41868 0.095,0.24976 -0.082,0.37639 -0.8896,0.63494 -0.5377,0.17225 -2.2867,0.45469 -2.6266,0.42416 -0.039,-0.003 -0.5008,-0.12417 -1.0264,-0.26821 z m 26.6983,-1.67492 c -0.3636,-0.22664 -0.8825,-0.38642 -1.2549,-0.38642 -0.2255,0 -0.6667,-0.18339 -0.6667,-0.2771 0,-0.0396 -0.1423,-0.20844 -0.3162,-0.37526 -0.5336,-0.51207 -1.3604,-1.66902 -1.5783,-2.20874 -0.2253,-0.55766 -0.4002,-0.66331 -0.6786,-0.40987 -0.084,0.0763 -0.2798,0.16113 -0.4355,0.1886 -0.2463,0.0434 -0.9305,0.33261 -1.5329,0.64794 -0.1034,0.0541 -0.3184,0.0983 -0.4779,0.0983 h -0.2899 v -0.27856 c 0,-0.42899 0.1088,-0.62428 0.4763,-0.85489 0.1947,-0.12216 0.4428,-0.36928 0.5858,-0.58341 0.2391,-0.35814 0.2722,-0.37957 0.9203,-0.59666 0.3697,-0.12385 1.3241,-0.35092 2.1208,-0.50459 l 1.4486,-0.2794 0.1796,0.19267 c 0.6148,0.6595 1.7317,2.69068 1.9747,3.59117 0.2407,0.89241 0.2047,2.32812 -0.057,2.27967 -0.021,-0.004 -0.2096,-0.11356 -0.418,-0.24349 z m -22.5623,-3.86032 c -0.3304,-0.096 -1.3923,-0.75851 -2.0978,-1.30879 l -0.6298,-0.49123 0.026,-0.40476 c 0.019,-0.30543 0.1061,-0.56668 0.3533,-1.0646 0.5888,-1.18607 1.9173,-3.02575 2.0728,-2.87028 0.022,0.022 -0.01,0.25294 -0.07,0.51303 -0.1361,0.58666 -0.1368,1.46889 0,1.84446 0.056,0.15576 0.1025,0.38124 0.1031,0.50112 0,0.11986 0.093,0.35878 0.2057,0.53092 l 0.2046,0.313 -0.075,0.72046 -0.075,0.72046 0.3658,0.40018 c 0.2011,0.22013 0.3657,0.42839 0.3657,0.46281 0,0.0863 -0.2464,0.2105 -0.4024,0.20278 -0.071,-0.003 -0.2264,-0.0348 -0.3461,-0.0696 z m 12.1072,-2.69759 c 0.06,-0.68199 0.5466,-2.37432 0.7985,-2.77392 0.2811,-0.44608 1.4229,-1.6225 1.778,-1.83189 0.3903,-0.23019 0.9467,-0.26363 1.306,-0.0785 0.5369,0.27665 1.4571,0.95673 1.7839,1.3185 0.668,0.73914 0.9507,1.09468 0.906,1.13932 -0.083,0.0835 -0.3409,0.0451 -0.5888,-0.0877 -0.3812,-0.20434 -0.7864,-0.24921 -1.093,-0.12107 -0.1953,0.0816 -0.3346,0.0938 -0.5413,0.0473 -0.2338,-0.0525 -0.2891,-0.0425 -0.3453,0.0625 -0.037,0.0688 -0.1556,0.14274 -0.2641,0.16443 -0.1084,0.0217 -0.3237,0.12528 -0.4783,0.23019 -0.1545,0.10491 -0.3457,0.18651 -0.4247,0.18129 -0.813,-0.0534 -0.7569,-0.07 -1.0264,0.30242 -1.2851,1.77557 -1.4924,2.02621 -1.6762,2.02621 h -0.1848 z m -8.6535,0.26686 c -0.3342,-0.3806 -1.4231,-1.98766 -1.5458,-2.28148 -0.073,-0.17586 -0.096,-0.36075 -0.066,-0.54562 0.037,-0.22921 0.011,-0.33007 -0.1409,-0.56004 -0.1561,-0.2358 -0.1919,-0.38608 -0.2252,-0.94327 -0.045,-0.75874 -0.1285,-0.62404 0.8492,-1.37321 0.6325,-0.48459 1.1431,-0.67358 2.005,-0.74216 0.7011,-0.0558 0.8098,-0.003 0.6535,0.32872 -0.3281,0.69271 -0.4704,1.29932 -0.5604,2.38871 -0.044,0.52861 -0.1059,1.01126 -0.1382,1.07254 -0.032,0.0613 -0.1882,0.15015 -0.3462,0.19751 -0.3378,0.10121 -0.3549,0.19376 -0.1053,0.57082 0.2588,0.39105 0.6155,1.60737 0.5224,1.78128 -0.077,0.14417 -0.4209,0.34758 -0.5874,0.34758 -0.056,0 -0.1977,-0.10861 -0.3143,-0.24138 z m 5.0195,-0.77486 c -0.1118,-0.13472 -0.6143,-1.68947 -0.7197,-2.22676 -0.056,-0.28284 -0.072,-0.69839 -0.045,-1.13265 0.052,-0.82839 0.4063,-2.26645 0.5928,-2.40623 0.1007,-0.0755 0.4327,-0.089 1.5787,-0.0644 1.3815,0.0296 1.4983,0.0433 2.4292,0.28342 0.9875,0.25469 1.3538,0.41418 1.3047,0.56788 -0.015,0.0462 -0.2845,0.14769 -0.5993,0.22555 -0.3149,0.0779 -0.6338,0.19733 -0.7088,0.26546 -0.075,0.0681 -0.1944,0.12391 -0.2655,0.12391 -0.2217,0 -0.5721,0.32713 -1.0027,0.93604 -0.2278,0.32226 -0.4359,0.63833 -0.4623,0.70239 -0.1026,0.24852 -0.5585,0.50948 -1.0244,0.58639 l -0.4597,0.0759 -0.032,0.95568 c -0.029,0.85923 -0.047,0.96816 -0.1797,1.07955 -0.177,0.1487 -0.2992,0.15708 -0.4064,0.0279 z"
       id="path13804-6-0-1-1-5-6"
       inkscape:connector-curvature="0"
       inkscape:transform-center-x="-63.309707"
       inkscape:transform-center-y="-10.696168" />
  </g>
</svg>
