<?xml version="1.0" encoding="UTF-8" standalone="no"?>
<!-- Created with Inkscape (http://www.inkscape.org/) -->

<svg
   xmlns:dc="http://purl.org/dc/elements/1.1/"
   xmlns:cc="http://creativecommons.org/ns#"
   xmlns:rdf="http://www.w3.org/1999/02/22-rdf-syntax-ns#"
   xmlns:svg="http://www.w3.org/2000/svg"
   xmlns="http://www.w3.org/2000/svg"
   xmlns:sodipodi="http://sodipodi.sourceforge.net/DTD/sodipodi-0.dtd"
   xmlns:inkscape="http://www.inkscape.org/namespaces/inkscape"
   width="28.659357mm"
   height="28.16547mm"
   viewBox="0 0 28.659357 28.16547"
   version="1.1"
   id="svg8"
   inkscape:version="0.92.2 (5c3e80d, 2017-08-06)"
   sodipodi:docname="SOLEIL.svg">
  <defs
     id="defs2" />
  <sodipodi:namedview
     id="base"
     pagecolor="#ffffff"
     bordercolor="#666666"
     borderopacity="1.0"
     inkscape:pageopacity="0.0"
     inkscape:pageshadow="2"
     inkscape:zoom="1.979899"
     inkscape:cx="-97.657013"
     inkscape:cy="82.751689"
     inkscape:document-units="mm"
     inkscape:current-layer="layer1"
     showgrid="false"
     fit-margin-top="0"
     fit-margin-left="0"
     fit-margin-right="0"
     fit-margin-bottom="0"
     inkscape:window-width="2048"
     inkscape:window-height="1089"
     inkscape:window-x="-9"
     inkscape:window-y="-9"
     inkscape:window-maximized="1" />
  <metadata
     id="metadata5">
    <rdf:RDF>
      <cc:Work
         rdf:about="">
        <dc:format>image/svg+xml</dc:format>
        <dc:type
           rdf:resource="http://purl.org/dc/dcmitype/StillImage" />
        <dc:title />
      </cc:Work>
    </rdf:RDF>
  </metadata>
  <g
     inkscape:label="Calque 1"
     inkscape:groupmode="layer"
     id="layer1"
     transform="translate(-76.384604,-145.33393)">
    <path
       style="fill:#d4c36c;fill-opacity:1;stroke-width:0.07079066"
       d="m 93.733259,173.39339 c -0.02249,-0.0583 0.04231,-0.2648 0.143775,-0.45884 0.101467,-0.19405 0.184494,-0.43464 0.184494,-0.53462 0,-0.1 0.05048,-0.27943 0.112209,-0.39878 0.08067,-0.15603 0.09062,-0.23858 0.0354,-0.29382 -0.09591,-0.0959 -0.09602,-0.48107 0,-0.89662 0.05104,-0.22154 0.05051,-0.32475 -0.0026,-0.34216 -0.134038,-0.0447 -0.07948,-0.20659 0.170418,-0.50567 0.290142,-0.34729 0.369729,-0.68657 0.265192,-1.13036 -0.04199,-0.17811 -0.09702,-0.44981 -0.122317,-0.60372 -0.0254,-0.15394 -0.110411,-0.40614 -0.189124,-0.56047 -0.135388,-0.26535 -0.136896,-0.29374 -0.02781,-0.52247 0.111363,-0.23352 0.125677,-0.24019 0.414523,-0.19325 0.387217,0.0629 0.418491,0.0984 0.47961,0.54462 0.09194,0.67085 0.200977,0.9413 0.660691,1.63856 0.561128,0.85111 0.734219,1.31937 0.77126,2.08653 0.02802,0.58087 0.02514,0.5933 -0.190261,0.8092 -0.505249,0.50657 -2.178924,1.46788 -2.555558,1.46788 -0.0604,0 -0.128138,-0.0477 -0.150521,-0.10601 z m -5.476557,-0.42286 c -1.213089,-0.20479 -2.667556,-0.65207 -2.91055,-0.89506 -0.340227,-0.34025 -0.06623,-0.48667 0.915327,-0.48914 0.377084,-0.003 0.818938,-0.0325 0.981921,-0.0701 0.33827,-0.0781 0.898102,-0.43291 1.146202,-0.72651 0.09255,-0.10952 0.479054,-0.42104 0.85889,-0.69223 0.433388,-0.30941 0.71845,-0.56529 0.765281,-0.68697 0.04106,-0.10665 0.107976,-0.45783 0.148696,-0.78036 0.04069,-0.32258 0.106389,-0.64699 0.14597,-0.72096 0.03958,-0.074 0.07197,-0.19421 0.07197,-0.26721 0,-0.073 0.04138,-0.18928 0.09194,-0.25844 0.08747,-0.11959 0.104352,-0.1184 0.346419,0.0243 0.287734,0.16975 0.329618,0.25762 0.589677,1.23693 0.269742,1.01578 0.312182,2.0284 0.115041,2.74566 -0.22614,0.82285 -0.568828,1.54305 -0.770679,1.6198 -0.242014,0.092 -1.868937,0.0661 -2.496105,-0.0398 z m 8.990409,-1.13334 c 0,-0.11968 0.639762,-1.09551 0.811821,-1.23831 0.43651,-0.36229 0.810392,-1.24732 0.814705,-1.92854 0.0026,-0.25123 -0.17952,-0.75013 -0.305832,-0.84246 -0.03286,-0.0241 -0.03702,-0.25586 -0.0093,-0.51515 0.03784,-0.35332 0.08588,-0.49625 0.191743,-0.57041 0.07771,-0.0544 0.177403,-0.0882 0.221615,-0.075 0.314907,0.0938 0.540518,0.096 0.540518,0.006 0,-0.25133 -1.334903,-1.66818 -1.571705,-1.66818 -0.161052,0 -0.481224,-0.304 -0.481224,-0.4569 0,-0.0757 0.06919,-0.10941 0.224499,-0.10941 0.123455,0 0.282787,-0.0528 0.354065,-0.11729 0.118878,-0.10758 0.148537,-0.10803 0.359516,-0.006 0.126471,0.0614 0.389229,0.16701 0.583909,0.23461 0.452014,0.15697 1.448889,1.12172 1.654329,1.60104 0.0755,0.17603 0.28044,0.48133 0.45551,0.67845 0.30226,0.34033 0.47403,0.77972 0.47403,1.21269 0,0.21466 -0.32901,0.63227 -1.33691,1.69712 -1.019126,1.07669 -1.486116,1.4751 -2.257032,1.92558 -0.500407,0.29242 -0.724297,0.34571 -0.724297,0.17235 z m -14.042311,-0.99 c -0.876564,-0.31247 -2.664275,-1.72354 -2.664275,-2.10296 0,-0.21418 0.174361,-0.2291 1.103366,-0.0945 0.995759,0.14428 1.351386,0.12113 2.097881,-0.13652 0.289163,-0.0998 0.644049,-0.17283 0.793856,-0.1633 0.247147,0.0156 0.291465,-0.0109 0.504693,-0.30136 0.128587,-0.17521 0.235876,-0.36336 0.238469,-0.4181 0.009,-0.18775 0.66286,-1.06852 0.793406,-1.06852 0.443891,0 0.322262,0.98928 -0.225902,1.83743 -0.15875,0.24556 -0.35298,0.61854 -0.431614,0.82878 -0.07869,0.21026 -0.217435,0.43103 -0.308372,0.49062 -0.09094,0.0596 -0.283607,0.294 -0.428176,0.52091 -0.411903,0.64653 -0.853334,0.82857 -1.473332,0.60753 z m -4.150889,-4.50291 c -0.09734,-0.0335 -0.304403,-0.0806 -0.460137,-0.10462 -0.214789,-0.0331 -0.360071,-0.12398 -0.601715,-0.37632 -0.605102,-0.63193 -1.269577,-2.03604 -1.272752,-2.68943 l -0.0026,-0.30859 0.230055,0.0383 c 1.126331,0.1877 1.483704,0.20945 1.960986,0.11938 0.592534,-0.11178 0.767503,-0.057 1.248119,0.39053 0.312923,0.29141 0.325517,0.31842 0.301969,0.64669 l -0.02461,0.34256 0.211349,-0.0249 c 0.251037,-0.0296 0.788749,-0.29313 1.187212,-0.58177 0.2921,-0.21158 0.748665,-0.28003 0.962819,-0.14433 0.191214,0.12116 -0.04154,0.54004 -0.708025,1.27424 -0.425821,0.46902 -0.817192,0.71567 -1.135751,0.71567 -0.130042,0 -0.234235,0.0587 -0.310303,0.17478 -0.147638,0.22529 -0.908764,0.60611 -1.191974,0.59637 -0.120306,-0.004 -0.298397,-0.035 -0.395738,-0.0685 z M 102.9002,166.2285 c -0.0438,-0.10864 -0.1029,-0.73907 -0.13139,-1.40097 -0.0366,-0.8504 -0.088,-1.30726 -0.17545,-1.55737 -0.19254,-0.55112 -0.24246,-0.62476 -0.3583,-0.52863 -0.0785,0.0651 -0.20095,0.0145 -0.58859,-0.24321 -0.26924,-0.17899 -0.54134,-0.32544 -0.60465,-0.32544 -0.15079,0 -0.73771,-0.27691 -0.80471,-0.37965 -0.0287,-0.044 -0.11591,-0.27128 -0.19375,-0.50501 l -0.141605,-0.42495 -0.436457,-0.0354 c -0.335915,-0.0272 -0.507074,-0.085 -0.742923,-0.25087 -0.392642,-0.27607 -0.427488,-0.42535 -0.113083,-0.48432 0.130122,-0.0243 0.475853,-0.1868 0.768297,-0.36084 0.628731,-0.37415 0.975251,-0.44151 2.614771,-0.50816 1.01902,-0.0414 1.1094,-0.0349 1.23373,0.0895 0.0738,0.0738 0.29257,0.21386 0.48619,0.3112 0.19365,0.0973 0.41085,0.25662 0.48271,0.35396 0.31395,0.42535 0.33147,1.38338 0.057,3.11481 -0.20598,1.299 -0.27424,1.60165 -0.50652,2.24568 -0.21767,0.60346 -0.39447,0.88852 -0.62886,1.01399 -0.11539,0.0618 -0.1492,0.0423 -0.21638,-0.12436 z m -13.935579,-0.43614 c -1.936486,-0.42458 -3.745574,-1.8645 -4.561655,-3.63083 -0.495062,-1.07148 -0.60206,-1.83888 -0.467122,-3.35034 0.05972,-0.66889 0.08689,-0.75483 0.503502,-1.59279 0.429366,-0.8636 0.46445,-0.90982 1.403271,-1.8496 1.092068,-1.0932 1.394486,-1.27862 2.581116,-1.58271 0.587375,-0.15054 0.858785,-0.17885 1.713177,-0.17885 1.251373,0 1.574086,0.0643 2.485681,0.49519 1.338077,0.63246 2.071635,1.20925 2.756112,2.16699 0.494083,0.6913 0.715989,1.24314 0.879422,2.18697 0.232357,1.34167 0.248761,1.93638 0.07641,2.76936 -0.310251,1.49945 -0.625079,2.17147 -1.409912,3.00937 -0.659342,0.70393 -1.003062,0.89903 -2.632842,1.49461 -0.579173,0.21161 -2.484041,0.24749 -3.327162,0.0626 z m -11.255719,-5.87635 -0.955675,-0.26185 -0.197089,-0.56349 c -0.159094,-0.45495 -0.190367,-0.64532 -0.162374,-0.98824 0.05072,-0.62106 0.360706,-1.77242 0.670216,-2.48923 0.148537,-0.34404 0.326972,-0.80076 0.396504,-1.01492 0.179732,-0.55358 0.453999,-1.07592 0.548429,-1.04444 0.04426,0.0148 0.108214,0.12041 0.142134,0.23477 0.03387,0.11438 0.123481,0.40134 0.199072,0.6377 0.07562,0.23635 0.137478,0.4967 0.137478,0.57853 0,0.0934 0.149066,0.27612 0.400235,0.49054 0.478764,0.40881 0.588116,0.64188 0.599202,1.27746 0.01164,0.66786 0.05773,0.8168 0.380973,1.23069 0.155734,0.19944 0.332211,0.42587 0.392139,0.50321 0.09147,0.11808 0.236988,0.15009 0.907336,0.1997 0.83267,0.0616 0.96819,0.11396 1.084024,0.41868 0.09496,0.24977 -0.08242,0.3764 -0.889529,0.63495 -0.537739,0.17224 -2.286688,0.45468 -2.626624,0.42415 -0.03895,-0.003 -0.50083,-0.12417 -1.026451,-0.26821 z m 26.698358,-1.67491 c -0.36359,-0.22665 -0.88246,-0.38643 -1.25489,-0.38643 -0.22553,0 -0.66675,-0.18338 -0.66675,-0.2771 0,-0.0396 -0.14226,-0.20844 -0.31612,-0.37526 -0.53367,-0.51207 -1.36044,-1.66901 -1.57837,-2.20874 -0.22524,-0.55766 -0.40013,-0.66331 -0.678607,-0.40986 -0.08379,0.0763 -0.27977,0.16113 -0.435504,0.18859 -0.246274,0.0434 -0.930486,0.33261 -1.532916,0.64794 -0.103346,0.0541 -0.318373,0.0983 -0.477838,0.0983 h -0.289957 v -0.27856 c 0,-0.42899 0.108824,-0.62428 0.47633,-0.85489 0.194707,-0.12216 0.442806,-0.36928 0.585814,-0.58341 0.239104,-0.35814 0.272177,-0.37957 0.920274,-0.59666 0.369728,-0.12385 1.324104,-0.35092 2.120824,-0.50459 l 1.44859,-0.2794 0.1796,0.19267 c 0.61481,0.6595 1.7317,2.69068 1.97466,3.59116 0.2408,0.89242 0.20479,2.32813 -0.0572,2.27968 -0.0214,-0.004 -0.20952,-0.11356 -0.41799,-0.24349 z m -22.562286,-3.86033 c -0.330385,-0.096 -1.392317,-0.75851 -2.097802,-1.30879 l -0.629787,-0.49122 0.02566,-0.40476 c 0.01931,-0.30544 0.106072,-0.56669 0.353245,-1.06461 0.588804,-1.18607 1.91733,-3.02574 2.072799,-2.87028 0.02196,0.022 -0.009,0.25295 -0.06948,0.51303 -0.136075,0.58666 -0.136737,1.46889 -0.0027,1.84447 0.05612,0.15576 0.1025,0.38123 0.103082,0.50112 0,0.11985 0.09316,0.35877 0.205713,0.53091 l 0.204629,0.313 -0.07485,0.72046 -0.07488,0.72046 0.36576,0.40018 c 0.201163,0.22014 0.36576,0.42839 0.36576,0.46281 0,0.0863 -0.246433,0.21051 -0.402405,0.20278 -0.07067,-0.003 -0.22643,-0.0348 -0.346075,-0.0696 z m 12.107201,-2.69758 c 0.0595,-0.68199 0.546603,-2.37432 0.798433,-2.77392 0.28112,-0.44609 1.42293,-1.62251 1.778027,-1.8319 0.390313,-0.23019 0.946758,-0.26363 1.30601,-0.0785 0.536892,0.27665 1.45706,0.95674 1.783953,1.3185 0.667912,0.73914 0.950622,1.09469 0.905982,1.13932 -0.0835,0.0835 -0.34094,0.0451 -0.588853,-0.0877 -0.381211,-0.20434 -0.786341,-0.24921 -1.09302,-0.12108 -0.195262,0.0816 -0.334565,0.0938 -0.541284,0.0473 -0.23376,-0.0525 -0.289084,-0.0425 -0.345255,0.0625 -0.0368,0.0688 -0.155628,0.14274 -0.264107,0.16444 -0.108453,0.0217 -0.323665,0.12528 -0.478261,0.23018 -0.154596,0.10491 -0.345731,0.18651 -0.424762,0.1813 -0.813012,-0.0534 -0.75692,-0.07 -1.026425,0.30241 -1.285081,1.77557 -1.492408,2.02621 -1.676135,2.02621 h -0.184812 z m -8.653568,0.26685 c -0.334195,-0.3806 -1.423009,-1.98765 -1.545749,-2.28147 -0.0735,-0.17587 -0.09602,-0.36076 -0.06646,-0.54563 0.03667,-0.2292 0.01111,-0.33006 -0.140891,-0.56004 -0.156078,-0.2358 -0.191929,-0.38608 -0.225187,-0.94327 -0.04524,-0.75874 -0.128561,-0.62404 0.849207,-1.37321 0.632486,-0.48458 1.143026,-0.67358 2.004986,-0.74216 0.701067,-0.0558 0.809731,-0.003 0.653495,0.32872 -0.32811,0.69271 -0.470403,1.29932 -0.560415,2.38871 -0.04368,0.52862 -0.105886,1.01127 -0.138218,1.07255 -0.03239,0.0613 -0.188145,0.15015 -0.346181,0.19751 -0.337767,0.1012 -0.354859,0.19375 -0.10533,0.57081 0.258789,0.39105 0.615553,1.60737 0.522472,1.78128 -0.07713,0.14417 -0.420925,0.34758 -0.587428,0.34758 -0.05633,0 -0.197749,-0.10861 -0.314298,-0.24138 z m 5.019516,-0.77485 c -0.111813,-0.13473 -0.614283,-1.68948 -0.719693,-2.22676 -0.05546,-0.28284 -0.07181,-0.6984 -0.04456,-1.13266 0.05202,-0.82838 0.406321,-2.26645 0.592852,-2.40623 0.100674,-0.0755 0.4327,-0.089 1.578716,-0.0644 1.381443,0.0296 1.49823,0.0433 2.429192,0.28342 0.987452,0.25469 1.353794,0.41418 1.304661,0.56787 -0.01482,0.0462 -0.28448,0.1477 -0.599334,0.22556 -0.314881,0.0779 -0.63381,0.19733 -0.70874,0.26546 -0.07493,0.0681 -0.194442,0.1239 -0.265562,0.1239 -0.221694,0 -0.572108,0.32713 -1.002638,0.93605 -0.22786,0.32226 -0.435902,0.63833 -0.462333,0.70239 -0.102579,0.24852 -0.558483,0.50948 -1.024414,0.58639 l -0.459661,0.0759 -0.03236,0.95567 c -0.02908,0.85924 -0.04723,0.96817 -0.179758,1.07956 -0.176927,0.14869 -0.299191,0.15708 -0.406374,0.0279 z"
       id="path13804"
       inkscape:connector-curvature="0"
       inkscape:transform-center-x="-63.309707"
       inkscape:transform-center-y="-10.696168" />
  </g>
</svg>
