<?xml version="1.0" encoding="UTF-8" standalone="no"?>
<svg
   xmlns:dc="http://purl.org/dc/elements/1.1/"
   xmlns:cc="http://creativecommons.org/ns#"
   xmlns:rdf="http://www.w3.org/1999/02/22-rdf-syntax-ns#"
   xmlns:svg="http://www.w3.org/2000/svg"
   xmlns="http://www.w3.org/2000/svg"
   xmlns:sodipodi="http://sodipodi.sourceforge.net/DTD/sodipodi-0.dtd"
   xmlns:inkscape="http://www.inkscape.org/namespaces/inkscape"
   width="6.8191099mm"
   height="15.504193mm"
   viewBox="0 0 6.8191099 15.504193"
   version="1.1"
   id="svg8"
   inkscape:version="1.0.2-2 (e86c870879, 2021-01-15)"
   sodipodi:docname="Feuille 002.svg">
  <defs
     id="defs2">
    <inkscape:path-effect
       effect="spiro"
       id="path-effect11136"
       is_visible="true"
       lpeversion="0" />
    <inkscape:path-effect
       effect="spiro"
       id="path-effect70292"
       is_visible="true"
       lpeversion="0" />
    <inkscape:path-effect
       effect="spiro"
       id="path-effect13511"
       is_visible="true"
       lpeversion="0" />
  </defs>
  <sodipodi:namedview
     id="base"
     pagecolor="#ffffff"
     bordercolor="#666666"
     borderopacity="1.0"
     inkscape:pageopacity="0.0"
     inkscape:pageshadow="2"
     inkscape:zoom="3.959798"
     inkscape:cx="11.29054"
     inkscape:cy="39.65314"
     inkscape:document-units="mm"
     inkscape:current-layer="layer1"
     inkscape:document-rotation="0"
     showgrid="false"
     fit-margin-top="0"
     fit-margin-left="0"
     fit-margin-right="0"
     fit-margin-bottom="0"
     inkscape:window-width="979"
     inkscape:window-height="1018"
     inkscape:window-x="946"
     inkscape:window-y="0"
     inkscape:window-maximized="0" />
  <metadata
     id="metadata5">
    <rdf:RDF>
      <cc:Work
         rdf:about="">
        <dc:format>image/svg+xml</dc:format>
        <dc:type
           rdf:resource="http://purl.org/dc/dcmitype/StillImage" />
        <dc:title />
      </cc:Work>
    </rdf:RDF>
  </metadata>
  <g
     inkscape:label="Calque 1"
     inkscape:groupmode="layer"
     id="layer1"
     transform="translate(-114.52656,-152.7459)">
    <path
       inkscape:original-d="m 116.80344,168.22283 c 0.44376,-0.29379 0.88691,-0.58732 1.33006,-0.88051 0.44289,-0.29321 1.65296,-1.79303 2.47883,-2.68909 0.82616,-0.89609 0.3665,-3.03617 0.5493,-4.5538 0.1828,-1.51767 -1.58186,-2.95814 -2.37355,-4.43674 -0.79137,-1.47863 -0.50831,-0.78417 -0.76308,-1.17578 -0.25474,-0.39164 -0.22495,-1.74101 -0.22495,-1.74101 0,0 -0.42519,1.10685 -0.8763,2.07777 -0.45143,0.97091 -1.02875,1.53056 -1.35456,2.91367 -0.32581,1.38308 -1.12366,2.75098 -0.97801,4.15017 0.14537,1.3992 0.0761,3.58172 0.43577,4.19849 0.35944,0.6168 1.01873,1.78739 1.0777,1.85124 0.0587,0.0638 0,0.16163 0.17542,0.19243 0.17486,0.0307 0.0799,0.38695 0.52337,0.0932 z"
       inkscape:path-effect="#path-effect13511"
       inkscape:connector-curvature="0"
       id="path1010-4-1-5-8-7-1-5-8-7"
       d="m 116.80344,168.22283 c 0.45882,-0.2692 0.90304,-0.56328 1.33006,-0.88051 0.98651,-0.73288 1.89465,-1.60787 2.47883,-2.68909 0.74316,-1.37547 0.91219,-3.0331 0.5493,-4.5538 -0.39216,-1.64336 -1.35877,-3.08595 -2.37355,-4.43674 -0.28125,-0.37438 -0.57019,-0.7491 -0.76308,-1.17578 -0.2446,-0.54108 -0.32399,-1.15553 -0.22495,-1.74101 -0.26545,0.70343 -0.55784,1.3967 -0.8763,2.07777 -0.45378,0.97045 -0.96097,1.91729 -1.35456,2.91367 -0.52389,1.32622 -0.84145,2.73077 -0.97801,4.15017 -0.13603,1.41386 -0.0868,2.87771 0.43577,4.19849 0.26352,0.66609 0.64239,1.28236 1.0777,1.85124 0.0529,0.0691 0.1073,0.13827 0.17542,0.19243 0.14454,0.11493 0.34804,0.15117 0.52337,0.0932 z"
       style="fill:#112f25;fill-opacity:1;stroke:none;stroke-width:0.294852px;stroke-linecap:butt;stroke-linejoin:miter;stroke-opacity:1" />
    <g
       aria-label="002"
       transform="rotate(-88.133739)"
       id="text8537-8-1-9-8-2-7-6-8-0-0-0-7-3-1-1-2"
       style="font-style:normal;font-variant:normal;font-weight:normal;font-stretch:normal;font-size:4.06202px;line-height:0.758097px;font-family:Respira;-inkscape-font-specification:Respira;font-variant-ligatures:normal;font-variant-caps:normal;font-variant-numeric:normal;font-feature-settings:normal;text-align:start;letter-spacing:0px;word-spacing:0px;writing-mode:lr-tb;text-anchor:start;fill:#fbf7ee;fill-opacity:1;stroke:none;stroke-width:0.0555622">
      <path
         d="m -160.21308,121.59984 q 0.26403,0 0.46713,0.0745 0.2031,0.0745 0.3385,0.21325 0.13879,0.13879 0.20649,0.33512 0.0711,0.19633 0.0711,0.44344 0,0.19971 -0.0542,0.36558 -0.0542,0.16248 -0.14555,0.29449 -0.0914,0.12863 -0.20987,0.23019 -0.11848,0.0982 -0.24711,0.17263 0.0542,-0.10832 0.0779,-0.26742 0.0237,-0.16248 0.0237,-0.33511 0,-0.29111 -0.0745,-0.49421 -0.0711,-0.20311 -0.2031,-0.32835 -0.13202,-0.12863 -0.31819,-0.18618 -0.18618,-0.0575 -0.41636,-0.0575 -0.18956,0 -0.31142,0.0474 -0.12186,0.0474 -0.18618,0.0812 0.0745,-0.12186 0.16587,-0.23018 0.0914,-0.10832 0.20987,-0.18618 0.11848,-0.0812 0.26742,-0.12524 0.14894,-0.0474 0.3385,-0.0474 z m -0.55515,2.66739 q -0.25049,0 -0.45359,-0.0677 -0.2031,-0.0711 -0.34865,-0.20649 -0.14217,-0.1354 -0.22003,-0.32834 -0.0779,-0.19634 -0.0779,-0.44683 0,-0.18279 0.0575,-0.33173 0.0575,-0.15232 0.14894,-0.27757 0.0948,-0.12863 0.21326,-0.23018 0.12186,-0.10494 0.25049,-0.18618 -0.0542,0.10832 -0.0779,0.24372 -0.0237,0.13202 -0.0237,0.30466 0,0.29111 0.0711,0.49759 0.0745,0.2031 0.20987,0.33174 0.1354,0.12863 0.33174,0.18617 0.19633,0.0576 0.44682,0.0576 0.16925,0 0.27418,-0.0203 0.10494,-0.0237 0.17602,-0.0609 -0.0609,0.10832 -0.14555,0.20648 -0.0812,0.0948 -0.19972,0.16925 -0.11509,0.0745 -0.2708,0.11509 -0.15571,0.044 -0.3622,0.044 z"
         style="font-style:normal;font-variant:normal;font-weight:normal;font-stretch:normal;font-size:4.06202px;font-family:Respira;-inkscape-font-specification:Respira;fill:#fbf7ee;fill-opacity:1;stroke-width:0.0555622"
         id="path836" />
      <path
         d="m -157.18688,121.59984 q 0.26403,0 0.46713,0.0745 0.2031,0.0745 0.3385,0.21325 0.13879,0.13879 0.20649,0.33512 0.0711,0.19633 0.0711,0.44344 0,0.19971 -0.0542,0.36558 -0.0542,0.16248 -0.14555,0.29449 -0.0914,0.12863 -0.20987,0.23019 -0.11848,0.0982 -0.24711,0.17263 0.0542,-0.10832 0.0779,-0.26742 0.0237,-0.16248 0.0237,-0.33511 0,-0.29111 -0.0745,-0.49421 -0.0711,-0.20311 -0.2031,-0.32835 -0.13202,-0.12863 -0.31819,-0.18618 -0.18618,-0.0575 -0.41636,-0.0575 -0.18956,0 -0.31142,0.0474 -0.12186,0.0474 -0.18618,0.0812 0.0745,-0.12186 0.16587,-0.23018 0.0914,-0.10832 0.20987,-0.18618 0.11848,-0.0812 0.26742,-0.12524 0.14894,-0.0474 0.3385,-0.0474 z m -0.55514,2.66739 q -0.2505,0 -0.4536,-0.0677 -0.2031,-0.0711 -0.34865,-0.20649 -0.14217,-0.1354 -0.22003,-0.32834 -0.0779,-0.19634 -0.0779,-0.44683 0,-0.18279 0.0575,-0.33173 0.0575,-0.15232 0.14894,-0.27757 0.0948,-0.12863 0.21326,-0.23018 0.12186,-0.10494 0.25049,-0.18618 -0.0542,0.10832 -0.0779,0.24372 -0.0237,0.13202 -0.0237,0.30466 0,0.29111 0.0711,0.49759 0.0745,0.2031 0.20987,0.33174 0.1354,0.12863 0.33174,0.18617 0.19633,0.0576 0.44682,0.0576 0.16925,0 0.27418,-0.0203 0.10494,-0.0237 0.17603,-0.0609 -0.0609,0.10832 -0.14556,0.20648 -0.0812,0.0948 -0.19972,0.16925 -0.11509,0.0745 -0.2708,0.11509 -0.15571,0.044 -0.36219,0.044 z"
         style="font-style:normal;font-variant:normal;font-weight:normal;font-stretch:normal;font-size:4.06202px;font-family:Respira;-inkscape-font-specification:Respira;fill:#fbf7ee;fill-opacity:1;stroke-width:0.0555622"
         id="path838" />
      <path
         d="m -154.77675,122.75074 q -0.12525,0.23695 -0.28096,0.37912 -0.15571,0.14217 -0.35204,0.14217 -0.19295,0 -0.30465,-0.10832 -0.11171,-0.1117 -0.11171,-0.28434 0,-0.2031 0.1591,-0.39266 0.16248,-0.19295 0.44005,-0.34189 -0.0372,0.0677 -0.0609,0.14894 -0.0203,0.0779 -0.0203,0.15571 0,0.0745 0.0203,0.14556 0.0237,0.0677 0.0643,0.12186 0.0406,0.0542 0.0982,0.088 0.0575,0.0305 0.12524,0.0305 0.0643,0 0.11848,-0.0169 0.0542,-0.0203 0.10494,-0.0677 z m -0.23357,0.81918 q 0.2268,-0.19295 0.39266,-0.33851 0.16587,-0.14555 0.27419,-0.26403 0.10832,-0.11847 0.15909,-0.21664 0.0542,-0.10155 0.0542,-0.19971 0,-0.23696 -0.17263,-0.37236 -0.16925,-0.1354 -0.47052,-0.1354 -0.12524,0 -0.24372,0.0271 -0.11848,0.0237 -0.20649,0.0711 0.0643,-0.11171 0.15571,-0.20987 0.0914,-0.0982 0.20988,-0.17264 0.11847,-0.0745 0.26403,-0.11509 0.14894,-0.044 0.32834,-0.044 0.19633,0 0.34527,0.0474 0.14895,0.044 0.24711,0.12863 0.10155,0.0812 0.15233,0.19633 0.0508,0.11509 0.0508,0.25726 0,0.13878 -0.0711,0.25726 -0.0677,0.11848 -0.18618,0.23018 -0.11847,0.10832 -0.27419,0.20987 -0.15232,0.10155 -0.32496,0.20649 -0.17263,0.10155 -0.34865,0.20987 -0.17602,0.10832 -0.33512,0.2268 z m -0.0846,0.0609 q 0.0711,-0.0339 0.39605,-0.0339 h 0.87672 q 0.18956,0 0.31481,-0.0237 0.12524,-0.0271 0.21325,-0.0711 0.088,-0.0474 0.15233,-0.1151 0.0643,-0.0677 0.13201,-0.15571 l 0.0203,0.0135 q -0.0711,0.0812 -0.15571,0.19972 -0.0846,0.11509 -0.17263,0.24711 -0.0846,0.13201 -0.16925,0.2708 -0.0812,0.1354 -0.15233,0.25726 h -2.11902 l -0.0102,-0.0135 z"
         style="font-style:normal;font-variant:normal;font-weight:normal;font-stretch:normal;font-size:4.06202px;font-family:Respira;-inkscape-font-specification:Respira;fill:#fbf7ee;fill-opacity:1;stroke-width:0.0555622"
         id="path840" />
    </g>
  </g>
</svg>
