<?xml version="1.0" encoding="UTF-8" standalone="no"?>
<svg
   xmlns:dc="http://purl.org/dc/elements/1.1/"
   xmlns:cc="http://creativecommons.org/ns#"
   xmlns:rdf="http://www.w3.org/1999/02/22-rdf-syntax-ns#"
   xmlns:svg="http://www.w3.org/2000/svg"
   xmlns="http://www.w3.org/2000/svg"
   xmlns:sodipodi="http://sodipodi.sourceforge.net/DTD/sodipodi-0.dtd"
   xmlns:inkscape="http://www.inkscape.org/namespaces/inkscape"
   width="8.0781841mm"
   height="12.86328mm"
   viewBox="0 0 8.0781841 12.86328"
   version="1.1"
   id="svg8"
   inkscape:version="1.0.2-2 (e86c870879, 2021-01-15)"
   sodipodi:docname="Feuille 007.svg">
  <defs
     id="defs2">
    <inkscape:path-effect
       effect="spiro"
       id="path-effect11014"
       is_visible="true"
       lpeversion="0" />
    <inkscape:path-effect
       effect="spiro"
       id="path-effect70330"
       is_visible="true"
       lpeversion="0" />
    <inkscape:path-effect
       effect="spiro"
       id="path-effect13549"
       is_visible="true"
       lpeversion="0" />
  </defs>
  <sodipodi:namedview
     id="base"
     pagecolor="#ffffff"
     bordercolor="#666666"
     borderopacity="1.0"
     inkscape:pageopacity="0.0"
     inkscape:pageshadow="2"
     inkscape:zoom="3.959798"
     inkscape:cx="12.297245"
     inkscape:cy="29.952857"
     inkscape:document-units="mm"
     inkscape:current-layer="layer1"
     inkscape:document-rotation="0"
     showgrid="false"
     fit-margin-top="0"
     fit-margin-left="0"
     fit-margin-right="0"
     fit-margin-bottom="0"
     inkscape:window-width="958"
     inkscape:window-height="1018"
     inkscape:window-x="946"
     inkscape:window-y="0"
     inkscape:window-maximized="0" />
  <metadata
     id="metadata5">
    <rdf:RDF>
      <cc:Work
         rdf:about="">
        <dc:format>image/svg+xml</dc:format>
        <dc:type
           rdf:resource="http://purl.org/dc/dcmitype/StillImage" />
        <dc:title />
      </cc:Work>
    </rdf:RDF>
  </metadata>
  <g
     inkscape:label="Calque 1"
     inkscape:groupmode="layer"
     id="layer1"
     transform="translate(-114.2602,-155.31243)">
    <path
       inkscape:original-d="m 121.18705,155.31243 c 0.85249,-0.55626 0.34264,0.86924 0.51409,1.30418 0.17092,0.43498 0.31697,1.61883 0.47545,2.42862 0.15849,0.80978 -0.05,1.59078 -0.0751,2.38654 -0.0265,0.79576 -0.79745,1.856 -1.19671,2.78437 -0.39926,0.92837 -1.30254,1.783 -1.95448,2.67488 -0.65193,0.89191 -1.4171,0.74375 -2.12592,1.11599 -0.70882,0.37224 -1.16893,0.1687 -1.16893,0.1687 0,0 -0.32465,-0.50247 -0.32465,-0.50247 0,0 -0.46593,-1.05238 -0.69929,-1.57822 -0.23336,-0.5258 -0.18389,-2.2779 -0.27596,-3.41651 -0.0921,-1.13861 1.08585,-2.25618 1.62825,-3.38386 0.54266,-1.12768 1.76397,-1.54197 2.64556,-2.31262 0.88133,-0.7706 1.70551,-1.11331 2.55773,-1.6696 z"
       inkscape:path-effect="#path-effect13549"
       inkscape:connector-curvature="0"
       id="path1106-0-7-8-9-9-4-0-7-2"
       d="m 121.18705,155.31243 c 0.20198,0.42181 0.37393,0.858 0.51409,1.30418 0.24767,0.78841 0.39553,1.6061 0.47545,2.42862 0.0773,0.79532 0.0907,1.60487 -0.0751,2.38654 -0.2105,0.99221 -0.7001,1.89997 -1.19671,2.78437 -0.54346,0.96784 -1.11771,1.94557 -1.95448,2.67488 -0.60877,0.53059 -1.34422,0.91331 -2.12592,1.11599 -0.38185,0.099 -0.77466,0.1557 -1.16893,0.1687 l -0.32465,-0.50247 c -0.28744,-0.49968 -0.52225,-1.02962 -0.69929,-1.57822 -0.35436,-1.09806 -0.47417,-2.27984 -0.27596,-3.41651 0.21753,-1.24747 0.81402,-2.41405 1.62825,-3.38386 0.75522,-0.89953 1.68849,-1.63179 2.64556,-2.31262 0.82986,-0.59033 1.68335,-1.14746 2.55773,-1.6696 z"
       style="fill:#112f25;fill-opacity:1;stroke:none;stroke-width:0.494101;stroke-linecap:butt;stroke-linejoin:miter;stroke-miterlimit:4;stroke-dasharray:none;stroke-opacity:1" />
    <g
       aria-label="007"
       transform="rotate(-59.716429)"
       id="text8537-8-1-9-8-2-7-6-8-0-0-2-3-01-8"
       style="font-style:normal;font-variant:normal;font-weight:normal;font-stretch:normal;font-size:4.06202px;line-height:0.758097px;font-family:Respira;-inkscape-font-specification:Respira;font-variant-ligatures:normal;font-variant-caps:normal;font-variant-numeric:normal;font-feature-settings:normal;text-align:start;letter-spacing:0px;word-spacing:0px;writing-mode:lr-tb;text-anchor:start;fill:#fbf7ee;fill-opacity:1;stroke:none;stroke-width:0.0555622">
      <path
         d="m -83.03534,182.37385 q 0.264031,0 0.467132,0.0745 0.203101,0.0745 0.338502,0.21325 0.138785,0.13879 0.206486,0.33512 0.07108,0.19633 0.07108,0.44344 0,0.19971 -0.05416,0.36558 -0.05416,0.16248 -0.145556,0.29449 -0.0914,0.12863 -0.209871,0.23019 -0.118476,0.0982 -0.247106,0.17263 0.05416,-0.10832 0.07785,-0.26742 0.0237,-0.16248 0.0237,-0.33511 0,-0.29111 -0.07447,-0.49421 -0.07108,-0.20311 -0.203101,-0.32835 -0.132016,-0.12863 -0.318192,-0.18618 -0.186176,-0.0575 -0.416357,-0.0575 -0.189561,0 -0.311421,0.0474 -0.121861,0.0474 -0.186176,0.0812 0.07447,-0.12186 0.165866,-0.23018 0.0914,-0.10832 0.209871,-0.18618 0.118475,-0.0812 0.267416,-0.12524 0.148941,-0.0474 0.338502,-0.0474 z m -0.555143,2.66739 q -0.250491,0 -0.453592,-0.0677 -0.203101,-0.0711 -0.348657,-0.20649 -0.142171,-0.1354 -0.220026,-0.32834 -0.07785,-0.19634 -0.07785,-0.44683 0,-0.18279 0.05755,-0.33173 0.05754,-0.15232 0.148941,-0.27757 0.09478,-0.12863 0.213256,-0.23018 0.12186,-0.10494 0.250491,-0.18618 -0.05416,0.10832 -0.07786,0.24372 -0.0237,0.13202 -0.0237,0.30466 0,0.29111 0.07109,0.49759 0.07447,0.2031 0.209871,0.33174 0.1354,0.12863 0.331731,0.18617 0.196331,0.0575 0.446823,0.0575 0.16925,0 0.274186,-0.0203 0.104935,-0.0237 0.176021,-0.0609 -0.06093,0.10832 -0.145556,0.20648 -0.08124,0.0948 -0.199716,0.16925 -0.115091,0.0745 -0.270801,0.11509 -0.155711,0.044 -0.362197,0.044 z"
         style="font-style:normal;font-variant:normal;font-weight:normal;font-stretch:normal;font-size:4.06202px;font-family:Respira;-inkscape-font-specification:Respira;fill:#fbf7ee;fill-opacity:1;stroke-width:0.0555622"
         id="path836" />
      <path
         d="m -80.00914,182.37385 q 0.264031,0 0.467132,0.0745 0.203101,0.0745 0.338502,0.21325 0.138786,0.13879 0.206486,0.33512 0.07109,0.19633 0.07109,0.44344 0,0.19971 -0.05416,0.36558 -0.05416,0.16248 -0.145556,0.29449 -0.09139,0.12863 -0.209871,0.23019 -0.118475,0.0982 -0.247106,0.17263 0.05416,-0.10832 0.07786,-0.26742 0.0237,-0.16248 0.0237,-0.33511 0,-0.29111 -0.07447,-0.49421 -0.07108,-0.20311 -0.203101,-0.32835 -0.132015,-0.12863 -0.318191,-0.18618 -0.186176,-0.0575 -0.416357,-0.0575 -0.189561,0 -0.311422,0.0474 -0.12186,0.0474 -0.186176,0.0812 0.07447,-0.12186 0.165866,-0.23018 0.0914,-0.10832 0.209871,-0.18618 0.118476,-0.0812 0.267417,-0.12524 0.14894,-0.0474 0.338501,-0.0474 z m -0.555143,2.66739 q -0.250491,0 -0.453592,-0.0677 -0.203101,-0.0711 -0.348656,-0.20649 -0.142171,-0.1354 -0.220027,-0.32834 -0.07785,-0.19634 -0.07785,-0.44683 0,-0.18279 0.05754,-0.33173 0.05755,-0.15232 0.148941,-0.27757 0.09478,-0.12863 0.213256,-0.23018 0.121861,-0.10494 0.250491,-0.18618 -0.05416,0.10832 -0.07785,0.24372 -0.0237,0.13202 -0.0237,0.30466 0,0.29111 0.07108,0.49759 0.07447,0.2031 0.209871,0.33174 0.135401,0.12863 0.331732,0.18617 0.196331,0.0575 0.446822,0.0575 0.169251,0 0.274186,-0.0203 0.104936,-0.0237 0.176021,-0.0609 -0.06093,0.10832 -0.145555,0.20648 -0.08124,0.0948 -0.199716,0.16925 -0.115091,0.0745 -0.270802,0.11509 -0.155711,0.044 -0.362197,0.044 z"
         style="font-style:normal;font-variant:normal;font-weight:normal;font-stretch:normal;font-size:4.06202px;font-family:Respira;-inkscape-font-specification:Respira;fill:#fbf7ee;fill-opacity:1;stroke-width:0.0555622"
         id="path838" />
      <path
         d="m -76.363481,183.20317 q -0.233566,0.76502 -0.423127,1.30324 -0.189561,0.53821 -0.382507,0.8801 -0.189561,0.34189 -0.406202,0.4976 -0.216641,0.15909 -0.511138,0.15909 -0.328346,0 -0.514522,-0.15232 -0.182791,-0.15233 -0.182791,-0.41974 0,-0.11509 0.044,-0.22342 0.04739,-0.10832 0.121861,-0.2031 0.07447,-0.0914 0.172636,-0.16925 0.09817,-0.0812 0.206486,-0.13878 -0.04739,0.0948 -0.04739,0.22341 0,0.18956 0.118476,0.29788 0.121861,0.11171 0.365582,0.11171 0.182791,0 0.352041,-0.12187 0.172636,-0.11847 0.345272,-0.37912 0.176021,-0.26064 0.355427,-0.67023 0.182791,-0.41297 0.385892,-0.9952 z m 0.0677,-0.18956 q -0.04739,0.0339 -0.372352,0.0339 h -1.208451 q -0.189561,0 -0.314806,0.0271 -0.121861,0.0237 -0.206486,0.0711 -0.08463,0.044 -0.145556,0.11509 -0.06093,0.0677 -0.125246,0.15233 l -0.02031,-0.0135 q 0.0677,-0.0812 0.145556,-0.19634 0.07785,-0.11847 0.159096,-0.25049 0.08124,-0.13201 0.159096,-0.26741 0.07785,-0.13879 0.14217,-0.26065 h 2.098711 z"
         style="font-style:normal;font-variant:normal;font-weight:normal;font-stretch:normal;font-size:4.06202px;font-family:Respira;-inkscape-font-specification:Respira;fill:#fbf7ee;fill-opacity:1;stroke-width:0.0555622"
         id="path840" />
    </g>
  </g>
</svg>
