<?xml version="1.0" encoding="UTF-8" standalone="no"?>
<svg
   xmlns:dc="http://purl.org/dc/elements/1.1/"
   xmlns:cc="http://creativecommons.org/ns#"
   xmlns:rdf="http://www.w3.org/1999/02/22-rdf-syntax-ns#"
   xmlns:svg="http://www.w3.org/2000/svg"
   xmlns="http://www.w3.org/2000/svg"
   xmlns:sodipodi="http://sodipodi.sourceforge.net/DTD/sodipodi-0.dtd"
   xmlns:inkscape="http://www.inkscape.org/namespaces/inkscape"
   width="8.9688902mm"
   height="15.338444mm"
   viewBox="0 0 8.9688901 15.338444"
   version="1.1"
   id="svg8"
   inkscape:version="1.0.2-2 (e86c870879, 2021-01-15)"
   sodipodi:docname="Feuille 006 Hover.svg">
  <defs
     id="defs2">
    <inkscape:path-effect
       effect="spiro"
       id="path-effect11046"
       is_visible="true"
       lpeversion="0" />
  </defs>
  <sodipodi:namedview
     id="base"
     pagecolor="#ffffff"
     bordercolor="#666666"
     borderopacity="1.0"
     inkscape:pageopacity="0.0"
     inkscape:pageshadow="2"
     inkscape:zoom="3.959798"
     inkscape:cx="32.284584"
     inkscape:cy="44.174283"
     inkscape:document-units="mm"
     inkscape:current-layer="g11253"
     inkscape:document-rotation="0"
     showgrid="false"
     fit-margin-top="0"
     fit-margin-left="0"
     fit-margin-right="0"
     fit-margin-bottom="0"
     inkscape:window-width="958"
     inkscape:window-height="1018"
     inkscape:window-x="946"
     inkscape:window-y="0"
     inkscape:window-maximized="0" />
  <metadata
     id="metadata5">
    <rdf:RDF>
      <cc:Work
         rdf:about="">
        <dc:format>image/svg+xml</dc:format>
        <dc:type
           rdf:resource="http://purl.org/dc/dcmitype/StillImage" />
        <dc:title />
      </cc:Work>
    </rdf:RDF>
  </metadata>
  <g
     inkscape:label="Calque 1"
     inkscape:groupmode="layer"
     id="layer1"
     transform="translate(-108.97189,-151.54968)">
    <g
       id="g11253"
       transform="matrix(0.26458333,0,0,0.26458333,2760.7448,1440.7936)">
      <path
         inkscape:original-d="m -9993.9935,-4819.4737 c 0,0 0.499,-5.7304 0.751,-8.5959 0.252,-2.8655 1.66,-6.6168 2.493,-9.9256 0.833,-3.3087 -0.912,-7.8353 -1.365,-11.7533 -0.453,-3.9179 -5.168,-8.1786 -7.75,-12.2683 -2.5815,-4.0896 -17.0875,-8.5095 -17.0875,-8.5095 0,0 -2.321,3.7685 -2.539,7.6929 -0.217,3.9245 -2.866,7.1357 -0.647,11.7727 2.218,4.6371 3.58,10.9261 6.662,13.9107 3.082,2.9846 6.941,7.1064 9.252,8.9533 2.31,1.847 6.9355,5.5402 6.9355,5.5402 0,0 3.295,3.1829 3.295,3.1829 z"
         inkscape:path-effect="#path-effect11046"
         inkscape:connector-curvature="0"
         id="path994-9-0-6-4-6-8-3-2-4"
         d="m -9993.9935,-4819.4737 c -0.1363,-2.8817 0.1171,-5.7815 0.751,-8.5959 0.7501,-3.3304 2.0298,-6.5433 2.493,-9.9256 0.5401,-3.9439 -0.061,-7.9923 -1.365,-11.7533 -1.5989,-4.6111 -4.2621,-8.8547 -7.75,-12.2683 -4.6225,-4.5239 -10.6915,-7.5464 -17.0875,-8.5095 -1.076,2.4806 -1.927,5.0589 -2.539,7.6929 -0.895,3.8525 -1.274,7.8677 -0.647,11.7727 0.825,5.1356 3.368,9.8856 6.662,13.9107 2.722,3.3261 5.952,6.1992 9.252,8.9533 2.272,1.8961 4.5844,3.7434 6.9355,5.5402 l 3.295,3.1829 z"
         style="fill:#fbf7ee;fill-opacity:1;stroke:#112f25;stroke-width:4;stroke-linecap:butt;stroke-linejoin:miter;stroke-miterlimit:10.5;stroke-dasharray:none;stroke-opacity:1;paint-order:markers stroke fill" />
      <g
         aria-label="006"
         transform="rotate(67.594793)"
         id="text8537-8-1-9-8-2-7-6-8-0-0-2-1-2-8"
         style="font-style:normal;font-variant:normal;font-weight:normal;font-stretch:normal;font-size:15.3525px;line-height:2.86525px;font-family:Respira;-inkscape-font-specification:Respira;font-variant-ligatures:normal;font-variant-caps:normal;font-variant-numeric:normal;font-feature-settings:normal;text-align:start;letter-spacing:0px;word-spacing:0px;writing-mode:lr-tb;text-anchor:start;fill:#112f25;fill-opacity:1;stroke:none;stroke-width:0.209999">
        <path
           d="m -8305.8326,7397.8043 q 0.9979,0 1.7655,0.2814 0.7677,0.2815 1.2794,0.806 0.5246,0.5246 0.7804,1.2666 0.2687,0.7421 0.2687,1.676 0,0.7548 -0.2047,1.3817 -0.2047,0.6141 -0.5501,1.1131 -0.3455,0.4862 -0.7932,0.87 -0.4478,0.371 -0.934,0.6524 0.2047,-0.4094 0.2943,-1.0107 0.09,-0.6141 0.09,-1.2665 0,-1.1003 -0.2814,-1.8679 -0.2687,-0.7677 -0.7677,-1.241 -0.4989,-0.4862 -1.2026,-0.7037 -0.7036,-0.2175 -1.5736,-0.2175 -0.7165,0 -1.177,0.1791 -0.4606,0.1792 -0.7037,0.3071 0.2815,-0.4606 0.6269,-0.87 0.3454,-0.4094 0.7932,-0.7036 0.4478,-0.3071 1.0107,-0.4734 0.563,-0.1791 1.2794,-0.1791 z m -2.0982,10.0815 q -0.9467,0 -1.7143,-0.2559 -0.7677,-0.2687 -1.3178,-0.7804 -0.5373,-0.5118 -0.8316,-1.241 -0.2942,-0.7421 -0.2942,-1.6888 0,-0.6909 0.2175,-1.2538 0.2174,-0.5757 0.5629,-1.0491 0.3582,-0.4861 0.806,-0.87 0.4606,-0.3966 0.9467,-0.7036 -0.2047,0.4094 -0.2942,0.9211 -0.09,0.499 -0.09,1.1515 0,1.1002 0.2687,1.8807 0.2814,0.7676 0.7932,1.2537 0.5117,0.4862 1.2538,0.7037 0.742,0.2175 1.6888,0.2175 0.6396,0 1.0362,-0.077 0.3967,-0.09 0.6653,-0.2303 -0.2303,0.4094 -0.5501,0.7805 -0.3071,0.3582 -0.7548,0.6396 -0.435,0.2815 -1.0235,0.435 -0.5886,0.1664 -1.369,0.1664 z"
           style="font-style:normal;font-variant:normal;font-weight:normal;font-stretch:normal;font-size:15.3525px;font-family:Respira;-inkscape-font-specification:Respira;fill:#112f25;fill-opacity:1;stroke-width:0.209999"
           id="path835" />
        <path
           d="m -8294.395,7397.8043 q 0.9979,0 1.7655,0.2814 0.7677,0.2815 1.2794,0.806 0.5246,0.5246 0.7804,1.2666 0.2687,0.7421 0.2687,1.676 0,0.7548 -0.2047,1.3817 -0.2047,0.6141 -0.5501,1.1131 -0.3455,0.4862 -0.7932,0.87 -0.4478,0.371 -0.934,0.6524 0.2047,-0.4094 0.2943,-1.0107 0.09,-0.6141 0.09,-1.2665 0,-1.1003 -0.2814,-1.8679 -0.2687,-0.7677 -0.7677,-1.241 -0.4989,-0.4862 -1.2026,-0.7037 -0.7036,-0.2175 -1.5736,-0.2175 -0.7165,0 -1.177,0.1791 -0.4606,0.1792 -0.7037,0.3071 0.2815,-0.4606 0.6269,-0.87 0.3454,-0.4094 0.7932,-0.7036 0.4478,-0.3071 1.0107,-0.4734 0.563,-0.1791 1.2794,-0.1791 z m -2.0982,10.0815 q -0.9467,0 -1.7143,-0.2559 -0.7677,-0.2687 -1.3178,-0.7804 -0.5373,-0.5118 -0.8316,-1.241 -0.2942,-0.7421 -0.2942,-1.6888 0,-0.6909 0.2175,-1.2538 0.2174,-0.5757 0.5629,-1.0491 0.3582,-0.4861 0.806,-0.87 0.4606,-0.3966 0.9467,-0.7036 -0.2047,0.4094 -0.2942,0.9211 -0.09,0.499 -0.09,1.1515 0,1.1002 0.2687,1.8807 0.2814,0.7676 0.7932,1.2537 0.5117,0.4862 1.2538,0.7037 0.742,0.2175 1.6888,0.2175 0.6396,0 1.0362,-0.077 0.3967,-0.09 0.6653,-0.2303 -0.2303,0.4094 -0.5501,0.7805 -0.3071,0.3582 -0.7548,0.6396 -0.435,0.2815 -1.0235,0.435 -0.5886,0.1664 -1.369,0.1664 z"
           style="font-style:normal;font-variant:normal;font-weight:normal;font-stretch:normal;font-size:15.3525px;font-family:Respira;-inkscape-font-specification:Respira;fill:#112f25;fill-opacity:1;stroke-width:0.209999"
           id="path837" />
        <path
           d="m -8281.1407,7405.3782 q 0.1791,-0.3966 0.2559,-0.9468 0.077,-0.5501 0.077,-1.3177 0,-0.7676 -0.1919,-1.4073 -0.1919,-0.6397 -0.5885,-1.0875 -0.3966,-0.4606 -0.9851,-0.7037 -0.5885,-0.2558 -1.3945,-0.2558 -0.5118,0 -0.9084,0.09 -0.3838,0.09 -0.7164,0.2815 -0.3199,0.1791 -0.6141,0.4734 -0.2815,0.2814 -0.5885,0.678 0.4478,-0.742 0.9339,-1.3689 0.499,-0.6269 1.0491,-1.0619 0.5629,-0.4478 1.2026,-0.6908 0.6397,-0.2559 1.3945,-0.2559 0.9084,0 1.5609,0.2942 0.6652,0.2815 1.0874,0.7805 0.435,0.4861 0.6397,1.1386 0.2047,0.6397 0.2047,1.3433 0,0.6269 -0.1791,1.2027 -0.1791,0.5757 -0.5117,1.0874 -0.3199,0.5118 -0.7677,0.9468 -0.4349,0.4349 -0.9595,0.7804 z m -5.7956,-4.5162 q 0,1.3561 0.2431,2.3284 0.2559,0.9724 0.7165,1.5993 0.4733,0.6269 1.1514,0.9211 0.6781,0.2943 1.5353,0.2943 0.6013,0 1.1386,-0.1536 0.5501,-0.1663 0.9979,-0.4605 -0.2942,0.5373 -0.6141,1.0235 -0.3198,0.4733 -0.7548,0.8316 -0.4222,0.3582 -0.9851,0.5629 -0.5502,0.2047 -1.3178,0.2047 -0.9467,0 -1.7527,-0.3582 -0.7932,-0.3711 -1.3818,-1.0619 -0.5757,-0.7037 -0.9083,-1.7016 -0.3327,-1.0107 -0.3327,-2.2773 0,-1.7143 0.6781,-3.1984 0.6781,-1.4841 1.8679,-2.6739 1.2026,-1.1898 2.853,-2.0342 1.6504,-0.8444 3.5951,-1.2666 -1.6376,0.371 -2.8914,1.1387 -1.2538,0.7548 -2.111,1.7655 -0.8444,1.0107 -1.2922,2.1877 -0.435,1.1643 -0.435,2.3285 z"
           style="font-style:normal;font-variant:normal;font-weight:normal;font-stretch:normal;font-size:15.3525px;font-family:Respira;-inkscape-font-specification:Respira;fill:#112f25;fill-opacity:1;stroke-width:0.209999"
           id="path839" />
      </g>
    </g>
  </g>
</svg>
