<?xml version="1.0" encoding="UTF-8" standalone="no"?>
<svg
   xmlns:dc="http://purl.org/dc/elements/1.1/"
   xmlns:cc="http://creativecommons.org/ns#"
   xmlns:rdf="http://www.w3.org/1999/02/22-rdf-syntax-ns#"
   xmlns:svg="http://www.w3.org/2000/svg"
   xmlns="http://www.w3.org/2000/svg"
   xmlns:sodipodi="http://sodipodi.sourceforge.net/DTD/sodipodi-0.dtd"
   xmlns:inkscape="http://www.inkscape.org/namespaces/inkscape"
   width="22.066259mm"
   height="9.5513201mm"
   viewBox="0 0 22.066259 9.55132"
   version="1.1"
   id="svg8"
   inkscape:version="1.0.2-2 (e86c870879, 2021-01-15)"
   sodipodi:docname="Logotype Dark VF.svg">
  <defs
     id="defs2">
    <pattern
       y="0"
       x="0"
       height="6"
       width="6"
       patternUnits="userSpaceOnUse"
       id="EMFhbasepattern" />
  </defs>
  <sodipodi:namedview
     id="base"
     pagecolor="#ffffff"
     bordercolor="#666666"
     borderopacity="1.0"
     inkscape:pageopacity="0.0"
     inkscape:pageshadow="2"
     inkscape:zoom="3.959798"
     inkscape:cx="20.119515"
     inkscape:cy="2.5166185"
     inkscape:document-units="mm"
     inkscape:current-layer="text8477-8-5-9-80-3-1-7"
     showgrid="false"
     fit-margin-top="0"
     fit-margin-left="0"
     fit-margin-right="0"
     fit-margin-bottom="0"
     inkscape:window-width="1920"
     inkscape:window-height="1027"
     inkscape:window-x="-8"
     inkscape:window-y="-8"
     inkscape:window-maximized="1"
     inkscape:document-rotation="0"
     inkscape:showpageshadow="false" />
  <metadata
     id="metadata5">
    <rdf:RDF>
      <cc:Work
         rdf:about="">
        <dc:format>image/svg+xml</dc:format>
        <dc:type
           rdf:resource="http://purl.org/dc/dcmitype/StillImage" />
        <dc:title />
      </cc:Work>
    </rdf:RDF>
  </metadata>
  <g
     inkscape:label="Calque 1"
     inkscape:groupmode="layer"
     id="layer1"
     transform="translate(-54.923672,-325.38134)">
    <g
       aria-label="mttä"
       id="text8477-8-5-9-80-3-1-7"
       style="font-style:normal;font-variant:normal;font-weight:normal;font-stretch:normal;font-size:10.5833px;line-height:1.93393px;font-family:'Baskerville Old Face';-inkscape-font-specification:'Baskerville Old Face';font-variant-ligatures:normal;font-variant-caps:normal;font-variant-numeric:normal;font-feature-settings:normal;text-align:start;letter-spacing:0px;word-spacing:0px;writing-mode:lr-tb;text-anchor:start;fill:#0a0a00;fill-opacity:1;stroke:none;stroke-width:0.230866">
      <path
         d="m 58.989518,334.7211 q -0.0441,-0.0706 -0.07056,-0.18521 -0.01764,-0.12347 -0.03528,-0.30868 -0.0088,-0.18521 -0.01764,-0.45861 0,-0.2734 0,-0.66145 0,-0.0882 0,-0.29104 0.0088,-0.20285 0.01764,-0.44979 0.0088,-0.25577 0.01764,-0.54681 0.01764,-0.29104 0.02646,-0.55562 0.0088,-0.2734 0.0088,-0.49389 0.0088,-0.2293 0.0088,-0.37041 0,-0.1323 -0.01764,-0.27341 -0.0088,-0.14993 -0.03528,-0.29104 -0.02646,-0.14111 -0.07056,-0.25576 -0.0441,-0.11465 -0.105833,-0.19403 -0.238125,-0.28222 -0.485068,-0.40569 -0.246944,-0.12347 -0.493888,-0.12347 -0.114652,0 -0.282221,0.13229 -0.167569,0.13229 -0.361596,0.29986 0,0.50271 0,1.08479 0.0088,0.57326 0.0088,1.19944 0.0088,0.61736 0.01764,1.26999 0.0088,0.65264 0.02646,1.29646 0,0.17639 0.01764,0.28222 0.01764,0.10583 0.0441,0.16757 0.03528,0.0617 0.07938,0.0882 0.05292,0.0265 0.123472,0.0441 h -2.072563 q 0.0441,-0.0265 0.07937,-0.10583 0.0441,-0.0794 0.05292,-0.38806 0.01764,-0.80256 0.02646,-1.57867 0.0088,-0.77611 0.0088,-1.42875 0.0088,-0.65264 0.0088,-1.12006 0,-0.46743 0,-0.64382 0,-0.42333 -0.02646,-0.68792 -0.02646,-0.26458 -0.09701,-0.42333 -0.06174,-0.15875 -0.176389,-0.22048 -0.114652,-0.0617 -0.29104,-0.0794 0.273402,0 0.5909,-0.009 0.326319,-0.0176 0.626179,-0.0353 0.30868,-0.0265 0.555623,-0.0529 0.255763,-0.0265 0.396874,-0.0441 v 1.36701 q 0.246944,-0.25576 0.582082,-0.5468 0.335137,-0.29104 0.643817,-0.51153 0.229305,-0.15875 0.388054,-0.2293 0.167569,-0.0794 0.335138,-0.0794 0.246944,0 0.485068,0.10583 0.246944,0.097 0.440971,0.28223 0.202846,0.17638 0.343957,0.42333 0.141111,0.24694 0.185208,0.52916 0.246943,-0.24694 0.564442,-0.52916 0.326319,-0.29104 0.634998,-0.50271 0.229305,-0.15875 0.388055,-0.2293 0.167569,-0.0794 0.335138,-0.0794 0.282221,0 0.546803,0.13229 0.264583,0.12347 0.467429,0.34396 0.211666,0.21167 0.335138,0.51153 0.132291,0.29104 0.132291,0.61735 0,0.3175 -0.01764,0.81139 -0.0088,0.49389 -0.02646,1.03187 -0.0088,0.52917 -0.02646,1.02306 -0.0088,0.49388 -0.0088,0.81138 0,0.49389 0.07055,0.79375 0.07055,0.29104 0.176388,0.44979 0.114653,0.15875 0.238125,0.22048 0.132291,0.0529 0.246943,0.0706 H 62.49074 q -0.08819,-0.0706 -0.141111,-0.18521 -0.0441,-0.12347 -0.07056,-0.30868 -0.02646,-0.18521 -0.03528,-0.45861 0,-0.2734 0,-0.66145 0,-0.0882 0,-0.29104 0.0088,-0.20285 0.01764,-0.44979 0.0088,-0.25577 0.01764,-0.54681 0.01764,-0.29104 0.02646,-0.55562 0.0088,-0.2734 0.0088,-0.49389 0.0088,-0.2293 0.0088,-0.37041 0,-0.1323 -0.01764,-0.27341 -0.0088,-0.14993 -0.03528,-0.29104 -0.02646,-0.14111 -0.07055,-0.25576 -0.0441,-0.11465 -0.105833,-0.19403 -0.238124,-0.28222 -0.485068,-0.40569 -0.246943,-0.12347 -0.493887,-0.12347 -0.105833,0 -0.273402,0.12347 -0.15875,0.12347 -0.343957,0.28222 0.02646,0.12347 0.02646,0.24694 0,0.3175 -0.01764,0.81139 -0.0088,0.49389 -0.02646,1.03187 -0.0088,0.52917 -0.02646,1.02306 -0.0088,0.49388 -0.0088,0.81138 0,0.49389 0.0441,0.79375 0.05292,0.29104 0.114653,0.44979 0.06174,0.15875 0.114652,0.22048 0.06174,0.0529 0.08819,0.0706 z"
         style="font-style:normal;font-variant:normal;font-weight:normal;font-stretch:normal;font-size:10.5833px;font-family:Respira;-inkscape-font-specification:Respira;fill:#0a0a00;fill-opacity:1;stroke-width:0.230866"
         id="path847" />
      <path
         d="m 64.378179,329.26188 q -0.15875,0 -0.05292,-0.10583 l 2.257771,-1.98437 q 0.07055,-0.0441 0.105833,-0.0353 0.03528,0 0.03528,0.097 v 0.80256 q 0.60854,-0.009 1.21708,-0.0176 0.60854,-0.009 1.234718,0 l -1.331732,1.24354 h -1.120066 q 0,1.19944 0,1.95791 0.0088,0.74965 0.01764,1.1818 0.0088,0.43215 0.02646,0.60854 0.02646,0.17639 0.05292,0.22049 0.03528,0.0529 0.158749,0.14993 0.132292,0.0882 0.291041,0.17639 0.15875,0.0882 0.326319,0.15875 0.167569,0.0617 0.29104,0.0617 0.05292,0 0.114653,-0.0265 0.06174,-0.0265 0.185207,-0.12347 0.123472,-0.10583 0.343958,-0.29986 0.220485,-0.20284 0.582081,-0.5468 -0.361596,0.37041 -0.723192,0.71437 -0.361596,0.34396 -0.670276,0.635 -0.308679,0.28222 -0.555623,0.48507 -0.238124,0.19402 -0.352776,0.25576 -0.123472,0.0617 -0.238125,0.0617 -0.05292,0 -0.185207,-0.0529 -0.123472,-0.0441 -0.282222,-0.13229 -0.14993,-0.0882 -0.308679,-0.19403 -0.15875,-0.10583 -0.291041,-0.2293 -0.176388,-0.15875 -0.273402,-0.33514 -0.08819,-0.18521 -0.08819,-0.44097 l 0.03528,-4.28624 h -0.802567 z"
         style="font-style:normal;font-variant:normal;font-weight:normal;font-stretch:normal;font-size:10.5833px;font-family:Respira;-inkscape-font-specification:Respira;fill:#0a0a00;fill-opacity:1;stroke-width:0.230866"
         id="path849" />
      <path
         d="m 67.844203,329.26188 q -0.158749,0 -0.05292,-0.10583 l 2.26659,-1.98437 q 0.14111,-0.12347 0.14111,0.0617 v 0.81138 h 2.522353 l -1.34937,1.19062 q -0.291041,0 -0.582082,0 -0.291041,-0.009 -0.590901,-0.009 0,1.20826 0,1.96673 0.0088,0.75847 0.01764,1.19944 0.0088,0.44097 0.02646,0.61736 0.02646,0.17639 0.05292,0.22049 0.03528,0.0529 0.167569,0.14993 0.132291,0.097 0.29104,0.18521 0.167569,0.0882 0.335138,0.15875 0.176389,0.0617 0.29986,0.0617 0.05292,0 0.105833,-0.0265 0.06174,-0.0353 0.194028,-0.14993 0.14111,-0.12347 0.388054,-0.37041 0.255763,-0.24695 0.696734,-0.67028 l -0.802567,1.17298 1.023052,1.14653 q -0.09701,-0.0353 -0.255763,-0.14993 -0.158749,-0.10583 -0.361596,-0.25576 -0.194027,-0.14993 -0.423332,-0.32632 -0.229305,-0.18521 -0.44979,-0.37924 -0.194027,0.20285 -0.388055,0.38806 -0.185207,0.17638 -0.352776,0.32632 -0.15875,0.14111 -0.282221,0.23812 -0.123472,0.10583 -0.194028,0.14111 -0.123471,0.0617 -0.238124,0.0617 -0.05292,0 -0.185208,-0.0529 -0.123471,-0.0441 -0.282221,-0.13229 -0.14993,-0.0882 -0.30868,-0.19403 -0.158749,-0.10583 -0.29104,-0.2293 -0.176389,-0.15875 -0.273402,-0.33514 -0.08819,-0.18521 -0.08819,-0.44097 l 0.03528,-4.30388 q -0.202846,0.009 -0.405693,0.0176 -0.202846,0 -0.405693,0 z"
         style="font-style:normal;font-variant:normal;font-weight:normal;font-stretch:normal;font-size:10.5833px;font-family:Respira;-inkscape-font-specification:Respira;fill:#0a0a00;fill-opacity:1;stroke-width:0.230866"
         id="path851" />
      <path
         d="m 74.926179,334.7211 q -0.08819,-0.0706 -0.141111,-0.18521 -0.0441,-0.12347 -0.07055,-0.30868 -0.02646,-0.18521 -0.03528,-0.45861 0,-0.2734 0,-0.66145 0,-0.14111 0.0088,-0.49389 0.01764,-0.3616 0.02646,-0.81139 0.01764,-0.44979 0.02646,-0.93486 0.01764,-0.48506 0.01764,-0.87312 0,-0.32632 -0.176388,-0.58208 -0.167569,-0.25576 -0.643818,-0.41451 -0.282221,-0.097 -0.44979,-0.12347 -0.167569,-0.0265 -0.343957,-0.0265 -0.202847,0 -0.45861,0.21166 -0.255763,0.21167 -0.573262,0.45861 0.202847,-0.17638 0.405693,-0.36159 0.211666,-0.19403 0.405694,-0.37042 0.194027,-0.17639 0.370415,-0.32632 0.176388,-0.14993 0.326318,-0.25576 0.282222,-0.19403 0.46743,-0.25576 0.194027,-0.0706 0.361596,-0.0706 0.282221,0 0.564442,0.097 0.282222,0.0882 0.564443,0.25576 0.396874,0.2293 0.573262,0.45861 0.185208,0.22048 0.185208,0.5468 0,0.43215 -0.01764,0.98778 -0.0088,0.5468 -0.02646,1.10242 -0.0088,0.55563 -0.02646,1.04952 -0.0088,0.49388 -0.0088,0.81138 0,0.49389 0.07056,0.79375 0.07056,0.29104 0.176389,0.44979 0.114652,0.15875 0.238124,0.22048 0.132291,0.0529 0.246944,0.0706 z m -2.56645,-8.18442 1.296454,-1.07597 0.917219,0.97014 1.252358,-1.04951 0.926038,0.98777 -1.217079,1.04951 -0.961317,-0.97013 -1.296454,1.10242 z m 0.414513,6.03248 q 0.476248,0.4057 0.881941,0.6791 0.405693,0.2734 0.582082,0.36159 l -1.243538,1.27882 q -0.09701,-0.0353 -0.255763,-0.14993 -0.15875,-0.10583 -0.361596,-0.25576 -0.194027,-0.14993 -0.423332,-0.32632 -0.229305,-0.18521 -0.44979,-0.37924 -0.194028,0.20285 -0.379235,0.38806 -0.194028,0.17638 -0.352777,0.32632 -0.167569,0.14111 -0.291041,0.23812 -0.123472,0.10583 -0.194027,0.14111 l 0.740831,-0.89076 -0.643817,-0.66146 q 0.07937,0.0706 0.211666,0.14993 0.123471,0.0794 0.264582,0.14993 0.141111,0.0706 0.282221,0.12347 0.141111,0.0441 0.246944,0.0441 0.05292,0 0.114653,-0.0265 0.05292,-0.0353 0.194027,-0.14993 0.132291,-0.12347 0.379235,-0.37041 0.255763,-0.24695 0.696734,-0.67028 z"
         style="font-style:normal;font-variant:normal;font-weight:normal;font-stretch:normal;font-size:10.5833px;font-family:Respira;-inkscape-font-specification:Respira;fill:#0a0a00;fill-opacity:1;stroke-width:0.230866"
         id="path853" />
    </g>
  </g>
</svg>
