<?xml version="1.0" encoding="UTF-8" standalone="no"?>
<svg
   xmlns:dc="http://purl.org/dc/elements/1.1/"
   xmlns:cc="http://creativecommons.org/ns#"
   xmlns:rdf="http://www.w3.org/1999/02/22-rdf-syntax-ns#"
   xmlns:svg="http://www.w3.org/2000/svg"
   xmlns="http://www.w3.org/2000/svg"
   xmlns:sodipodi="http://sodipodi.sourceforge.net/DTD/sodipodi-0.dtd"
   xmlns:inkscape="http://www.inkscape.org/namespaces/inkscape"
   width="23.392923mm"
   height="43.022156mm"
   viewBox="0 0 23.392924 43.022156"
   version="1.1"
   id="svg8"
   inkscape:version="1.0.2-2 (e86c870879, 2021-01-15)"
   sodipodi:docname="Look Up Desktop VF.svg">
  <defs
     id="defs2" />
  <sodipodi:namedview
     id="base"
     pagecolor="#ffffff"
     bordercolor="#666666"
     borderopacity="1.0"
     inkscape:pageopacity="0.0"
     inkscape:pageshadow="2"
     inkscape:zoom="1.4"
     inkscape:cx="-51.779737"
     inkscape:cy="113.72371"
     inkscape:document-units="mm"
     inkscape:current-layer="layer1"
     inkscape:document-rotation="0"
     showgrid="false"
     fit-margin-top="5"
     fit-margin-left="5"
     fit-margin-right="5"
     fit-margin-bottom="5"
     inkscape:showpageshadow="false"
     lock-margins="true"
     inkscape:window-width="958"
     inkscape:window-height="1018"
     inkscape:window-x="-7"
     inkscape:window-y="0"
     inkscape:window-maximized="0" />
  <metadata
     id="metadata5">
    <rdf:RDF>
      <cc:Work
         rdf:about="">
        <dc:format>image/svg+xml</dc:format>
        <dc:type
           rdf:resource="http://purl.org/dc/dcmitype/StillImage" />
        <dc:title></dc:title>
      </cc:Work>
    </rdf:RDF>
  </metadata>
  <g
     inkscape:label="Calque 1"
     inkscape:groupmode="layer"
     id="layer1"
     transform="translate(-76.511706,-118.895)">
    <path
       style="fill:#dcce87;fill-opacity:1;stroke-width:0.0964115"
       d="m 94.696215,127.55177 c -0.119353,0 -0.867701,0.0656 -1.663144,0.14412 -1.737254,0.16964 -3.630268,0.18353 -4.792953,0.0344 -0.469318,-0.0602 -0.879317,-0.0839 -0.911225,-0.0511 -0.03212,0.033 0.07313,0.20726 0.233336,0.38984 0.479557,0.54621 0.891328,1.19127 0.891328,1.39633 0,0.20432 -0.418888,0.59221 -0.639683,0.59221 -0.18505,0 -0.177165,0.0184 0.257043,0.48523 0.578008,0.62629 0.625924,1.0873 0.139885,1.34746 -0.131683,0.0693 -0.238522,0.15323 -0.23749,0.18405 0,0.0312 0.217963,0.18446 0.482018,0.34116 0.457464,0.27165 0.600895,0.43803 0.377428,0.43803 -0.05654,0 -0.436086,-0.15504 -0.843598,-0.34368 -0.407484,-0.189 -0.955251,-0.36962 -1.217295,-0.40137 -0.358378,-0.0436 -0.561366,-0.13683 -0.819467,-0.37671 l -0.343138,-0.31928 h 0.756417 c 0.898657,0 1.316514,-0.18735 1.316514,-0.58031 0,-0.46592 -0.227066,-0.648 -0.866246,-0.69414 -0.379227,-0.0276 -0.672544,-0.10944 -0.840317,-0.23461 -0.448521,-0.33492 -0.391689,-0.4218 0.27641,-0.4218 0.734934,0 1.270106,-0.22858 1.317308,-0.56204 0.03122,-0.22075 -0.296069,-0.81493 -0.68453,-1.24222 -0.106707,-0.11672 -0.48088,-0.30793 -0.831294,-0.42305 -0.88945,-0.29242 -1.312678,-0.52084 -1.803559,-0.97345 -0.399971,-0.3685 -0.543534,-0.65567 -0.327872,-0.65567 0.124037,0 0.482018,0.35648 0.482018,0.4802 0,0.0529 0.169519,0.1806 0.376687,0.28658 0.491411,0.25069 1.165913,0.48164 1.165913,0.39936 0,-0.0367 -0.08681,-0.23498 -0.192855,-0.44293 -0.105912,-0.20802 -0.192775,-0.45924 -0.192775,-0.55806 0,-0.18065 0.386001,-0.61009 0.716227,-0.79562 0.172191,-0.0967 0.171318,-0.11492 -0.02892,-0.56919 -0.114168,-0.25792 -0.181716,-0.49474 -0.150363,-0.52632 0.0312,-0.0312 0.2032,0.11495 0.381688,0.32841 0.555969,0.66002 0.858732,0.95207 1.348873,1.30127 0.58666,0.41778 0.885454,0.85065 0.968189,1.40252 0.0589,0.39389 0.08845,0.42908 0.408993,0.48928 0.420503,0.0785 3.149336,-0.0294 3.855191,-0.15322 0.280406,-0.0493 0.643017,-0.1551 0.805762,-0.23699 0.311653,-0.15505 0.511043,-0.10764 0.877782,0.2129 0.22897,0.19976 0.211984,0.30961 -0.04839,0.31211 z m -7.127742,-0.74304 c -0.195104,-0.14963 -0.432726,-0.41232 -0.528029,-0.58453 -0.208439,-0.37689 -0.270219,-0.38622 -0.476197,-0.073 -0.132636,0.20231 -0.139224,0.2877 -0.04035,0.52613 0.128984,0.31106 0.41312,0.44042 1.264364,0.57484 0.437621,0.0693 0.484002,0.062 0.32303,-0.0454 -0.103452,-0.0712 -0.347557,-0.24921 -0.542713,-0.39843 z m 0.291094,-0.84521 c -0.09739,-0.21362 -0.466566,-0.3574 -0.466566,-0.18244 0,0.0894 0.480854,0.90027 0.534326,0.90027 0.08702,0 0.04175,-0.47775 -0.06768,-0.71856 z m 0.689452,22.96008 c -0.04689,0.11493 -0.206719,0.28751 -0.355442,0.38055 -0.148695,0.093 -0.288951,0.18281 -0.311652,0.19957 -0.02275,0.0185 0.04884,0.15325 0.159252,0.30154 0.545465,0.73799 0.567849,1.44962 0.06855,2.18522 -0.239051,0.35243 -0.241247,0.37069 -0.09504,0.79997 0.280511,0.82308 0.172614,1.99376 -0.199364,2.16306 -0.188172,0.0857 -0.290036,0.0565 -0.618463,-0.16967 -0.612273,-0.42431 -0.767874,-0.70582 -0.767874,-1.38955 0,-0.4393 0.06186,-0.71297 0.240956,-1.06651 0.303001,-0.59785 0.306784,-0.77152 0.01667,-0.77152 -0.279665,0 -0.549646,0.28899 -0.872041,0.93332 -0.137345,0.27456 -0.293978,0.52671 -0.348059,0.56005 -0.21209,0.13137 -0.0708,0.41271 0.508529,1.01362 0.332449,0.34461 0.795179,0.86527 1.028145,1.15676 0.233071,0.29176 0.662992,0.77864 0.955542,1.08203 0.292576,0.30359 0.510196,0.57356 0.483738,0.60018 -0.123719,0.12408 -0.834893,-0.53232 -1.845389,-1.70244 -1.507993,-1.74621 -1.405097,-1.6689 -2.176807,-1.63439 -0.586978,0.0257 -0.683233,0 -1.108657,-0.28131 -0.640159,-0.42614 -1.491245,-1.2179 -1.659996,-1.54409 -0.07699,-0.14959 -0.139911,-0.46721 -0.139911,-0.70765 0,-0.34208 0.05834,-0.50245 0.268869,-0.73793 0.242755,-0.27163 0.321813,-0.30051 0.811345,-0.29444 0.68662,0.0185 1.653725,0.44582 2.186913,0.98965 l 0.377005,0.38475 0.246407,-0.24644 c 0.315224,-0.31524 0.674211,-0.31597 1.263756,0 0.522869,0.27802 0.659659,0.22932 0.887703,-0.31653 0.222726,-0.53268 0.01667,-1.0966 -0.582295,-1.59023 -0.702257,-0.57942 -1.415283,-1.25277 -1.50704,-1.42334 -0.168513,-0.31381 0,-0.63124 0.440928,-0.82459 0.385895,-0.16969 0.425265,-0.218 0.426059,-0.52489 0,-0.5347 -0.140468,-0.88715 -0.516996,-1.28374 -0.192405,-0.20248 -0.349753,-0.4247 -0.349753,-0.49385 0,-0.0693 0.09173,-0.33277 0.203703,-0.58613 0.179678,-0.40628 0.189997,-0.50719 0.08699,-0.85583 -0.234395,-0.79392 -0.471117,-1.09221 -1.003829,-1.26515 -3.899139,-1.63915 -2.190671,-5.36183 0.209232,-1.33649 0.520171,0.89082 0.60153,0.95047 1.255501,0.92312 0.550968,-0.0238 0.757687,-0.10035 0.503846,-0.19121 -0.283078,-0.1003 -1.125432,-0.98493 -1.332733,-1.39997 -0.255296,-0.51114 -0.284533,-1.2354 -0.05744,-1.42387 0.131525,-0.10946 0.245957,-0.0803 0.771287,0.19153 0.339222,0.17515 0.616797,0.3585 0.616797,0.40574 0,0.0474 0.08173,0.0857 0.181689,0.0857 0.423968,0 0.920009,-1.39084 0.862039,-2.41701 -0.02037,-0.36746 -0.02302,-0.66828 -0.0056,-0.66828 0.01852,0 0.203941,0.13683 0.412908,0.30541 0.373089,0.29992 0.380022,0.31707 0.380022,0.94041 0,0.7241 -0.247492,1.68515 -0.608754,2.3638 -0.204205,0.38364 -0.23794,0.54947 -0.194786,0.95812 0.0427,0.40241 0.112924,0.55039 0.379651,0.79778 0.180075,0.16785 0.327474,0.34716 0.327474,0.40005 0,0.14961 -0.844497,0.31617 -1.714658,0.33749 -0.434605,0.0185 -0.790549,0.0436 -0.791131,0.073 0,0.0294 0.103849,0.27129 0.231775,0.53655 0.194945,0.40428 0.294323,0.50096 0.612669,0.59636 0.762397,0.22842 1.661345,1.32848 1.661345,2.03304 0,0.58119 -0.537342,0.88133 -1.13284,0.6325 -0.298979,-0.12592 -0.312816,-0.12041 -0.301916,0.0802 0.02934,0.54764 0.14904,0.73665 0.742712,1.1725 0.765096,0.56151 1.001977,1.03239 0.787506,1.56469 z m -0.921862,-1.26499 c -0.242093,-0.24209 -0.403516,-0.17697 -0.528478,0.20999 -0.06403,0.19886 -0.157983,0.41392 -0.208651,0.47799 -0.139303,0.17513 0,0.31743 0.31033,0.31743 0.482785,0 0.765731,-0.66663 0.426799,-1.00541 z m -0.153246,-3.37677 c -0.199575,-0.43785 -0.755835,-0.29592 -0.755835,0.19317 0,0.31908 0.331178,1.0074 0.484716,1.0074 0.334539,0 0.494718,-0.70966 0.271119,-1.20057 z m -0.821399,-4.09524 c 0.02593,-0.13681 0.07533,-0.33458 0.109458,-0.44059 0.09247,-0.28861 -0.14777,-0.54345 -0.530252,-0.56222 l -0.333136,-0.0185 0.02355,0.46211 c 0.02979,0.58449 0.23794,0.98896 0.63164,1.22884 0.470562,0.28698 0.605896,0.23554 0.308848,-0.11677 -0.18243,-0.2169 -0.244025,-0.37924 -0.210396,-0.55456 z m -2.113069,0.38674 c -1.79324,-3.05772 -1.848617,0.38548 -0.04315,0.84812 0.501809,0.11314 0.507471,0 0.04315,-0.84812 z m -0.03903,11.51327 c -0.07549,0.0454 -0.08094,0.10213 -0.01667,0.166 0.05289,0.0529 0.147399,0.0638 0.209629,0.0257 0.07554,-0.0454 0.08102,-0.10217 0.01667,-0.166 -0.05292,-0.0529 -0.1474,-0.0639 -0.209629,-0.0257 z m -0.602615,-0.0344 c -0.225292,-0.26783 -0.613674,-0.6646 -0.863097,-0.88154 l -0.453337,-0.3942 -0.149198,0.28839 c -0.449475,0.8693 0.217064,1.84073 1.262776,1.84073 0.761736,0 0.79682,-0.14777 0.202856,-0.85338 z m -0.132212,-1.35678 c -0.245083,-0.062 -0.465164,-0.093 -0.489188,-0.0693 -0.102367,0.10216 0.283395,0.64232 0.497179,0.69578 0.303239,0.0766 0.437541,-0.0185 0.437541,-0.29116 0,-0.18569 -0.07591,-0.24282 -0.445532,-0.33605 z"
       id="path917-9-8-1-8-0-2-2-7"
       sodipodi:nodetypes="ssssssscsssssccsssssssssssssssscssssssscccsscssccsssscsssssssssssssscssssscscsssscssssssssssccsssssscssscsssscsccsssssssssssssssssscssccssssssscssssssssssssss"
       inkscape:export-xdpi="96"
       inkscape:export-ydpi="96" />
  </g>
</svg>
