<?xml version="1.0" encoding="UTF-8" standalone="no"?>
<svg
   xmlns:dc="http://purl.org/dc/elements/1.1/"
   xmlns:cc="http://creativecommons.org/ns#"
   xmlns:rdf="http://www.w3.org/1999/02/22-rdf-syntax-ns#"
   xmlns:svg="http://www.w3.org/2000/svg"
   xmlns="http://www.w3.org/2000/svg"
   xmlns:sodipodi="http://sodipodi.sourceforge.net/DTD/sodipodi-0.dtd"
   xmlns:inkscape="http://www.inkscape.org/namespaces/inkscape"
   width="34.701874mm"
   height="85.560867mm"
   viewBox="0 0 34.701875 85.56087"
   version="1.1"
   id="svg8"
   inkscape:version="1.0.2-2 (e86c870879, 2021-01-15)"
   sodipodi:docname="Look Up Light Sunny Gold.svg">
  <defs
     id="defs2">
    <clipPath
       clipPathUnits="userSpaceOnUse"
       id="clipPath3452-4-2">
      <g
         id="g3466-9-6"
         transform="translate(29.835028,29.013687)">
        <path
           id="path3454-1-3"
           style="fill:#00ff00;fill-opacity:1;stroke:none;stroke-width:0.291874;stroke-miterlimit:4;stroke-dasharray:none;stroke-opacity:1"
           d="m 2584.7491,684.18129 c 0,1.3e-4 -0.017,7.4e-4 -0.019,9e-4 a 2.6678842,2.6678842 0 0 0 -0.2313,0.0153 c -0.1276,0.007 -0.2646,0.0119 -0.3533,0.0228 l -0.021,0.002 c 0,-5.9e-4 0.017,-3.1e-4 0.017,-9.1e-4 -0.8927,0.12485 -1.6952,0.49834 -2.3432,1.09079 -0.1789,0.16312 -0.1852,0.16924 -0.3419,0.34452 -0.3284,0.36744 -0.5748,0.74829 -0.7733,1.19359 -0.041,0.0936 -0.075,0.17535 -0.075,0.18283 0,0.009 -0.021,0.0422 -0.027,0.0764 -0.065,0.14814 -0.1683,0.54144 -0.21,0.79719 -0.063,0.39016 -0.073,3.50682 -0.069,4.71721 v 0.68996 0.57127 0.4782 0.20478 0.22239 16.59329 l 4.4639,-4.01758 c 0,-9.64506 -0.017,-12.64631 -0.017,-17.85017 a 2.6678842,2.6678842 0 0 0 2.7079,-2.6201 v -0.005 a 2.6678842,2.6678842 0 0 0 -2.6236,-2.7106 2.6678842,2.6678842 0 0 0 -0.088,9.1e-4 z m -0.04,0.0625 a 2.6046012,2.6046012 0 0 1 0.085,0 2.6046012,2.6046012 0 0 1 2.5612,2.64643 v 0.005 a 2.6046012,2.6046012 0 0 1 -2.649,2.55768 2.6046012,2.6046012 0 0 1 -2.5595,-2.64824 2.6046012,2.6046012 0 0 1 2.5629,-2.56029 z" />
        <path
           style="fill:#00ff00;fill-opacity:1;stroke:none;stroke-width:0.01;stroke-linecap:butt;stroke-linejoin:miter;stroke-miterlimit:4;stroke-dasharray:none;stroke-opacity:1"
           d="m 2594.6707,714.26781 v 2.27467 h -0.1064 v -2.17247 h -10.047 v 2.18075 h -9.9485 v -2.27594 l 20.1025,-0.007"
           id="path3456-0-6"
           sodipodi:nodetypes="ccccccccc" />
        <path
           style="fill:#00ff00;fill-opacity:1;stroke:#dcce87;stroke-width:0.000625002;stroke-miterlimit:4;stroke-dasharray:none;stroke-opacity:1"
           d="m 2571.6725,717.91519 v -1.14102 h 12.8404 12.8406 v 1.14102 1.14102 h -12.8406 -12.8404 z m 13.0472,0 v -1.0418 h -6.4823 -6.4823 v 1.0418 1.04179 h 6.4823 6.4823 z"
           id="path3458-9-4" />
        <path
           sodipodi:nodetypes="cccccccccccccscccccccccccccccc"
           inkscape:connector-curvature="0"
           id="path3460-4-9"
           d="m 2594.6339,695.54511 c -0.017,-7.85371 -0.019,-7.93857 -0.1368,-8.79016 -0.152,-1.09474 -0.4431,-2.06077 -0.9259,-3.06489 -0.2952,-0.6141 -0.7704,-1.37243 -1.1832,-1.88799 -0.3806,-0.47509 -1.2311,-1.31432 -1.7556,-1.73221 -0.7561,-0.60251 -1.8939,-1.20296 -2.9117,-1.53664 -0.8721,-0.28597 -1.5561,-0.4236 -2.4713,-0.49735 -0.3942,-0.0318 -1.3331,0 -1.887,0.0647 -2.8897,0.33512 -5.4539,1.9235 -7.1042,4.40037 -0.7814,1.17245 -1.2612,2.35848 -1.5178,3.75143 -0.093,0.50406 -0.1351,0.9286 -0.1655,1.65448 0,15.78986 0.017,25.86136 0.017,26.11037 l 2.6568,0.003 -0.017,-12.70096 c -0.017,-6.98553 0,-13.00439 0.017,-13.37525 0.039,-1.33898 0.2442,-2.22847 0.7576,-3.27331 0.7179,-1.4612 1.9158,-2.67751 3.3351,-3.38609 0.7336,-0.36624 1.4103,-0.57423 2.3014,-0.7072 0.342,-0.0512 0.4587,-0.0566 1.0822,-0.0519 0.7149,0.005 0.9711,0.0307 1.508,0.14949 0.9929,0.21945 2.1402,0.75519 2.8892,1.349 0.3152,0.24993 0.8922,0.80689 1.1682,1.12762 0.6341,0.7372 1.1794,1.74723 1.4549,2.69602 0.1921,0.66119 0.2762,1.22296 0.3098,2.06783 0.017,0.32638 0.03,6.18196 0.041,13.38724 l 0.017,12.68138 c 0.7437,0 0.8653,0.002 2.5684,0.002 l -0.017,-4.27021 c 0,-3.70078 -0.017,-10.07739 -0.02,-14.17028 z"
           style="fill:#00ff00;fill-opacity:1;fill-rule:nonzero;stroke:none;stroke-width:0.0367788;stroke-linecap:square;stroke-linejoin:round;stroke-miterlimit:4;stroke-dasharray:none;stroke-dashoffset:0;stroke-opacity:1;paint-order:stroke fill markers" />
        <path
           style="fill:#00ff00;fill-opacity:1;fill-rule:nonzero;stroke:none;stroke-width:0.00919471;stroke-linecap:square;stroke-linejoin:round;stroke-miterlimit:4;stroke-dasharray:none;stroke-dashoffset:0;stroke-opacity:1;paint-order:stroke fill markers"
           d="m 2584.7751,707.62873 v 1.88183 4.45843 l 2.0703,0.0101 c 1.1387,0 4.9453,0.008 4.9451,0.005 -2.5556,-2.30911 -4.5456,-4.1216 -7.0154,-6.35546 z"
           id="path3462-5-9"
           inkscape:connector-curvature="0"
           sodipodi:nodetypes="cccccc" />
        <path
           style="fill:#00ff00;fill-opacity:1;fill-rule:nonzero;stroke:none;stroke-width:0.0367788;stroke-linecap:square;stroke-linejoin:round;stroke-miterlimit:4;stroke-dasharray:none;stroke-dashoffset:0;stroke-opacity:1;paint-order:stroke fill markers"
           d="m 2584.6901,680.88085 c -0.7365,4e-5 -1.0299,0.0275 -1.5778,0.14562 -1.0394,0.2238 -2.0392,0.69746 -2.8712,1.35969 -0.3258,0.25933 -0.8598,0.79368 -1.1272,1.12788 -0.2944,0.36802 -0.6084,0.85651 -0.817,1.27154 -0.2688,0.53453 -0.4002,0.88784 -0.5429,1.45813 -0.1217,0.48646 -0.1813,0.91671 -0.2112,1.52442 -0.017,0.34361 -0.022,4.75924 -0.017,13.27408 l 0.017,12.98866 2.4407,-2.40017 v -11.19457 c 0,-6.67119 0.017,-11.45114 0.025,-11.90295 0.019,-0.58389 0.035,-0.80896 0.073,-0.99303 0.1902,-0.92973 0.6086,-1.70916 1.2841,-2.39217 0.8387,-0.84804 1.8418,-1.29355 3.0703,-1.36386 1.022,-0.0584 1.9485,0.19887 2.8488,0.79075 0.388,0.2551 0.9772,0.84995 1.2541,1.2658 0.3297,0.49576 0.5959,1.1134 0.6995,1.62362 0.1132,0.55629 0.1368,3.03006 0.1368,14.37824 l 0.017,9.592 2.4142,2.19448 v -2.76837 c 0,-1.65636 -0.017,-7.52954 -0.02,-13.05189 -0.017,-10.3437 -0.017,-10.19172 -0.1098,-10.8448 -0.1821,-1.23644 -0.7204,-2.47072 -1.5001,-3.43881 -0.2323,-0.28833 -0.95,-0.99467 -1.2418,-1.22251 -0.418,-0.32642 -1.1672,-0.74787 -1.6984,-0.95512 -0.386,-0.15067 -0.9619,-0.31012 -1.4071,-0.38998 -0.4142,-0.0745 -0.4526,-0.0772 -1.1144,-0.0767 v 0 z"
           id="path3464-0-7"
           inkscape:connector-curvature="0"
           sodipodi:nodetypes="ccccccccccscccscscccccccccccccc" />
      </g>
    </clipPath>
  </defs>
  <sodipodi:namedview
     id="base"
     pagecolor="#ffffff"
     bordercolor="#666666"
     borderopacity="1.0"
     inkscape:pageopacity="0.0"
     inkscape:pageshadow="2"
     inkscape:zoom="0.35"
     inkscape:cx="129.0004"
     inkscape:cy="125.19854"
     inkscape:document-units="mm"
     inkscape:current-layer="layer1"
     inkscape:document-rotation="0"
     showgrid="false"
     inkscape:window-width="1540"
     inkscape:window-height="1041"
     inkscape:window-x="78"
     inkscape:window-y="0"
     inkscape:window-maximized="0" />
  <metadata
     id="metadata5">
    <rdf:RDF>
      <cc:Work
         rdf:about="">
        <dc:format>image/svg+xml</dc:format>
        <dc:type
           rdf:resource="http://purl.org/dc/dcmitype/StillImage" />
        <dc:title />
      </cc:Work>
    </rdf:RDF>
  </metadata>
  <g
     inkscape:label="Calque 1"
     inkscape:groupmode="layer"
     id="layer1"
     transform="translate(-71.70198,-115.04122)">
    <path
       style="fill:#dcce87;fill-opacity:1;stroke-width:0.249803"
       d="m 105.86378,124.516 c -0.3091,0 -2.2482,0.16997 -4.3091,0.37341 -4.5014,0.43954 -9.4062,0.47553 -12.4187,0.0891 -1.216,-0.15597 -2.2783,-0.21738 -2.361,-0.1324 -0.083,0.0855 0.1892,0.53702 0.6045,1.01008 1.2427,1.41524 2.3097,3.0866 2.3097,3.61791 0,0.5294 -1.0854,1.53443 -1.6575,1.53443 -0.4796,0 -0.4591,0.0477 0.6659,1.25724 1.4976,1.62272 1.6217,2.8172 0.3625,3.49128 -0.3413,0.17956 -0.618,0.39702 -0.6154,0.47688 0,0.0808 0.5648,0.47794 1.2489,0.88395 1.1854,0.70385 1.5569,1.13494 0.9781,1.13494 -0.1477,0 -1.13,-0.40171 -2.1858,-0.89048 -1.0558,-0.4897 -2.4752,-0.95769 -3.154,-1.03995 -0.9287,-0.11297 -1.4546,-0.35453 -2.1234,-0.97607 l -0.889,-0.82725 h 1.9599 c 2.3283,0 3.4111,-0.48543 3.4111,-1.50359 0,-1.20721 -0.5885,-1.67898 -2.2446,-1.79853 -0.9826,-0.0715 -1.7425,-0.28356 -2.1773,-0.60788 -1.162,-0.86778 -1.0149,-1.09289 0.7162,-1.09289 1.9044,0 3.2908,-0.59225 3.4131,-1.45625 0.08,-0.57197 -0.7669,-2.1115 -1.7735,-3.21861 -0.2765,-0.30242 -1.246,-0.79785 -2.1539,-1.09613 -2.3045,-0.75766 -3.4013,-1.3495 -4.6729,-2.52222 -1.0364,-0.95479 -1.4085,-1.69885 -0.8496,-1.69885 0.3213,0 1.2489,0.92364 1.2489,1.24421 0,0.13706 0.4391,0.46793 0.976,0.74253 1.2732,0.64954 3.0208,1.24793 3.0208,1.03474 0,-0.0951 -0.2254,-0.60883 -0.4998,-1.14763 -0.2743,-0.53899 -0.4992,-1.1899 -0.4992,-1.44594 0,-0.46807 1.0001,-1.58075 1.8556,-2.06147 0.4462,-0.25055 0.4439,-0.29775 -0.075,-1.47477 -0.2959,-0.66828 -0.4708,-1.28188 -0.3897,-1.36371 0.08,-0.0808 0.5265,0.29784 0.989,0.85092 1.4406,1.71012 2.2252,2.46682 3.4951,3.37161 1.5201,1.08247 2.2943,2.20404 2.5086,3.63394 0.1528,1.02058 0.228,1.11176 1.0597,1.26773 1.0895,0.2034 8.1599,-0.0762 9.9889,-0.39699 0.7265,-0.12774 1.666,-0.40187 2.0876,-0.61404 0.8076,-0.40174 1.3242,-0.2789 2.2743,0.55162 0.5934,0.51758 0.5493,0.80221 -0.1243,0.80868 z m -18.4679,-1.92523 c -0.5056,-0.38769 -1.1214,-1.06833 -1.3684,-1.51452 -0.5399,-0.97653 -0.7001,-1.00071 -1.2338,-0.18915 -0.3436,0.52419 -0.3607,0.74544 -0.1036,1.36321 0.3342,0.80596 1.0706,1.14114 3.276,1.48942 1.1339,0.17956 1.2541,0.16064 0.8369,-0.11763 -0.2679,-0.18448 -0.9003,-0.64571 -1.4061,-1.03234 z m 0.7542,-2.18995 c -0.2513,-0.55349 -1.209,-0.92603 -1.209,-0.4727 0,0.23163 1.2458,2.33261 1.3844,2.33261 0.2254,0 0.1088,-1.23786 -0.1762,-1.8618 z m 1.7862,59.48987 c -0.1217,0.29779 -0.5355,0.74495 -0.9208,0.98601 -0.3853,0.24097 -0.7488,0.47367 -0.8076,0.51709 -0.06,0.0479 0.1269,0.39707 0.4127,0.7813 1.4132,1.91214 1.4712,3.75598 0.1762,5.66193 -0.6195,0.91315 -0.6252,0.96046 -0.2461,2.07273 0.7267,2.13261 0.4472,5.16586 -0.5167,5.60452 -0.4876,0.22205 -0.7514,0.14639 -1.6025,-0.43962 -1.5862,-1.09939 -1.9894,-1.82879 -1.9894,-3.60034 0,-1.13823 0.1606,-1.84731 0.6242,-2.76334 0.785,-1.54904 0.7949,-1.99902 0.044,-1.99902 -0.7245,0 -1.424,0.74878 -2.2594,2.41824 -0.356,0.71139 -0.7617,1.36472 -0.9019,1.4511 -0.5496,0.34038 -0.184,1.06934 1.3178,2.6263 0.8612,0.89289 2.0601,2.24193 2.6638,2.99719 0.604,0.75595 1.7178,2.01746 2.4757,2.80355 0.7581,0.78661 1.3219,1.4861 1.2535,1.55507 -0.3205,0.3215 -2.1632,-1.37924 -4.7814,-4.41104 -3.9073,-4.52445 -3.6406,-4.32414 -5.6401,-4.23473 -1.521,0.0666 -1.7702,0 -2.8727,-0.72887 -1.6585,-1.10414 -3.8637,-3.1556 -4.3011,-4.00076 -0.1995,-0.38759 -0.3625,-1.21055 -0.3625,-1.83353 0,-0.88634 0.1503,-1.30186 0.6968,-1.91199 0.6288,-0.7038 0.8338,-0.77863 2.1021,-0.7629 1.7792,0.0479 4.285,1.15513 5.6662,2.5642 l 0.9771,0.99689 0.6384,-0.63853 c 0.8167,-0.81679 1.7469,-0.81868 3.2743,0 1.3548,0.72036 1.7093,0.59417 2.3,-0.82013 0.5771,-1.38018 0.044,-2.84131 -1.5087,-4.12031 -1.8194,-1.50128 -3.6671,-3.24594 -3.9047,-3.68789 -0.4365,-0.81309 0,-1.63555 1.1424,-2.13653 0.9999,-0.43966 1.102,-0.56484 1.1041,-1.35999 0,-1.38542 -0.3641,-2.29862 -1.3396,-3.32619 -0.4985,-0.52463 -0.9063,-1.1004 -0.9063,-1.27957 0,-0.17956 0.2383,-0.86221 0.5278,-1.51867 0.4656,-1.05268 0.4922,-1.31414 0.2254,-2.21747 -0.6074,-2.05706 -1.2207,-2.82993 -2.6009,-3.27802 -10.1026,-4.24706 -5.6761,-13.89257 0.542,-3.46286 1.3479,2.30812 1.5588,2.46268 3.2531,2.39181 1.4276,-0.0617 1.9632,-0.26001 1.3056,-0.49542 -0.7335,-0.25988 -2.9162,-2.55197 -3.4533,-3.62735 -0.6615,-1.32437 -0.7372,-3.20093 -0.1477,-3.68926 0.341,-0.28361 0.6374,-0.20806 1.9984,0.49625 0.8792,0.45382 1.5982,0.92888 1.5982,1.05128 0,0.12282 0.2124,0.22205 0.4708,0.22205 1.0986,0 2.3837,-3.60368 2.2337,-6.2625 -0.052,-0.9521 -0.06,-1.73153 -0.026,-1.73153 0.047,0 0.5283,0.35453 1.0698,0.79133 0.9665,0.77709 0.9846,0.82153 0.9846,2.43661 0,1.87615 -0.6413,4.36625 -1.5774,6.12464 -0.5291,0.99401 -0.6164,1.42368 -0.5048,2.4825 0.1115,1.04265 0.2928,1.42607 0.9839,2.06706 0.4666,0.4349 0.8485,0.89949 0.8485,1.03653 0,0.38765 -2.1881,0.8192 -4.4428,0.87444 -1.1261,0.0479 -2.0482,0.11297 -2.0497,0.18915 0,0.0762 0.2689,0.70291 0.6006,1.39021 0.5049,1.04749 0.7625,1.29799 1.5872,1.54517 1.9754,0.59184 4.3047,3.44211 4.3047,5.26764 0,1.50587 -1.3924,2.28354 -2.9353,1.63881 -0.7748,-0.32626 -0.8105,-0.31198 -0.7823,0.2078 0.075,1.41895 0.3863,1.90867 1.9244,3.03797 1.9824,1.45488 2.5962,2.67493 2.0404,4.05413 z m -2.3884,-3.2776 c -0.6272,-0.62726 -1.0457,-0.45853 -1.3693,0.54408 -0.1658,0.51525 -0.4094,1.07248 -0.5407,1.23848 -0.361,0.45377 0,0.82247 0.8042,0.82247 1.2507,0 1.9839,-1.72725 1.1058,-2.60503 z m -0.3972,-8.74926 c -0.5171,-1.13447 -1.9582,-0.76673 -1.9582,0.50051 0,0.82674 0.8578,2.61018 1.2558,2.61018 0.8667,0 1.2818,-1.83873 0.7024,-3.11069 z m -2.1282,-10.61082 c 0.067,-0.35448 0.1943,-0.8669 0.2837,-1.14157 0.241,-0.7478 -0.383,-1.40809 -1.374,-1.45672 l -0.8631,-0.0479 0.062,1.19734 c 0.078,1.51442 0.6164,2.5624 1.6365,3.18394 1.2193,0.74356 1.5699,0.61028 0.8004,-0.30256 -0.4729,-0.56199 -0.6325,-0.98261 -0.5452,-1.43687 z m -5.4751,1.00205 c -4.6462,-7.9226 -4.7897,0.99878 -0.1114,2.19749 1.3002,0.29315 1.3149,0 0.1114,-2.19749 z m -0.101,29.83103 c -0.197,0.11764 -0.2099,0.26462 -0.044,0.43011 0.1373,0.13707 0.3819,0.16531 0.5433,0.0666 0.1943,-0.11763 0.2099,-0.26472 0.044,-0.43011 -0.1373,-0.13706 -0.3819,-0.16556 -0.5433,-0.0666 z m -1.5614,-0.0891 c -0.5837,-0.69395 -1.5901,-1.72198 -2.2363,-2.28408 l -1.1745,-1.02138 -0.3866,0.74723 c -1.1646,2.25236 0.5625,4.76935 3.272,4.76935 1.9735,0 2.0645,-0.38287 0.5254,-2.21112 z m -0.3425,-3.51543 c -0.6351,-0.16064 -1.2054,-0.24097 -1.2675,-0.17956 -0.2651,0.2647 0.7343,1.66426 1.2882,1.80278 0.7856,0.19847 1.1336,-0.0479 1.1336,-0.7544 0,-0.48113 -0.1969,-0.62915 -1.1543,-0.87071 z"
       id="path17798"
       sodipodi:nodetypes="ssssssscsssssccsssssssssssssssscssssssscccsscssccsssscsssssssssssssscssssscscsssscssssssssssccsssssscssscsssscsccsssssssssssssssssscssccssssssscssssssssssssss"
       inkscape:export-xdpi="96"
       inkscape:export-ydpi="96" />
  </g>
</svg>
